<svg version="1.1" viewBox="0.0 0.0 1062.5144356955382 514.0472440944882" fill="none" stroke="none" stroke-linecap="square" stroke-miterlimit="10" xmlns:xlink="http://www.w3.org/1999/xlink" xmlns="http://www.w3.org/2000/svg"><clipPath id="p.0"><path d="m0 0l1062.5144 0l0 514.04724l-1062.5144 0l0 -514.04724z" clip-rule="nonzero"/></clipPath><g clip-path="url(#p.0)"><path fill="#000000" fill-opacity="0.0" d="m0 0l1062.5144 0l0 514.04724l-1062.5144 0z" fill-rule="evenodd"/><path fill="#cfe2f3" d="m379.90622 109.94902l0 0c2.2555847 -5.867958 8.841003 -8.796379 14.708954 -6.5408096l42.49826 16.335793l0 0c2.8179016 1.0831604 5.090088 3.2413635 6.316742 5.999832c1.226654 2.7584686 1.307251 5.8912354 0.22409058 8.709122l-16.335815 42.49826c-2.2555542 5.8679657 -8.840973 8.796387 -14.708954 6.5408173l-42.49826 -16.3358c-5.8679504 -2.2555695 -8.796387 -8.840988 -6.540802 -14.708954z" fill-rule="evenodd"/><path stroke="#000000" stroke-width="1.0" stroke-linejoin="round" stroke-linecap="butt" d="m379.90622 109.94902l0 0c2.2555847 -5.867958 8.841003 -8.796379 14.708954 -6.5408096l42.49826 16.335793l0 0c2.8179016 1.0831604 5.090088 3.2413635 6.316742 5.999832c1.226654 2.7584686 1.307251 5.8912354 0.22409058 8.709122l-16.335815 42.49826c-2.2555542 5.8679657 -8.840973 8.796387 -14.708954 6.5408173l-42.49826 -16.3358c-5.8679504 -2.2555695 -8.796387 -8.840988 -6.540802 -14.708954z" fill-rule="evenodd"/><path fill="#cfe2f3" d="m351.86676 182.92055l0 0c2.2555847 -5.8679657 8.841003 -8.796387 14.708954 -6.5408173l42.49826 16.335785l0 0c2.8179016 1.0831757 5.0901184 3.2413788 6.316742 5.999832c1.226654 2.7584686 1.307251 5.8912354 0.22409058 8.709137l-16.335785 42.49826c-2.2555847 5.8679504 -8.841003 8.796371 -14.708984 6.5408173l-42.49826 -16.3358c-5.8679504 -2.2555695 -8.796387 -8.841003 -6.540802 -14.708954z" fill-rule="evenodd"/><path stroke="#000000" stroke-width="1.0" stroke-linejoin="round" stroke-linecap="butt" d="m351.86676 182.92055l0 0c2.2555847 -5.8679657 8.841003 -8.796387 14.708954 -6.5408173l42.49826 16.335785l0 0c2.8179016 1.0831757 5.0901184 3.2413788 6.316742 5.999832c1.226654 2.7584686 1.307251 5.8912354 0.22409058 8.709137l-16.335785 42.49826c-2.2555847 5.8679504 -8.841003 8.796371 -14.708984 6.5408173l-42.49826 -16.3358c-5.8679504 -2.2555695 -8.796387 -8.841003 -6.540802 -14.708954z" fill-rule="evenodd"/><path fill="#000000" d="m357.25015 222.54195l0.9176941 0.26904297q-0.14349365 0.54748535 -0.044677734 0.98721313q0.104400635 0.42514038 0.50161743 0.82891846q0.4028015 0.38917542 1.0153503 0.6246338q0.53964233 0.20742798 1.0096741 0.20397949q0.47003174 -0.0034637451 0.7807312 -0.2020874q0.31069946 -0.19862366 0.43966675 -0.5340729q0.12893677 -0.33543396 0.020050049 -0.66186523q-0.09429932 -0.32081604 -0.47018433 -0.6494293q-0.24682617 -0.22880554 -1.1343079 -0.83776855q-0.8874817 -0.608963 -1.1971741 -0.9791107q-0.4095459 -0.45874023 -0.5206909 -0.9534302q-0.096588135 -0.48908997 0.09402466 -0.9849701q0.20742798 -0.5396271 0.69311523 -0.88861084q0.48565674 -0.3489685 1.1643677 -0.3726654q0.6932678 -0.018096924 1.407898 0.25660706q0.78759766 0.30273438 1.2846375 0.795105q0.51724243 0.48339844 0.647522 1.1026154q0.14483643 0.6248169 -0.06707764 1.2631683l-0.9322815 -0.2746582q0.18496704 -0.6989136 -0.10342407 -1.2115326q-0.28842163 -0.51260376 -1.1051636 -0.82655334q-0.86047363 -0.33076477 -1.377594 -0.16127014q-0.49694824 0.16052246 -0.67074585 0.6126404q-0.14575195 0.37921143 0.03604126 0.73365784q0.16723633 0.3488617 1.2185059 1.0542603q1.0512695 0.7054138 1.4013367 1.0575867q0.51504517 0.5327606 0.6385498 1.082428q0.12350464 0.5496521 -0.09515381 1.118454q-0.21862793 0.5688019 -0.7357178 0.9559326q-0.5114441 0.37254333 -1.2305298 0.41419983q-0.7190857 0.041641235 -1.477478 -0.24987793q-0.97717285 -0.37561035 -1.526947 -0.9049988q-0.5352173 -0.5237732 -0.69577026 -1.2383423q-0.1459961 -0.70895386 0.11413574 -1.4291992zm6.104248 4.9745026l2.7358093 -7.1172943l0.93341064 0.35879517l-1.1212158 2.916916l3.7044983 1.4239655l1.1212158 -2.9169312l0.94799805 0.3644104l-2.7358093 7.1172943l-0.94799805 -0.36439514l1.2894287 -3.3544617l-3.7044983 -1.4239655l-1.2894287 3.3544617l-0.93341064 -0.35879517zm7.314453 2.8115997l2.7358093 -7.1173096l0.93341064 0.35879517l-2.7357788 7.1173096l-0.93344116 -0.35879517zm2.6468506 1.0174103l2.7358093 -7.1173096l4.79834 1.8444214l-0.31954956 0.83132935l-3.8503418 -1.4800262l-0.85214233 2.2168732l3.3399048 1.2837982l-0.31958008 0.83132935l-3.3398743 -1.2838135l-1.2445679 3.237793l-0.94799805 -0.36439514zm7.8406067 3.0138245l2.4162598 -6.28598l-2.3481445 -0.9025879l0.31954956 -0.83132935l5.6442566 2.1695862l-0.31954956 0.8313141l-2.3627014 -0.90818787l-2.4162598 6.28598l-0.93341064 -0.35879517z" fill-rule="nonzero"/><path fill="#cfe2f3" d="m323.8273 255.89206l0 0c2.2555847 -5.8679657 8.841003 -8.796387 14.708954 -6.5408173l42.49829 16.3358l0 0c2.817871 1.0831604 5.090088 3.2413635 6.3167114 5.999817c1.226654 2.758484 1.307251 5.8912354 0.22409058 8.709137l-16.335785 42.49826c-2.2555847 5.8679504 -8.841003 8.796387 -14.708954 6.540802l-42.49829 -16.335785c-5.8679504 -2.2555542 -8.796356 -8.841003 -6.540802 -14.708954z" fill-rule="evenodd"/><path stroke="#000000" stroke-width="1.0" stroke-linejoin="round" stroke-linecap="butt" d="m323.8273 255.89206l0 0c2.2555847 -5.8679657 8.841003 -8.796387 14.708954 -6.5408173l42.49829 16.3358l0 0c2.817871 1.0831604 5.090088 3.2413635 6.3167114 5.999817c1.226654 2.758484 1.307251 5.8912354 0.22409058 8.709137l-16.335785 42.49826c-2.2555847 5.8679504 -8.841003 8.796387 -14.708954 6.540802l-42.49829 -16.335785c-5.8679504 -2.2555542 -8.796356 -8.841003 -6.540802 -14.708954z" fill-rule="evenodd"/><path fill="#cfe2f3" d="m450.5316 147.19685l0 0c2.2555847 -5.8679657 8.841003 -8.796387 14.708954 -6.5408173l42.49829 16.3358l0 0c2.817871 1.0831604 5.090088 3.2413635 6.3167114 5.999832c1.2266235 2.7584534 1.307251 5.89122 0.22406006 8.709122l-16.335754 42.49826c-2.2555847 5.8679657 -8.841003 8.796387 -14.708954 6.5408173l-42.49829 -16.3358c-5.8679504 -2.2555695 -8.796356 -8.840988 -6.540802 -14.708954z" fill-rule="evenodd"/><path stroke="#000000" stroke-width="1.0" stroke-linejoin="round" stroke-linecap="butt" d="m450.5316 147.19685l0 0c2.2555847 -5.8679657 8.841003 -8.796387 14.708954 -6.5408173l42.49829 16.3358l0 0c2.817871 1.0831604 5.090088 3.2413635 6.3167114 5.999832c1.2266235 2.7584534 1.307251 5.89122 0.22406006 8.709122l-16.335754 42.49826c-2.2555847 5.8679657 -8.841003 8.796387 -14.708954 6.5408173l-42.49829 -16.3358c-5.8679504 -2.2555695 -8.796356 -8.840988 -6.540802 -14.708954z" fill-rule="evenodd"/><path fill="#cfe2f3" d="m422.49216 220.16837l0 0c2.2555542 -5.8679504 8.840973 -8.796387 14.708954 -6.540802l42.49826 16.335785l0 0c2.817871 1.0831604 5.090088 3.2413635 6.3167114 5.999832c1.226654 2.7584686 1.307251 5.8912354 0.22409058 8.709122l-16.335785 42.49826c-2.2555847 5.867981 -8.841003 8.796387 -14.708954 6.5408325l-42.49826 -16.335815c-5.867981 -2.2555542 -8.796387 -8.840973 -6.5408325 -14.708954z" fill-rule="evenodd"/><path stroke="#000000" stroke-width="1.0" stroke-linejoin="round" stroke-linecap="butt" d="m422.49216 220.16837l0 0c2.2555542 -5.8679504 8.840973 -8.796387 14.708954 -6.540802l42.49826 16.335785l0 0c2.817871 1.0831604 5.090088 3.2413635 6.3167114 5.999832c1.226654 2.7584686 1.307251 5.8912354 0.22409058 8.709122l-16.335785 42.49826c-2.2555847 5.867981 -8.841003 8.796387 -14.708954 6.5408325l-42.49826 -16.335815c-5.867981 -2.2555542 -8.796387 -8.840973 -6.5408325 -14.708954z" fill-rule="evenodd"/><path fill="#cfe2f3" d="m394.4527 293.1399l0 0c2.2555542 -5.867981 8.840973 -8.796387 14.708954 -6.5408325l42.49826 16.335815l0 0c2.8179016 1.0831604 5.090088 3.2413635 6.3167114 5.999817c1.226654 2.758484 1.307251 5.8912354 0.22409058 8.709137l-16.335785 42.49826c-2.2555847 5.8679504 -8.841003 8.796387 -14.708954 6.540802l-42.49826 -16.335785c-5.867981 -2.2555847 -8.796387 -8.841003 -6.5408325 -14.708954z" fill-rule="evenodd"/><path stroke="#000000" stroke-width="1.0" stroke-linejoin="round" stroke-linecap="butt" d="m394.4527 293.1399l0 0c2.2555542 -5.867981 8.840973 -8.796387 14.708954 -6.5408325l42.49826 16.335815l0 0c2.8179016 1.0831604 5.090088 3.2413635 6.3167114 5.999817c1.226654 2.758484 1.307251 5.8912354 0.22409058 8.709137l-16.335785 42.49826c-2.2555847 5.8679504 -8.841003 8.796387 -14.708954 6.540802l-42.49826 -16.335785c-5.867981 -2.2555847 -8.796387 -8.841003 -6.5408325 -14.708954z" fill-rule="evenodd"/><path fill="#cfe2f3" d="m230.29265 57.21729l0 0c2.2555695 -5.867962 8.840988 -8.796383 14.708954 -6.5408134l42.498276 16.335793l0 0c2.817871 1.083168 5.090088 3.2413712 6.3167114 5.999832c1.226654 2.7584686 1.307251 5.8912354 0.22409058 8.709129l-16.335785 42.49826c-2.2555847 5.867958 -8.841003 8.796379 -14.708954 6.5408096l-42.498276 -16.335793c-5.8679657 -2.2555695 -8.796387 -8.840996 -6.5408173 -14.708954z" fill-rule="evenodd"/><path stroke="#000000" stroke-width="1.0" stroke-linejoin="round" stroke-linecap="butt" d="m230.29265 57.21729l0 0c2.2555695 -5.867962 8.840988 -8.796383 14.708954 -6.5408134l42.498276 16.335793l0 0c2.817871 1.083168 5.090088 3.2413712 6.3167114 5.999832c1.226654 2.7584686 1.307251 5.8912354 0.22409058 8.709129l-16.335785 42.49826c-2.2555847 5.867958 -8.841003 8.796379 -14.708954 6.5408096l-42.498276 -16.335793c-5.8679657 -2.2555695 -8.796387 -8.840996 -6.5408173 -14.708954z" fill-rule="evenodd"/><path fill="#cfe2f3" d="m202.25319 130.18881l0 0c2.2555695 -5.8679657 8.841003 -8.796387 14.708954 -6.5408173l42.498276 16.3358l0 0c2.817871 1.0831604 5.090088 3.2413635 6.3167114 5.999832c1.226654 2.7584534 1.307251 5.89122 0.22409058 8.709122l-16.335785 42.49826c-2.2555847 5.8679657 -8.841003 8.796387 -14.708969 6.5408173l-42.49826 -16.3358c-5.8679504 -2.2555695 -8.796387 -8.840988 -6.540802 -14.708954z" fill-rule="evenodd"/><path stroke="#000000" stroke-width="1.0" stroke-linejoin="round" stroke-linecap="butt" d="m202.25319 130.18881l0 0c2.2555695 -5.8679657 8.841003 -8.796387 14.708954 -6.5408173l42.498276 16.3358l0 0c2.817871 1.0831604 5.090088 3.2413635 6.3167114 5.999832c1.226654 2.7584534 1.307251 5.89122 0.22409058 8.709122l-16.335785 42.49826c-2.2555847 5.8679657 -8.841003 8.796387 -14.708969 6.5408173l-42.49826 -16.3358c-5.8679504 -2.2555695 -8.796387 -8.840988 -6.540802 -14.708954z" fill-rule="evenodd"/><path fill="#000000" d="m211.90453 174.07887l5.4631195 -6.0689545l1.0209198 0.39242554l0.18113708 8.238541l-1.0792694 -0.41485596l-0.0016174316 -2.4780731l-2.9752655 -1.1436615l-1.6026917 1.8614044l-1.0063324 -0.38682556zm3.177658 -2.1264648l2.4064636 0.9250183l0.018615723 -2.2694244q0.0065307617 -1.0186005 0.07034302 -1.6636658q-0.40933228 0.62942505 -0.9151459 1.2050171l-1.5802765 1.8030548zm4.2005463 4.962555l2.735794 -7.1173096l0.94799805 0.36439514l-2.4106445 6.271408l3.5003204 1.3454742l-0.3251648 0.8459015l-4.448303 -1.7098694zm6.645172 2.5543213l2.4162598 -6.28598l-2.3481293 -0.9025879l0.31954956 -0.83132935l5.6442566 2.1695862l-0.31954956 0.8313141l-2.3627167 -0.90818787l-2.4162445 6.28598l-0.9334259 -0.35879517z" fill-rule="nonzero"/><path fill="#cfe2f3" d="m174.21373 203.16032l0 0c2.2555695 -5.8679657 8.841003 -8.796387 14.708969 -6.5408173l42.49826 16.3358l0 0c2.8178864 1.0831604 5.090088 3.2413635 6.3167267 5.999832c1.2266388 2.7584686 1.307251 5.8912354 0.22407532 8.709122l-16.335785 42.498276c-2.2555695 5.8679504 -8.841003 8.796387 -14.708954 6.540802l-42.498276 -16.335785c-5.8679504 -2.2555847 -8.796371 -8.841003 -6.540802 -14.708969z" fill-rule="evenodd"/><path stroke="#000000" stroke-width="1.0" stroke-linejoin="round" stroke-linecap="butt" d="m174.21373 203.16032l0 0c2.2555695 -5.8679657 8.841003 -8.796387 14.708969 -6.5408173l42.49826 16.3358l0 0c2.8178864 1.0831604 5.090088 3.2413635 6.3167267 5.999832c1.2266388 2.7584686 1.307251 5.8912354 0.22407532 8.709122l-16.335785 42.498276c-2.2555695 5.8679504 -8.841003 8.796387 -14.708954 6.540802l-42.498276 -16.335785c-5.8679504 -2.2555847 -8.796371 -8.841003 -6.540802 -14.708969z" fill-rule="evenodd"/><path fill="#cfe2f3" d="m309.67908 71.66482l0 0c2.2555847 -5.8679657 8.841003 -8.796387 14.708954 -6.5408173l42.49826 16.3358l0 0c2.8179016 1.0831604 5.090088 3.2413635 6.316742 5.9998245c1.226654 2.7584686 1.307251 5.8912354 0.22409058 8.709129l-16.335815 42.49827c-2.2555542 5.8679504 -8.840973 8.796371 -14.708954 6.540802l-42.49826 -16.335785c-5.8679504 -2.255577 -8.796387 -8.840996 -6.540802 -14.7089615z" fill-rule="evenodd"/><path stroke="#000000" stroke-width="1.0" stroke-linejoin="round" stroke-linecap="butt" d="m309.67908 71.66482l0 0c2.2555847 -5.8679657 8.841003 -8.796387 14.708954 -6.5408173l42.49826 16.3358l0 0c2.8179016 1.0831604 5.090088 3.2413635 6.316742 5.9998245c1.226654 2.7584686 1.307251 5.8912354 0.22409058 8.709129l-16.335815 42.49827c-2.2555542 5.8679504 -8.840973 8.796371 -14.708954 6.540802l-42.49826 -16.335785c-5.8679504 -2.255577 -8.796387 -8.840996 -6.540802 -14.7089615z" fill-rule="evenodd"/><path fill="#cfe2f3" d="m281.63962 144.63634l0 0c2.2555847 -5.8679657 8.841003 -8.796387 14.708954 -6.5408173l42.49826 16.3358l0 0c2.8179016 1.0831604 5.0901184 3.2413635 6.316742 5.999832c1.226654 2.7584534 1.307251 5.89122 0.22409058 8.709122l-16.335815 42.49826c-2.2555542 5.8679657 -8.840973 8.796387 -14.708954 6.5408173l-42.49826 -16.3358c-5.8679504 -2.2555695 -8.796387 -8.840988 -6.540802 -14.708954z" fill-rule="evenodd"/><path stroke="#000000" stroke-width="1.0" stroke-linejoin="round" stroke-linecap="butt" d="m281.63962 144.63634l0 0c2.2555847 -5.8679657 8.841003 -8.796387 14.708954 -6.5408173l42.49826 16.3358l0 0c2.8179016 1.0831604 5.0901184 3.2413635 6.316742 5.999832c1.226654 2.7584534 1.307251 5.89122 0.22409058 8.709122l-16.335815 42.49826c-2.2555542 5.8679657 -8.840973 8.796387 -14.708954 6.5408173l-42.49826 -16.3358c-5.8679504 -2.2555695 -8.796387 -8.840988 -6.540802 -14.708954z" fill-rule="evenodd"/><path fill="#000000" d="m296.38437 187.28699l0.3251648 -0.8459015l3.0190125 1.1604614l-1.0147095 2.6398315q-0.91308594 0.28511047 -1.7634277 0.27630615q-0.8357544 -0.0032043457 -1.6087341 -0.3003235q-1.0500793 -0.40364075 -1.7424011 -1.1719513q-0.68670654 -0.7828827 -0.79907227 -1.7969666q-0.106781006 -1.0286865 0.29684448 -2.0787811q0.39804077 -1.0355072 1.1831665 -1.7715759q0.78512573 -0.73605347 1.77005 -0.85964966q0.9849243 -0.12359619 2.049591 0.28564453q0.77301025 0.2971344 1.2846375 0.79512024q0.53182983 0.4889984 0.70806885 1.0756683q0.19644165 0.57769775 0.111328125 1.3652191l-0.9501648 -0.09741211q0.04699707 -0.60128784 -0.06863403 -0.9972687q-0.11001587 -0.41056824 -0.49487305 -0.7593689q-0.36465454 -0.3577881 -0.9042969 -0.56521606q-0.64172363 -0.24665833 -1.2015076 -0.22747803q-0.5395813 0.010192871 -0.95462036 0.2189331q-0.40042114 0.21435547 -0.7066345 0.5318756q-0.5293884 0.5498047 -0.82650757 1.3227844q-0.36999512 0.96258545 -0.29580688 1.7276459q0.09439087 0.756073 0.59817505 1.3180084q0.50942993 0.54733276 1.2094727 0.81643677q0.61257935 0.23545837 1.2856445 0.22634888q0.6730957 -0.009109497 1.0858765 -0.16848755l0.5045471 -1.3126221l-2.1001892 -0.8072815zm10.743713 -0.84191895l0.94799805 0.3644104l-1.5809326 4.1128693q-0.40924072 1.0646667 -0.9038696 1.6110992q-0.48898315 0.53182983 -1.282074 0.6789398q-0.7785034 0.15272522 -1.7994385 -0.23970032q-1.0063477 -0.38682556 -1.5191345 -0.96894836q-0.49258423 -0.591095 -0.51742554 -1.3539276q-0.010223389 -0.7572174 0.42144775 -1.8802338l1.5809326 -4.1128693l0.93341064 0.35879517l-1.5809326 4.1128693q-0.35317993 0.9188385 -0.3463745 1.423645q0.0068359375 0.5048218 0.31991577 0.909729q0.33325195 0.39593506 0.9458008 0.63139343q1.0355225 0.3980255 1.6524353 0.09950256q0.637146 -0.30749512 1.1473083 -1.6347046l1.5809326 -4.1128693zm-0.059265137 8.146149l2.7358093 -7.1173096l0.93341064 0.35879517l-2.7357788 7.1173096l-0.93344116 -0.35879517z" fill-rule="nonzero"/><path fill="#cfe2f3" d="m253.60017 217.60785l0 0c2.2555695 -5.8679504 8.840988 -8.796371 14.708939 -6.540802l42.49829 16.335785l0 0c2.817871 1.0831604 5.090088 3.2413635 6.3167114 5.999832c1.226654 2.7584686 1.307251 5.8912354 0.22409058 8.709122l-16.335785 42.49826c-2.2555847 5.867981 -8.841003 8.796387 -14.708954 6.5408325l-42.498276 -16.335815c-5.8679657 -2.2555542 -8.796387 -8.840973 -6.5408173 -14.708954z" fill-rule="evenodd"/><path stroke="#000000" stroke-width="1.0" stroke-linejoin="round" stroke-linecap="butt" d="m253.60017 217.60785l0 0c2.2555695 -5.8679504 8.840988 -8.796371 14.708939 -6.540802l42.49829 16.335785l0 0c2.817871 1.0831604 5.090088 3.2413635 6.3167114 5.999832c1.226654 2.7584686 1.307251 5.8912354 0.22409058 8.709122l-16.335785 42.49826c-2.2555847 5.867981 -8.841003 8.796387 -14.708954 6.5408325l-42.498276 -16.335815c-5.8679657 -2.2555542 -8.796387 -8.840973 -6.5408173 -14.708954z" fill-rule="evenodd"/><path fill="#cfe2f3" d="m76.49765 15.367519l0 0c2.2555695 -5.867961 8.840996 -8.796383 14.7089615 -6.5408125l42.498253 16.335793l0 0c2.8179016 1.0831642 5.090103 3.2413673 6.316742 5.999832c1.2266388 2.758463 1.3072357 5.8912296 0.22407532 8.709124l-16.335793 42.498264c-2.2555695 5.867958 -8.840996 8.796379 -14.708954 6.5408096l-42.49826 -16.335793c-5.8679657 -2.2555695 -8.796387 -8.840992 -6.5408173 -14.708954z" fill-rule="evenodd"/><path stroke="#000000" stroke-width="1.0" stroke-linejoin="round" stroke-linecap="butt" d="m76.49765 15.367519l0 0c2.2555695 -5.867961 8.840996 -8.796383 14.7089615 -6.5408125l42.498253 16.335793l0 0c2.8179016 1.0831642 5.090103 3.2413673 6.316742 5.999832c1.2266388 2.758463 1.3072357 5.8912296 0.22407532 8.709124l-16.335793 42.498264c-2.2555695 5.867958 -8.840996 8.796379 -14.708954 6.5408096l-42.49826 -16.335793c-5.8679657 -2.2555695 -8.796387 -8.840992 -6.5408173 -14.708954z" fill-rule="evenodd"/><path fill="#cfe2f3" d="m48.4582 88.339035l0 0c2.2555695 -5.867958 8.840992 -8.796379 14.708954 -6.5408096l42.49826 16.335793l0 0c2.817894 1.083168 5.0900955 3.2413712 6.3167343 5.999832c1.2266388 2.7584686 1.3072433 5.8912277 0.22408295 8.709122l-16.335793 42.49826c-2.255577 5.8679657 -8.840996 8.796387 -14.7089615 6.5408173l-42.49826 -16.3358c-5.867962 -2.2555695 -8.796383 -8.840988 -6.5408134 -14.708954z" fill-rule="evenodd"/><path stroke="#000000" stroke-width="1.0" stroke-linejoin="round" stroke-linecap="butt" d="m48.4582 88.339035l0 0c2.2555695 -5.867958 8.840992 -8.796379 14.708954 -6.5408096l42.49826 16.335793l0 0c2.817894 1.083168 5.0900955 3.2413712 6.3167343 5.999832c1.2266388 2.7584686 1.3072433 5.8912277 0.22408295 8.709122l-16.335793 42.49826c-2.255577 5.8679657 -8.840996 8.796387 -14.7089615 6.5408173l-42.49826 -16.3358c-5.867962 -2.2555695 -8.796383 -8.840988 -6.5408134 -14.708954z" fill-rule="evenodd"/><path fill="#cfe2f3" d="m20.418741 161.31056l0 0c2.2555695 -5.8679657 8.840994 -8.796387 14.708956 -6.5408173l42.498264 16.3358l0 0c2.817894 1.0831604 5.090088 3.2413635 6.3167267 5.999817c1.2266464 2.7584686 1.307251 5.8912354 0.22408295 8.709137l-16.335793 42.49826c-2.2555695 5.8679657 -8.840996 8.796387 -14.708958 6.5408173l-42.49826 -16.3358c-5.867961 -2.2555695 -8.796383 -8.840988 -6.540813 -14.708954z" fill-rule="evenodd"/><path stroke="#000000" stroke-width="1.0" stroke-linejoin="round" stroke-linecap="butt" d="m20.418741 161.31056l0 0c2.2555695 -5.8679657 8.840994 -8.796387 14.708956 -6.5408173l42.498264 16.3358l0 0c2.817894 1.0831604 5.090088 3.2413635 6.3167267 5.999817c1.2266464 2.7584686 1.307251 5.8912354 0.22408295 8.709137l-16.335793 42.49826c-2.2555695 5.8679657 -8.840996 8.796387 -14.708958 6.5408173l-42.49826 -16.3358c-5.867961 -2.2555695 -8.796383 -8.840988 -6.540813 -14.708954z" fill-rule="evenodd"/><path fill="#cfe2f3" d="m150.50798 43.80614l0 0c2.2555695 -5.867962 8.840988 -8.796383 14.708954 -6.5408134l42.49826 16.335796l0 0c2.8179016 1.0831604 5.090103 3.2413635 6.316742 5.9998283c1.2266388 2.7584648 1.3072357 5.8912277 0.22407532 8.709122l-16.3358 42.49827c-2.2555695 5.867958 -8.840988 8.796379 -14.708954 6.5408096l-42.49826 -16.335793c-5.8679657 -2.2555695 -8.796387 -8.840996 -6.5408173 -14.708954z" fill-rule="evenodd"/><path stroke="#000000" stroke-width="1.0" stroke-linejoin="round" stroke-linecap="butt" d="m150.50798 43.80614l0 0c2.2555695 -5.867962 8.840988 -8.796383 14.708954 -6.5408134l42.49826 16.335796l0 0c2.8179016 1.0831604 5.090103 3.2413635 6.316742 5.9998283c1.2266388 2.7584648 1.3072357 5.8912277 0.22407532 8.709122l-16.3358 42.49827c-2.2555695 5.867958 -8.840988 8.796379 -14.708954 6.5408096l-42.49826 -16.335793c-5.8679657 -2.2555695 -8.796387 -8.840996 -6.5408173 -14.708954z" fill-rule="evenodd"/><path fill="#cfe2f3" d="m122.46853 116.77766l0 0c2.2555695 -5.867958 8.840996 -8.796379 14.708946 -6.5408096l42.498276 16.335793l0 0c2.8178864 1.0831604 5.090088 3.2413712 6.3167267 5.99984c1.2266388 2.7584534 1.3072357 5.89122 0.22407532 8.709122l-16.335785 42.49826c-2.2555695 5.8679657 -8.841003 8.796387 -14.708954 6.5408173l-42.49827 -16.3358c-5.8679657 -2.2555695 -8.796387 -8.840988 -6.5408173 -14.708954z" fill-rule="evenodd"/><path stroke="#000000" stroke-width="1.0" stroke-linejoin="round" stroke-linecap="butt" d="m122.46853 116.77766l0 0c2.2555695 -5.867958 8.840996 -8.796379 14.708946 -6.5408096l42.498276 16.335793l0 0c2.8178864 1.0831604 5.090088 3.2413712 6.3167267 5.99984c1.2266388 2.7584534 1.3072357 5.89122 0.22407532 8.709122l-16.335785 42.49826c-2.2555695 5.8679657 -8.841003 8.796387 -14.708954 6.5408173l-42.49827 -16.3358c-5.8679657 -2.2555695 -8.796387 -8.840988 -6.5408173 -14.708954z" fill-rule="evenodd"/><path fill="#000000" d="m134.70604 158.79935l0.8583069 0.59776306q-0.754776 1.0490417 -1.7632141 1.3644714q-0.98825073 0.30644226 -2.1112823 -0.12522888q-1.1521759 -0.44288635 -1.6874237 -1.1842957q-0.53526306 -0.7414093 -0.57247925 -1.7768402q-0.037231445 -1.0354156 0.35520935 -2.0563354q0.4260559 -1.1084442 1.1685638 -1.7771912q0.74250793 -0.6687317 1.6926575 -0.7889557q0.9557495 -0.1348114 1.8891754 0.22398376q1.0792542 0.41485596 1.595459 1.2493744q0.5218048 0.8199463 0.4176941 1.9182129l-1.0029297 -0.13441467q0.05479431 -0.88287354 -0.2919464 -1.4179077q-0.33216858 -0.5294342 -1.046814 -0.8041382q-0.81674194 -0.31393433 -1.5223236 -0.13319397q-0.70558167 0.18075562 -1.1822357 0.76756287q-0.47103882 0.5722046 -0.7401428 1.2722778q-0.34757996 0.9042511 -0.34854126 1.690628q0.004638672 0.7718048 0.42991638 1.320282q0.4252777 0.54849243 1.0815887 0.800766q0.78756714 0.30273438 1.5155792 0.06364441q0.73361206 -0.25367737 1.2651825 -1.0704651zm2.9575958 3.9993286l2.4162445 -6.28598l-2.3481293 -0.9025879l0.31954956 -0.83132935l5.6442566 2.1695862l-0.31954956 0.83132935l-2.3627014 -0.9082031l-2.4162598 6.28598l-0.93341064 -0.35879517zm4.2819366 1.645935l2.7358093 -7.1173096l3.1502838 1.2109222q0.94799805 0.3644104 1.3710022 0.74461365q0.4229889 0.3802185 0.52407837 0.98820496q0.121276855 0.59902954 -0.10298157 1.1824188q-0.29151917 0.75839233 -0.98921204 1.0928345q-0.6775055 0.3254547 -1.7690735 0.073272705q0.31192017 0.32077026 0.43424988 0.56866455q0.27719116 0.54177856 0.423172 1.2507324l0.49406433 2.4162903l-1.1813507 -0.45410156l-0.37617493 -1.8520355q-0.16169739 -0.7986908 -0.30986023 -1.2406616q-0.1335907 -0.4363556 -0.30189514 -0.6517029q-0.14813232 -0.22433472 -0.3500824 -0.3521881q-0.14361572 -0.10542297 -0.5082245 -0.24557495l-1.0938416 -0.42045593l-1.2165375 3.1648712l-0.9334259 -0.35879517zm2.4638977 -3.622818l2.0272675 0.7792511q0.64172363 0.24667358 1.0567932 0.25556946q0.41506958 0.008895874 0.7167969 -0.20993042q0.3017273 -0.21881104 0.4362793 -0.5688324q0.19621277 -0.5104675 -0.045074463 -0.9714813q-0.24127197 -0.4610138 -1.0288544 -0.76374817l-2.26062 -0.8689575l-0.9025879 2.3481293zm4.66098 6.3615265l2.735794 -7.1173096l0.94799805 0.36439514l-2.4106445 6.271393l3.5003204 1.3454895l-0.3251648 0.8459015l-4.448303 -1.7098694z" fill-rule="nonzero"/><path fill="#cfe2f3" d="m94.42907 189.74918l0 0c2.2555695 -5.8679657 8.840996 -8.796387 14.708954 -6.5408173l42.49827 16.3358l0 0c2.8178864 1.0831604 5.090088 3.2413635 6.3167267 5.999832c1.2266388 2.7584686 1.307251 5.8912354 0.22409058 8.709122l-16.3358 42.49826c-2.2555695 5.867981 -8.840988 8.796387 -14.708954 6.5408325l-42.49827 -16.335815c-5.867958 -2.2555695 -8.796379 -8.840988 -6.5408096 -14.708954z" fill-rule="evenodd"/><path stroke="#000000" stroke-width="1.0" stroke-linejoin="round" stroke-linecap="butt" d="m94.42907 189.74918l0 0c2.2555695 -5.8679657 8.840996 -8.796387 14.708954 -6.5408173l42.49827 16.3358l0 0c2.8178864 1.0831604 5.090088 3.2413635 6.3167267 5.999832c1.2266388 2.7584686 1.307251 5.8912354 0.22409058 8.709122l-16.3358 42.49826c-2.2555695 5.867981 -8.840988 8.796387 -14.708954 6.5408325l-42.49827 -16.335815c-5.867958 -2.2555695 -8.796379 -8.840988 -6.5408096 -14.708954z" fill-rule="evenodd"/><path fill="#cfe2f3" d="m255.18892 313.26212l0 0c2.2555695 -5.8679504 8.840988 -8.796387 14.708969 -6.540802l42.49826 16.335785l0 0c2.8179016 1.0831604 5.090088 3.2413635 6.3167114 5.999817c1.226654 2.758484 1.307251 5.8912354 0.22409058 8.709137l-16.335785 42.49826c-2.2555847 5.8679504 -8.841003 8.796387 -14.708954 6.540802l-42.498276 -16.335785c-5.8679504 -2.2555542 -8.796371 -8.841003 -6.540802 -14.708954z" fill-rule="evenodd"/><path stroke="#000000" stroke-width="1.0" stroke-linejoin="round" stroke-linecap="butt" d="m255.18892 313.26212l0 0c2.2555695 -5.8679504 8.840988 -8.796387 14.708969 -6.540802l42.49826 16.335785l0 0c2.8179016 1.0831604 5.090088 3.2413635 6.3167114 5.999817c1.226654 2.758484 1.307251 5.8912354 0.22409058 8.709137l-16.335785 42.49826c-2.2555847 5.8679504 -8.841003 8.796387 -14.708954 6.540802l-42.498276 -16.335785c-5.8679504 -2.2555542 -8.796371 -8.841003 -6.540802 -14.708954z" fill-rule="evenodd"/><path fill="#cfe2f3" d="m340.597 355.90213l0 0c3.470337 -5.2417297 10.532867 -6.6777344 15.774597 -3.2073975l37.96289 25.133606l0 0c2.5171509 1.6665039 4.269226 4.2647095 4.8707275 7.2230225c0.60150146 2.958313 0.0032043457 6.0343933 -1.6633301 8.551575l-25.133606 37.96286c-3.470337 5.2417297 -10.532837 6.677765 -15.774597 3.207428l-37.96286 -25.133606c-5.2417297 -3.470337 -6.6777344 -10.532867 -3.207428 -15.774597z" fill-rule="evenodd"/><path stroke="#000000" stroke-width="1.0" stroke-linejoin="round" stroke-linecap="butt" d="m340.597 355.90213l0 0c3.470337 -5.2417297 10.532867 -6.6777344 15.774597 -3.2073975l37.96289 25.133606l0 0c2.5171509 1.6665039 4.269226 4.2647095 4.8707275 7.2230225c0.60150146 2.958313 0.0032043457 6.0343933 -1.6633301 8.551575l-25.133606 37.96286c-3.470337 5.2417297 -10.532837 6.677765 -15.774597 3.207428l-37.96286 -25.133606c-5.2417297 -3.470337 -6.6777344 -10.532867 -3.207428 -15.774597z" fill-rule="evenodd"/><path fill="#00ff00" d="m433.90088 408.73074l0 0c5.3084106 -3.3659668 12.340393 -1.7912903 15.706329 3.5171204l24.377716 38.4458l0 0c1.616394 2.5491943 2.1539307 5.6361084 1.4943237 8.581604c-0.6595764 2.9455261 -2.4622498 5.508362 -5.011444 7.124756l-38.4458 24.377716c-5.308441 3.3659668 -12.340393 1.7912903 -15.70636 -3.5171204l-24.377716 -38.44583c-3.3659668 -5.3084106 -1.7912903 -12.340393 3.5171204 -15.706329z" fill-rule="evenodd"/><path stroke="#000000" stroke-width="1.0" stroke-linejoin="round" stroke-linecap="butt" d="m433.90088 408.73074l0 0c5.3084106 -3.3659668 12.340393 -1.7912903 15.706329 3.5171204l24.377716 38.4458l0 0c1.616394 2.5491943 2.1539307 5.6361084 1.4943237 8.581604c-0.6595764 2.9455261 -2.4622498 5.508362 -5.011444 7.124756l-38.4458 24.377716c-5.308441 3.3659668 -12.340393 1.7912903 -15.70636 -3.5171204l-24.377716 -38.44583c-3.3659668 -5.3084106 -1.7912903 -12.340393 3.5171204 -15.706329z" fill-rule="evenodd"/><path fill="#000000" d="m425.85666 439.3337l9.9496765 -6.3088684l-2.359558 -3.7212524l1.3327942 -0.8450928l5.664612 8.933594l-1.3327942 0.8450928l-2.359558 -3.721222l-9.9496765 6.3088684l-0.9454956 -1.4911194zm2.750122 4.337158l14.026886 -2.8257446l1.020813 1.6098938l-8.353943 11.772522l-1.0793762 -1.7022705l2.589386 -3.4734802l-2.995453 -4.724121l-4.204254 0.9266968l-1.0040588 -1.5834961zm6.6984253 0.32247925l2.4265137 3.8267822l2.3743591 -3.1706543q1.0904541 -1.431488 1.8336182 -2.2727356q-1.2243042 0.46176147 -2.535797 0.75683594l-4.098694 0.8597717zm0.70980835 11.360962l11.28244 -7.153961l2.6858826 4.2358704q0.8199768 1.2931824 0.97055054 2.2892761q0.15057373 0.99612427 -0.28588867 1.8833923q-0.42807007 0.9005127 -1.2066345 1.394165q-0.72576904 0.46020508 -1.6233826 0.4743042q-0.8760376 0.018951416 -1.7607727 -0.53015137q0.3407898 1.2085266 -0.033569336 2.2229614q-0.37435913 1.0144043 -1.3508301 1.633606q-0.79174805 0.50201416 -1.6954956 0.59402466q-0.88217163 0.096832275 -1.5696106 -0.1703186q-0.67904663 -0.2539673 -1.3455505 -0.86743164q-0.6533203 -0.6218262 -1.3394165 -1.7038879l-2.7277222 -4.3018494zm7.498993 -2.645813l1.5395813 2.4280396q0.6358948 1.0028992 1.0223999 1.3498535q0.53134155 0.45864868 1.1112976 0.4979248q0.57995605 0.03930664 1.1737671 -0.33721924q0.55422974 -0.35144043 0.80078125 -0.89630127q0.26812744 -0.54003906 0.10852051 -1.1418762q-0.15960693 -0.60183716 -0.9293823 -1.8158569l-1.4224243 -2.2433167l-3.404541 2.1587524zm-5.2123413 3.3050537l1.7738342 2.7975159q0.46020508 0.72576904 0.697052 0.982605q0.41870117 0.4560852 0.8473816 0.6652832q0.45025635 0.2140503 1.0015564 0.17901611q0.55133057 -0.035064697 1.0923462 -0.3781128q0.63339233 -0.40164185 0.8860779 -1.0243835q0.26104736 -0.6095581 0.07763672 -1.307312q-0.16186523 -0.6929321 -0.8479614 -1.7749939l-1.648346 -2.5995789l-3.8795776 2.459961z" fill-rule="nonzero"/><path fill="#000000" d="m412.3759 444.81458l6.439575 -4.083191l0.811615 1.2799988l-3.590332 4.4042053q-0.51272583 0.62112427 -0.7624817 0.92752075q0.42321777 -0.12036133 1.2600098 -0.31793213l5.452362 -1.292572l0.719574 1.1348572l-6.439575 4.083191l-0.5187683 -0.81814575l5.3970947 -3.4221802l-6.5852356 1.5483704l-0.48529053 -0.76535034l4.3096924 -5.3413696l-5.4894714 3.4807434l-0.5187683 -0.81814575zm6.854889 5.64624q1.2931824 -0.8199768 2.3652344 -0.5006714q0.9127197 0.27230835 1.456604 1.1300354q0.6107788 0.9633179 0.36227417 1.9719543q-0.24014282 1.0218201 -1.3485718 1.7246704q-0.89733887 0.5689697 -1.6008606 0.6265564q-0.68200684 0.06237793 -1.2986145 -0.26815796q-0.6034546 -0.33892822 -0.9967041 -0.95913696q-0.61917114 -0.97650146 -0.3838501 -1.9767761q0.25686646 -0.99542236 1.4444885 -1.7484741zm0.5104065 0.80493164q-0.89730835 0.5689697 -1.0949707 1.2493286q-0.19763184 0.6803894 0.17053223 1.2609863q0.37652588 0.59381104 1.06781 0.6920166q0.6996765 0.11138916 1.6233826 -0.47433472q0.85775757 -0.54385376 1.0553894 -1.2242126q0.20599365 -0.6671753 -0.17053223 -1.2609863q-0.36813354 -0.5805969 -1.06781 -0.6919861q-0.6864929 -0.119781494 -1.5838013 0.44918823zm2.4528503 9.032928l0.68618774 -0.4350891q-1.143158 -0.05218506 -1.7288818 -0.9758911q-0.26776123 -0.42227173 -0.33529663 -0.8789673q-0.06756592 -0.45669556 0.061157227 -0.7788391q0.12875366 -0.32217407 0.43484497 -0.6272583q0.19921875 -0.18182373 0.7138672 -0.5081482l2.8898926 -1.832428l0.5020447 0.79174805l-2.5863953 1.6399841q-0.62020874 0.3932495 -0.8194275 0.57507324q-0.2532959 0.27163696 -0.28744507 0.62631226q-0.012573242 0.35946655 0.20498657 0.7025757q0.22592163 0.35629272 0.5982666 0.564209q0.38555908 0.19955444 0.7775574 0.11752319q0.40039062 -0.068878174 0.99420166 -0.44540405l2.5072021 -1.5897522l0.5020447 0.79174805l-4.6713257 2.9620056l-0.44348145 -0.69940186zm2.43042 0.7400818l0.61242676 0.7032471q-0.43322754 0.3671875 -0.4914856 0.8296814q-0.058288574 0.46246338 0.28475952 1.0035095q0.3430481 0.5410156 0.7347412 0.6626892q0.3916626 0.121673584 0.6951599 -0.07077026q0.26391602 -0.16732788 0.27166748 -0.50527954q0.0051574707 -0.22528076 -0.24649048 -0.97229004q-0.32791138 -1.0131531 -0.38708496 -1.456665q-0.050842285 -0.43029785 0.117492676 -0.7775574q0.18154907 -0.35562134 0.5246277 -0.57315063q0.3034973 -0.19247437 0.65945435 -0.21466064q0.36917114 -0.030548096 0.6913147 0.09820557q0.24911499 0.10107422 0.54229736 0.3591919q0.31472778 0.26296997 0.5406494 0.6192627q0.35144043 0.55422974 0.4524536 1.0636902q0.10940552 0.52267456 -0.04220581 0.8963318q-0.13839722 0.3652649 -0.55841064 0.7241211l-0.59088135 -0.6984253q0.33602905 -0.28707886 0.36660767 -0.6765137q0.038970947 -0.3762207 -0.24551392 -0.8248596q-0.3514099 -0.55422974 -0.6867676 -0.6746216q-0.31381226 -0.11557007 -0.55133057 0.035064697q-0.15835571 0.10040283 -0.21853638 0.2680664q-0.06503296 0.1892395 -0.018676758 0.43737793q0.022521973 0.1522522 0.23233032 0.83325195q0.31115723 0.9867859 0.3751831 1.4087219q0.07723999 0.41357422 -0.082733154 0.77401733q-0.13842773 0.3652954 -0.54748535 0.6246643q-0.39587402 0.25100708 -0.902771 0.2394104q-0.48535156 -0.0067749023 -0.9594116 -0.31674194q-0.46084595 -0.31832886 -0.81225586 -0.8725281q-0.57736206 -0.91052246 -0.50909424 -1.619873q0.081451416 -0.7176819 0.7499695 -1.3265686zm5.1844482 7.942932l0.413208 0.8850708q-0.83807373 0.25390625 -1.568634 -0.022918701q-0.7221985 -0.26361084 -1.2409668 -1.0817566q-0.6442871 -1.0160828 -0.39578247 -2.0247192q0.25686646 -0.9954529 1.3917236 -1.7150269q1.1744385 -0.74468994 2.205902 -0.54766846q1.0447083 0.18865967 1.6555176 1.151947q0.5940552 0.93692017 0.3239746 1.9407043q-0.25686646 0.9954529 -1.4180908 1.731781q-0.065979004 0.041809082 -0.19793701 0.12548828l-2.2089539 -3.4837036q-0.7534485 0.53326416 -0.911499 1.1885071q-0.15805054 0.65527344 0.21008301 1.2359009q0.27612305 0.43545532 0.6929016 0.5967102q0.42999268 0.15289307 1.0485535 0.019683838zm-0.36834717 -3.4111938l1.6567078 2.6127625q0.54714966 -0.42092896 0.6916809 -0.8641052q0.20602417 -0.6671448 -0.17050171 -1.2609863q-0.3430786 -0.5410156 -0.9552002 -0.6894226q-0.5905762 -0.14355469 -1.2226868 0.20175171z" fill-rule="nonzero"/><path fill="#cfe2f3" d="m682.5189 106.4395l0 0c-2.2787476 -5.859268 -8.875977 -8.761833 -14.7352295 -6.4830704l-42.43524 16.503769l0 0c-2.8137207 1.0942993 -5.0775146 3.261528 -6.293335 6.0249176c-1.2157593 2.763382 -1.2840576 5.8965683 -0.1897583 8.710289l16.503784 42.435272c2.2787476 5.859253 8.875916 8.761826 14.735168 6.4830627l42.435303 -16.503769c5.859253 -2.2787628 8.761841 -8.875946 6.4830933 -14.735199z" fill-rule="evenodd"/><path stroke="#000000" stroke-width="1.0" stroke-linejoin="round" stroke-linecap="butt" d="m682.5189 106.4395l0 0c-2.2787476 -5.859268 -8.875977 -8.761833 -14.7352295 -6.4830704l-42.43524 16.503769l0 0c-2.8137207 1.0942993 -5.0775146 3.261528 -6.293335 6.0249176c-1.2157593 2.763382 -1.2840576 5.8965683 -0.1897583 8.710289l16.503784 42.435272c2.2787476 5.859253 8.875916 8.761826 14.735168 6.4830627l42.435303 -16.503769c5.859253 -2.2787628 8.761841 -8.875946 6.4830933 -14.735199z" fill-rule="evenodd"/><path fill="#cfe2f3" d="m710.85876 179.29486l0 0c-2.2787476 -5.859253 -8.875916 -8.761826 -14.735168 -6.4830627l-42.435303 16.503769l0 0c-2.8137207 1.0942993 -5.0774536 3.2615204 -6.293274 6.0249176c-1.2158203 2.763382 -1.2840576 5.8965607 -0.1897583 8.710281l16.503784 42.435272c2.2787476 5.859268 8.875916 8.761841 14.735168 6.483078l42.435303 -16.503784c5.859253 -2.2787628 8.76178 -8.875931 6.483032 -14.735199z" fill-rule="evenodd"/><path stroke="#000000" stroke-width="1.0" stroke-linejoin="round" stroke-linecap="butt" d="m710.85876 179.29486l0 0c-2.2787476 -5.859253 -8.875916 -8.761826 -14.735168 -6.4830627l-42.435303 16.503769l0 0c-2.8137207 1.0942993 -5.0774536 3.2615204 -6.293274 6.0249176c-1.2158203 2.763382 -1.2840576 5.8965607 -0.1897583 8.710281l16.503784 42.435272c2.2787476 5.859268 8.875916 8.761841 14.735168 6.483078l42.435303 -16.503784c5.859253 -2.2787628 8.76178 -8.875931 6.483032 -14.735199z" fill-rule="evenodd"/><path fill="#000000" d="m679.2821 213.82637l1.048523 -0.40777588q-0.19250488 1.9190216 -0.34539795 2.7329102q-0.14398193 0.79367065 -0.6828003 2.5120697l21.770874 -8.467041l0.5380249 1.3834381l-21.770813 8.467026q1.9845581 0.92144775 4.336487 3.175354l-1.0630493 0.4134369q-2.5266724 -1.2806396 -4.1900635 -1.8072815q-1.6633911 -0.5266266 -3.272522 -0.65522766l-0.237854 -0.61161804q0.9958496 -0.97410583 1.9189453 -2.5234222q0.92303467 -1.5493164 1.949646 -4.2118683z" fill-rule="nonzero"/><path fill="#cfe2f3" d="m739.19867 252.15024l0 0c-2.2787476 -5.859268 -8.875916 -8.761841 -14.7352295 -6.483078l-42.43524 16.503769l0 0c-2.8137207 1.0942993 -5.0775146 3.2615356 -6.293274 6.024933c-1.2158203 2.7633667 -1.2841187 5.8965454 -0.18981934 8.710266l16.503784 42.435272c2.2787476 5.8592834 8.875977 8.761841 14.7352295 6.4830933l42.43524 -16.503784c5.859253 -2.278778 8.761841 -8.875946 6.4830933 -14.735199z" fill-rule="evenodd"/><path stroke="#000000" stroke-width="1.0" stroke-linejoin="round" stroke-linecap="butt" d="m739.19867 252.15024l0 0c-2.2787476 -5.859268 -8.875916 -8.761841 -14.7352295 -6.483078l-42.43524 16.503769l0 0c-2.8137207 1.0942993 -5.0775146 3.2615356 -6.293274 6.024933c-1.2158203 2.7633667 -1.2841187 5.8965454 -0.18981934 8.710266l16.503784 42.435272c2.2787476 5.8592834 8.875977 8.761841 14.7352295 6.4830933l42.43524 -16.503784c5.859253 -2.278778 8.761841 -8.875946 6.4830933 -14.735199z" fill-rule="evenodd"/><path fill="#000000" d="m695.03375 279.7407l-6.106018 -8.371704l1.2669678 -0.49273682l3.8057861 5.5611877q0.59228516 0.87615967 1.1351318 1.7547607q-0.23382568 -1.6358337 -0.24597168 -1.8825989l-0.6757202 -6.9964905l1.4853516 -0.57769775l3.1747437 4.1972046q1.1804199 1.5694885 2.013794 3.0224915q-0.17077637 -0.9562683 -0.32128906 -2.2054138l-0.87713623 -6.566101l1.2523804 -0.48706055l1.0673828 10.331329l-1.1941528 0.464386l-4.7354126 -6.3564453q-0.5930176 -0.7920227 -0.7160034 -0.97891235q0.10357666 0.6973877 0.14807129 1.1997986l0.78900146 7.891266l-1.2669067 0.49273682zm10.538635 -4.0986633l-3.630371 -9.334503l1.1504517 -0.4474182l1.3026123 3.3493652q0.43847656 -1.2434998 1.6617432 -1.7192383q0.75720215 -0.29452515 1.4295044 -0.20391846q0.666687 0.07601929 1.1035767 0.5096741q0.44573975 0.4133911 0.83654785 1.4182129l1.6651001 4.2813416l-1.1504517 0.4474182l-1.6651001 -4.2813416q-0.3397827 -0.8737488 -0.8656616 -1.105133q-0.5169678 -0.2515869 -1.201416 0.014587402q-0.5097046 0.19824219 -0.8591919 0.6359253q-0.3494873 0.43771362 -0.3632202 0.96276855q-0.01373291 0.52505493 0.2977295 1.3259888l1.4385986 3.6988525l-1.1504517 0.4474182zm11.037964 -6.8075867l1.2507324 -0.31878662q0.11651611 1.1617432 -0.41418457 2.0387573q-0.5363159 0.8624573 -1.7158813 1.3211975q-1.4854126 0.57766724 -2.7159424 6.1035156E-5q-1.2160034 -0.5832825 -1.855957 -2.2288513q-0.66833496 -1.7183533 -0.15704346 -2.9901733q0.52020264 -1.2920227 1.9181519 -1.8357239q1.3543091 -0.5267334 2.5759888 0.071136475q1.2160034 0.5832825 1.8673096 2.257965q0.039611816 0.10192871 0.118896484 0.30578613l-5.0531616 1.965271q0.50323486 1.0784302 1.2888184 1.4602661q0.8001709 0.3761902 1.6593628 0.042022705q0.62615967 -0.24353027 0.9328003 -0.74835205q0.321167 -0.51052856 0.30010986 -1.3405762zm-4.4763794 -0.38824463l3.7716675 -1.4668579q-0.40698242 -0.8308716 -0.93530273 -1.1115723q-0.79364014 -0.44577026 -1.6674194 -0.10595703q-0.8009033 0.31149292 -1.1358032 1.0452881q-0.32037354 0.7281494 -0.03314209 1.6390991zm11.733032 -2.4339905l1.2507324 -0.31878662q0.11651611 1.1617737 -0.41418457 2.0387573q-0.53637695 0.8624573 -1.7158813 1.3211975q-1.4854126 0.57769775 -2.7159424 6.1035156E-5q-1.2160034 -0.5832825 -1.855957 -2.2288208q-0.66833496 -1.7183838 -0.15704346 -2.9902039q0.52020264 -1.2920227 1.9181519 -1.8357239q1.3543091 -0.5267029 2.5759888 0.071136475q1.2160034 0.5832825 1.8673096 2.257965q0.039611816 0.10192871 0.118896484 0.30581665l-5.0531616 1.9652405q0.50323486 1.0784302 1.2888184 1.4602661q0.8001709 0.3761902 1.6593628 0.042053223q0.62615967 -0.24353027 0.9328003 -0.74838257q0.321167 -0.51049805 0.30010986 -1.3405762zm-4.4763794 -0.3882141l3.7716675 -1.4668884q-0.40698242 -0.8308716 -0.93530273 -1.1115723q-0.79364014 -0.44577026 -1.6674194 -0.10595703q-0.8009033 0.31149292 -1.1358643 1.0453186q-0.3203125 0.7281189 -0.033081055 1.6390991zm7.9225464 1.5626831l-3.63031 -9.334503l1.1503906 -0.4474182l3.630371 9.334503l-1.1504517 0.4474182z" fill-rule="nonzero"/><path fill="#000000" d="m710.703 294.6037l1.0484619 -0.40777588q-0.19250488 1.9190369 -0.34539795 2.7329102q-0.14398193 0.79367065 -0.68273926 2.512085l21.770813 -8.467041l0.53808594 1.3834229l-21.770874 8.467041q1.9845581 0.92144775 4.336487 3.175354l-1.0630493 0.41342163q-2.5266113 -1.2806396 -4.1900024 -1.8072815q-1.6633911 -0.5266113 -3.272583 -0.6552124l-0.237854 -0.6116333q0.99591064 -0.9740906 1.9189453 -2.523407q0.9230957 -1.5493164 1.949707 -4.2118835z" fill-rule="nonzero"/><path fill="#cfe2f3" d="m612.0476 143.978l0 0c-2.2787476 -5.859253 -8.875916 -8.761826 -14.7352295 -6.4830627l-42.43524 16.503769l0 0c-2.8137207 1.0942993 -5.0775146 3.2615356 -6.293274 6.0249176c-1.2158203 2.763382 -1.2841187 5.896576 -0.18981934 8.710297l16.503784 42.435257c2.2787476 5.859268 8.875916 8.761841 14.7352295 6.483078l42.43524 -16.503769c5.859253 -2.2787628 8.761841 -8.875946 6.4830933 -14.735214z" fill-rule="evenodd"/><path stroke="#000000" stroke-width="1.0" stroke-linejoin="round" stroke-linecap="butt" d="m612.0476 143.978l0 0c-2.2787476 -5.859253 -8.875916 -8.761826 -14.7352295 -6.4830627l-42.43524 16.503769l0 0c-2.8137207 1.0942993 -5.0775146 3.2615356 -6.293274 6.0249176c-1.2158203 2.763382 -1.2841187 5.896576 -0.18981934 8.710297l16.503784 42.435257c2.2787476 5.859268 8.875916 8.761841 14.7352295 6.483078l42.43524 -16.503769c5.859253 -2.2787628 8.761841 -8.875946 6.4830933 -14.735214z" fill-rule="evenodd"/><path fill="#cfe2f3" d="m640.3875 216.83337l0 0c-2.2788086 -5.859268 -8.875977 -8.761841 -14.7352295 -6.4830627l-42.43524 16.503769l0 0c-2.8137207 1.0942993 -5.0775146 3.2615204 -6.293335 6.0249023c-1.2158203 2.7633972 -1.2840576 5.896576 -0.1897583 8.710297l16.503784 42.435257c2.2787476 5.8592834 8.875916 8.761841 14.735168 6.4830933l42.435303 -16.503784c5.859253 -2.2787476 8.761841 -8.875946 6.483032 -14.735199z" fill-rule="evenodd"/><path stroke="#000000" stroke-width="1.0" stroke-linejoin="round" stroke-linecap="butt" d="m640.3875 216.83337l0 0c-2.2788086 -5.859268 -8.875977 -8.761841 -14.7352295 -6.4830627l-42.43524 16.503769l0 0c-2.8137207 1.0942993 -5.0775146 3.2615204 -6.293335 6.0249023c-1.2158203 2.7633972 -1.2840576 5.896576 -0.1897583 8.710297l16.503784 42.435257c2.2787476 5.8592834 8.875916 8.761841 14.735168 6.4830933l42.435303 -16.503784c5.859253 -2.2787476 8.761841 -8.875946 6.483032 -14.735199z" fill-rule="evenodd"/><path fill="#cfe2f3" d="m668.72736 289.68875l0 0c-2.2787476 -5.8592834 -8.875916 -8.761841 -14.735168 -6.4830933l-42.435303 16.503784l0 0c-2.8137207 1.0942993 -5.0774536 3.2615356 -6.293274 6.0249023c-1.2158203 2.7633972 -1.2841187 5.896576 -0.1897583 8.710297l16.503723 42.435272c2.2788086 5.8592834 8.875977 8.761841 14.7352295 6.4830627l42.43524 -16.503754c5.859314 -2.278778 8.761841 -8.875946 6.4830933 -14.735199z" fill-rule="evenodd"/><path stroke="#000000" stroke-width="1.0" stroke-linejoin="round" stroke-linecap="butt" d="m668.72736 289.68875l0 0c-2.2787476 -5.8592834 -8.875916 -8.761841 -14.735168 -6.4830933l-42.435303 16.503784l0 0c-2.8137207 1.0942993 -5.0774536 3.2615356 -6.293274 6.0249023c-1.2158203 2.7633972 -1.2841187 5.896576 -0.1897583 8.710297l16.503723 42.435272c2.2788086 5.8592834 8.875977 8.761841 14.7352295 6.4830627l42.43524 -16.503754c5.859314 -2.278778 8.761841 -8.875946 6.4830933 -14.735199z" fill-rule="evenodd"/><path fill="#cfe2f3" d="m831.91394 53.091763l0 0c-2.2787476 -5.8592644 -8.875916 -8.761833 -14.735168 -6.4830704l-42.435303 16.503773l0 0c-2.8137207 1.0942993 -5.0774536 3.261528 -6.293274 6.02491c-1.2158203 2.7633896 -1.2841187 5.896576 -0.18981934 8.710289l16.503784 42.435272c2.2788086 5.859268 8.875977 8.761833 14.7352295 6.4830704l42.43524 -16.503769c5.859253 -2.2787628 8.761841 -8.875938 6.4830933 -14.735207z" fill-rule="evenodd"/><path stroke="#000000" stroke-width="1.0" stroke-linejoin="round" stroke-linecap="butt" d="m831.91394 53.091763l0 0c-2.2787476 -5.8592644 -8.875916 -8.761833 -14.735168 -6.4830704l-42.435303 16.503773l0 0c-2.8137207 1.0942993 -5.0774536 3.261528 -6.293274 6.02491c-1.2158203 2.7633896 -1.2841187 5.896576 -0.18981934 8.710289l16.503784 42.435272c2.2788086 5.859268 8.875977 8.761833 14.7352295 6.4830704l42.43524 -16.503769c5.859253 -2.2787628 8.761841 -8.875938 6.4830933 -14.735207z" fill-rule="evenodd"/><path fill="#cfe2f3" d="m860.25385 125.94713l0 0c-2.2788086 -5.8592606 -8.875977 -8.761833 -14.7352295 -6.4830627l-42.43524 16.503769l0 0c-2.8137207 1.0942993 -5.0775146 3.2615204 -6.293335 6.0249176c-1.2158203 2.763382 -1.2840576 5.8965607 -0.1897583 8.710281l16.503784 42.435272c2.2787476 5.859268 8.875916 8.761841 14.735168 6.483078l42.435303 -16.503784c5.859253 -2.2787628 8.761841 -8.875931 6.4830933 -14.735199z" fill-rule="evenodd"/><path stroke="#000000" stroke-width="1.0" stroke-linejoin="round" stroke-linecap="butt" d="m860.25385 125.94713l0 0c-2.2788086 -5.8592606 -8.875977 -8.761833 -14.7352295 -6.4830627l-42.43524 16.503769l0 0c-2.8137207 1.0942993 -5.0775146 3.2615204 -6.293335 6.0249176c-1.2158203 2.763382 -1.2840576 5.8965607 -0.1897583 8.710281l16.503784 42.435272c2.2787476 5.859268 8.875916 8.761841 14.735168 6.483078l42.435303 -16.503784c5.859253 -2.2787628 8.761841 -8.875931 6.4830933 -14.735199z" fill-rule="evenodd"/><path fill="#000000" d="m830.7701 158.87671q1.272522 -2.590561 1.7910767 -4.317856q0.5185547 -1.7272949 0.5751343 -3.0905151l0.6262207 -0.24353027q1.1618042 1.0905457 2.6795654 1.9756012q1.512085 0.87046814 4.16333 1.8679504l0.40777588 1.0484924q-3.2507324 -0.21107483 -5.270874 -1.0516205l7.8270264 20.12529l-1.3834229 0.53804016l-7.8270264 -20.12529q-0.90283203 1.5582275 -1.3995972 2.2208252q-0.48217773 0.6569519 -1.7871094 2.0865479l-0.4020996 -1.0339355z" fill-rule="nonzero"/><path fill="#cfe2f3" d="m888.5937 198.8025l0 0c-2.2787476 -5.859268 -8.875916 -8.761841 -14.735168 -6.483078l-42.435303 16.503769l0 0c-2.8137207 1.0943146 -5.0774536 3.2615356 -6.293274 6.0249176c-1.2158203 2.763382 -1.2840576 5.896576 -0.1897583 8.710297l16.503723 42.435272c2.2788086 5.859253 8.875977 8.761841 14.7352295 6.4830627l42.435303 -16.503769c5.859253 -2.2787628 8.76178 -8.875946 6.483032 -14.735199z" fill-rule="evenodd"/><path stroke="#000000" stroke-width="1.0" stroke-linejoin="round" stroke-linecap="butt" d="m888.5937 198.8025l0 0c-2.2787476 -5.859268 -8.875916 -8.761841 -14.735168 -6.483078l-42.435303 16.503769l0 0c-2.8137207 1.0943146 -5.0774536 3.2615356 -6.293274 6.0249176c-1.2158203 2.763382 -1.2840576 5.896576 -0.1897583 8.710297l16.503723 42.435272c2.2788086 5.859253 8.875977 8.761841 14.7352295 6.4830627l42.435303 -16.503769c5.859253 -2.2787628 8.76178 -8.875946 6.483032 -14.735199z" fill-rule="evenodd"/><path fill="#000000" d="m844.4288 226.39296l-6.105957 -8.371704l1.2669067 -0.49273682l3.8058472 5.5611877q0.5922241 0.8761749 1.1350708 1.7547607q-0.23382568 -1.635849 -0.24597168 -1.8825989l-0.6757202 -6.9964905l1.4854126 -0.5776825l3.1747437 4.197174q1.1803589 1.5694885 2.013733 3.0224915q-0.17071533 -0.9562683 -0.32122803 -2.2054138l-0.87719727 -6.5660706l1.2523804 -0.4870758l1.0673828 10.331314l-1.1941528 0.4644165l-4.7354126 -6.3564606q-0.5930176 -0.7920227 -0.7160034 -0.97891235q0.10357666 0.6973877 0.14807129 1.1997986l0.78900146 7.891281l-1.2669067 0.49272156zm10.538635 -4.098648l-3.63031 -9.334518l1.1503906 -0.44743347l1.3026123 3.3493652q0.43847656 -1.2434998 1.6617432 -1.7192383q0.7572632 -0.29449463 1.4295654 -0.2039032q0.666626 0.076034546 1.1035156 0.5096588q0.44580078 0.41340637 0.83654785 1.4182129l1.6651001 4.281357l-1.1504517 0.4474182l-1.6650391 -4.2813416q-0.33984375 -0.8737488 -0.86572266 -1.1051178q-0.5169678 -0.25160217 -1.201416 0.014587402q-0.50964355 0.19822693 -0.8591919 0.63591003q-0.3494873 0.43769836 -0.3632202 0.96276855q-0.01373291 0.52505493 0.29779053 1.3259888l1.4385376 3.6988678l-1.1504517 0.4474182zm11.037964 -6.807617l1.2507935 -0.31878662q0.11651611 1.1617737 -0.41418457 2.0387726q-0.53637695 0.862442 -1.7159424 1.3211975q-1.4853516 0.5776825 -2.7159424 6.1035156E-5q-1.2159424 -0.5832825 -1.855957 -2.228836q-0.6682739 -1.7183685 -0.15704346 -2.9901886q0.52020264 -1.2920227 1.9182129 -1.8357391q1.3543091 -0.5267029 2.5759277 0.071136475q1.2160034 0.5832825 1.8673096 2.257965q0.03967285 0.10194397 0.11895752 0.30581665l-5.0531616 1.9652557q0.50323486 1.0784302 1.2888184 1.4602661q0.80010986 0.3761902 1.6593018 0.042037964q0.62615967 -0.24353027 0.9328003 -0.74838257q0.321167 -0.51049805 0.30010986 -1.3405762zm-4.4763794 -0.38822937l3.7716675 -1.4668579q-0.40698242 -0.8308716 -0.9352417 -1.1115875q-0.7937012 -0.445755 -1.6674194 -0.10594177q-0.80096436 0.31149292 -1.1358643 1.0452881q-0.32037354 0.7281494 -0.03314209 1.6390991zm11.733032 -2.4339905l1.2507324 -0.31878662q0.11657715 1.1617584 -0.41412354 2.0387726q-0.53637695 0.862442 -1.7159424 1.3211823q-1.4853516 0.5776825 -2.7159424 6.1035156E-5q-1.2160034 -0.5832825 -1.855957 -2.228836q-0.6682739 -1.7183685 -0.15704346 -2.9901733q0.52020264 -1.292038 1.9182129 -1.8357391q1.3543091 -0.52671814 2.5759277 0.071136475q1.2160034 0.5832825 1.8673096 2.257965q0.039611816 0.10192871 0.11895752 0.3058014l-5.0532227 1.9652557q0.5032959 1.0784302 1.2888794 1.4602814q0.80010986 0.37617493 1.6593018 0.042022705q0.62615967 -0.24353027 0.9328003 -0.7483673q0.321167 -0.5105133 0.30010986 -1.3405762zm-4.4763794 -0.38822937l3.7716675 -1.4668732q-0.40698242 -0.8308563 -0.9352417 -1.1115875q-0.7937012 -0.445755 -1.6674194 -0.10594177q-0.80096436 0.31150818 -1.1358643 1.0453033q-0.32037354 0.72813416 -0.03314209 1.6390991zm7.9226074 1.5627136l-3.630371 -9.334534l1.1504517 -0.4474182l3.63031 9.334518l-1.1503906 0.44743347z" fill-rule="nonzero"/><path fill="#000000" d="m862.1909 239.65404q1.272583 -2.5905457 1.7911377 -4.3178406q0.5185547 -1.7272949 0.5751343 -3.0905151l0.62615967 -0.24353027q1.1618042 1.0905457 2.6795654 1.9755859q1.512085 0.8704834 4.16333 1.8679504l0.40777588 1.0485077q-3.2506714 -0.21109009 -5.270874 -1.0516205l7.8270874 20.12529l-1.3834229 0.5380249l-7.8270874 -20.125275q-0.90283203 1.5582123 -1.3995361 2.2208252q-0.48217773 0.65693665 -1.7871094 2.0865326l-0.40216064 -1.0339355z" fill-rule="nonzero"/><path fill="#cfe2f3" d="m752.5877 67.86626l0 0c-2.2787476 -5.8592606 -8.875916 -8.761829 -14.735168 -6.4830666l-42.435303 16.503773l0 0c-2.8137207 1.0942993 -5.0774536 3.261528 -6.293274 6.02491c-1.2158203 2.7633896 -1.2841187 5.896576 -0.18981934 8.710289l16.503784 42.435272c2.2787476 5.859268 8.875977 8.761841 14.7352295 6.483078l42.43524 -16.503777c5.859253 -2.2787628 8.761841 -8.875938 6.4830933 -14.735207z" fill-rule="evenodd"/><path stroke="#000000" stroke-width="1.0" stroke-linejoin="round" stroke-linecap="butt" d="m752.5877 67.86626l0 0c-2.2787476 -5.8592606 -8.875916 -8.761829 -14.735168 -6.4830666l-42.435303 16.503773l0 0c-2.8137207 1.0942993 -5.0774536 3.261528 -6.293274 6.02491c-1.2158203 2.7633896 -1.2841187 5.896576 -0.18981934 8.710289l16.503784 42.435272c2.2787476 5.859268 8.875977 8.761841 14.7352295 6.483078l42.43524 -16.503777c5.859253 -2.2787628 8.761841 -8.875938 6.4830933 -14.735207z" fill-rule="evenodd"/><path fill="#cfe2f3" d="m780.9276 140.72163l0 0c-2.2788086 -5.859268 -8.875977 -8.761841 -14.7352295 -6.483078l-42.43524 16.503769l0 0c-2.8137207 1.0943146 -5.0775146 3.2615356 -6.293335 6.0249176c-1.2158203 2.7633972 -1.2840576 5.896576 -0.1897583 8.710297l16.503784 42.435272c2.2787476 5.859253 8.875916 8.761826 14.735168 6.4830627l42.435303 -16.503769c5.859253 -2.2787628 8.761841 -8.875946 6.483032 -14.735199z" fill-rule="evenodd"/><path stroke="#000000" stroke-width="1.0" stroke-linejoin="round" stroke-linecap="butt" d="m780.9276 140.72163l0 0c-2.2788086 -5.859268 -8.875977 -8.761841 -14.7352295 -6.483078l-42.43524 16.503769l0 0c-2.8137207 1.0943146 -5.0775146 3.2615356 -6.293335 6.0249176c-1.2158203 2.7633972 -1.2840576 5.896576 -0.1897583 8.710297l16.503784 42.435272c2.2787476 5.859253 8.875916 8.761826 14.735168 6.4830627l42.435303 -16.503769c5.859253 -2.2787628 8.761841 -8.875946 6.483032 -14.735199z" fill-rule="evenodd"/><path fill="#000000" d="m756.44476 186.50984l-0.4020996 -1.0339355q1.9425049 0.16661072 2.7418213 0.3251648q0.7993164 0.15855408 2.5177002 0.69732666l-7.8270264 -20.12529l1.3834229 -0.53804016l7.8270264 20.12529q0.92144775 -1.9845734 3.175354 -4.336487l0.40777588 1.0484924q-1.2806396 2.5266418 -1.807251 4.1900177q-0.52667236 1.6633759 -0.64068604 3.2668915l-0.62615967 0.24353027q-0.96276855 -0.96676636 -2.512085 -1.8898468q-1.5493164 -0.9230652 -4.237793 -1.973114z" fill-rule="nonzero"/><path fill="#cfe2f3" d="m809.26746 213.577l0 0c-2.2787476 -5.859268 -8.875916 -8.761826 -14.735168 -6.4830627l-42.435303 16.503769l0 0c-2.8137207 1.0942993 -5.0774536 3.2615204 -6.293274 6.0249176c-1.2158203 2.763382 -1.2840576 5.8965607 -0.1897583 8.710281l16.503723 42.435287c2.2788086 5.859253 8.875977 8.76181 14.7352295 6.4830627l42.43524 -16.503784c5.859314 -2.2787476 8.761841 -8.875946 6.4830933 -14.735199z" fill-rule="evenodd"/><path stroke="#000000" stroke-width="1.0" stroke-linejoin="round" stroke-linecap="butt" d="m809.26746 213.577l0 0c-2.2787476 -5.859268 -8.875916 -8.761826 -14.735168 -6.4830627l-42.435303 16.503769l0 0c-2.8137207 1.0942993 -5.0774536 3.2615204 -6.293274 6.0249176c-1.2158203 2.763382 -1.2840576 5.8965607 -0.1897583 8.710281l16.503723 42.435287c2.2788086 5.859253 8.875977 8.76181 14.7352295 6.4830627l42.43524 -16.503784c5.859314 -2.2787476 8.761841 -8.875946 6.4830933 -14.735199z" fill-rule="evenodd"/><path fill="#000000" d="m765.10254 241.16747l-6.105957 -8.371719l1.2669067 -0.49273682l3.8058472 5.561203q0.5922241 0.87615967 1.1350708 1.7547607q-0.23382568 -1.6358643 -0.24597168 -1.8826141l-0.6757202 -6.9964905l1.4854126 -0.5776825l3.1747437 4.1971893q1.1803589 1.5694885 2.013733 3.0224915q-0.17071533 -0.9562683 -0.32122803 -2.2054138l-0.87719727 -6.566086l1.2523804 -0.48706055l1.0673828 10.331299l-1.1941528 0.4644165l-4.7354126 -6.3564453q-0.5930176 -0.7920227 -0.7160034 -0.97891235q0.10357666 0.6973877 0.14807129 1.1997833l0.78900146 7.891281l-1.2669067 0.49273682zm10.538635 -4.0986633l-3.63031 -9.334518l1.1503906 -0.4474182l1.3026123 3.34935q0.43847656 -1.2434845 1.6617432 -1.719223q0.7572632 -0.2945099 1.4295654 -0.20391846q0.666626 0.076034546 1.1035156 0.5096741q0.44580078 0.41340637 0.83654785 1.4182129l1.6651001 4.281357l-1.1504517 0.4474182l-1.6650391 -4.281357q-0.33984375 -0.8737488 -0.86572266 -1.1051178q-0.5169678 -0.25160217 -1.201416 0.014587402q-0.50964355 0.19822693 -0.8591919 0.6359253q-0.3494873 0.43769836 -0.3632202 0.9627533q-0.01373291 0.5250702 0.29779053 1.326004l1.4385376 3.6988525l-1.1504517 0.4474182zm11.037964 -6.807602l1.2507935 -0.31878662q0.11651611 1.1617584 -0.41418457 2.0387726q-0.53637695 0.862442 -1.7159424 1.3211823q-1.4853516 0.5776825 -2.7159424 6.1035156E-5q-1.2159424 -0.5832825 -1.855957 -2.228836q-0.6682739 -1.7183685 -0.15704346 -2.9901733q0.52020264 -1.292038 1.9182129 -1.8357391q1.3543091 -0.52671814 2.5759277 0.071136475q1.2160034 0.5832825 1.8673096 2.257965q0.03967285 0.10192871 0.11895752 0.3058014l-5.0531616 1.9652557q0.50323486 1.0784302 1.2888184 1.4602814q0.80010986 0.37617493 1.6593018 0.042022705q0.62615967 -0.24353027 0.9328003 -0.7483673q0.321167 -0.5105133 0.30010986 -1.3405762zm-4.4763794 -0.38822937l3.7716675 -1.4668579q-0.40698242 -0.8308716 -0.9352417 -1.1115875q-0.7937012 -0.44577026 -1.6674194 -0.10595703q-0.80096436 0.31150818 -1.1358643 1.0453033q-0.32037354 0.72813416 -0.03314209 1.6390991zm11.733032 -2.4340057l1.2507324 -0.31878662q0.11657715 1.1617737 -0.41412354 2.0387726q-0.53637695 0.862442 -1.7159424 1.3211975q-1.4853516 0.5776825 -2.7159424 6.1035156E-5q-1.2160034 -0.5832825 -1.855957 -2.228836q-0.66833496 -1.7183685 -0.15704346 -2.9901886q0.52020264 -1.292038 1.9182129 -1.8357391q1.3543091 -0.5267029 2.5759277 0.071136475q1.2160034 0.5832825 1.8673096 2.257965q0.039611816 0.10194397 0.11895752 0.30581665l-5.0532227 1.9652557q0.5032959 1.0784302 1.2888794 1.4602661q0.80010986 0.3761902 1.6593018 0.042037964q0.62615967 -0.24353027 0.9328003 -0.74838257q0.321167 -0.51049805 0.30010986 -1.3405762zm-4.4763794 -0.38822937l3.7716675 -1.4668579q-0.40698242 -0.8308716 -0.9352417 -1.1115875q-0.7937012 -0.445755 -1.6674194 -0.10594177q-0.80096436 0.31149292 -1.1358643 1.0452881q-0.32037354 0.7281494 -0.03314209 1.6390991zm7.9226074 1.5627136l-3.630371 -9.334518l1.1504517 -0.4474182l3.63031 9.334518l-1.1503906 0.4474182z" fill-rule="nonzero"/><path fill="#000000" d="m787.86566 267.28717l-0.40216064 -1.0339355q1.9425049 0.16662598 2.7418213 0.3251648q0.79937744 0.15853882 2.5177612 0.69732666l-7.8270874 -20.12529l1.3834229 -0.53804016l7.8270874 20.125305q0.92144775 -1.9845886 3.175354 -4.336487l0.40777588 1.0484924q-1.2806396 2.5266418 -1.807312 4.1900024q-0.5266113 1.6633911 -0.640625 3.2669067l-0.6262207 0.24353027q-0.96276855 -0.96676636 -2.512085 -1.8898621q-1.5493164 -0.9230652 -4.237732 -1.973114z" fill-rule="nonzero"/><path fill="#cfe2f3" d="m985.5352 10.608669l0 0c-2.2787476 -5.859264 -8.875977 -8.761833 -14.7352295 -6.483069l-42.43524 16.50377l0 0c-2.8137207 1.0943012 -5.0775146 3.261528 -6.293335 6.024914c-1.2157593 2.7633877 -1.2840576 5.896572 -0.1897583 8.710289l16.503784 42.43527c2.2787476 5.859268 8.875916 8.761833 14.735168 6.4830704l42.435303 -16.503769c5.859253 -2.2787628 8.761841 -8.875938 6.4830933 -14.735203z" fill-rule="evenodd"/><path stroke="#000000" stroke-width="1.0" stroke-linejoin="round" stroke-linecap="butt" d="m985.5352 10.608669l0 0c-2.2787476 -5.859264 -8.875977 -8.761833 -14.7352295 -6.483069l-42.43524 16.50377l0 0c-2.8137207 1.0943012 -5.0775146 3.261528 -6.293335 6.024914c-1.2157593 2.7633877 -1.2840576 5.896572 -0.1897583 8.710289l16.503784 42.43527c2.2787476 5.859268 8.875916 8.761833 14.735168 6.4830704l42.435303 -16.503769c5.859253 -2.2787628 8.761841 -8.875938 6.4830933 -14.735203z" fill-rule="evenodd"/><path fill="#cfe2f3" d="m1013.87506 83.464035l0 0c-2.2787476 -5.8592606 -8.875916 -8.761833 -14.735168 -6.4830627l-42.435303 16.503769l0 0c-2.8137207 1.0942993 -5.0774536 3.261528 -6.293274 6.02491c-1.2158203 2.7633896 -1.2840576 5.896576 -0.1897583 8.710289l16.503784 42.435272c2.2787476 5.859268 8.875916 8.761841 14.735168 6.483078l42.435303 -16.503784c5.859192 -2.2787628 8.76178 -8.875931 6.4830933 -14.735199z" fill-rule="evenodd"/><path stroke="#000000" stroke-width="1.0" stroke-linejoin="round" stroke-linecap="butt" d="m1013.87506 83.464035l0 0c-2.2787476 -5.8592606 -8.875916 -8.761833 -14.735168 -6.4830627l-42.435303 16.503769l0 0c-2.8137207 1.0942993 -5.0774536 3.261528 -6.293274 6.02491c-1.2158203 2.7633896 -1.2840576 5.896576 -0.1897583 8.710289l16.503784 42.435272c2.2787476 5.859268 8.875916 8.761841 14.735168 6.483078l42.435303 -16.503784c5.859192 -2.2787628 8.76178 -8.875931 6.4830933 -14.735199z" fill-rule="evenodd"/><path fill="#cfe2f3" d="m1042.215 156.31941l0 0c-2.2788086 -5.859268 -8.875977 -8.761841 -14.7352295 -6.483078l-42.43524 16.503769l0 0c-2.8137207 1.0943146 -5.0775146 3.2615356 -6.293274 6.0249176c-1.2158203 2.7633972 -1.2841187 5.896576 -0.18981934 8.710297l16.503784 42.435272c2.2787476 5.859253 8.875977 8.761826 14.7352295 6.4830627l42.435303 -16.503769c5.859253 -2.2787628 8.761841 -8.875946 6.483032 -14.735199z" fill-rule="evenodd"/><path stroke="#000000" stroke-width="1.0" stroke-linejoin="round" stroke-linecap="butt" d="m1042.215 156.31941l0 0c-2.2788086 -5.859268 -8.875977 -8.761841 -14.7352295 -6.483078l-42.43524 16.503769l0 0c-2.8137207 1.0943146 -5.0775146 3.2615356 -6.293274 6.0249176c-1.2158203 2.7633972 -1.2841187 5.896576 -0.18981934 8.710297l16.503784 42.435272c2.2787476 5.859253 8.875977 8.761826 14.7352295 6.4830627l42.435303 -16.503769c5.859253 -2.2787628 8.761841 -8.875946 6.483032 -14.735199z" fill-rule="evenodd"/><path fill="#cfe2f3" d="m911.6427 39.351994l0 0c-2.2788086 -5.8592644 -8.875977 -8.761835 -14.7352295 -6.4830704l-42.43524 16.503773l0 0c-2.8137207 1.0942993 -5.0775146 3.2615242 -6.293335 6.024914c-1.2158203 2.7633858 -1.2840576 5.8965683 -0.1897583 8.710285l16.503784 42.435272c2.2787476 5.859268 8.875916 8.761833 14.735168 6.4830704l42.435303 -16.503769c5.859253 -2.2787628 8.761841 -8.875938 6.483032 -14.735207z" fill-rule="evenodd"/><path stroke="#000000" stroke-width="1.0" stroke-linejoin="round" stroke-linecap="butt" d="m911.6427 39.351994l0 0c-2.2788086 -5.8592644 -8.875977 -8.761835 -14.7352295 -6.4830704l-42.43524 16.503773l0 0c-2.8137207 1.0942993 -5.0775146 3.2615242 -6.293335 6.024914c-1.2158203 2.7633858 -1.2840576 5.8965683 -0.1897583 8.710285l16.503784 42.435272c2.2787476 5.859268 8.875916 8.761833 14.735168 6.4830704l42.435303 -16.503769c5.859253 -2.2787628 8.761841 -8.875938 6.483032 -14.735207z" fill-rule="evenodd"/><path fill="#cfe2f3" d="m939.98254 112.20736l0 0c-2.2787476 -5.8592606 -8.875916 -8.761833 -14.735168 -6.4830704l-42.435303 16.503777l0 0c-2.8137207 1.0942993 -5.0774536 3.261528 -6.293274 6.02491c-1.2158203 2.763382 -1.2840576 5.896576 -0.1897583 8.710297l16.503723 42.435272c2.2788086 5.859253 8.875977 8.761826 14.7352295 6.4830627l42.43524 -16.503769c5.859314 -2.2787628 8.761841 -8.875946 6.4830933 -14.735199z" fill-rule="evenodd"/><path stroke="#000000" stroke-width="1.0" stroke-linejoin="round" stroke-linecap="butt" d="m939.98254 112.20736l0 0c-2.2787476 -5.8592606 -8.875916 -8.761833 -14.735168 -6.4830704l-42.435303 16.503777l0 0c-2.8137207 1.0942993 -5.0774536 3.261528 -6.293274 6.02491c-1.2158203 2.763382 -1.2840576 5.896576 -0.1897583 8.710297l16.503723 42.435272c2.2788086 5.859253 8.875977 8.761826 14.7352295 6.4830627l42.43524 -16.503769c5.859314 -2.2787628 8.761841 -8.875946 6.4830933 -14.735199z" fill-rule="evenodd"/><path fill="#000000" d="m922.9246 141.09229q2.5905762 1.2725525 4.3032837 1.7967529q1.7216187 0.5039978 3.0994263 0.55493164l0.237854 0.61161804q-1.0994263 1.1820221 -1.9699097 2.6941223q-0.8704834 1.5121002 -1.867981 4.16333l-1.0484619 0.40777588q0.21105957 -3.250702 1.0370483 -5.265213l-21.770874 8.467041l-0.5380249 -1.3834381l21.770874 -8.467026q-1.5493164 -0.9230652 -2.2062988 -1.4052429q-0.6569214 -0.48216248 -2.0808716 -1.7725372l1.0339355 -0.40211487z" fill-rule="nonzero"/><path fill="#cfe2f3" d="m968.32245 185.06273l0 0c-2.2787476 -5.859268 -8.875977 -8.761826 -14.7352295 -6.4830627l-42.43524 16.503769l0 0c-2.8137207 1.0942993 -5.0775146 3.2615204 -6.293335 6.0249176c-1.2157593 2.763382 -1.2840576 5.8965607 -0.1897583 8.710281l16.503784 42.435272c2.2787476 5.859253 8.875916 8.761841 14.7352295 6.4830627l42.43524 -16.503769c5.859253 -2.2787628 8.761841 -8.875931 6.4830933 -14.735199z" fill-rule="evenodd"/><path stroke="#000000" stroke-width="1.0" stroke-linejoin="round" stroke-linecap="butt" d="m968.32245 185.06273l0 0c-2.2787476 -5.859268 -8.875977 -8.761826 -14.7352295 -6.4830627l-42.43524 16.503769l0 0c-2.8137207 1.0942993 -5.0775146 3.2615204 -6.293335 6.0249176c-1.2157593 2.763382 -1.2840576 5.8965607 -0.1897583 8.710281l16.503784 42.435272c2.2787476 5.859253 8.875916 8.761841 14.7352295 6.4830627l42.43524 -16.503769c5.859253 -2.2787628 8.761841 -8.875931 6.4830933 -14.735199z" fill-rule="evenodd"/><path fill="#000000" d="m924.1575 212.6532l-6.105957 -8.371719l1.2669678 -0.49273682l3.8057861 5.561203q0.5922241 0.87615967 1.1351318 1.7547607q-0.23382568 -1.6358643 -0.24597168 -1.8826141l-0.6757202 -6.9964905l1.4853516 -0.5776825l3.1747437 4.197174q1.1804199 1.5695038 2.013733 3.0225067q-0.17071533 -0.95628357 -0.32122803 -2.2054138l-0.87713623 -6.566086l1.2523804 -0.48706055l1.0673218 10.331299l-1.1940918 0.4644165l-4.7354126 -6.3564453q-0.5930176 -0.79203796 -0.7160034 -0.97891235q0.10357666 0.6973877 0.14807129 1.1997833l0.78900146 7.891281l-1.2669678 0.49273682zm10.538696 -4.0986633l-3.630371 -9.334518l1.1504517 -0.4474182l1.3026123 3.34935q0.43847656 -1.2434845 1.6616821 -1.719223q0.7572632 -0.2945099 1.4295654 -0.20391846q0.666626 0.076034546 1.1035156 0.5096741q0.44580078 0.41340637 0.8366089 1.4182129l1.6651001 4.281357l-1.1504517 0.4474182l-1.6651001 -4.281357q-0.3397827 -0.8737488 -0.8656616 -1.1051178q-0.5169678 -0.25160217 -1.201416 0.014587402q-0.5097046 0.19822693 -0.8591919 0.6359253q-0.3494873 0.43769836 -0.3632202 0.9627533q-0.01373291 0.5250702 0.2977295 1.326004l1.4385376 3.6988525l-1.1503906 0.4474182zm11.037964 -6.807602l1.2507324 -0.31878662q0.11651611 1.1617584 -0.41418457 2.0387726q-0.53637695 0.86242676 -1.7159424 1.3211823q-1.4853516 0.5776825 -2.7158813 6.1035156E-5q-1.2160034 -0.5832825 -1.855957 -2.228836q-0.66833496 -1.7183685 -0.15704346 -2.9901733q0.52020264 -1.292038 1.9181519 -1.8357391q1.3543091 -0.52671814 2.5759888 0.071136475q1.2160034 0.5832825 1.8673096 2.257965q0.039611816 0.10192871 0.118896484 0.3058014l-5.0531616 1.9652557q0.50323486 1.0784302 1.2888184 1.4602814q0.8001709 0.37617493 1.6593628 0.042022705q0.62615967 -0.24353027 0.9328003 -0.7483673q0.321167 -0.5105133 0.30010986 -1.3405762zm-4.4763794 -0.38822937l3.7716675 -1.4668732q-0.40698242 -0.8308563 -0.93530273 -1.1115875q-0.79364014 -0.445755 -1.6674194 -0.10594177q-0.8009033 0.31150818 -1.1358643 1.0453033q-0.3203125 0.72813416 -0.033081055 1.6390991zm11.733032 -2.4340057l1.2507324 -0.31878662q0.11651611 1.1617737 -0.41418457 2.0387726q-0.53637695 0.862442 -1.7159424 1.3211975q-1.4853516 0.5776825 -2.7158813 6.1035156E-5q-1.2160034 -0.5832825 -1.8560181 -2.228836q-0.6682739 -1.7183685 -0.15698242 -2.9901886q0.5201416 -1.292038 1.9181519 -1.8357391q1.3543091 -0.5267029 2.5759888 0.071136475q1.2159424 0.5832825 1.8672485 2.257965q0.03967285 0.10194397 0.11895752 0.30581665l-5.0531616 1.9652557q0.50323486 1.0784302 1.2888184 1.4602661q0.8001709 0.3761902 1.6593018 0.042037964q0.6262207 -0.24354553 0.9328003 -0.74838257q0.32122803 -0.5105133 0.3001709 -1.3405762zm-4.4763794 -0.38822937l3.7716675 -1.4668579q-0.40698242 -0.8308716 -0.93530273 -1.1115875q-0.79364014 -0.445755 -1.6674194 -0.10594177q-0.8009033 0.31149292 -1.1358643 1.0452881q-0.3203125 0.72813416 -0.033081055 1.6390991zm7.9225464 1.5627136l-3.630371 -9.334518l1.1504517 -0.44743347l3.630371 9.334534l-1.1504517 0.4474182z" fill-rule="nonzero"/><path fill="#000000" d="m954.3455 221.86963q2.5905151 1.2725372 4.3032837 1.7967529q1.7216187 0.50398254 3.0993652 0.5549164l0.23791504 0.6116333q-1.0994873 1.1820221 -1.9699707 2.6941223q-0.8704834 1.5121002 -1.8679199 4.163315l-1.048523 0.40777588q0.2111206 -3.2506866 1.0370483 -5.2651978l-21.770813 8.467041l-0.5380249 -1.3834381l21.770813 -8.467041q-1.5493164 -0.9230652 -2.2062378 -1.4052277q-0.6569824 -0.48217773 -2.0808716 -1.7725372l1.0339355 -0.40211487z" fill-rule="nonzero"/><path fill="#cfe2f3" d="m808.0729 309.237l0 0c-2.2788086 -5.8592834 -8.875977 -8.761841 -14.7352295 -6.4830627l-42.43524 16.503754l0 0c-2.8137207 1.0942993 -5.0775146 3.2615356 -6.293335 6.024933c-1.2158203 2.7633667 -1.2840576 5.8965454 -0.1897583 8.710266l16.503784 42.435272c2.2787476 5.8592834 8.875916 8.761841 14.735168 6.4830933l42.435303 -16.503784c5.859253 -2.278778 8.761841 -8.875946 6.4830933 -14.735199z" fill-rule="evenodd"/><path stroke="#000000" stroke-width="1.0" stroke-linejoin="round" stroke-linecap="butt" d="m808.0729 309.237l0 0c-2.2788086 -5.8592834 -8.875977 -8.761841 -14.7352295 -6.4830627l-42.43524 16.503754l0 0c-2.8137207 1.0942993 -5.0775146 3.2615356 -6.293335 6.024933c-1.2158203 2.7633667 -1.2840576 5.8965454 -0.1897583 8.710266l16.503784 42.435272c2.2787476 5.8592834 8.875916 8.761841 14.735168 6.4830933l42.435303 -16.503784c5.859253 -2.278778 8.761841 -8.875946 6.4830933 -14.735199z" fill-rule="evenodd"/><path fill="#000000" d="m772.6914 344.46295l-2.763794 -7.106476l3.1455078 -1.2233276q0.9465332 -0.36813354 1.5152588 -0.3713684q0.5687866 -0.0032653809 1.0525513 0.37860107q0.49273682 0.3616333 0.7192993 0.9441223q0.29449463 0.75723267 0.0032348633 1.47406q-0.28234863 0.6965637 -1.2596436 1.2443237q0.44659424 0.027496338 0.7038574 0.12860107q0.5695801 0.21438599 1.154541 0.64071655l1.9910278 1.4554138l-1.1795044 0.45874023l-1.524292 -1.117218q-0.6569214 -0.48217773 -1.0638428 -0.7095032q-0.39239502 -0.23300171 -0.6618042 -0.27911377q-0.26049805 -0.0663147 -0.49597168 -0.025054932q-0.17718506 0.018615723 -0.54119873 0.16018677l-1.0922241 0.42477417l1.2290039 3.1600647l-0.93200684 0.36245728zm-0.61413574 -4.3380127l2.02417 -0.78723145q0.6407471 -0.24920654 0.9538574 -0.5218506q0.31304932 -0.27264404 0.38909912 -0.6375427q0.076049805 -0.36486816 -0.05987549 -0.71435547q-0.19824219 -0.5096741 -0.68688965 -0.68847656q-0.48864746 -0.17877197 -1.2750244 0.12704468l-2.2572021 0.87786865l0.91186523 2.3445435zm5.2823486 -4.502075l-0.3908081 -1.0048218l0.87371826 -0.33981323l0.3908081 1.0048218l-0.87371826 0.33981323zm2.3729858 6.101654l-2.0048828 -5.155121l0.8737793 -0.33981323l2.0048828 5.155121l-0.8737793 0.33981323zm2.2105713 -0.37353516l0.89556885 -0.19741821q0.21118164 0.37051392 0.5267334 0.44900513q0.41662598 0.12295532 0.97003174 -0.09225464q0.61157227 -0.23788452 0.83569336 -0.6100464q0.24432373 -0.36325073 0.19091797 -0.84542847q-0.03479004 -0.30499268 -0.36328125 -1.1496277q-0.32196045 0.89642334 -1.166626 1.2249146q-1.0630493 0.41342163 -1.9400635 -0.11727905q-0.8826294 -0.54525757 -1.3017578 -1.6228943q-0.2831421 -0.7281189 -0.2645874 -1.4562378q0.03314209 -0.73379517 0.39801025 -1.2612915q0.3737793 -0.5477295 1.0582275 -0.8139038q0.91741943 -0.35681152 1.7887573 0.15933228l-0.24353027 -0.6261902l0.8154907 -0.3171692l1.7330322 4.4561157q0.47009277 1.2086792 0.4151001 1.8000793q-0.04937744 0.60595703 -0.47491455 1.106781q-0.4109497 0.4951172 -1.1827393 0.7952881q-0.91748047 0.35681152 -1.6496582 0.15539551q-0.72650146 -0.18688965 -1.0404053 -1.0371704zm-0.47253418 -3.3704224q0.39074707 1.0048218 0.96520996 1.3179016q0.5889282 0.30740356 1.1860352 0.07522583q0.61157227 -0.23788452 0.84375 -0.8479004q0.2265625 -0.62457275 -0.15856934 -1.6148376q-0.36816406 -0.9465332 -0.97735596 -1.2628479q-0.6091919 -0.3163452 -1.2062378 -0.08413696q-0.5679321 0.22088623 -0.78881836 0.8600464q-0.22650146 0.62457275 0.13598633 1.5565491zm5.9919434 0.7376404l-2.763794 -7.106476l0.87371826 -0.33981323l0.9911499 2.5484314q0.33410645 -0.951416 1.2660522 -1.3139038q0.5679321 -0.22085571 1.0808716 -0.15209961q0.5072632 0.0541687 0.8406372 0.39398193q0.34222412 0.31954956 0.63671875 1.0767822l1.2686157 3.2619934l-0.87371826 0.33981323l-1.2686768 -3.2619934q-0.25482178 -0.65530396 -0.6593628 -0.8332825q-0.39562988 -0.19821167 -0.91986084 0.005706787q-0.37860107 0.14724731 -0.64886475 0.48703003q-0.25561523 0.33413696 -0.26531982 0.7402649q-0.015380859 0.39157104 0.22253418 1.0032043l1.0930176 2.8105469l-0.87371826 0.33981323zm7.125305 -3.6764526l0.416687 0.72650146q-0.33007812 0.22894287 -0.6213379 0.34222412q-0.46600342 0.1812439 -0.784729 0.13754272q-0.3244629 -0.05822754 -0.53723145 -0.26046753q-0.19824219 -0.20791626 -0.5040283 -0.9942932l-1.1497192 -2.9561768l-0.6407471 0.24917603l-0.26617432 -0.6844177l0.6407471 -0.24920654l-0.49273682 -1.2669373l0.66986084 -0.8640442l0.69659424 1.7911682l0.8737793 -0.33981323l0.26617432 0.68444824l-0.8737793 0.33981323l1.1723633 3.0144043q0.14160156 0.3640747 0.23059082 0.46359253q0.08337402 0.08493042 0.21362305 0.11810303q0.124572754 0.018615723 0.32843018 -0.060699463q0.14562988 -0.056610107 0.3616333 -0.19091797z" fill-rule="nonzero"/><path fill="#000000" d="m774.5811 357.67657l-2.763855 -7.1064453l2.664978 -1.036438q0.8154907 -0.3171692 1.3955688 -0.29129028q0.57440186 0.0113220215 1.0266724 0.35513306q0.45220947 0.34384155 0.6447754 0.83895874q0.17559814 0.45141602 0.08660889 0.95544434q-0.09466553 0.48947144 -0.49346924 0.92959595q0.71435547 -0.05987549 1.2450562 0.27020264q0.52508545 0.31549072 0.76293945 0.927124q0.19824219 0.5096741 0.14971924 1.0315247q-0.039611816 0.5015869 -0.26940918 0.8591919q-0.21514893 0.3519287 -0.63586426 0.6496582q-0.4206543 0.2977295 -1.1051025 0.5639343l-2.7086182 1.0534058zm-0.65625 -4.4892883l1.5290527 -0.5946655q0.6262207 -0.24356079 0.8688965 -0.4385376q0.3098755 -0.237854 0.38830566 -0.55337524q0.09307861 -0.3211975 -0.05419922 -0.6998291q-0.1359253 -0.3494873 -0.41259766 -0.54364014q-0.26782227 -0.21438599 -0.6278076 -0.19174194q-0.34545898 0.016998291 -1.1173096 0.3171692l-1.4125366 0.54937744l0.8381958 2.155243zm1.274292 3.2765503l1.762085 -0.68530273q0.45141602 -0.17556763 0.62939453 -0.2783203q0.2977295 -0.18283081 0.46520996 -0.39886475q0.1618042 -0.2305603 0.2111206 -0.5347595q0.043701172 -0.3187561 -0.09222412 -0.6682739q-0.1529541 -0.39318848 -0.47009277 -0.60513306q-0.31713867 -0.2119751 -0.72650146 -0.18688965q-0.4093628 0.025115967 -1.093811 0.29129028l-1.6309814 0.63430786l0.9458008 2.4319458zm9.31189 -2.64917l-0.29449463 -0.7572632q-0.27178955 1.1116333 -1.2911987 1.5080872q-0.46594238 0.18121338 -0.927124 0.15939331q-0.4611206 -0.021850586 -0.7523804 -0.21032715q-0.29125977 -0.18850708 -0.5315552 -0.547699q-0.13995361 -0.23059082 -0.36083984 -0.79852295l-1.2403564 -3.1891785l0.8737793 -0.33981323l1.1100464 2.854248q0.26617432 0.68444824 0.40612793 0.91500854q0.21765137 0.30096436 0.55908203 0.40289307q0.35028076 0.08169556 0.7289429 -0.06555176q0.39318848 -0.15292358 0.6690674 -0.4781494q0.27020264 -0.33981323 0.26531982 -0.7402954q0.00970459 -0.40612793 -0.24517822 -1.0614319l-1.0760498 -2.7668762l0.87371826 -0.33981323l2.0049438 5.155121l-0.7718506 0.3001709zm3.7468262 -2.3625183l0.416687 0.72650146q-0.33007812 0.22894287 -0.6213379 0.34222412q-0.46600342 0.1812439 -0.784729 0.13754272q-0.3244629 -0.05822754 -0.53723145 -0.26046753q-0.19818115 -0.20791626 -0.5040283 -0.9942932l-1.1497192 -2.9561768l-0.6407471 0.24917603l-0.26617432 -0.6844177l0.6407471 -0.24920654l-0.49273682 -1.2669373l0.66986084 -0.8640442l0.69659424 1.7911682l0.8737793 -0.33981323l0.26617432 0.68444824l-0.87371826 0.33981323l1.1723633 3.0144043q0.14154053 0.3640747 0.23052979 0.46359253q0.08337402 0.08493042 0.21362305 0.11810303q0.124572754 0.018615723 0.32843018 -0.060699463q0.14562988 -0.056610107 0.3616333 -0.19091797zm2.7593384 -1.0731506l0.416687 0.72650146q-0.33007812 0.22897339 -0.6213379 0.34222412q-0.46600342 0.1812439 -0.78479004 0.13757324q-0.32440186 -0.058258057 -0.5371704 -0.26049805q-0.19824219 -0.20791626 -0.50408936 -0.9942932l-1.1496582 -2.9561768l-0.6407471 0.24920654l-0.26617432 -0.68444824l0.64068604 -0.24917603l-0.49267578 -1.2669373l0.66986084 -0.8640747l0.69659424 1.7911682l0.87371826 -0.33981323l0.26623535 0.68444824l-0.8737793 0.33981323l1.1723633 3.0144348q0.14160156 0.3640442 0.23059082 0.463562q0.08331299 0.08493042 0.21356201 0.11810303q0.12463379 0.018615723 0.3284912 -0.060668945q0.14562988 -0.056640625 0.3616333 -0.19094849zm-0.16534424 -1.9978027q-0.5550537 -1.427124 -0.034851074 -2.417389q0.44329834 -0.8430176 1.3898926 -1.2111511q1.0630493 -0.41342163 2.0047607 0.025054932q0.9562988 0.4328003 1.4320068 1.6560364q0.38513184 0.9902344 0.30584717 1.6916809q-0.0703125 0.6812134 -0.5136719 1.2224731q-0.4489746 0.52667236 -1.1334229 0.7928772q-1.0776367 0.4190979 -2.0136719 -0.0048217773q-0.92718506 -0.4441223 -1.4368896 -1.7547607zm0.88830566 -0.34545898q0.38513184 0.9902344 1.0145264 1.3154602q0.62945557 0.3251953 1.2702026 0.07601929q0.6553345 -0.2548828 0.8850708 -0.9142456q0.24432373 -0.66500854 -0.15216064 -1.6843872q-0.36810303 -0.9465637 -0.9975586 -1.2717896q-0.61486816 -0.33087158 -1.2702026 -0.07601929q-0.6407471 0.24920654 -0.88500977 0.9142456q-0.25 0.65045166 0.13513184 1.6407166zm5.957947 0.65023804l-2.0048828 -5.1550903l0.78637695 -0.30581665l0.28881836 0.7426758q0.23382568 -1.0800781 1.296875 -1.4934998q0.46600342 -0.1812439 0.927124 -0.15942383q0.45550537 0.007293701 0.7524414 0.21032715q0.3114624 0.19741821 0.5258789 0.5331421q0.13995361 0.23059082 0.37780762 0.8421936l1.2290039 3.1600647l-0.87371826 0.33981323l-1.2177124 -3.1309204q-0.20953369 -0.53881836 -0.4133911 -0.7612915q-0.20391846 -0.22247314 -0.5283203 -0.2807312q-0.3098755 -0.06390381 -0.6593628 0.072021484q-0.5533447 0.21520996 -0.81951904 0.737854q-0.2718506 0.50808716 0.11328125 1.4983215l1.0930786 2.8105469l-0.8737793 0.33981323z" fill-rule="nonzero"/><path fill="#cfe2f3" d="m722.8459 352.2271l0 0c-3.4935303 -5.227234 -10.56311 -6.6326904 -15.790344 -3.1391602l-37.85791 25.301575l0 0c-2.5101929 1.6776428 -4.2511597 4.283783 -4.8398438 7.2450256c-0.5886841 2.9612732 0.023071289 6.0351257 1.7006836 8.545319l25.301575 37.85788c3.4935303 5.2272644 10.56311 6.632721 15.790344 3.1391907l37.85791 -25.301605c5.227234 -3.4934998 6.6326904 -10.56308 3.1391602 -15.790344z" fill-rule="evenodd"/><path stroke="#000000" stroke-width="1.0" stroke-linejoin="round" stroke-linecap="butt" d="m722.8459 352.2271l0 0c-3.4935303 -5.227234 -10.56311 -6.6326904 -15.790344 -3.1391602l-37.85791 25.301575l0 0c-2.5101929 1.6776428 -4.2511597 4.283783 -4.8398438 7.2450256c-0.5886841 2.9612732 0.023071289 6.0351257 1.7006836 8.545319l25.301575 37.85788c3.4935303 5.2272644 10.56311 6.632721 15.790344 3.1391907l37.85791 -25.301605c5.227234 -3.4934998 6.6326904 -10.56308 3.1391602 -15.790344z" fill-rule="evenodd"/><path fill="#000000" d="m693.1824 396.11633l-4.2368774 -6.339508l1.2601318 -0.8421631l4.489258 3.483368q0.6333008 0.49765015 0.9456177 0.7399597q-0.13049316 -0.42019653 -0.34814453 -1.2520142l-1.4233398 -5.4196777l1.1171875 -0.7466736l4.2369385 6.339508l-0.8054199 0.53829956l-3.5510254 -5.3132324l1.7062988 6.5460815l-0.753479 0.50357056l-5.4434814 -4.1799927l3.6118164 5.404175l-0.80548096 0.53829956zm3.6644897 -10.323486l-0.59906006 -0.8963623l0.77941895 -0.52093506l0.59906006 0.8963623l-0.77941895 0.52093506zm3.6378174 5.4431458l-3.0734863 -4.598755l0.77948 -0.52090454l3.0734253 4.5987244l-0.77941895 0.52093506zm4.9432373 -3.303711l-0.39068604 -0.5845947q0.031433105 0.9750366 -0.82592773 1.5480347q-0.5456543 0.36465454 -1.2130127 0.3784485q-0.6630249 -0.007904053 -1.2788086 -0.36691284q-0.6114502 -0.38064575 -1.0803223 -1.0821533q-0.46014404 -0.6885071 -0.5996704 -1.4033813q-0.14813232 -0.72787476 0.10681152 -1.3305359q0.25500488 -0.60266113 0.8265991 -0.9846802q0.41571045 -0.27783203 0.86206055 -0.3130188q0.43762207 -0.04815674 0.8234863 0.10739136l-1.5194092 -2.2733765l0.77948 -0.52093506l4.2368774 6.339508l-0.727478 0.48620605zm-3.9833374 -0.6454468q0.5817261 0.8703613 1.2406616 1.0689697q0.67193604 0.18988037 1.1785889 -0.14871216q0.5065918 -0.33859253 0.5795288 -0.988739q0.07727051 -0.67178345 -0.48712158 -1.5161743q-0.63378906 -0.94833374 -1.2927246 -1.1469116q-0.65893555 -0.1986084 -1.1915283 0.15737915q-0.50665283 0.33859253 -0.57092285 1.001709q-0.07287598 0.65011597 0.54351807 1.5724792zm8.910706 -2.6476746l-0.39068604 -0.5845642q0.031433105 0.9750061 -0.82592773 1.5480347q-0.5456543 0.36465454 -1.2130127 0.37841797q-0.6630249 -0.007904053 -1.2788086 -0.36688232q-0.61151123 -0.38064575 -1.0803223 -1.0821533q-0.46014404 -0.6885071 -0.5996704 -1.4034119q-0.14813232 -0.72787476 0.10681152 -1.3305359q0.25500488 -0.60266113 0.8265991 -0.9846802q0.41571045 -0.2778015 0.8619995 -0.31298828q0.4376831 -0.048187256 0.82354736 0.10739136l-1.5194092 -2.273407l0.77948 -0.52093506l4.2368774 6.3395386l-0.727478 0.48617554zm-3.9833374 -0.6454468q0.5817261 0.87039185 1.2406616 1.0689697q0.67193604 0.18991089 1.1785278 -0.14868164q0.50665283 -0.33862305 0.57958984 -0.988739q0.07720947 -0.67178345 -0.48712158 -1.5162048q-0.63378906 -0.94833374 -1.2927246 -1.1469116q-0.65893555 -0.19857788 -1.1915283 0.15737915q-0.50665283 0.33859253 -0.57092285 1.001709q-0.07287598 0.6501465 0.54351807 1.5724792zm5.9227905 -0.65075684l-4.2368774 -6.339508l0.77941895 -0.52093506l4.2369385 6.339508l-0.77948 0.52093506zm4.135376 -4.9062195l0.8748779 -0.4343567q0.27398682 0.8317261 0.014770508 1.5687256q-0.24615479 0.7283325 -1.0515747 1.2666321q-1.0003052 0.66851807 -2.0145874 0.44433594q-1.0013428 -0.23284912 -1.7480469 -1.3500671q-0.7727051 -1.1561584 -0.6005249 -2.1921082q0.16345215 -1.0489197 1.1118164 -1.6827087q0.92230225 -0.61642456 1.932312 -0.37057495q1.0013428 0.23284912 1.7653809 1.3760376q0.043395996 0.064971924 0.13024902 0.19488525l-3.4295654 2.2920837q0.5512085 0.7404175 1.210083 0.8826599q0.6588745 0.14224243 1.2304688 -0.23977661q0.4286499 -0.28649902 0.579895 -0.70703125q0.14245605 -0.4335327 -0.005554199 -1.0487366zm-3.4013672 0.45028687l2.5721436 -1.7190857q-0.43395996 -0.53686523 -0.88049316 -0.6706848q-0.671875 -0.18991089 -1.2564697 0.20080566q-0.5326538 0.35595703 -0.66625977 0.9714966q-0.1293335 0.59384155 0.2310791 1.2174683z" fill-rule="nonzero"/><path fill="#000000" d="m700.6352 406.77145l-4.2368774 -6.339508l2.3773193 -1.5888367q0.727478 -0.48620605 1.2994385 -0.58654785q0.5632324 -0.11331177 1.0791626 0.12445068q0.5159912 0.23776245 0.8111572 0.67944336q0.26916504 0.40270996 0.29144287 0.914032q0.013549805 0.49835205 -0.28051758 1.0144043q0.68444824 -0.21313477 1.2740479 -0.00579834q0.5809326 0.19433594 0.9456177 0.7399597q0.303833 0.4546814 0.3694458 0.9746399q0.06994629 0.4982605 -0.07696533 0.89712524q-0.13391113 0.39016724 -0.48016357 0.77194214q-0.34625244 0.38174438 -0.9567871 0.7897949l-2.4163208 1.6148987zm-1.6126099 -4.240753l1.3640137 -0.9116211q0.55859375 -0.37332153 0.75335693 -0.61624146q0.25097656 -0.2992859 0.25927734 -0.6243286q0.02130127 -0.33370972 -0.20446777 -0.6714783q-0.20837402 -0.31176758 -0.5205078 -0.44140625q-0.30786133 -0.15133667 -0.65441895 -0.05126953q-0.33361816 0.09140015 -1.0220947 0.5515442l-1.2601318 0.8421631l1.2849731 1.9226379zm1.9534912 2.922943l1.5718384 -1.0505371q0.402771 -0.26913452 0.55426025 -0.4079895q0.25109863 -0.24298096 0.36779785 -0.49014282q0.10803223 -0.26013184 0.09033203 -0.56777954q-0.026367188 -0.3206787 -0.23474121 -0.6324463q-0.234375 -0.35073853 -0.5899048 -0.48901367q-0.3555298 -0.13827515 -0.74975586 -0.025146484q-0.39422607 0.11312866 -1.0048218 0.5211792l-1.454956 0.9724121l1.4499512 2.169464zm8.517395 -4.6024475l-0.45141602 -0.6755371q-0.024719238 1.144104 -0.93408203 1.7518616q-0.41571045 0.27783203 -0.87060547 0.35635376q-0.45495605 0.07852173 -0.78009033 -0.04244995q-0.3251953 -0.12094116 -0.63757324 -0.4196167q-0.18652344 -0.1947937 -0.5251465 -0.70144653l-1.9013672 -2.8449707l0.77941895 -0.52093506l1.7017212 2.5462036q0.40802002 0.6105652 0.5946045 0.8053589q0.27764893 0.2467041 0.6329956 0.27227783q0.3597412 0.0039367676 0.69750977 -0.22180176q0.350708 -0.23440552 0.5496216 -0.6116638q0.19024658 -0.3902588 0.09881592 -0.7801819q-0.07849121 -0.3985901 -0.46917725 -0.9831848l-1.6495972 -2.4682312l0.77941895 -0.52093506l3.0734863 4.5987244l-0.6885376 0.46017456zm3.1464844 -3.1177063l0.5640869 0.6190491q-0.27270508 0.2949829 -0.53253174 0.46862793q-0.4156494 0.27783203 -0.7363281 0.30419922q-0.3293457 0.013397217 -0.5808716 -0.13800049q-0.23852539 -0.1600647 -0.7073364 -0.86157227l-1.7625122 -2.6371155l-0.57159424 0.38198853l-0.40808105 -0.6105652l0.57159424 -0.38198853l-0.75531006 -1.1302185l0.4668579 -0.9885864l1.0679321 1.5978699l0.77941895 -0.52093506l0.40808105 0.6105652l-0.77941895 0.52093506l1.7971802 2.689087q0.21704102 0.32476807 0.3255005 0.40264893q0.099731445 0.06488037 0.23406982 0.06906128q0.12567139 -0.0087890625 0.30755615 -0.13034058q0.12988281 -0.08682251 0.31170654 -0.26470947zm2.4614868 -1.6451111l0.5640869 0.6190491q-0.27264404 0.29501343 -0.5324707 0.46862793q-0.41571045 0.27783203 -0.73638916 0.30419922q-0.32928467 0.013397217 -0.58081055 -0.13800049q-0.23858643 -0.1600647 -0.70739746 -0.86157227l-1.7624512 -2.6371155l-0.57159424 0.38201904l-0.40808105 -0.6105652l0.57159424 -0.38201904l-0.7553711 -1.1302185l0.46691895 -0.9885864l1.0678711 1.5978699l0.77948 -0.52093506l0.40808105 0.6105652l-0.77948 0.52093506l1.7972412 2.689087q0.21704102 0.32476807 0.32543945 0.40264893q0.099731445 0.06491089 0.23413086 0.06906128q0.12567139 -0.0087890625 0.30749512 -0.13034058q0.12994385 -0.08682251 0.31170654 -0.26470947zm-0.5939331 -1.9146118q-0.8508911 -1.2731018 -0.5574341 -2.3525085q0.25030518 -0.91900635 1.0946655 -1.4833374q0.94836426 -0.63378906 1.9627075 -0.40963745q1.0272827 0.21551514 1.7565918 1.3067322q0.59039307 0.88339233 0.66485596 1.5853271q0.07879639 0.68029785 -0.2368164 1.3046875q-0.32434082 0.6114197 -0.9349365 1.0194702q-0.9613037 0.6424866 -1.966919 0.43130493q-1.0013428 -0.23287964 -1.7827148 -1.4020386zm0.79241943 -0.52960205q0.59039307 0.8833618 1.2753296 1.0645752q0.6848755 0.1812439 1.2564697 -0.20077515q0.5845947 -0.39068604 0.6661377 -1.0841675q0.09454346 -0.70214844 -0.5132446 -1.6115112q-0.56433105 -0.84439087 -1.2492065 -1.0256348q-0.67193604 -0.18988037 -1.2565308 0.20080566q-0.57159424 0.38201904 -0.6661377 1.0841675q-0.10321045 0.68914795 0.48718262 1.5725403zm5.9574585 -0.65515137l-3.0734863 -4.5987244l0.70147705 -0.46884155l0.44281006 0.6625366q-0.0056152344 -1.105072 0.942749 -1.7388611q0.41571045 -0.27783203 0.87060547 -0.35635376q0.44628906 -0.09152222 0.78009033 0.042419434q0.3468628 0.12527466 0.6288452 0.40664673q0.18658447 0.1947937 0.5512085 0.7404175l1.8840332 2.8190002l-0.77941895 0.52093506l-1.8666992 -2.7930298q-0.32122803 -0.48065186 -0.5684204 -0.65371704q-0.24719238 -0.17306519 -0.5765381 -0.15966797q-0.3163452 0.0046691895 -0.6281738 0.21304321q-0.4935913 0.32992554 -0.6403198 0.89779663q-0.15533447 0.5549011 0.43499756 1.4382629l1.6756592 2.5072327l-0.77941895 0.52090454z" fill-rule="nonzero"/><path fill="#cfe2f3" d="m629.7587 405.4429l0 0c-5.322876 -3.3456726 -12.350159 -1.7427979 -15.695801 3.5801086l-24.230774 38.55078l0 0c-1.6066284 2.5561829 -2.132019 5.645874 -1.4606323 8.5894165c0.6713867 2.9435425 2.4846191 5.499817 5.0407715 7.1064453l38.55078 24.230743c5.322937 3.345642 12.35022 1.7427673 15.695862 -3.5801392l24.230713 -38.55078c3.3457031 -5.322937 1.7427979 -12.350189 -3.5800781 -15.695862z" fill-rule="evenodd"/><path stroke="#000000" stroke-width="1.0" stroke-linejoin="round" stroke-linecap="butt" d="m629.7587 405.4429l0 0c-5.322876 -3.3456726 -12.350159 -1.7427979 -15.695801 3.5801086l-24.230774 38.55078l0 0c-1.6066284 2.5561829 -2.132019 5.645874 -1.4606323 8.5894165c0.6713867 2.9435425 2.4846191 5.499817 5.0407715 7.1064453l38.55078 24.230743c5.322937 3.345642 12.35022 1.7427673 15.695862 -3.5801392l24.230713 -38.55078c3.3457031 -5.322937 1.7427979 -12.350189 -3.5800781 -15.695862z" fill-rule="evenodd"/><path fill="#000000" d="m624.2106 451.86575l-6.4556885 -4.057678l0.5404663 -0.8598633l5.6884155 3.5753784l1.9956055 -3.1749268l0.76727295 0.4822693l-2.5360718 4.0348206zm3.616333 -9.1008l0.6213989 -0.7536926q0.5895996 0.6474304 0.6538696 1.4260559q0.072631836 0.76535034 -0.44293213 1.5855408q-0.6402588 1.0186462 -1.6577148 1.2280579q-1.0091553 0.19616699 -2.1468506 -0.5188904q-1.1773682 -0.74005127 -1.4430542 -1.7559814q-0.2789917 -1.024292 0.32800293 -1.9899902q0.59033203 -0.93927 1.6127319 -1.1271362q1.0091553 -0.19616699 2.1732788 0.53552246q0.06616211 0.04159546 0.19848633 0.12472534l-2.1951294 3.4924316q0.8054199 0.45089722 1.4649658 0.3117981q0.6595459 -0.13909912 1.0253906 -0.7211914q0.27441406 -0.43655396 0.24072266 -0.88217163q-0.046875 -0.45391846 -0.4331665 -0.9550781zm-2.9212036 1.79953l1.6463623 -2.6193237q-0.61535645 -0.31292725 -1.0775757 -0.25283813q-0.69091797 0.10095215 -1.0651245 0.696228q-0.34088135 0.5423889 -0.21160889 1.158844q0.12438965 0.59490967 0.7079468 1.0170898zm5.687317 -2.853119l-4.0612793 -2.5526733l-0.44067383 0.70114136l-0.62176514 -0.3908081l0.44073486 -0.70114136l-0.48950195 -0.3076477q-0.47625732 -0.2993164 -0.64294434 -0.5332947q-0.25097656 -0.3053894 -0.25323486 -0.7128296q-0.01550293 -0.41574097 0.30877686 -0.93167114q0.20788574 -0.330719 0.5449829 -0.6909485l0.6263428 0.5597534q-0.2109375 0.21810913 -0.3439331 0.42974854q-0.22454834 0.35717773 -0.16552734 0.61572266q0.06726074 0.2453003 0.4906006 0.51135254l0.4232788 0.26608276l0.57373047 -0.91278076l0.62176514 0.3908081l-0.57373047 0.91278076l4.0612793 2.5526733l-0.49890137 0.7937317zm1.8339844 -4.503418l0.7677002 0.33486938q-0.12854004 0.38061523 -0.2947998 0.6451721q-0.26611328 0.42333984 -0.54803467 0.5783081q-0.29522705 0.14663696 -0.5866089 0.11114502q-0.28308105 -0.04876709 -0.9974365 -0.49777222l-2.6854858 -1.6879272l-0.36584473 0.5820923l-0.62176514 -0.3908081l0.36584473 -0.58206177l-1.1508789 -0.7234192l0.022644043 -1.0930481l1.6271362 1.0227356l0.49890137 -0.7937622l0.62176514 0.3908081l-0.49890137 0.7937317l2.7383423 1.7211914q0.3307495 0.20785522 0.46154785 0.2347107q0.11755371 0.018493652 0.24188232 -0.03253174q0.111083984 -0.059326172 0.22753906 -0.24453735q0.08312988 -0.1322937 0.17645264 -0.36889648z" fill-rule="nonzero"/><path fill="#000000" d="m631.74896 464.3014l-6.4556885 -4.057678l1.5216064 -2.420868q0.4656372 -0.7408142 0.94677734 -1.0658875q0.4678955 -0.33337402 1.0360107 -0.32696533q0.5680542 0.0064086914 1.0178223 0.28912354q0.4100952 0.25778198 0.63916016 0.7154846q0.21582031 0.44937134 0.15802002 1.0405273q0.5378418 -0.47399902 1.1607056 -0.5253906q0.6096802 -0.059753418 1.1652832 0.28948975q0.4630127 0.29101562 0.7351074 0.7388916q0.26727295 0.42633057 0.2960205 0.85040283q0.03704834 0.41085815 -0.12322998 0.9006958q-0.16021729 0.48983765 -0.5510254 1.1116028l-1.5465698 2.4605713zm-3.203308 -3.2129822l0.8730469 -1.3890381q0.35754395 -0.56884766 0.43615723 -0.87008667q0.106933594 -0.3757019 -0.018188477 -0.67578125q-0.116760254 -0.3133545 -0.46069336 -0.529541q-0.31750488 -0.19955444 -0.6553955 -0.1904602q-0.34283447 -0.012481689 -0.61834717 0.22036743q-0.2672119 0.21960449 -0.7079468 0.92071533l-0.80651855 1.2832031l1.9578857 1.2306213zm2.9765015 1.8708496l1.0061035 -1.600708q0.25775146 -0.4100952 0.33935547 -0.59869385q0.13006592 -0.3243103 0.13568115 -0.5975647q-0.0075683594 -0.2815857 -0.14929199 -0.5552368q-0.15496826 -0.2819519 -0.47247314 -0.48150635q-0.35717773 -0.2244873 -0.7381592 -0.20559692q-0.38098145 0.018920898 -0.69470215 0.28311157q-0.31365967 0.2642212 -0.7044678 0.8859558l-0.9312744 1.4816284l2.2092285 1.3886108zm5.8966064 -7.6784973l-0.6878662 -0.43237305q0.444458 1.0545044 -0.13757324 1.9805298q-0.26605225 0.42330933 -0.649292 0.6807251q-0.38323975 0.25741577 -0.7294922 0.27972412q-0.3461914 0.022277832 -0.7532959 -0.12283325q-0.2498169 -0.10168457 -0.7657471 -0.42596436l-2.8970947 -1.8209534l0.49890137 -0.7937317l2.5928345 1.6297302q0.62176514 0.3908081 0.87158203 0.49246216q0.354187 0.11187744 0.6890259 -0.009857178q0.32995605 -0.14324951 0.5461426 -0.48718262q0.2244873 -0.35717773 0.2520752 -0.7827759q0.014404297 -0.43389893 -0.22827148 -0.75253296q-0.234375 -0.33184814 -0.8296509 -0.70599365l-2.5134888 -1.579834l0.49890137 -0.7937317l4.6829834 2.943451l-0.44067383 0.70114136zm1.5996704 -4.130554l0.76763916 0.33486938q-0.128479 0.38061523 -0.2947998 0.6451721q-0.26605225 0.42333984 -0.54803467 0.5783081q-0.29516602 0.14666748 -0.5866089 0.11114502q-0.28308105 -0.04876709 -0.9974365 -0.49777222l-2.6854858 -1.6879272l-0.36584473 0.5820923l-0.62176514 -0.3908081l0.36584473 -0.58206177l-1.1508789 -0.7233887l0.022644043 -1.0930786l1.6271362 1.0227356l0.49890137 -0.7937317l0.62176514 0.3907776l-0.49890137 0.7937317l2.7384033 1.7211914q0.33068848 0.20788574 0.46148682 0.2347107q0.11755371 0.01852417 0.24188232 -0.03250122q0.11114502 -0.05935669 0.22753906 -0.24456787q0.08312988 -0.1322937 0.17651367 -0.36889648zm1.5755005 -2.5066223l0.76763916 0.33486938q-0.128479 0.38061523 -0.2947998 0.6451721q-0.26605225 0.42333984 -0.54803467 0.5783081q-0.29516602 0.14666748 -0.5866089 0.11114502q-0.28308105 -0.04876709 -0.9974365 -0.49777222l-2.6854858 -1.6879272l-0.36584473 0.5820923l-0.62176514 -0.3908081l0.36590576 -0.58206177l-1.15094 -0.7234192l0.022644043 -1.0930481l1.6271362 1.0227356l0.49890137 -0.7937317l0.62176514 0.3907776l-0.49890137 0.7937317l2.7384033 1.7211914q0.33068848 0.20788574 0.46148682 0.2347107q0.11755371 0.01852417 0.24188232 -0.03253174q0.11114502 -0.059326172 0.22753906 -0.24453735q0.08312988 -0.1322937 0.17651367 -0.36889648zm-1.3237915 -1.5053406q-1.2964478 -0.81484985 -1.4692383 -1.9200134q-0.14666748 -0.9411316 0.39379883 -1.8009949q0.6069946 -0.96569824 1.6245117 -1.1751404q1.0257568 -0.22262573 2.136963 0.47583008q0.89959717 0.56539917 1.2541504 1.1758118q0.34960938 0.5888672 0.3163452 1.2877197q-0.046447754 0.69052124 -0.43725586 1.3122864q-0.6152954 0.9789429 -1.6195679 1.1966553q-1.0091553 0.19619751 -2.199707 -0.55215454zm0.50720215 -0.8069458q0.89953613 0.56539917 1.5987549 0.4512329q0.69921875 -0.11413574 1.0651245 -0.696228q0.3741455 -0.5953064 0.16546631 -1.2616272q-0.20031738 -0.67959595 -1.1263428 -1.2616272q-0.8598633 -0.5404663 -1.559082 -0.42630005q-0.69091797 0.10092163 -1.0650635 0.696228q-0.36590576 0.58206177 -0.16552734 1.2616577q0.18707275 0.67123413 1.0866699 1.2366638zm5.1710205 -3.0299988l-4.6830444 -2.9434814l0.44903564 -0.71435547l0.6746826 0.42407227q-0.4562378 -1.0065308 0.15075684 -1.972229q0.26605225 -0.42330933 0.649292 -0.6807251q0.37005615 -0.26571655 0.7294922 -0.2796936q0.36773682 -0.02722168 0.74005127 0.11450195q0.2498169 0.10165405 0.8054199 0.4508667l2.8706665 1.8043518l-0.49890137 0.7937317l-2.8441772 -1.7877197q-0.48950195 -0.3076477 -0.78582764 -0.36471558q-0.29632568 -0.05706787 -0.5914917 0.08959961q-0.28686523 0.13342285 -0.4864502 0.45092773q-0.31591797 0.50268555 -0.21801758 1.0809631q0.08465576 0.5699768 0.9842529 1.135376l2.5531616 1.6047974l-0.49890137 0.7937317z" fill-rule="nonzero"/><path fill="#000000" fill-opacity="0.0" d="m387.52493 23.19685l287.46457 0l0 51.716534l-287.46457 0z" fill-rule="evenodd"/><path fill="#cfe2f3" d="m456.1949 57.79685l0 -19.078125l3.796875 0l4.515625 13.5q0.625 1.890625 0.90625 2.828125q0.328125 -1.03125 1.015625 -3.0625l4.578125 -13.265625l3.390625 0l0 19.078125l-2.4375 0l0 -15.96875l-5.546875 15.96875l-2.265625 0l-5.53125 -16.25l0 16.25l-2.421875 0zm21.111115 -6.90625q0 -3.84375 2.125 -5.6875q1.78125 -1.546875 4.34375 -1.546875q2.859375 0 4.65625 1.875q1.8125 1.859375 1.8125 5.15625q0 2.671875 -0.796875 4.203125q-0.796875 1.53125 -2.328125 2.375q-1.53125 0.84375 -3.34375 0.84375q-2.890625 0 -4.6875 -1.859375q-1.78125 -1.859375 -1.78125 -5.359375zm2.40625 0q0 2.65625 1.15625 3.984375q1.15625 1.3125 2.90625 1.3125q1.75 0 2.90625 -1.328125q1.15625 -1.328125 1.15625 -4.046875q0 -2.5625 -1.171875 -3.890625q-1.15625 -1.328125 -2.890625 -1.328125q-1.75 0 -2.90625 1.328125q-1.15625 1.3125 -1.15625 3.96875zm22.340546 6.90625l0 -2.03125q-1.609375 2.34375 -4.375 2.34375q-1.234375 0 -2.296875 -0.46875q-1.0625 -0.46875 -1.578125 -1.171875q-0.5 -0.71875 -0.71875 -1.75q-0.140625 -0.6875 -0.140625 -2.1875l0 -8.5625l2.34375 0l0 7.671875q0 1.828125 0.140625 2.46875q0.21875 0.921875 0.9375 1.453125q0.71875 0.53125 1.765625 0.53125q1.0625 0 1.984375 -0.53125q0.921875 -0.546875 1.296875 -1.46875q0.390625 -0.9375 0.390625 -2.71875l0 -7.40625l2.34375 0l0 13.828125l-2.09375 0zm4.824951 -4.125l2.328125 -0.359375q0.1875 1.390625 1.078125 2.140625q0.890625 0.734375 2.5 0.734375q1.609375 0 2.390625 -0.65625q0.78125 -0.65625 0.78125 -1.546875q0 -0.796875 -0.6875 -1.25q-0.484375 -0.3125 -2.390625 -0.796875q-2.578125 -0.65625 -3.578125 -1.125q-1.0 -0.46875 -1.515625 -1.3125q-0.515625 -0.84375 -0.515625 -1.859375q0 -0.921875 0.421875 -1.703125q0.4375 -0.796875 1.15625 -1.3125q0.546875 -0.40625 1.484375 -0.6875q0.953125 -0.28125 2.03125 -0.28125q1.625 0 2.859375 0.46875q1.234375 0.46875 1.8125 1.28125q0.59375 0.796875 0.8125 2.140625l-2.296875 0.3125q-0.15625 -1.078125 -0.90625 -1.671875q-0.75 -0.59375 -2.109375 -0.59375q-1.609375 0 -2.3125 0.53125q-0.6875 0.53125 -0.6875 1.25q0 0.453125 0.296875 0.8125q0.28125 0.375 0.890625 0.625q0.359375 0.140625 2.078125 0.609375q2.484375 0.65625 3.46875 1.078125q0.984375 0.421875 1.53125 1.234375q0.5625 0.796875 0.5625 2.0q0 1.171875 -0.6875 2.21875q-0.671875 1.03125 -1.96875 1.59375q-1.28125 0.5625 -2.90625 0.5625q-2.703125 0 -4.125 -1.109375q-1.40625 -1.125 -1.796875 -3.328125zm23.734375 -0.328125l2.421875 0.296875q-0.578125 2.125 -2.125 3.296875q-1.546875 1.171875 -3.953125 1.171875q-3.03125 0 -4.8125 -1.859375q-1.78125 -1.875 -1.78125 -5.25q0 -3.484375 1.796875 -5.40625q1.796875 -1.9375 4.671875 -1.9375q2.765625 0 4.515625 1.890625q1.765625 1.890625 1.765625 5.3125q0 0.203125 -0.015625 0.625l-10.3125 0q0.140625 2.28125 1.296875 3.5q1.15625 1.203125 2.890625 1.203125q1.28125 0 2.1875 -0.671875q0.921875 -0.6875 1.453125 -2.171875zm-7.6875 -3.78125l7.71875 0q-0.15625 -1.75 -0.890625 -2.625q-1.125 -1.34375 -2.90625 -1.34375q-1.609375 0 -2.71875 1.078125q-1.09375 1.078125 -1.203125 2.890625zm20.652771 8.234375l0 -19.078125l2.53125 0l0 16.828125l9.390625 0l0 2.25l-11.921875 0zm23.653076 -1.703125q-1.3125 1.109375 -2.515625 1.5625q-1.203125 0.453125 -2.578125 0.453125q-2.28125 0 -3.5 -1.109375q-1.21875 -1.109375 -1.21875 -2.84375q0 -1.015625 0.453125 -1.859375q0.46875 -0.84375 1.21875 -1.34375q0.75 -0.515625 1.6875 -0.765625q0.6875 -0.1875 2.078125 -0.359375q2.828125 -0.328125 4.171875 -0.796875q0.015625 -0.484375 0.015625 -0.625q0 -1.421875 -0.65625 -2.015625q-0.90625 -0.796875 -2.671875 -0.796875q-1.65625 0 -2.453125 0.59375q-0.78125 0.578125 -1.15625 2.046875l-2.296875 -0.3125q0.3125 -1.46875 1.03125 -2.375q0.71875 -0.90625 2.0625 -1.390625q1.359375 -0.5 3.140625 -0.5q1.78125 0 2.875 0.421875q1.109375 0.421875 1.625 1.046875q0.53125 0.625 0.734375 1.59375q0.125 0.59375 0.125 2.15625l0 3.125q0 3.265625 0.140625 4.140625q0.15625 0.859375 0.59375 1.65625l-2.4375 0q-0.375 -0.734375 -0.46875 -1.703125zm-0.203125 -5.234375q-1.265625 0.515625 -3.828125 0.890625q-1.4375 0.203125 -2.046875 0.46875q-0.59375 0.25 -0.921875 0.75q-0.3125 0.5 -0.3125 1.125q0 0.9375 0.703125 1.5625q0.703125 0.625 2.078125 0.625q1.34375 0 2.390625 -0.59375q1.0625 -0.59375 1.5625 -1.625q0.375 -0.796875 0.375 -2.34375l0 -0.859375zm5.903076 12.265625l-0.265625 -2.203125q0.765625 0.203125 1.34375 0.203125q0.78125 0 1.25 -0.265625q0.46875 -0.25 0.765625 -0.71875q0.21875 -0.359375 0.71875 -1.75q0.0625 -0.1875 0.203125 -0.5625l-5.25 -13.859375l2.53125 0l2.875 8.015625q0.5625 1.515625 1.0 3.203125q0.40625 -1.625 0.96875 -3.15625l2.953125 -8.0625l2.34375 0l-5.265625 14.0625q-0.84375 2.28125 -1.3125 3.140625q-0.625 1.15625 -1.4375 1.6875q-0.796875 0.546875 -1.921875 0.546875q-0.671875 0 -1.5 -0.28125zm22.890625 -9.78125l2.421875 0.296875q-0.578125 2.125 -2.125 3.296875q-1.546875 1.171875 -3.953125 1.171875q-3.03125 0 -4.8125 -1.859375q-1.78125 -1.875 -1.78125 -5.25q0 -3.484375 1.796875 -5.40625q1.796875 -1.9375 4.671875 -1.9375q2.765625 0 4.515625 1.890625q1.765625 1.890625 1.765625 5.3125q0 0.203125 -0.015625 0.625l-10.3125 0q0.140625 2.28125 1.296875 3.5q1.15625 1.203125 2.890625 1.203125q1.28125 0 2.1875 -0.671875q0.921875 -0.6875 1.453125 -2.171875zm-7.6875 -3.78125l7.71875 0q-0.15625 -1.75 -0.890625 -2.625q-1.125 -1.34375 -2.90625 -1.34375q-1.609375 0 -2.71875 1.078125q-1.09375 1.078125 -1.203125 2.890625zm13.028015 8.234375l0 -13.828125l2.109375 0l0 2.09375q0.796875 -1.46875 1.484375 -1.9375q0.6875 -0.46875 1.5 -0.46875q1.1875 0 2.40625 0.765625l-0.796875 2.171875q-0.859375 -0.515625 -1.71875 -0.515625q-0.765625 0 -1.390625 0.46875q-0.609375 0.453125 -0.859375 1.28125q-0.390625 1.25 -0.390625 2.734375l0 7.234375l-2.34375 0z" fill-rule="nonzero"/></g></svg>