<svg version="1.1" viewBox="0.0 0.0 1062.5144356955382 514.0472440944882" fill="none" stroke="none" stroke-linecap="square" stroke-miterlimit="10" xmlns:xlink="http://www.w3.org/1999/xlink" xmlns="http://www.w3.org/2000/svg"><clipPath id="p.0"><path d="m0 0l1062.5144 0l0 514.04724l-1062.5144 0l0 -514.04724z" clip-rule="nonzero"/></clipPath><g clip-path="url(#p.0)"><path fill="#000000" fill-opacity="0.0" d="m0 0l1062.5144 0l0 514.04724l-1062.5144 0z" fill-rule="evenodd"/><path fill="#cfe2f3" d="m379.90622 109.94902l0 0c2.2555847 -5.867958 8.841003 -8.796379 14.708954 -6.5408096l42.49826 16.335793l0 0c2.8179016 1.0831604 5.090088 3.2413635 6.316742 5.999832c1.226654 2.7584686 1.307251 5.8912354 0.22409058 8.709122l-16.335815 42.49826c-2.2555542 5.8679657 -8.840973 8.796387 -14.708954 6.5408173l-42.49826 -16.3358c-5.8679504 -2.2555695 -8.796387 -8.840988 -6.540802 -14.708954z" fill-rule="evenodd"/><path stroke="#000000" stroke-width="1.0" stroke-linejoin="round" stroke-linecap="butt" d="m379.90622 109.94902l0 0c2.2555847 -5.867958 8.841003 -8.796379 14.708954 -6.5408096l42.49826 16.335793l0 0c2.8179016 1.0831604 5.090088 3.2413635 6.316742 5.999832c1.226654 2.7584686 1.307251 5.8912354 0.22409058 8.709122l-16.335815 42.49826c-2.2555542 5.8679657 -8.840973 8.796387 -14.708954 6.5408173l-42.49826 -16.3358c-5.8679504 -2.2555695 -8.796387 -8.840988 -6.540802 -14.708954z" fill-rule="evenodd"/><path fill="#000000" d="m404.83868 143.7521q-0.6578064 -2.0774536 -0.70877075 -4.55777q-0.050964355 -2.4803162 0.83480835 -4.784683q0.7736511 -2.01268 2.1419373 -3.6126556q1.6026917 -1.8614044 4.0109253 -3.3796844l1.0938416 0.42045593q-1.6992798 1.3723145 -2.326233 2.00177q-0.95895386 0.9705658 -1.7585754 2.1362762q-0.9756775 1.4495697 -1.5923767 3.0538788q-1.5697021 4.0837097 -0.6017151 9.142868l-1.0938416 -0.42045593z" fill-rule="nonzero"/><path fill="#000000" d="m394.39835 155.79222l1.5234985 0.43496704q-0.20843506 1.1083832 0.13720703 1.7769165q0.3456726 0.6685333 1.177002 0.9880829q0.7000427 0.26908875 1.3484192 0.15005493q0.6629944 -0.11343384 1.2058411 -0.52412415q0.5574646 -0.40509033 1.129425 -1.2398376q0.58654785 -0.8291321 0.95095825 -1.7771301q0.039215088 -0.10209656 0.1177063 -0.3062744q-0.7470093 0.5498352 -1.7229614 0.6936188q-0.96136475 0.1493988 -1.880188 -0.20379639q-1.5605469 -0.5998535 -2.1935425 -2.1321259q-0.6330261 -1.5322571 0.07336426 -3.369934q0.7287903 -1.8959961 2.2801208 -2.622116q1.5658875 -0.72052 3.2431335 -0.075805664q1.2250977 0.47091675 1.9791565 1.5140533q0.75405884 1.0431366 0.81381226 2.4554749q0.0597229 1.4123535 -0.8204346 3.7021332q-0.9194031 2.3918762 -1.9882507 3.6047668q-1.0688477 1.2128906 -2.3756714 1.5642853q-1.3068542 0.3513794 -2.6923828 -0.18119812q-1.4584656 -0.56062317 -2.077942 -1.7361603q-0.6048889 -1.1699219 -0.22827148 -2.7158508zm8.384918 -3.0877686q0.5045471 -1.3126068 0.101623535 -2.3546906q-0.4029541 -1.0420837 -1.3947144 -1.4232941q-1.0209045 -0.3924408 -2.098877 0.14736938q-1.0779419 0.5397949 -1.5881042 1.8670044q-0.45968628 1.1959381 -0.030975342 2.2144623q0.44332886 1.0241241 1.4934082 1.4277649q1.0646973 0.40924072 2.0360718 -0.07107544q0.971405 -0.48033142 1.4815674 -1.8075409z" fill-rule="nonzero"/><path fill="#cfe2f3" d="m351.86676 182.92055l0 0c2.2555847 -5.8679657 8.841003 -8.796387 14.708954 -6.5408173l42.49826 16.335785l0 0c2.8179016 1.0831757 5.0901184 3.2413788 6.316742 5.999832c1.226654 2.7584686 1.307251 5.8912354 0.22409058 8.709137l-16.335785 42.49826c-2.2555847 5.8679504 -8.841003 8.796371 -14.708984 6.5408173l-42.49826 -16.3358c-5.8679504 -2.2555695 -8.796387 -8.841003 -6.540802 -14.708954z" fill-rule="evenodd"/><path stroke="#000000" stroke-width="1.0" stroke-linejoin="round" stroke-linecap="butt" d="m351.86676 182.92055l0 0c2.2555847 -5.8679657 8.841003 -8.796387 14.708954 -6.5408173l42.49826 16.335785l0 0c2.8179016 1.0831757 5.0901184 3.2413788 6.316742 5.999832c1.226654 2.7584686 1.307251 5.8912354 0.22409058 8.709137l-16.335785 42.49826c-2.2555847 5.8679504 -8.841003 8.796371 -14.708984 6.5408173l-42.49826 -16.3358c-5.8679504 -2.2555695 -8.796387 -8.841003 -6.540802 -14.708954z" fill-rule="evenodd"/><path fill="#000000" d="m377.23203 205.95905l-1.5751343 -0.60546875l5.6224976 -5.6561584l1.2397156 0.47653198l0.40093994 7.9714966l-1.5459595 -0.59425354l-0.14926147 -5.882736l-3.9927979 4.2905884z" fill-rule="nonzero"/><path fill="#000000" d="m376.5801 225.21007l-1.5616455 -0.46636963q0.1434021 -0.98272705 -0.078826904 -1.5368652q-0.36029053 -0.8917694 -1.2791138 -1.2449493q-0.72924805 -0.28030396 -1.4404297 -0.0849762q-0.9164734 0.25035095 -1.731842 1.1086884q-0.80978394 0.84376526 -1.5419617 2.7050018q0.8737793 -0.6183014 1.8329163 -0.71832275q0.95910645 -0.10003662 1.834198 0.23632812q1.5313721 0.58865356 2.1643982 2.1209106q0.647583 1.5378723 -0.036376953 3.3171997q-0.45410156 1.181366 -1.3513794 1.9914856q-0.8826904 0.81573486 -1.9797974 1.013382q-1.082489 0.20326233 -2.205536 -0.22840881q-1.9251709 -0.7400055 -2.5975037 -2.6054535q-0.6521301 -1.8744049 0.59243774 -5.112198q1.3903198 -3.6169891 3.345398 -4.7403107q1.7161865 -0.98080444 3.699707 -0.21836853q1.4584656 0.56062317 2.0723267 1.7507324q0.6340637 1.1811371 0.263031 2.712494zm-8.305267 2.9677124q-0.30273438 0.78756714 -0.24761963 1.6457367q0.060760498 0.8435974 0.51297 1.452652q0.45220947 0.6090393 1.1231079 0.8669281q0.96258545 0.37001038 1.9597778 -0.13388062q1.0027771 -0.5184784 1.5185547 -1.86026q0.49893188 -1.2980347 0.099365234 -2.3053436q-0.39953613 -1.007309 -1.449646 -1.4109497q-1.0355225 -0.39804077 -2.0506592 0.065475464q-1.0005493 0.4691162 -1.4658508 1.6796417z" fill-rule="nonzero"/><path fill="#cfe2f3" d="m323.8273 255.89206l0 0c2.2555847 -5.8679657 8.841003 -8.796387 14.708954 -6.5408173l42.49829 16.3358l0 0c2.817871 1.0831604 5.090088 3.2413635 6.3167114 5.999817c1.226654 2.758484 1.307251 5.8912354 0.22409058 8.709137l-16.335785 42.49826c-2.2555847 5.8679504 -8.841003 8.796387 -14.708954 6.540802l-42.49829 -16.335785c-5.8679504 -2.2555542 -8.796356 -8.841003 -6.540802 -14.708954z" fill-rule="evenodd"/><path stroke="#000000" stroke-width="1.0" stroke-linejoin="round" stroke-linecap="butt" d="m323.8273 255.89206l0 0c2.2555847 -5.8679657 8.841003 -8.796387 14.708954 -6.5408173l42.49829 16.3358l0 0c2.817871 1.0831604 5.090088 3.2413635 6.3167114 5.999817c1.226654 2.758484 1.307251 5.8912354 0.22409058 8.709137l-16.335785 42.49826c-2.2555847 5.8679504 -8.841003 8.796387 -14.708954 6.540802l-42.49829 -16.335785c-5.8679504 -2.2555542 -8.796356 -8.841003 -6.540802 -14.708954z" fill-rule="evenodd"/><path fill="#000000" d="m344.94586 284.2786l2.13974 -3.3456726l-1.4438782 -0.5549927l0.48773193 -1.2688904l1.6918335 0.6503296l1.8100281 -2.8363037l-2.3189392 -0.8913574l0.48773193 -1.2688904l2.581482 0.9923096l2.1453552 -3.36026l1.2688599 0.48773193l-2.1453552 3.36026l2.6835632 1.0315247l2.1453552 -3.36026l1.2834473 0.49334717l-2.1453552 3.36026l1.473053 0.56622314l-0.48773193 1.2688599l-1.7209778 -0.66152954l-1.824646 2.8306885l2.362732 0.9082031l-0.48773193 1.2688599l-2.6252441 -1.0091248l-2.1251526 3.3512878l-1.2834473 -0.49334717l2.1251526 -3.3512573l-2.6690063 -1.02594l-2.1251526 3.3512573l-1.2834473 -0.49331665zm4.1588745 -4.025879l2.6689758 1.0259094l1.824646 -2.8306885l-2.6835938 -1.0315247l-1.8100281 2.8363037z" fill-rule="nonzero"/><path fill="#000000" d="m338.25763 301.2428l1.6098938 0.38446045q-0.24203491 1.4135437 0.16647339 2.2233887q0.4230652 0.8154907 1.3273315 1.1630554q1.0792542 0.41485596 2.1089783 -0.043029785q1.0297241 -0.45791626 1.4558105 -1.5663452q0.4036255 -1.0501099 -0.018371582 -1.999054q-0.42196655 -0.9489746 -1.4866638 -1.3582153q-0.43753052 -0.16821289 -1.1409302 -0.25442505l0.6907959 -1.2745361q0.14022827 0.07064819 0.24234009 0.1098938q0.97717285 0.37561035 1.9463501 0.16229248q0.98379517 -0.20773315 1.3874512 -1.257843q0.32513428 -0.84588623 -0.03060913 -1.6187439q-0.35577393 -0.77285767 -1.2600403 -1.1204529q-0.88964844 -0.34197998 -1.7062683 -0.0030212402q-0.81100464 0.32437134 -1.4031067 1.3857117l-1.4248657 -0.8657532q0.8657532 -1.4248657 2.1826782 -1.8895569q1.3168945 -0.46469116 2.804535 0.1071167q1.020935 0.39245605 1.6986389 1.1551514q0.6923218 0.76828 0.8529358 1.70047q0.1751709 0.9378052 -0.1499939 1.7837219q-0.3083191 0.80215454 -1.0037537 1.3048706q-0.68981934 0.48812866 -1.6870728 0.5567322q1.0075073 0.68859863 1.3117371 1.7262268q0.30419922 1.0375977 -0.1611023 2.2481384q-0.62228394 1.6188965 -2.2554932 2.2967834q-1.6186523 0.6835022 -3.441742 -0.01727295q-1.6480408 -0.6334839 -2.351715 -2.0255127q-0.7036438 -1.3920288 -0.2642212 -3.0142517z" fill-rule="nonzero"/><path fill="#cfe2f3" d="m450.5316 147.19685l0 0c2.2555847 -5.8679657 8.841003 -8.796387 14.708954 -6.5408173l42.49829 16.3358l0 0c2.817871 1.0831604 5.090088 3.2413635 6.3167114 5.999832c1.2266235 2.7584534 1.307251 5.89122 0.22406006 8.709122l-16.335754 42.49826c-2.2555847 5.8679657 -8.841003 8.796387 -14.708954 6.5408173l-42.49829 -16.3358c-5.8679504 -2.2555695 -8.796356 -8.840988 -6.540802 -14.708954z" fill-rule="evenodd"/><path stroke="#000000" stroke-width="1.0" stroke-linejoin="round" stroke-linecap="butt" d="m450.5316 147.19685l0 0c2.2555847 -5.8679657 8.841003 -8.796387 14.708954 -6.5408173l42.49829 16.3358l0 0c2.817871 1.0831604 5.090088 3.2413635 6.3167114 5.999832c1.2266235 2.7584534 1.307251 5.89122 0.22406006 8.709122l-16.335754 42.49826c-2.2555847 5.8679657 -8.841003 8.796387 -14.708954 6.5408173l-42.49829 -16.3358c-5.8679504 -2.2555695 -8.796356 -8.840988 -6.540802 -14.708954z" fill-rule="evenodd"/><path fill="#000000" d="m480.11838 172.61133l-0.5325928 1.3855438q-0.66189575 -0.23768616 -1.204834 -0.044631958q-0.5372925 0.17848206 -0.90740967 0.7057953q-0.35549927 0.53292847 -0.9194946 1.9566193q-0.5437927 1.4147186 -0.761322 1.8500214q-0.34762573 0.686615 -0.7289734 1.0254822q-0.3723755 0.35905457 -0.77957153 0.5038452q-0.40719604 0.14479065 -0.9389343 0.091049194q-0.3544922 -0.035827637 -1.0837402 -0.3161316l-0.48129272 -0.18499756l0.51016235 -1.3272095l0.26254272 0.10090637q0.88964844 0.34197998 1.3046875 0.13323975q0.41500854 -0.20874023 0.841095 -1.3171692q0.81848145 -2.129364 1.1100464 -2.6701355q0.4956665 -0.89753723 1.1170654 -1.2947845q0.62701416 -0.41183472 1.5087585 -0.44117737q-0.7977905 -0.8423157 -0.9090271 -1.7722778q-0.09664917 -0.9243469 0.604126 -2.7474213q0.6390991 -1.6626587 0.71865845 -2.0003357q0.16030884 -0.59121704 -0.032684326 -0.9165039q-0.18743896 -0.33987427 -1.0041504 -0.65382385l-0.26254272 -0.10090637l0.51016235 -1.3272095l0.48129272 0.18501282q0.83132935 0.31954956 1.1600647 0.5965729q0.46676636 0.39701843 0.6430054 0.98368835q0.19641113 0.57769775 0.040649414 1.2878418q-0.14120483 0.71572876 -0.7298584 2.247116q-0.57406616 1.5370026 -0.6670532 2.1708374q-0.072784424 0.6248627 0.20101929 1.1318665q0.27944946 0.49241638 0.93014526 0.75927734z" fill-rule="nonzero"/><path fill="#000000" d="m467.7649 201.37543l-3.369049 -1.2950134l0.48773193 -1.2688599l1.8376465 0.7063751l5.146454 -13.388702l-1.8376465 -0.7063751l0.48773193 -1.2688599l3.369049 1.2950134l-6.1219177 15.926422z" fill-rule="nonzero"/><path fill="#cfe2f3" d="m422.49216 220.16837l0 0c2.2555542 -5.8679504 8.840973 -8.796387 14.708954 -6.540802l42.49826 16.335785l0 0c2.817871 1.0831604 5.090088 3.2413635 6.3167114 5.999832c1.226654 2.7584686 1.307251 5.8912354 0.22409058 8.709122l-16.335785 42.49826c-2.2555847 5.867981 -8.841003 8.796387 -14.708954 6.5408325l-42.49826 -16.335815c-5.867981 -2.2555542 -8.796387 -8.840973 -6.5408325 -14.708954z" fill-rule="evenodd"/><path stroke="#000000" stroke-width="1.0" stroke-linejoin="round" stroke-linecap="butt" d="m422.49216 220.16837l0 0c2.2555542 -5.8679504 8.840973 -8.796387 14.708954 -6.540802l42.49826 16.335785l0 0c2.817871 1.0831604 5.090088 3.2413635 6.3167114 5.999832c1.226654 2.7584686 1.307251 5.8912354 0.22409058 8.709122l-16.335785 42.49826c-2.2555847 5.867981 -8.841003 8.796387 -14.708954 6.5408325l-42.49826 -16.335815c-5.867981 -2.2555542 -8.796387 -8.840973 -6.5408325 -14.708954z" fill-rule="evenodd"/><path fill="#000000" d="m450.65344 254.3756l-8.240326 -3.1674652l0.5437927 -1.4147186l8.240326 3.1674805l-0.5437927 1.4147034zm-1.4576111 3.7920074l-8.240295 -3.1674652l0.54937744 -1.429306l8.240326 3.1674805l-0.54940796 1.4292908z" fill-rule="nonzero"/><path fill="#cfe2f3" d="m394.4527 293.1399l0 0c2.2555542 -5.867981 8.840973 -8.796387 14.708954 -6.5408325l42.49826 16.335815l0 0c2.8179016 1.0831604 5.090088 3.2413635 6.3167114 5.999817c1.226654 2.758484 1.307251 5.8912354 0.22409058 8.709137l-16.335785 42.49826c-2.2555847 5.8679504 -8.841003 8.796387 -14.708954 6.540802l-42.49826 -16.335785c-5.867981 -2.2555847 -8.796387 -8.841003 -6.5408325 -14.708954z" fill-rule="evenodd"/><path stroke="#000000" stroke-width="1.0" stroke-linejoin="round" stroke-linecap="butt" d="m394.4527 293.1399l0 0c2.2555542 -5.867981 8.840973 -8.796387 14.708954 -6.5408325l42.49826 16.335815l0 0c2.8179016 1.0831604 5.090088 3.2413635 6.3167114 5.999817c1.226654 2.758484 1.307251 5.8912354 0.22409058 8.709137l-16.335785 42.49826c-2.2555847 5.8679504 -8.841003 8.796387 -14.708954 6.540802l-42.49826 -16.335785c-5.867981 -2.2555847 -8.796387 -8.841003 -6.5408325 -14.708954z" fill-rule="evenodd"/><path fill="#000000" d="m417.55807 326.24066l6.2788696 -16.334778l1.3272095 0.51013184l-6.2789 16.334808l-1.327179 -0.51016235z" fill-rule="nonzero"/><path fill="#000000" d="m412.84302 344.04706l1.3388672 -14.283173l1.239685 0.47653198l-1.3534241 14.277557l-1.2251282 -0.47091675z" fill-rule="nonzero"/><path fill="#cfe2f3" d="m230.29265 57.21729l0 0c2.2555695 -5.867962 8.840988 -8.796383 14.708954 -6.5408134l42.498276 16.335793l0 0c2.817871 1.083168 5.090088 3.2413712 6.3167114 5.999832c1.226654 2.7584686 1.307251 5.8912354 0.22409058 8.709129l-16.335785 42.49826c-2.2555847 5.867958 -8.841003 8.796379 -14.708954 6.5408096l-42.498276 -16.335793c-5.8679657 -2.2555695 -8.796387 -8.840996 -6.5408173 -14.708954z" fill-rule="evenodd"/><path stroke="#000000" stroke-width="1.0" stroke-linejoin="round" stroke-linecap="butt" d="m230.29265 57.21729l0 0c2.2555695 -5.867962 8.840988 -8.796383 14.708954 -6.5408134l42.498276 16.335793l0 0c2.817871 1.083168 5.090088 3.2413712 6.3167114 5.999832c1.226654 2.7584686 1.307251 5.8912354 0.22409058 8.709129l-16.335785 42.49826c-2.2555847 5.867958 -8.841003 8.796379 -14.708954 6.5408096l-42.498276 -16.335793c-5.8679657 -2.2555695 -8.796387 -8.840996 -6.5408173 -14.708954z" fill-rule="evenodd"/><path fill="#000000" d="m258.49084 86.38335q-1.0835571 0.55438995 -2.1358032 0.63536835q-1.0522461 0.08098602 -2.0877533 -0.31705475q-1.9105835 -0.7344055 -2.5346527 -2.4641113q-0.51519775 -1.4032822 -0.010635376 -2.7158966q0.4428711 -1.1521912 1.5454865 -1.7996902q1.1026154 -0.6475067 2.8593445 -0.7757416q-0.47590637 -1.2877426 -0.52316284 -1.9922256q-0.041656494 -0.71907806 0.1769867 -1.28788q0.4316864 -1.1230164 1.6207123 -1.6033859q1.1946106 -0.49495697 2.5364075 0.020812988q1.2688599 0.48773193 1.7828674 1.5892487q0.5196228 1.0869293 0.09915161 2.1807785q-0.68395996 1.7793274 -3.528778 2.125412l1.1326294 3.7163239q0.68530273 -0.6070328 1.2651062 -1.5057144l1.4607849 0.94651794q-1.0362549 1.4765015 -2.1399536 2.2574997q0.42318726 1.4683685 1.2199097 2.6618118l-1.5064087 0.8270798q-0.68899536 -0.95116425 -1.2322388 -2.4991531zm-0.6117859 -7.684273q1.2215881 -0.2167511 1.6814575 -0.54216766q0.4598999 -0.32541656 0.6673279 -0.86504364q0.24667358 -0.64173126 -0.010345459 -1.192482q-0.2368164 -0.55973816 -0.83477783 -0.7895889q-0.62713623 -0.24106598 -1.2070618 0.004722595q-0.5597534 0.2368164 -0.77838135 0.8056183q-0.11212158 0.291687 -0.08959961 0.66861725q0.037078857 0.3825302 0.18862915 0.8592682l0.38275146 1.0510559zm0.11450195 6.1037445l-1.4659729 -4.5475235q-1.5256195 0.26729584 -2.2042236 0.7262497q-0.6786041 0.45895386 -0.91967773 1.0860901q-0.29151917 0.75839996 -0.0074920654 1.8049927q0.2986145 1.0522003 1.4070435 1.4782715q0.68548584 0.26348877 1.5772858 0.12084198q0.9120178 -0.15162659 1.6130371 -0.6689224z" fill-rule="nonzero"/><path fill="#000000" d="m247.72345 95.06701l0.56622314 -1.4730453l8.065308 3.1002045l-0.4597168 1.1959381q-1.68367 0.8091583 -3.65773 2.4608536q-1.97406 1.6516953 -3.4679108 3.6218948q-1.0519867 1.3867645 -1.9008331 3.2031403l-1.5751495 -0.6054611q0.59539795 -1.4618378 1.951294 -3.3344116q1.355896 -1.8725662 3.1168365 -3.4053116q1.7811279 -1.5417175 3.4580536 -2.4204254l-6.0963745 -2.3433762z" fill-rule="nonzero"/><path fill="#cfe2f3" d="m202.25319 130.18881l0 0c2.2555695 -5.8679657 8.841003 -8.796387 14.708954 -6.5408173l42.498276 16.3358l0 0c2.817871 1.0831604 5.090088 3.2413635 6.3167114 5.999832c1.226654 2.7584534 1.307251 5.89122 0.22409058 8.709122l-16.335785 42.49826c-2.2555847 5.8679657 -8.841003 8.796387 -14.708969 6.5408173l-42.49826 -16.3358c-5.8679504 -2.2555695 -8.796387 -8.840988 -6.540802 -14.708954z" fill-rule="evenodd"/><path stroke="#000000" stroke-width="1.0" stroke-linejoin="round" stroke-linecap="butt" d="m202.25319 130.18881l0 0c2.2555695 -5.8679657 8.841003 -8.796387 14.708954 -6.5408173l42.498276 16.3358l0 0c2.817871 1.0831604 5.090088 3.2413635 6.3167114 5.999832c1.226654 2.7584534 1.307251 5.89122 0.22409058 8.709122l-16.335785 42.49826c-2.2555847 5.8679657 -8.841003 8.796387 -14.708969 6.5408173l-42.49826 -16.3358c-5.8679504 -2.2555695 -8.796387 -8.840988 -6.540802 -14.708954z" fill-rule="evenodd"/><path fill="#000000" d="m226.22284 161.47913l0.5886383 -1.5313873q-1.081543 -0.5831146 -1.6706085 -1.2280426q-0.56889343 -0.65390015 -0.7799988 -1.6724701q-0.20549011 -1.0331421 0.17567444 -2.2425232l1.6435242 0.2969513q-0.2959137 1.2923889 -0.06802368 2.0495605q0.34236145 1.0690155 1.1983795 1.4985046l1.8724518 -4.871277q-0.86613464 -0.5338135 -1.6448517 -1.4692383q-0.5722656 -0.6886749 -0.6913452 -1.5546875q-0.113479614 -0.8806 0.23970032 -1.7994385q0.62789917 -1.6334839 2.1669006 -2.19693q1.0364838 -0.38835144 2.6093445 0.048843384l0.28030396 -0.7292328l0.9042511 0.34757996l-0.28030396 0.7292328q1.296936 0.6324463 1.8176422 1.5858765q0.68118286 1.232727 0.33035278 2.7550964l-1.6704407 -0.3575287q0.20173645 -0.9603119 -0.05079651 -1.609787q-0.23796082 -0.6438751 -0.920105 -1.09021l-1.6986694 4.4191437q1.0400696 0.73457336 1.357605 1.0407715q0.59690857 0.5809784 0.87524414 1.2068939q0.27833557 0.6259155 0.27062988 1.3427429q0.012481689 0.7078705 -0.26782227 1.4371033q-0.611084 1.5897217 -2.0412445 2.261963q-1.4155884 0.67785645 -3.047943 0.1341095l-0.5942383 1.5459747l-0.9042511 -0.3475952zm5.152054 -13.403275q-0.9457245 -0.19613647 -1.6804352 0.19104004q-0.7291107 0.3725891 -1.0318298 1.1601562q-0.30273438 0.78756714 -0.0670166 1.4808044q0.23571777 0.69322205 1.1478882 1.4121246l1.6313934 -4.2441254zm-3.1602173 10.921448q0.9289093 0.23988342 1.7645721 -0.19218445q0.8412628 -0.44664 1.2168732 -1.4238129q0.31954956 -0.83132935 0.107406616 -1.498764q-0.2121582 -0.6674347 -1.3004913 -1.5377502l-1.7883606 4.6525116z" fill-rule="nonzero"/><path fill="#000000" d="m220.31697 180.71935l1.1492615 -2.989853l-5.410904 -2.0798798l0.53819275 -1.4001312l8.793808 -5.8934937l1.2542877 0.48213196l-3.1058197 8.079895l1.6772461 0.6446991l-0.53819275 1.4001312l-1.6772308 -0.64471436l-1.1492615 2.989853l-1.5313873 -0.5886383zm1.687439 -4.389984l2.158371 -5.615082l-6.067047 4.1126404l3.9086761 1.5024414z" fill-rule="nonzero"/><path fill="#cfe2f3" d="m174.21373 203.16032l0 0c2.2555695 -5.8679657 8.841003 -8.796387 14.708969 -6.5408173l42.49826 16.3358l0 0c2.8178864 1.0831604 5.090088 3.2413635 6.3167267 5.999832c1.2266388 2.7584686 1.307251 5.8912354 0.22407532 8.709122l-16.335785 42.498276c-2.2555695 5.8679504 -8.841003 8.796387 -14.708954 6.540802l-42.498276 -16.335785c-5.8679504 -2.2555847 -8.796371 -8.841003 -6.540802 -14.708969z" fill-rule="evenodd"/><path stroke="#000000" stroke-width="1.0" stroke-linejoin="round" stroke-linecap="butt" d="m174.21373 203.16032l0 0c2.2555695 -5.8679657 8.841003 -8.796387 14.708969 -6.5408173l42.49826 16.3358l0 0c2.8178864 1.0831604 5.090088 3.2413635 6.3167267 5.999832c1.2266388 2.7584686 1.307251 5.8912354 0.22407532 8.709122l-16.335785 42.498276c-2.2555695 5.8679504 -8.841003 8.796387 -14.708954 6.540802l-42.498276 -16.335785c-5.8679504 -2.2555847 -8.796371 -8.841003 -6.540802 -14.708969z" fill-rule="evenodd"/><path fill="#000000" d="m200.12207 229.5881l2.072876 -6.7862396l1.0651703 -2.7710876l1.8960114 0.72880554l-1.0651703 2.7710876l-2.9917145 6.4330444l-0.97717285 -0.37561035zm-1.596878 2.934967l0.67274475 -1.7501526l1.76474 0.6783447l-0.67274475 1.7501526l-1.76474 -0.6783447z" fill-rule="nonzero"/><path fill="#000000" d="m193.138 254.02162l-1.5313873 -0.5886383l3.7505188 -9.757126q-0.7560425 0.31201172 -1.8677216 0.50405884q-1.0914764 0.18307495 -1.9070282 0.17089844l0.5718231 -1.4876404q1.5132904 -0.10462952 2.8066406 -0.59510803q1.2933502 -0.49049377 1.9954834 -1.1412811l0.991745 0.38121033l-4.810074 12.513626z" fill-rule="nonzero"/><path fill="#cfe2f3" d="m309.67908 71.66482l0 0c2.2555847 -5.8679657 8.841003 -8.796387 14.708954 -6.5408173l42.49826 16.3358l0 0c2.8179016 1.0831604 5.090088 3.2413635 6.316742 5.9998245c1.226654 2.7584686 1.307251 5.8912354 0.22409058 8.709129l-16.335815 42.49827c-2.2555542 5.8679504 -8.840973 8.796371 -14.708954 6.540802l-42.49826 -16.335785c-5.8679504 -2.255577 -8.796387 -8.840996 -6.540802 -14.7089615z" fill-rule="evenodd"/><path stroke="#000000" stroke-width="1.0" stroke-linejoin="round" stroke-linecap="butt" d="m309.67908 71.66482l0 0c2.2555847 -5.8679657 8.841003 -8.796387 14.708954 -6.5408173l42.49826 16.3358l0 0c2.8179016 1.0831604 5.090088 3.2413635 6.316742 5.9998245c1.226654 2.7584686 1.307251 5.8912354 0.22409058 8.709129l-16.335815 42.49827c-2.2555542 5.8679504 -8.840973 8.796371 -14.708954 6.540802l-42.49826 -16.335785c-5.8679504 -2.255577 -8.796387 -8.840996 -6.540802 -14.7089615z" fill-rule="evenodd"/><path fill="#000000" d="m335.9134 90.08245l0.8590698 -1.0591583q1.1713867 1.0026703 1.6493835 1.5881577q0.4338379 -1.6076355 0.6378784 -2.182045l1.239685 0.47652435q-0.34869385 0.8201065 -1.0114746 2.021698q1.0432739 -0.10116577 2.3266296 -0.04309082l-0.071502686 1.3618927q-1.2194214 -0.050239563 -2.2997742 -0.33159637q0.33666992 0.6483383 0.84176636 2.1649246l-1.301239 0.33679962q-0.23236084 -0.876091 -0.46038818 -2.2861557q-1.086853 0.95487213 -1.8147888 1.4115982l-0.7260437 -1.1160583q1.4570618 -0.82930756 2.031372 -1.0605164q-1.0097351 -0.6392288 -1.9005737 -1.2829742z" fill-rule="nonzero"/><path fill="#000000" d="m327.7862 114.461586q-0.81344604 -0.71443176 -1.0335083 -1.535553q-0.1998291 -0.830101 0.1477356 -1.7343445q0.5213928 -1.3563766 1.8517456 -1.8995972q1.335968 -0.5578003 2.9548645 0.06448364q1.6334839 0.6278839 2.2608337 1.9571075q0.64193726 1.3348236 0.12057495 2.6911926q-0.33639526 0.8750839 -1.0497742 1.33741q-0.6987915 0.46793365 -1.7521667 0.4647751q0.99746704 0.80189514 1.2758789 1.8630753q0.29299927 1.0667801 -0.15548706 2.233551q-0.611084 1.5897293 -2.1691284 2.246292q-1.558075 0.65657043 -3.395752 -0.049804688q-1.8522339 -0.7119827 -2.5693665 -2.2431107q-0.7025757 -1.5255203 -0.07467651 -3.1589966q0.47091675 -1.2251129 1.3974304 -1.8063965q0.94107056 -0.57566833 2.190796 -0.43008423zm0.6916199 -2.7137985q-0.33636475 0.8750839 0.013793945 1.6625214q0.35577393 0.77285767 1.2745972 1.1260452q0.87506104 0.33636475 1.6569214 7.9345703E-4q0.78182983 -0.33557892 1.0901489 -1.1377335q0.3251648 -0.8459091 -0.0395813 -1.6389542q-0.35913086 -0.80763245 -1.2342224 -1.1440048q-0.87506104 -0.33636475 -1.6770935 0.00818634q-0.78182983 0.33557892 -1.0845642 1.123146zm-2.704712 5.5557404q-0.2522583 0.65631104 -0.18145752 1.3865967q0.0854187 0.7358856 0.56903076 1.3067932q0.48361206 0.5709076 1.1836548 0.83999634q1.0938721 0.42046356 2.0776062 -0.0048980713q0.98373413 -0.42536163 1.4042053 -1.5192108q0.4260559 -1.108429 -0.043060303 -2.1089935q-0.44891357 -1.0095367 -1.5427551 -1.4300003q-1.0792847 -0.41485596 -2.068634 0.025093079q-0.98934937 0.43994904 -1.3985901 1.5046234z" fill-rule="nonzero"/><path fill="#cfe2f3" d="m281.63962 144.63634l0 0c2.2555847 -5.8679657 8.841003 -8.796387 14.708954 -6.5408173l42.49826 16.3358l0 0c2.8179016 1.0831604 5.0901184 3.2413635 6.316742 5.999832c1.226654 2.7584534 1.307251 5.89122 0.22409058 8.709122l-16.335815 42.49826c-2.2555542 5.8679657 -8.840973 8.796387 -14.708954 6.5408173l-42.49826 -16.3358c-5.8679504 -2.2555695 -8.796387 -8.840988 -6.540802 -14.708954z" fill-rule="evenodd"/><path stroke="#000000" stroke-width="1.0" stroke-linejoin="round" stroke-linecap="butt" d="m281.63962 144.63634l0 0c2.2555847 -5.8679657 8.841003 -8.796387 14.708954 -6.5408173l42.49826 16.3358l0 0c2.8179016 1.0831604 5.0901184 3.2413635 6.316742 5.999832c1.226654 2.7584534 1.307251 5.89122 0.22409058 8.709122l-16.335815 42.49826c-2.2555542 5.8679657 -8.840973 8.796387 -14.708954 6.5408173l-42.49826 -16.3358c-5.8679504 -2.2555695 -8.796387 -8.840988 -6.540802 -14.708954z" fill-rule="evenodd"/><path fill="#000000" d="m303.7124 162.27458q0.5157776 -1.3417816 1.5454712 -2.0173187q1.0296936 -0.6755371 2.3131409 -0.18218994q1.166748 0.44848633 1.6145935 1.5915222q0.45343018 1.1284485 -0.16885376 2.747345q-0.60546875 1.5751343 -1.7237854 2.132904q-1.1037598 0.56336975 -2.2413635 0.12608337q-1.1230164 -0.43167114 -1.5562744 -1.5690918q-0.43322754 -1.1374359 0.21707153 -2.8292542zm3.4987183 -1.1325989q-0.56881714 -0.21864319 -1.1386108 0.13146973q-0.5698242 0.35012817 -1.0743713 1.662735q-0.4597168 1.1959534 -0.27111816 1.8375854q0.19421387 0.6270447 0.7630005 0.84568787q0.583374 0.22424316 1.1329956 -0.116882324q0.5698242 -0.35012817 1.0743713 -1.662735q0.4653015 -1.2105255 0.27111816 -1.8375854q-0.18859863 -0.6416321 -0.75738525 -0.86027527zm-4.6419067 12.07608l11.871155 -10.502502l1.239685 0.47653198l-11.84198 10.513702l-1.2688599 -0.48773193zm6.6969604 -1.3093567q0.5157471 -1.3417969 1.5398254 -2.0027466q1.0296936 -0.67552185 2.3131409 -0.18218994q1.181366 0.45410156 1.6145935 1.5915222q0.4534607 1.1284637 -0.16882324 2.747345q-0.60546875 1.5751495 -1.7092285 2.1385193q-1.0981445 0.54878235 -2.2503357 0.105895996q-1.1376038 -0.43728638 -1.5708313 -1.574707q-0.41867065 -1.1318207 0.23165894 -2.823639zm3.4930725 -1.1180267q-0.583374 -0.22424316 -1.1531982 0.12586975q-0.5552063 0.35572815 -1.0597534 1.6683502q-0.4597168 1.1959381 -0.27111816 1.8375702q0.19418335 0.62705994 0.7630005 0.8457031q0.583374 0.22424316 1.147583 -0.11129761q0.5697937 -0.35011292 1.0743713 -1.662735q0.4653015 -1.2105255 0.25653076 -1.8431854q-0.18859863 -0.6416321 -0.7574158 -0.86027527z" fill-rule="nonzero"/><path fill="#000000" d="m296.05875 190.01624l1.6547546 0.48542786q-0.27346802 1.2340393 0.13839722 2.0786743q0.43206787 0.83566284 1.3508911 1.188858q1.108429 0.42607117 2.1864014 -0.11373901q1.0925293 -0.53419495 1.6195068 -1.9051514q0.5045471 -1.3126221 0.052246094 -2.3569336q-0.43771362 -1.0387115 -1.6336365 -1.4984131q-0.72924805 -0.28030396 -1.4561462 -0.17471313q-0.7269287 0.10559082 -1.2698059 0.5162811l-1.3709717 -0.74461365l3.6716003 -5.9373474l6.1984863 2.3826141l-0.5606079 1.4584656l-4.973358 -1.9116974l-1.9603271 3.0965881q1.4257507 -0.355896 2.650879 0.11502075q1.6334534 0.6278839 2.3192139 2.1971588q0.6913452 1.5547028 0.007385254 3.334015q-0.6503296 1.6918182 -2.104004 2.5559082q-1.7935791 1.0514984 -3.8645935 0.25541687q-1.691803 -0.65031433 -2.4066772 -2.0131683q-0.70925903 -1.3774414 -0.24963379 -3.0086517z" fill-rule="nonzero"/><path fill="#cfe2f3" d="m253.60017 217.60785l0 0c2.2555695 -5.8679504 8.840988 -8.796371 14.708939 -6.540802l42.49829 16.335785l0 0c2.817871 1.0831604 5.090088 3.2413635 6.3167114 5.999832c1.226654 2.7584686 1.307251 5.8912354 0.22409058 8.709122l-16.335785 42.49826c-2.2555847 5.867981 -8.841003 8.796387 -14.708954 6.5408325l-42.498276 -16.335815c-5.8679657 -2.2555542 -8.796387 -8.840973 -6.5408173 -14.708954z" fill-rule="evenodd"/><path stroke="#000000" stroke-width="1.0" stroke-linejoin="round" stroke-linecap="butt" d="m253.60017 217.60785l0 0c2.2555695 -5.8679504 8.840988 -8.796371 14.708939 -6.540802l42.49829 16.335785l0 0c2.817871 1.0831604 5.090088 3.2413635 6.3167114 5.999832c1.226654 2.7584686 1.307251 5.8912354 0.22409058 8.709122l-16.335785 42.49826c-2.2555847 5.867981 -8.841003 8.796387 -14.708954 6.5408325l-42.498276 -16.335815c-5.8679657 -2.2555542 -8.796387 -8.840973 -6.5408173 -14.708954z" fill-rule="evenodd"/><path fill="#000000" d="m280.33774 246.3129q-0.8009033 0.42869568 -1.6377258 0.5589905q-0.8312378 0.1157074 -1.5167236 -0.14778137q-0.75842285 -0.29151917 -1.3048706 -1.0037537q-0.54086304 -0.7268219 -0.639801 -1.8194427q-0.084350586 -1.0870209 0.3361206 -2.1808777q0.5213623 -1.356369 1.7282104 -2.4492493q1.2214355 -1.0872803 2.5002441 -1.3657379q1.2990112 -0.28744507 2.2615967 0.08256531q0.74380493 0.2859192 1.2633362 0.9375763q0.5251465 0.63708496 0.70370483 1.6096649l0.79623413 -1.2005005l1.5314026 0.58865356l-3.4171143 5.231674q-0.722229 1.0950317 -0.76708984 1.2117004q-0.08969116 0.23335266 0.018035889 0.47564697q0.113342285 0.22770691 0.3612976 0.3230133q0.45211792 0.17378235 1.3831787 -0.07095337q1.2350464 -0.29527283 2.226532 -1.2198486q1.0116882 -0.933548 1.4770203 -2.1440735q0.54940796 -1.4292908 0.29107666 -2.9347076q-0.25271606 -1.5200043 -1.4162903 -2.804245q-1.1433716 -1.2932129 -2.8935242 -1.9659576q-1.9835205 -0.7624359 -3.9903564 -0.46250916q-2.0012512 0.28533936 -3.578247 1.687912q-1.5713806 1.3879852 -2.3338318 3.3715057q-0.80166626 2.0856018 -0.47485352 3.9353943q0.32681274 1.8498077 1.7585144 3.2203674q1.4406738 1.3907623 3.5262756 2.1924438q2.2314453 0.8577423 4.0252075 0.6767731q1.7881165 -0.16638184 2.9411926 -0.9451599l1.5459595 0.59425354q-0.7795105 0.7214813 -2.1828003 1.2366791q-1.4088745 0.5297699 -3.074768 0.50878906q-1.6658936 -0.020996094 -3.7077332 -0.80584717q-1.8960266 -0.72880554 -3.3007507 -1.821167q-1.4046936 -1.0923615 -2.1520996 -2.5012054q-0.747406 -1.408844 -0.8284912 -2.896347q-0.097961426 -1.8790131 0.6140137 -3.7312622q0.8016968 -2.0856018 2.3707886 -3.641861q1.9212646 -1.9063416 4.29718 -2.3824615q2.3815002 -0.4907074 5.0942383 0.5520477q2.1147766 0.81288147 3.4612427 2.3180847q1.3464661 1.5052032 1.6677246 3.5872192q0.2505188 1.7869873 -0.41101074 3.5079803q-0.9474182 2.464798 -3.4230042 3.7228394q-2.2019043 1.1121521 -4.0395813 0.40577698q-0.583374 -0.22424316 -0.8807068 -0.53941345q-0.28277588 -0.3095703 -0.3288269 -0.7122803q-0.038208008 -0.2490387 0.11987305 -0.7909088zm-3.2271118 -3.8852997q-0.44848633 1.1667633 -0.15551758 2.015915q0.30752563 0.85476685 1.0221863 1.1294708q0.48129272 0.18499756 1.112854 0.10971069q0.6371765 -0.08987427 1.3315125 -0.4590912q0.69992065 -0.38378906 1.3369751 -1.1265564q0.6370239 -0.74276733 0.96777344 -1.6032562q0.44851685 -1.1667786 0.12075806 -2.012558q-0.32211304 -0.86035156 -1.1534424 -1.1799164q-0.53964233 -0.20741272 -1.1274414 -0.11531067q-0.5877991 0.09210205 -1.2753906 0.53086853q-0.68759155 0.43876648 -1.3010559 1.2073212q-0.5989075 0.7741699 -0.8792114 1.5034027z" fill-rule="nonzero"/><path fill="#000000" d="m275.36588 267.87067l-0.56622314 1.473053l-8.240326 -3.1674805q0.19845581 -0.55981445 0.58425903 -0.997406q0.6460266 -0.7225647 1.6454468 -1.2758179q1.0140076 -0.54766846 2.7358704 -1.1077881q2.6663513 -0.88339233 3.7566223 -1.585846q1.090271 -0.70248413 1.4210205 -1.5629578q0.35317993 -0.91885376 -0.06765747 -1.7836914q-0.40066528 -0.8738098 -1.4507446 -1.2774353q-1.108429 -0.42608643 -2.0372314 -0.013061523q-0.90856934 0.40402222 -1.3570557 1.5708008l-1.5134888 -0.76589966q0.83877563 -1.703064 2.2420654 -2.2182617q1.4178772 -0.5095825 3.1826172 0.1687622q1.7938843 0.6895752 2.4627686 2.084961q0.6688843 1.3953857 0.10266113 2.8684387q-0.2859192 0.74383545 -0.87249756 1.3553162q-0.58657837 0.61151123 -1.6095886 1.138977q-1.0027771 0.51846313 -3.2036133 1.27948q-1.8138428 0.6252136 -2.3702087 0.89682007q-0.55075073 0.25698853 -0.95565796 0.57006836l6.110962 2.3489685z" fill-rule="nonzero"/><path fill="#cfe2f3" d="m76.49765 15.367519l0 0c2.2555695 -5.867961 8.840996 -8.796383 14.7089615 -6.5408125l42.498253 16.335793l0 0c2.8179016 1.0831642 5.090103 3.2413673 6.316742 5.999832c1.2266388 2.758463 1.3072357 5.8912296 0.22407532 8.709124l-16.335793 42.498264c-2.2555695 5.867958 -8.840996 8.796379 -14.708954 6.5408096l-42.49826 -16.335793c-5.8679657 -2.2555695 -8.796387 -8.840992 -6.5408173 -14.708954z" fill-rule="evenodd"/><path stroke="#000000" stroke-width="1.0" stroke-linejoin="round" stroke-linecap="butt" d="m76.49765 15.367519l0 0c2.2555695 -5.867961 8.840996 -8.796383 14.7089615 -6.5408125l42.498253 16.335793l0 0c2.8179016 1.0831642 5.090103 3.2413673 6.316742 5.999832c1.2266388 2.758463 1.3072357 5.8912296 0.22407532 8.709124l-16.335793 42.498264c-2.2555695 5.867958 -8.840996 8.796379 -14.708954 6.5408096l-42.49826 -16.335793c-5.8679657 -2.2555695 -8.796387 -8.840992 -6.5408173 -14.708954z" fill-rule="evenodd"/><path fill="#cfe2f3" d="m48.4582 88.339035l0 0c2.2555695 -5.867958 8.840992 -8.796379 14.708954 -6.5408096l42.49826 16.335793l0 0c2.817894 1.083168 5.0900955 3.2413712 6.3167343 5.999832c1.2266388 2.7584686 1.3072433 5.8912277 0.22408295 8.709122l-16.335793 42.49826c-2.255577 5.8679657 -8.840996 8.796387 -14.7089615 6.5408173l-42.49826 -16.3358c-5.867962 -2.2555695 -8.796383 -8.840988 -6.5408134 -14.708954z" fill-rule="evenodd"/><path stroke="#000000" stroke-width="1.0" stroke-linejoin="round" stroke-linecap="butt" d="m48.4582 88.339035l0 0c2.2555695 -5.867958 8.840992 -8.796379 14.708954 -6.5408096l42.49826 16.335793l0 0c2.817894 1.083168 5.0900955 3.2413712 6.3167343 5.999832c1.2266388 2.7584686 1.3072433 5.8912277 0.22408295 8.709122l-16.335793 42.49826c-2.255577 5.8679657 -8.840996 8.796387 -14.7089615 6.5408173l-42.49826 -16.3358c-5.867962 -2.2555695 -8.796383 -8.840988 -6.5408134 -14.708954z" fill-rule="evenodd"/><path fill="#cfe2f3" d="m20.418741 161.31056l0 0c2.2555695 -5.8679657 8.840994 -8.796387 14.708956 -6.5408173l42.498264 16.3358l0 0c2.817894 1.0831604 5.090088 3.2413635 6.3167267 5.999817c1.2266464 2.7584686 1.307251 5.8912354 0.22408295 8.709137l-16.335793 42.49826c-2.2555695 5.8679657 -8.840996 8.796387 -14.708958 6.5408173l-42.49826 -16.3358c-5.867961 -2.2555695 -8.796383 -8.840988 -6.540813 -14.708954z" fill-rule="evenodd"/><path stroke="#000000" stroke-width="1.0" stroke-linejoin="round" stroke-linecap="butt" d="m20.418741 161.31056l0 0c2.2555695 -5.8679657 8.840994 -8.796387 14.708956 -6.5408173l42.498264 16.3358l0 0c2.817894 1.0831604 5.090088 3.2413635 6.3167267 5.999817c1.2266464 2.7584686 1.307251 5.8912354 0.22408295 8.709137l-16.335793 42.49826c-2.2555695 5.8679657 -8.840996 8.796387 -14.708958 6.5408173l-42.49826 -16.3358c-5.867961 -2.2555695 -8.796383 -8.840988 -6.540813 -14.708954z" fill-rule="evenodd"/><path fill="#cfe2f3" d="m150.50798 43.80614l0 0c2.2555695 -5.867962 8.840988 -8.796383 14.708954 -6.5408134l42.49826 16.335796l0 0c2.8179016 1.0831604 5.090103 3.2413635 6.316742 5.9998283c1.2266388 2.7584648 1.3072357 5.8912277 0.22407532 8.709122l-16.3358 42.49827c-2.2555695 5.867958 -8.840988 8.796379 -14.708954 6.5408096l-42.49826 -16.335793c-5.8679657 -2.2555695 -8.796387 -8.840996 -6.5408173 -14.708954z" fill-rule="evenodd"/><path stroke="#000000" stroke-width="1.0" stroke-linejoin="round" stroke-linecap="butt" d="m150.50798 43.80614l0 0c2.2555695 -5.867962 8.840988 -8.796383 14.708954 -6.5408134l42.49826 16.335796l0 0c2.8179016 1.0831604 5.090103 3.2413635 6.316742 5.9998283c1.2266388 2.7584648 1.3072357 5.8912277 0.22407532 8.709122l-16.3358 42.49827c-2.2555695 5.867958 -8.840988 8.796379 -14.708954 6.5408096l-42.49826 -16.335793c-5.8679657 -2.2555695 -8.796387 -8.840996 -6.5408173 -14.708954z" fill-rule="evenodd"/><path fill="#000000" d="m175.25266 67.35938q0.661911 0.23769379 1.199234 0.05921936q0.55189514 -0.17286682 0.9073944 -0.7058029q0.35551453 -0.53292847 0.89930725 -1.9476395q0.56399536 -1.423687 0.7815399 -1.8589935q0.36219788 -0.6810074 0.73457336 -1.040062q0.37236023 -0.35905457 0.7739563 -0.48926163q0.4071808 -0.14479446 0.9389343 -0.09105301q0.3544922 0.035827637 1.083725 0.3161354l0.48129272 0.18500137l-0.51016235 1.3272018l-0.2625122 -0.10091019q-0.8896637 -0.34197617 -1.3047028 -0.13323593q-0.4150238 0.20874023 -0.841095 1.3171692q-0.8577423 2.231453 -1.1694946 2.7812042q-0.49342346 0.8481827 -1.0632324 1.1983032q-0.55522156 0.35572052 -1.4885559 0.43218994q0.78204346 0.75257874 0.8820801 1.7117081q0.11462402 0.9647293 -0.5861511 2.7878113q-0.6390991 1.6626511 -0.71868896 2.000328q-0.16029358 0.5912247 0.027114868 0.93109894q0.18740845 0.33986664 1.0041504 0.6538162l0.26252747 0.10090637l-0.51016235 1.3272018l-0.48129272 -0.18499756q-0.83132935 -0.31954956 -1.16008 -0.5965729q-0.4667511 -0.3970337 -0.65756226 -0.9893112q-0.18185425 -0.5720825 -0.040649414 -1.2878265q0.15579224 -0.7101364 0.7298584 -2.2471313q0.5886383 -1.5313873 0.68162537 -2.1652222q0.09298706 -0.63384247 -0.20103455 -1.1318665q-0.27381897 -0.5070038 -0.9245148 -0.77386475l0.5325775 -1.3855438z" fill-rule="nonzero"/><path fill="#000000" d="m165.21812 97.01486l6.1219177 -15.92643l3.369049 1.295021l-0.48773193 1.2688675l-1.8376617 -0.7063751l-5.146454 13.388695l1.8376617 0.7063751l-0.48773193 1.2688675l-3.369049 -1.295021z" fill-rule="nonzero"/><path fill="#cfe2f3" d="m122.46853 116.77766l0 0c2.2555695 -5.867958 8.840996 -8.796379 14.708946 -6.5408096l42.498276 16.335793l0 0c2.8178864 1.0831604 5.090088 3.2413712 6.3167267 5.99984c1.2266388 2.7584534 1.3072357 5.89122 0.22407532 8.709122l-16.335785 42.49826c-2.2555695 5.8679657 -8.841003 8.796387 -14.708954 6.5408173l-42.49827 -16.3358c-5.8679657 -2.2555695 -8.796387 -8.840988 -6.5408173 -14.708954z" fill-rule="evenodd"/><path stroke="#000000" stroke-width="1.0" stroke-linejoin="round" stroke-linecap="butt" d="m122.46853 116.77766l0 0c2.2555695 -5.867958 8.840996 -8.796379 14.708946 -6.5408096l42.498276 16.335793l0 0c2.8178864 1.0831604 5.090088 3.2413712 6.3167267 5.99984c1.2266388 2.7584534 1.3072357 5.89122 0.22407532 8.709122l-16.335785 42.49826c-2.2555695 5.8679657 -8.841003 8.796387 -14.708954 6.5408173l-42.49827 -16.3358c-5.8679657 -2.2555695 -8.796387 -8.840988 -6.5408173 -14.708954z" fill-rule="evenodd"/><path fill="#000000" d="m149.59764 138.8537l0.6671448 -1.7355804l1.7355652 0.6671295l-0.6671295 1.7355804l-1.7355804 -0.6671295zm-2.80307 7.2923126l0.67274475 -1.7501526l1.7355652 0.6671295l-0.6727295 1.7501526l-1.7355804 -0.6671295z" fill-rule="nonzero"/><path fill="#000000" d="m141.67502 159.37766l0.6671295 -1.7355804l1.7501526 0.67274475l-0.6671295 1.7355652l-1.7501526 -0.6727295zm-2.80307 7.2923126l0.6727295 -1.7501526l1.7501678 0.67274475l-0.67274475 1.7501526q-0.37001038 0.96258545 -0.94429016 1.4114227q-0.56529236 0.46902466 -1.4324493 0.50398254l-0.17066956 -0.81889343q0.5597687 -0.019180298 0.95570374 -0.35243225q0.39033508 -0.3186798 0.716629 -1.0804443l-0.8750763 -0.33638z" fill-rule="nonzero"/><path fill="#cfe2f3" d="m94.42907 189.74918l0 0c2.2555695 -5.8679657 8.840996 -8.796387 14.708954 -6.5408173l42.49827 16.3358l0 0c2.8178864 1.0831604 5.090088 3.2413635 6.3167267 5.999832c1.2266388 2.7584686 1.307251 5.8912354 0.22409058 8.709122l-16.3358 42.49826c-2.2555695 5.867981 -8.840988 8.796387 -14.708954 6.5408325l-42.49827 -16.335815c-5.867958 -2.2555695 -8.796379 -8.840988 -6.5408096 -14.708954z" fill-rule="evenodd"/><path stroke="#000000" stroke-width="1.0" stroke-linejoin="round" stroke-linecap="butt" d="m94.42907 189.74918l0 0c2.2555695 -5.8679657 8.840996 -8.796387 14.708954 -6.5408173l42.49827 16.3358l0 0c2.8178864 1.0831604 5.090088 3.2413635 6.3167267 5.999832c1.2266388 2.7584686 1.307251 5.8912354 0.22409058 8.709122l-16.3358 42.49826c-2.2555695 5.867981 -8.840988 8.796387 -14.708954 6.5408325l-42.49827 -16.335815c-5.867958 -2.2555695 -8.796379 -8.840988 -6.5408096 -14.708954z" fill-rule="evenodd"/><path fill="#000000" d="m117.08012 213.03333l0.6671295 -1.7355804q1.2966766 -0.67333984 2.7551422 -0.112716675q0.5104599 0.19621277 1.0086136 0.5550842q0.5127411 0.3644867 1.3744583 1.2146454q0.4936905 0.45761108 0.75174713 0.6572418q0.26366425 0.18504333 0.56993866 0.3027649q0.5542145 0.21304321 1.2665405 0.10183716q0.72691345 -0.10559082 1.3696442 -0.42767334l-0.6951599 1.8084869q-0.7358475 0.30303955 -1.3943481 0.31774902q-0.63830566 0.0057373047 -1.3237839 -0.25775146q-0.5104599 -0.19621277 -0.93231964 -0.4922943q-0.42185974 -0.29606628 -1.2544098 -1.135025q-0.83255005 -0.8389435 -1.5034409 -1.096817q-0.5396347 -0.20742798 -1.1106262 -0.15908813q-0.5709915 0.048355103 -1.5491257 0.45913696z" fill-rule="nonzero"/><path fill="#000000" d="m116.660416 230.23093l-1.2251053 -0.47091675l-1.05513 -3.1341248l2.0418549 0.78486633l0.23838043 2.8201752z" fill-rule="nonzero"/><path fill="#cfe2f3" d="m255.18892 313.26212l0 0c2.2555695 -5.8679504 8.840988 -8.796387 14.708969 -6.540802l42.49826 16.335785l0 0c2.8179016 1.0831604 5.090088 3.2413635 6.3167114 5.999817c1.226654 2.758484 1.307251 5.8912354 0.22409058 8.709137l-16.335785 42.49826c-2.2555847 5.8679504 -8.841003 8.796387 -14.708954 6.540802l-42.498276 -16.335785c-5.8679504 -2.2555542 -8.796371 -8.841003 -6.540802 -14.708954z" fill-rule="evenodd"/><path stroke="#000000" stroke-width="1.0" stroke-linejoin="round" stroke-linecap="butt" d="m255.18892 313.26212l0 0c2.2555695 -5.8679504 8.840988 -8.796387 14.708969 -6.540802l42.49826 16.335785l0 0c2.8179016 1.0831604 5.090088 3.2413635 6.3167114 5.999817c1.226654 2.758484 1.307251 5.8912354 0.22409058 8.709137l-16.335785 42.49826c-2.2555847 5.8679504 -8.841003 8.796387 -14.708954 6.540802l-42.498276 -16.335785c-5.8679504 -2.2555542 -8.796371 -8.841003 -6.540802 -14.708954z" fill-rule="evenodd"/><path fill="#000000" d="m278.2108 346.33078l-1.108429 -0.4260559q4.12204 -3.1026306 5.6917725 -7.18631q0.6166687 -1.6043091 0.8518982 -3.3050232q0.20166016 -1.3955688 0.12509155 -2.7641602q-0.03829956 -0.901947 -0.38986206 -3.0793152l1.108429 0.42608643q0.77124023 2.7404175 0.71450806 5.1960754q-0.070251465 2.0989075 -0.8439026 4.111603q-0.8857727 2.3043823 -2.584961 4.1119385q-1.6991882 1.8075867 -3.5645447 2.9151611z" fill-rule="nonzero"/><path fill="#000000" d="m270.71805 355.75427q0.8465271 -2.202301 1.8144226 -3.3702698q0.97351074 -1.1825867 2.1434631 -1.5698547q1.1845703 -0.38165283 2.540924 0.13970947q1.0063477 0.38684082 1.6077881 1.086731q0.60702515 0.68530273 0.79119873 1.64328q0.2043457 0.94903564 0.06100464 2.1493835q-0.123168945 1.1913757 -0.83514404 3.0436401q-0.8465271 2.2022705 -1.8200378 3.3848572q-0.9678955 1.1679993 -2.1580505 1.5642395q-1.1699524 0.38723755 -2.540924 -0.13973999q-1.7939148 -0.6895447 -2.3304749 -2.38562q-0.62524414 -2.0314636 0.7258301 -5.546356zm1.5605469 0.5998535q-1.1828918 3.077362 -0.86065674 4.372986q0.34240723 1.2866516 1.3924866 1.6902771q1.0646973 0.40927124 2.171753 -0.3369751q1.1070862 -0.7462158 2.2843933 -3.8089905q1.1828918 -3.077362 0.855072 -4.3583984q-0.32781982 -1.2810364 -1.4071045 -1.6958923q-1.0500793 -0.403656 -2.0191956 0.2449646q-1.2394409 0.82925415 -2.416748 3.8920288z" fill-rule="nonzero"/><path fill="#cfe2f3" d="m340.597 355.90213l0 0c3.470337 -5.2417297 10.532867 -6.6777344 15.774597 -3.2073975l37.96289 25.133606l0 0c2.5171509 1.6665039 4.269226 4.2647095 4.8707275 7.2230225c0.60150146 2.958313 0.0032043457 6.0343933 -1.6633301 8.551575l-25.133606 37.96286c-3.470337 5.2417297 -10.532837 6.677765 -15.774597 3.207428l-37.96286 -25.133606c-5.2417297 -3.470337 -6.6777344 -10.532867 -3.207428 -15.774597z" fill-rule="evenodd"/><path stroke="#000000" stroke-width="1.0" stroke-linejoin="round" stroke-linecap="butt" d="m340.597 355.90213l0 0c3.470337 -5.2417297 10.532867 -6.6777344 15.774597 -3.2073975l37.96289 25.133606l0 0c2.5171509 1.6665039 4.269226 4.2647095 4.8707275 7.2230225c0.60150146 2.958313 0.0032043457 6.0343933 -1.6633301 8.551575l-25.133606 37.96286c-3.470337 5.2417297 -10.532837 6.677765 -15.774597 3.207428l-37.96286 -25.133606c-5.2417297 -3.470337 -6.6777344 -10.532867 -3.207428 -15.774597z" fill-rule="evenodd"/><path fill="#000000" d="m365.65964 387.89487l-9.461487 -1.729187l0.8970642 -1.35495l7.454132 1.449585l-4.262665 -6.270111l0.90567017 -1.367981l5.3125916 7.99588l-0.8453064 1.2767639z" fill-rule="nonzero"/><path fill="#000000" d="m345.85623 408.1769l1.0350647 -1.5634155l1.5634155 1.0350647l-1.0350647 1.5634155l-1.5634155 -1.0350647z" fill-rule="nonzero"/><path fill="#cfe2f3" d="m433.90088 408.73074l0 0c5.3084106 -3.3659668 12.340393 -1.7912903 15.706329 3.5171204l24.377716 38.4458l0 0c1.616394 2.5491943 2.1539307 5.6361084 1.4943237 8.581604c-0.6595764 2.9455261 -2.4622498 5.508362 -5.011444 7.124756l-38.4458 24.377716c-5.308441 3.3659668 -12.340393 1.7912903 -15.70636 -3.5171204l-24.377716 -38.44583c-3.3659668 -5.3084106 -1.7912903 -12.340393 3.5171204 -15.706329z" fill-rule="evenodd"/><path stroke="#000000" stroke-width="1.0" stroke-linejoin="round" stroke-linecap="butt" d="m433.90088 408.73074l0 0c5.3084106 -3.3659668 12.340393 -1.7912903 15.706329 3.5171204l24.377716 38.4458l0 0c1.616394 2.5491943 2.1539307 5.6361084 1.4943237 8.581604c-0.6595764 2.9455261 -2.4622498 5.508362 -5.011444 7.124756l-38.4458 24.377716c-5.308441 3.3659668 -12.340393 1.7912903 -15.70636 -3.5171204l-24.377716 -38.44583c-3.3659668 -5.3084106 -1.7912903 -12.340393 3.5171204 -15.706329z" fill-rule="evenodd"/><path fill="#000000" d="m430.35098 444.93356l1.0028992 -0.6358948l5.815216 9.171112l-1.0028992 0.6358948l-5.815216 -9.171112z" fill-rule="nonzero"/><path fill="#000000" d="m419.87323 455.0781l1.3855591 -0.87857056l2.6942444 4.249054l-1.3855591 0.87857056l-2.6942444 -4.249054z" fill-rule="nonzero"/><path fill="#cfe2f3" d="m682.5189 106.4395l0 0c-2.2787476 -5.859268 -8.875977 -8.761833 -14.7352295 -6.4830704l-42.43524 16.503769l0 0c-2.8137207 1.0942993 -5.0775146 3.261528 -6.293335 6.0249176c-1.2157593 2.763382 -1.2840576 5.8965683 -0.1897583 8.710289l16.503784 42.435272c2.2787476 5.859253 8.875916 8.761826 14.735168 6.4830627l42.435303 -16.503769c5.859253 -2.2787628 8.761841 -8.875946 6.4830933 -14.735199z" fill-rule="evenodd"/><path stroke="#000000" stroke-width="1.0" stroke-linejoin="round" stroke-linecap="butt" d="m682.5189 106.4395l0 0c-2.2787476 -5.859268 -8.875977 -8.761833 -14.7352295 -6.4830704l-42.43524 16.503769l0 0c-2.8137207 1.0942993 -5.0775146 3.261528 -6.293335 6.0249176c-1.2157593 2.763382 -1.2840576 5.8965683 -0.1897583 8.710289l16.503784 42.435272c2.2787476 5.859253 8.875916 8.761826 14.735168 6.4830627l42.435303 -16.503769c5.859253 -2.2787628 8.761841 -8.875946 6.4830933 -14.735199z" fill-rule="evenodd"/><path fill="#cfe2f3" d="m710.85876 179.29486l0 0c-2.2787476 -5.859253 -8.875916 -8.761826 -14.735168 -6.4830627l-42.435303 16.503769l0 0c-2.8137207 1.0942993 -5.0774536 3.2615204 -6.293274 6.0249176c-1.2158203 2.763382 -1.2840576 5.8965607 -0.1897583 8.710281l16.503784 42.435272c2.2787476 5.859268 8.875916 8.761841 14.735168 6.483078l42.435303 -16.503784c5.859253 -2.2787628 8.76178 -8.875931 6.483032 -14.735199z" fill-rule="evenodd"/><path stroke="#000000" stroke-width="1.0" stroke-linejoin="round" stroke-linecap="butt" d="m710.85876 179.29486l0 0c-2.2787476 -5.859253 -8.875916 -8.761826 -14.735168 -6.4830627l-42.435303 16.503769l0 0c-2.8137207 1.0942993 -5.0774536 3.2615204 -6.293274 6.0249176c-1.2158203 2.763382 -1.2840576 5.8965607 -0.1897583 8.710281l16.503784 42.435272c2.2787476 5.859268 8.875916 8.761841 14.735168 6.483078l42.435303 -16.503784c5.859253 -2.2787628 8.76178 -8.875931 6.483032 -14.735199z" fill-rule="evenodd"/><path fill="#000000" d="m677.8444 229.74503l0.85998535 -0.41828918q0.262146 0.5016022 0.6310425 0.7604828q0.36328125 0.24430847 0.928772 0.2758484q0.5598755 0.016983032 1.1715088 -0.22088623q0.5387573 -0.20954895 0.8842163 -0.5283203q0.34545898 -0.31877136 0.44171143 -0.67474365q0.09631348 -0.3559723 -0.033996582 -0.69091797q-0.13024902 -0.33493042 -0.43041992 -0.50320435q-0.2855835 -0.17393494 -0.784729 -0.16421509q-0.33654785 -0.0032196045 -1.4028931 0.14323425q-1.0662842 0.14646912 -1.5444336 0.080947876q-0.6116333 -0.06390381 -1.0266724 -0.35514832q-0.40045166 -0.29690552 -0.5930176 -0.7920227q-0.20953369 -0.53881836 -0.08496094 -1.1237488q0.124572754 -0.5849304 0.6107788 -1.0590363q0.50079346 -0.47976685 1.2143555 -0.75727844q0.78637695 -0.3058319 1.4853516 -0.27592468q0.70788574 0.00970459 1.2208252 0.3802185q0.52752686 0.36486816 0.8001709 0.97972107l-0.87457275 0.4239502q-0.333313 -0.6415558 -0.8915405 -0.82681274q-0.55822754 -0.1852417 -1.3737183 0.13191223q-0.8591919 0.33415222 -1.1278076 0.8074341q-0.2597046 0.45306396 -0.084106445 0.9045105q0.14727783 0.37861633 0.52020264 0.51856995q0.35839844 0.14561462 1.6107788 -0.03967285q1.2523804 -0.18530273 1.748352 -0.16023254q0.7394409 0.047714233 1.2006226 0.37130737q0.4611206 0.3236084 0.68200684 0.8915405q0.22088623 0.5679321 0.09875488 1.2022247q-0.12780762 0.61972046 -0.63183594 1.1342773q-0.5040283 0.5145569 -1.2612915 0.8090668q-0.975647 0.37945557 -1.7385864 0.35762024q-0.74835205 -0.02748108 -1.3478394 -0.4481659q-0.58496094 -0.42634583 -0.87701416 -1.1342468zm7.862976 -0.42591858l-2.763855 -7.1064606l0.93200684 -0.36247253l1.1326904 2.9124908l3.6988525 -1.4385529l-1.1326904 -2.9124756l0.9465332 -0.36813354l2.763855 7.1064606l-0.94659424 0.36813354l-1.3026123 -3.3493652l-3.6988525 1.4385529l1.3026123 3.3493652l-0.9319458 0.36245728zm7.3032837 -2.8403778l-2.763794 -7.106476l0.93200684 -0.36245728l2.763794 7.1064606l-0.93200684 0.36247253zm2.6428223 -1.027832l-2.763794 -7.106476l4.7910156 -1.8633118l0.32281494 0.83006287l-3.8444824 1.4951782l0.8609009 2.213501l3.3347778 -1.2969666l0.32281494 0.83006287l-3.3347778 1.2969513l1.2573242 3.2328644l-0.94659424 0.36813354zm7.8286743 -3.044693l-2.440979 -6.276413l-2.3446045 0.9118347l-0.32281494 -0.83006287l5.635681 -2.191803l0.32281494 0.83006287l-2.3591309 0.9174957l2.44104 6.276413l-0.93200684 0.36247253z" fill-rule="nonzero"/><path fill="#cfe2f3" d="m739.19867 252.15024l0 0c-2.2787476 -5.859268 -8.875916 -8.761841 -14.7352295 -6.483078l-42.43524 16.503769l0 0c-2.8137207 1.0942993 -5.0775146 3.2615356 -6.293274 6.024933c-1.2158203 2.7633667 -1.2841187 5.8965454 -0.18981934 8.710266l16.503784 42.435272c2.2787476 5.8592834 8.875977 8.761841 14.7352295 6.4830933l42.43524 -16.503784c5.859253 -2.278778 8.761841 -8.875946 6.4830933 -14.735199z" fill-rule="evenodd"/><path stroke="#000000" stroke-width="1.0" stroke-linejoin="round" stroke-linecap="butt" d="m739.19867 252.15024l0 0c-2.2787476 -5.859268 -8.875916 -8.761841 -14.7352295 -6.483078l-42.43524 16.503769l0 0c-2.8137207 1.0942993 -5.0775146 3.2615356 -6.293274 6.024933c-1.2158203 2.7633667 -1.2841187 5.8965454 -0.18981934 8.710266l16.503784 42.435272c2.2787476 5.8592834 8.875977 8.761841 14.7352295 6.4830933l42.43524 -16.503784c5.859253 -2.278778 8.761841 -8.875946 6.4830933 -14.735199z" fill-rule="evenodd"/><path fill="#cfe2f3" d="m612.0476 143.978l0 0c-2.2787476 -5.859253 -8.875916 -8.761826 -14.7352295 -6.4830627l-42.43524 16.503769l0 0c-2.8137207 1.0942993 -5.0775146 3.2615356 -6.293274 6.0249176c-1.2158203 2.763382 -1.2841187 5.896576 -0.18981934 8.710297l16.503784 42.435257c2.2787476 5.859268 8.875916 8.761841 14.7352295 6.483078l42.43524 -16.503769c5.859253 -2.2787628 8.761841 -8.875946 6.4830933 -14.735214z" fill-rule="evenodd"/><path stroke="#000000" stroke-width="1.0" stroke-linejoin="round" stroke-linecap="butt" d="m612.0476 143.978l0 0c-2.2787476 -5.859253 -8.875916 -8.761826 -14.7352295 -6.4830627l-42.43524 16.503769l0 0c-2.8137207 1.0942993 -5.0775146 3.2615356 -6.293274 6.0249176c-1.2158203 2.763382 -1.2841187 5.896576 -0.18981934 8.710297l16.503784 42.435257c2.2787476 5.859268 8.875916 8.761841 14.7352295 6.483078l42.43524 -16.503769c5.859253 -2.2787628 8.761841 -8.875946 6.4830933 -14.735214z" fill-rule="evenodd"/><path fill="#cfe2f3" d="m640.3875 216.83337l0 0c-2.2788086 -5.859268 -8.875977 -8.761841 -14.7352295 -6.4830627l-42.43524 16.503769l0 0c-2.8137207 1.0942993 -5.0775146 3.2615204 -6.293335 6.0249023c-1.2158203 2.7633972 -1.2840576 5.896576 -0.1897583 8.710297l16.503784 42.435257c2.2787476 5.8592834 8.875916 8.761841 14.735168 6.4830933l42.435303 -16.503784c5.859253 -2.2787476 8.761841 -8.875946 6.483032 -14.735199z" fill-rule="evenodd"/><path stroke="#000000" stroke-width="1.0" stroke-linejoin="round" stroke-linecap="butt" d="m640.3875 216.83337l0 0c-2.2788086 -5.859268 -8.875977 -8.761841 -14.7352295 -6.4830627l-42.43524 16.503769l0 0c-2.8137207 1.0942993 -5.0775146 3.2615204 -6.293335 6.0249023c-1.2158203 2.7633972 -1.2840576 5.896576 -0.1897583 8.710297l16.503784 42.435257c2.2787476 5.8592834 8.875916 8.761841 14.735168 6.4830933l42.435303 -16.503784c5.859253 -2.2787476 8.761841 -8.875946 6.483032 -14.735199z" fill-rule="evenodd"/><path fill="#cfe2f3" d="m668.72736 289.68875l0 0c-2.2787476 -5.8592834 -8.875916 -8.761841 -14.735168 -6.4830933l-42.435303 16.503784l0 0c-2.8137207 1.0942993 -5.0774536 3.2615356 -6.293274 6.0249023c-1.2158203 2.7633972 -1.2841187 5.896576 -0.1897583 8.710297l16.503723 42.435272c2.2788086 5.8592834 8.875977 8.761841 14.7352295 6.4830627l42.43524 -16.503754c5.859314 -2.278778 8.761841 -8.875946 6.4830933 -14.735199z" fill-rule="evenodd"/><path stroke="#000000" stroke-width="1.0" stroke-linejoin="round" stroke-linecap="butt" d="m668.72736 289.68875l0 0c-2.2787476 -5.8592834 -8.875916 -8.761841 -14.735168 -6.4830933l-42.435303 16.503784l0 0c-2.8137207 1.0942993 -5.0774536 3.2615356 -6.293274 6.0249023c-1.2158203 2.7633972 -1.2841187 5.896576 -0.1897583 8.710297l16.503723 42.435272c2.2788086 5.8592834 8.875977 8.761841 14.7352295 6.4830627l42.43524 -16.503754c5.859314 -2.278778 8.761841 -8.875946 6.4830933 -14.735199z" fill-rule="evenodd"/><path fill="#cfe2f3" d="m831.91394 53.091763l0 0c-2.2787476 -5.8592644 -8.875916 -8.761833 -14.735168 -6.4830704l-42.435303 16.503773l0 0c-2.8137207 1.0942993 -5.0774536 3.261528 -6.293274 6.02491c-1.2158203 2.7633896 -1.2841187 5.896576 -0.18981934 8.710289l16.503784 42.435272c2.2788086 5.859268 8.875977 8.761833 14.7352295 6.4830704l42.43524 -16.503769c5.859253 -2.2787628 8.761841 -8.875938 6.4830933 -14.735207z" fill-rule="evenodd"/><path stroke="#000000" stroke-width="1.0" stroke-linejoin="round" stroke-linecap="butt" d="m831.91394 53.091763l0 0c-2.2787476 -5.8592644 -8.875916 -8.761833 -14.735168 -6.4830704l-42.435303 16.503773l0 0c-2.8137207 1.0942993 -5.0774536 3.261528 -6.293274 6.02491c-1.2158203 2.7633896 -1.2841187 5.896576 -0.18981934 8.710289l16.503784 42.435272c2.2788086 5.859268 8.875977 8.761833 14.7352295 6.4830704l42.43524 -16.503769c5.859253 -2.2787628 8.761841 -8.875938 6.4830933 -14.735207z" fill-rule="evenodd"/><path fill="#cfe2f3" d="m860.25385 125.94713l0 0c-2.2788086 -5.8592606 -8.875977 -8.761833 -14.7352295 -6.4830627l-42.43524 16.503769l0 0c-2.8137207 1.0942993 -5.0775146 3.2615204 -6.293335 6.0249176c-1.2158203 2.763382 -1.2840576 5.8965607 -0.1897583 8.710281l16.503784 42.435272c2.2787476 5.859268 8.875916 8.761841 14.735168 6.483078l42.435303 -16.503784c5.859253 -2.2787628 8.761841 -8.875931 6.4830933 -14.735199z" fill-rule="evenodd"/><path stroke="#000000" stroke-width="1.0" stroke-linejoin="round" stroke-linecap="butt" d="m860.25385 125.94713l0 0c-2.2788086 -5.8592606 -8.875977 -8.761833 -14.7352295 -6.4830627l-42.43524 16.503769l0 0c-2.8137207 1.0942993 -5.0775146 3.2615204 -6.293335 6.0249176c-1.2158203 2.763382 -1.2840576 5.8965607 -0.1897583 8.710281l16.503784 42.435272c2.2787476 5.859268 8.875916 8.761841 14.735168 6.483078l42.435303 -16.503784c5.859253 -2.2787628 8.761841 -8.875931 6.4830933 -14.735199z" fill-rule="evenodd"/><path fill="#000000" d="m833.2689 176.68446l-0.040649414 -8.165558l1.0193481 -0.39645386l5.6763306 5.973755l-1.0776367 0.41911316l-1.6682739 -1.832428l-2.9707031 1.1553802l0.066345215 2.4553986l-1.0047607 0.39079285zm0.92059326 -3.7110596l2.402771 -0.93447876l-1.5129395 -1.6916504q-0.6804199 -0.7580414 -1.0671387 -1.278244q0.12054443 0.7410736 0.13354492 1.5072174l0.043762207 2.3971558zm6.44635 0.84591675l-2.763794 -7.1064606l0.9465332 -0.36813354l2.4353638 6.261841l3.494934 -1.3592529l0.3284912 0.84461975l-4.4415283 1.7273865zm6.635071 -2.5804749l-2.440979 -6.276413l-2.3445435 0.9118347l-0.32287598 -0.83006287l5.635681 -2.191803l0.32281494 0.83006287l-2.3590698 0.9174957l2.440979 6.276413l-0.93200684 0.36247253z" fill-rule="nonzero"/><path fill="#cfe2f3" d="m888.5937 198.8025l0 0c-2.2787476 -5.859268 -8.875916 -8.761841 -14.735168 -6.483078l-42.435303 16.503769l0 0c-2.8137207 1.0943146 -5.0774536 3.2615356 -6.293274 6.0249176c-1.2158203 2.763382 -1.2840576 5.896576 -0.1897583 8.710297l16.503723 42.435272c2.2788086 5.859253 8.875977 8.761841 14.7352295 6.4830627l42.435303 -16.503769c5.859253 -2.2787628 8.76178 -8.875946 6.483032 -14.735199z" fill-rule="evenodd"/><path stroke="#000000" stroke-width="1.0" stroke-linejoin="round" stroke-linecap="butt" d="m888.5937 198.8025l0 0c-2.2787476 -5.859268 -8.875916 -8.761841 -14.735168 -6.483078l-42.435303 16.503769l0 0c-2.8137207 1.0943146 -5.0774536 3.2615356 -6.293274 6.0249176c-1.2158203 2.763382 -1.2840576 5.896576 -0.1897583 8.710297l16.503723 42.435272c2.2788086 5.859253 8.875977 8.761841 14.7352295 6.4830627l42.435303 -16.503769c5.859253 -2.2787628 8.76178 -8.875946 6.483032 -14.735199z" fill-rule="evenodd"/><path fill="#cfe2f3" d="m752.5877 67.86626l0 0c-2.2787476 -5.8592606 -8.875916 -8.761829 -14.735168 -6.4830666l-42.435303 16.503773l0 0c-2.8137207 1.0942993 -5.0774536 3.261528 -6.293274 6.02491c-1.2158203 2.7633896 -1.2841187 5.896576 -0.18981934 8.710289l16.503784 42.435272c2.2787476 5.859268 8.875977 8.761841 14.7352295 6.483078l42.43524 -16.503777c5.859253 -2.2787628 8.761841 -8.875938 6.4830933 -14.735207z" fill-rule="evenodd"/><path stroke="#000000" stroke-width="1.0" stroke-linejoin="round" stroke-linecap="butt" d="m752.5877 67.86626l0 0c-2.2787476 -5.8592606 -8.875916 -8.761829 -14.735168 -6.4830666l-42.435303 16.503773l0 0c-2.8137207 1.0942993 -5.0774536 3.261528 -6.293274 6.02491c-1.2158203 2.7633896 -1.2841187 5.896576 -0.18981934 8.710289l16.503784 42.435272c2.2787476 5.859268 8.875977 8.761841 14.7352295 6.483078l42.43524 -16.503777c5.859253 -2.2787628 8.761841 -8.875938 6.4830933 -14.735207z" fill-rule="evenodd"/><path fill="#cfe2f3" d="m780.9276 140.72163l0 0c-2.2788086 -5.859268 -8.875977 -8.761841 -14.7352295 -6.483078l-42.43524 16.503769l0 0c-2.8137207 1.0943146 -5.0775146 3.2615356 -6.293335 6.0249176c-1.2158203 2.7633972 -1.2840576 5.896576 -0.1897583 8.710297l16.503784 42.435272c2.2787476 5.859253 8.875916 8.761826 14.735168 6.4830627l42.435303 -16.503769c5.859253 -2.2787628 8.761841 -8.875946 6.483032 -14.735199z" fill-rule="evenodd"/><path stroke="#000000" stroke-width="1.0" stroke-linejoin="round" stroke-linecap="butt" d="m780.9276 140.72163l0 0c-2.2788086 -5.859268 -8.875977 -8.761841 -14.7352295 -6.483078l-42.43524 16.503769l0 0c-2.8137207 1.0943146 -5.0775146 3.2615356 -6.293335 6.0249176c-1.2158203 2.7633972 -1.2840576 5.896576 -0.1897583 8.710297l16.503784 42.435272c2.2787476 5.859253 8.875916 8.761826 14.735168 6.4830627l42.435303 -16.503769c5.859253 -2.2787628 8.761841 -8.875946 6.483032 -14.735199z" fill-rule="evenodd"/><path fill="#000000" d="m756.87744 187.11543l-0.3284912 -0.84461975l3.0144653 -1.172348l1.0250854 2.6358032q-0.48376465 0.8252106 -1.1188354 1.3907471q-0.62054443 0.5598602 -1.392334 0.8600311q-1.048523 0.40777588 -2.0775757 0.3050537q-1.03479 -0.11727905 -1.8001099 -0.7919922q-0.7710571 -0.6892853 -1.178833 -1.7377777q-0.4020996 -1.0339355 -0.31640625 -2.1067047q0.085754395 -1.0727844 0.73132324 -1.8268127q0.6456299 -0.7540436 1.7086792 -1.1674805q0.77178955 -0.3001709 1.4853516 -0.27590942q0.72247314 0.0040283203 1.2475586 0.3195343q0.53393555 0.2952881 1.0007935 0.9352112l-0.7685547 0.56715393q-0.36975098 -0.47651672 -0.7216797 -0.6917114q-0.35760498 -0.22975159 -0.87701416 -0.22892761q-0.51049805 -0.01940918 -1.0493164 0.19013977q-0.6407471 0.24920654 -1.0419922 0.6399689q-0.39239502 0.3705597 -0.559021 0.8041992q-0.15209961 0.42797852 -0.16503906 0.8688965q-0.021850586 0.7629242 0.2783203 1.534729q0.37384033 0.9611206 0.9434204 1.4772797q0.5784302 0.49591064 1.3292236 0.5727539q0.7451172 0.062286377 1.4440918 -0.20956421q0.6116333 -0.23786926 1.1035156 -0.6974182q0.49188232 -0.45954895 0.6901245 -0.8551636l-0.5097656 -1.3106232l-2.0969849 0.81555176zm7.3827515 -7.8505096l0.94659424 -0.36813354l1.5971069 4.106613q0.41345215 1.0630646 0.4151001 1.8000946q-0.0040283203 0.7224579 -0.49188232 1.3648376q-0.4732666 0.63671875 -1.4926147 1.0331726q-1.0048218 0.39079285 -1.7758179 0.3050537q-0.762146 -0.10597229 -1.2936401 -0.65367126q-0.5170288 -0.55337524 -0.953125 -1.6746826l-1.5971069 -4.106598l0.93200684 -0.36247253l1.5971069 4.106613q0.35681152 0.9174347 0.70147705 1.2863464q0.34466553 0.36889648 0.84869385 0.45788574q0.5128784 0.0687561 1.1245117 -0.16911316q1.0339355 -0.40211487 1.2896118 -1.0380249q0.26452637 -0.6561279 -0.2508545 -1.981308l-1.597168 -4.106613zm5.4363403 6.067108l-2.763855 -7.106476l0.93200684 -0.36247253l2.763855 7.106476l-0.93200684 0.36247253z" fill-rule="nonzero"/><path fill="#cfe2f3" d="m809.26746 213.577l0 0c-2.2787476 -5.859268 -8.875916 -8.761826 -14.735168 -6.4830627l-42.435303 16.503769l0 0c-2.8137207 1.0942993 -5.0774536 3.2615204 -6.293274 6.0249176c-1.2158203 2.763382 -1.2840576 5.8965607 -0.1897583 8.710281l16.503723 42.435287c2.2788086 5.859253 8.875977 8.76181 14.7352295 6.4830627l42.43524 -16.503784c5.859314 -2.2787476 8.761841 -8.875946 6.4830933 -14.735199z" fill-rule="evenodd"/><path stroke="#000000" stroke-width="1.0" stroke-linejoin="round" stroke-linecap="butt" d="m809.26746 213.577l0 0c-2.2787476 -5.859268 -8.875916 -8.761826 -14.735168 -6.4830627l-42.435303 16.503769l0 0c-2.8137207 1.0942993 -5.0774536 3.2615204 -6.293274 6.0249176c-1.2158203 2.763382 -1.2840576 5.8965607 -0.1897583 8.710281l16.503723 42.435287c2.2788086 5.859253 8.875977 8.76181 14.7352295 6.4830627l42.43524 -16.503784c5.859314 -2.2787476 8.761841 -8.875946 6.4830933 -14.735199z" fill-rule="evenodd"/><path fill="#cfe2f3" d="m985.5352 10.608669l0 0c-2.2787476 -5.859264 -8.875977 -8.761833 -14.7352295 -6.483069l-42.43524 16.50377l0 0c-2.8137207 1.0943012 -5.0775146 3.261528 -6.293335 6.024914c-1.2157593 2.7633877 -1.2840576 5.896572 -0.1897583 8.710289l16.503784 42.43527c2.2787476 5.859268 8.875916 8.761833 14.735168 6.4830704l42.435303 -16.503769c5.859253 -2.2787628 8.761841 -8.875938 6.4830933 -14.735203z" fill-rule="evenodd"/><path stroke="#000000" stroke-width="1.0" stroke-linejoin="round" stroke-linecap="butt" d="m985.5352 10.608669l0 0c-2.2787476 -5.859264 -8.875977 -8.761833 -14.7352295 -6.483069l-42.43524 16.50377l0 0c-2.8137207 1.0943012 -5.0775146 3.261528 -6.293335 6.024914c-1.2157593 2.7633877 -1.2840576 5.896572 -0.1897583 8.710289l16.503784 42.43527c2.2787476 5.859268 8.875916 8.761833 14.735168 6.4830704l42.435303 -16.503769c5.859253 -2.2787628 8.761841 -8.875938 6.4830933 -14.735203z" fill-rule="evenodd"/><path fill="#cfe2f3" d="m1013.87506 83.464035l0 0c-2.2787476 -5.8592606 -8.875916 -8.761833 -14.735168 -6.4830627l-42.435303 16.503769l0 0c-2.8137207 1.0942993 -5.0774536 3.261528 -6.293274 6.02491c-1.2158203 2.7633896 -1.2840576 5.896576 -0.1897583 8.710289l16.503784 42.435272c2.2787476 5.859268 8.875916 8.761841 14.735168 6.483078l42.435303 -16.503784c5.859192 -2.2787628 8.76178 -8.875931 6.4830933 -14.735199z" fill-rule="evenodd"/><path stroke="#000000" stroke-width="1.0" stroke-linejoin="round" stroke-linecap="butt" d="m1013.87506 83.464035l0 0c-2.2787476 -5.8592606 -8.875916 -8.761833 -14.735168 -6.4830627l-42.435303 16.503769l0 0c-2.8137207 1.0942993 -5.0774536 3.261528 -6.293274 6.02491c-1.2158203 2.7633896 -1.2840576 5.896576 -0.1897583 8.710289l16.503784 42.435272c2.2787476 5.859268 8.875916 8.761841 14.735168 6.483078l42.435303 -16.503784c5.859192 -2.2787628 8.76178 -8.875931 6.4830933 -14.735199z" fill-rule="evenodd"/><path fill="#cfe2f3" d="m1042.215 156.31941l0 0c-2.2788086 -5.859268 -8.875977 -8.761841 -14.7352295 -6.483078l-42.43524 16.503769l0 0c-2.8137207 1.0943146 -5.0775146 3.2615356 -6.293274 6.0249176c-1.2158203 2.7633972 -1.2841187 5.896576 -0.18981934 8.710297l16.503784 42.435272c2.2787476 5.859253 8.875977 8.761826 14.7352295 6.4830627l42.435303 -16.503769c5.859253 -2.2787628 8.761841 -8.875946 6.483032 -14.735199z" fill-rule="evenodd"/><path stroke="#000000" stroke-width="1.0" stroke-linejoin="round" stroke-linecap="butt" d="m1042.215 156.31941l0 0c-2.2788086 -5.859268 -8.875977 -8.761841 -14.7352295 -6.483078l-42.43524 16.503769l0 0c-2.8137207 1.0943146 -5.0775146 3.2615356 -6.293274 6.0249176c-1.2158203 2.7633972 -1.2841187 5.896576 -0.18981934 8.710297l16.503784 42.435272c2.2787476 5.859253 8.875977 8.761826 14.7352295 6.4830627l42.435303 -16.503769c5.859253 -2.2787628 8.761841 -8.875946 6.483032 -14.735199z" fill-rule="evenodd"/><path fill="#cfe2f3" d="m911.6427 39.351994l0 0c-2.2788086 -5.8592644 -8.875977 -8.761835 -14.7352295 -6.4830704l-42.43524 16.503773l0 0c-2.8137207 1.0942993 -5.0775146 3.2615242 -6.293335 6.024914c-1.2158203 2.7633858 -1.2840576 5.8965683 -0.1897583 8.710285l16.503784 42.435272c2.2787476 5.859268 8.875916 8.761833 14.735168 6.4830704l42.435303 -16.503769c5.859253 -2.2787628 8.761841 -8.875938 6.483032 -14.735207z" fill-rule="evenodd"/><path stroke="#000000" stroke-width="1.0" stroke-linejoin="round" stroke-linecap="butt" d="m911.6427 39.351994l0 0c-2.2788086 -5.8592644 -8.875977 -8.761835 -14.7352295 -6.4830704l-42.43524 16.503773l0 0c-2.8137207 1.0942993 -5.0775146 3.2615242 -6.293335 6.024914c-1.2158203 2.7633858 -1.2840576 5.8965683 -0.1897583 8.710285l16.503784 42.435272c2.2787476 5.859268 8.875916 8.761833 14.735168 6.4830704l42.435303 -16.503769c5.859253 -2.2787628 8.761841 -8.875938 6.483032 -14.735207z" fill-rule="evenodd"/><path fill="#cfe2f3" d="m939.98254 112.20736l0 0c-2.2787476 -5.8592606 -8.875916 -8.761833 -14.735168 -6.4830704l-42.435303 16.503777l0 0c-2.8137207 1.0942993 -5.0774536 3.261528 -6.293274 6.02491c-1.2158203 2.763382 -1.2840576 5.896576 -0.1897583 8.710297l16.503723 42.435272c2.2788086 5.859253 8.875977 8.761826 14.7352295 6.4830627l42.43524 -16.503769c5.859314 -2.2787628 8.761841 -8.875946 6.4830933 -14.735199z" fill-rule="evenodd"/><path stroke="#000000" stroke-width="1.0" stroke-linejoin="round" stroke-linecap="butt" d="m939.98254 112.20736l0 0c-2.2787476 -5.8592606 -8.875916 -8.761833 -14.735168 -6.4830704l-42.435303 16.503777l0 0c-2.8137207 1.0942993 -5.0774536 3.261528 -6.293274 6.02491c-1.2158203 2.763382 -1.2840576 5.896576 -0.1897583 8.710297l16.503723 42.435272c2.2788086 5.859253 8.875977 8.761826 14.7352295 6.4830627l42.43524 -16.503769c5.859314 -2.2787628 8.761841 -8.875946 6.4830933 -14.735199z" fill-rule="evenodd"/><path fill="#000000" d="m913.65424 159.82251l1.0371704 -0.13513184q0.14727783 1.2839203 -0.3866577 2.1957092q-0.52508545 0.89157104 -1.6463623 1.3276672q-1.1504517 0.4474182 -2.045227 0.25894165q-0.8947754 -0.18849182 -1.6188965 -0.9295502q-0.7241211 -0.7410431 -1.1205444 -1.7604218q-0.43041992 -1.1067352 -0.33093262 -2.1010437q0.099487305 -0.9943085 0.72161865 -1.7224426q0.6164551 -0.7427063 1.5484619 -1.1051788q1.0775757 -0.4190979 2.020935 -0.14891052q0.9376831 0.2556305 1.5994873 1.1382751l-0.83251953 0.5752411q-0.5533447 -0.690094 -1.1698608 -0.85269165q-0.6019287 -0.16827393 -1.3154907 0.10925293q-0.8154907 0.31715393 -1.2159424 0.92555237q-0.40045166 0.60839844 -0.3583374 1.3632355q0.036376953 0.74024963 0.30822754 1.4392548q0.35113525 0.9028778 0.87945557 1.4853668q0.52264404 0.56791687 1.2062988 0.6876373q0.6836548 0.11972046 1.3389282 -0.13513184q0.78637695 -0.3058319 1.1641846 -0.9724884q0.37213135 -0.6812134 0.21600342 -1.6431427zm4.878723 0.96939087l-2.440979 -6.2763977l-2.3445435 0.9118347l-0.32281494 -0.83006287l5.63562 -2.191803l0.32281494 0.83006287l-2.3590698 0.9174957l2.440979 6.276413l-0.93200684 0.36245728zm4.2754517 -1.6627808l-2.763855 -7.1064606l3.1455078 -1.2233429q0.9465332 -0.3681183 1.5153198 -0.3713684q0.5687256 -0.003250122 1.0525513 0.37860107q0.49267578 0.36161804 0.7192383 0.9441223q0.29449463 0.7572479 0.0032958984 1.4740448q-0.28234863 0.69659424 -1.2596436 1.2443237q0.44659424 0.027496338 0.7038574 0.12861633q0.5695801 0.21438599 1.15448 0.6407318l1.9910889 1.4553986l-1.1795654 0.4587555l-1.524231 -1.1172333q-0.6569824 -0.48217773 -1.0639038 -0.7095032q-0.39239502 -0.23298645 -0.6618042 -0.2790985q-0.26049805 -0.066329956 -0.49591064 -0.02507019q-0.17718506 0.018615723 -0.54125977 0.16020203l-1.0921631 0.42477417l1.2290039 3.1600494l-0.93200684 0.36245728zm-0.6141968 -4.3380127l2.024231 -0.78723145q0.6407471 -0.24919128 0.9537964 -0.5218506q0.31311035 -0.27264404 0.38916016 -0.63752747q0.076049805 -0.36486816 -0.05987549 -0.7143707q-0.19824219 -0.50968933 -0.68688965 -0.68847656q-0.4887085 -0.17877197 -1.2750854 0.12705994l-2.257141 0.8778534l0.9118042 2.3445435zm7.7282104 1.5712585l-2.763855 -7.106476l0.94659424 -0.36813354l2.4353027 6.261856l3.494995 -1.3592529l0.3284912 0.84461975l-4.4415283 1.7273865z" fill-rule="nonzero"/><path fill="#cfe2f3" d="m968.32245 185.06273l0 0c-2.2787476 -5.859268 -8.875977 -8.761826 -14.7352295 -6.4830627l-42.43524 16.503769l0 0c-2.8137207 1.0942993 -5.0775146 3.2615204 -6.293335 6.0249176c-1.2157593 2.763382 -1.2840576 5.8965607 -0.1897583 8.710281l16.503784 42.435272c2.2787476 5.859253 8.875916 8.761841 14.7352295 6.4830627l42.43524 -16.503769c5.859253 -2.2787628 8.761841 -8.875931 6.4830933 -14.735199z" fill-rule="evenodd"/><path stroke="#000000" stroke-width="1.0" stroke-linejoin="round" stroke-linecap="butt" d="m968.32245 185.06273l0 0c-2.2787476 -5.859268 -8.875977 -8.761826 -14.7352295 -6.4830627l-42.43524 16.503769l0 0c-2.8137207 1.0942993 -5.0775146 3.2615204 -6.293335 6.0249176c-1.2157593 2.763382 -1.2840576 5.8965607 -0.1897583 8.710281l16.503784 42.435272c2.2787476 5.859253 8.875916 8.761841 14.7352295 6.4830627l42.43524 -16.503769c5.859253 -2.2787628 8.761841 -8.875931 6.4830933 -14.735199z" fill-rule="evenodd"/><path fill="#cfe2f3" d="m808.0729 309.237l0 0c-2.2788086 -5.8592834 -8.875977 -8.761841 -14.7352295 -6.4830627l-42.43524 16.503754l0 0c-2.8137207 1.0942993 -5.0775146 3.2615356 -6.293335 6.024933c-1.2158203 2.7633667 -1.2840576 5.8965454 -0.1897583 8.710266l16.503784 42.435272c2.2787476 5.8592834 8.875916 8.761841 14.735168 6.4830933l42.435303 -16.503784c5.859253 -2.278778 8.761841 -8.875946 6.4830933 -14.735199z" fill-rule="evenodd"/><path stroke="#000000" stroke-width="1.0" stroke-linejoin="round" stroke-linecap="butt" d="m808.0729 309.237l0 0c-2.2788086 -5.8592834 -8.875977 -8.761841 -14.7352295 -6.4830627l-42.43524 16.503754l0 0c-2.8137207 1.0942993 -5.0775146 3.2615356 -6.293335 6.024933c-1.2158203 2.7633667 -1.2840576 5.8965454 -0.1897583 8.710266l16.503784 42.435272c2.2787476 5.8592834 8.875916 8.761841 14.735168 6.4830933l42.435303 -16.503784c5.859253 -2.278778 8.761841 -8.875946 6.4830933 -14.735199z" fill-rule="evenodd"/><path fill="#00ff00" d="m722.8459 352.2271l0 0c-3.4935303 -5.227234 -10.56311 -6.6326904 -15.790344 -3.1391602l-37.85791 25.301575l0 0c-2.5101929 1.6776428 -4.2511597 4.283783 -4.8398438 7.2450256c-0.5886841 2.9612732 0.023071289 6.0351257 1.7006836 8.545319l25.301575 37.85788c3.4935303 5.2272644 10.56311 6.632721 15.790344 3.1391907l37.85791 -25.301605c5.227234 -3.4934998 6.6326904 -10.56308 3.1391602 -15.790344z" fill-rule="evenodd"/><path stroke="#000000" stroke-width="1.0" stroke-linejoin="round" stroke-linecap="butt" d="m722.8459 352.2271l0 0c-3.4935303 -5.227234 -10.56311 -6.6326904 -15.790344 -3.1391602l-37.85791 25.301575l0 0c-2.5101929 1.6776428 -4.2511597 4.283783 -4.8398438 7.2450256c-0.5886841 2.9612732 0.023071289 6.0351257 1.7006836 8.545319l25.301575 37.85788c3.4935303 5.2272644 10.56311 6.632721 15.790344 3.1391907l37.85791 -25.301605c5.227234 -3.4934998 6.6326904 -10.56308 3.1391602 -15.790344z" fill-rule="evenodd"/><path fill="#000000" d="m695.1027 398.65775l-7.423279 -11.107117l4.170044 -2.7869873q1.2731323 -0.8508301 2.2653198 -1.0253296q0.9921875 -0.174469 1.8897095 0.24050903q0.91052246 0.40631104 1.4227905 1.17276q0.47747803 0.71450806 0.5131836 1.6115112q0.040039062 0.8753357 -0.48760986 1.7730103q1.1999512 -0.36975098 2.2230835 -0.019897461q1.0231323 0.34985352 1.6655884 1.3111572q0.52093506 0.77944946 0.63464355 1.6807251q0.11804199 0.87957764 -0.13250732 1.5732422q-0.23754883 0.68496704 -0.83483887 1.3660278q-0.605896 0.6680908 -1.6711426 1.3800354l-4.2349854 2.8303528zm-2.8254395 -7.433197l2.3903198 -1.5975037q0.9873047 -0.6598511 1.3248901 -1.054596q0.44573975 -0.5422058 0.47106934 -1.1229248q0.02532959 -0.5807495 -0.36535645 -1.1653442q-0.36468506 -0.54559326 -0.9152832 -0.7789917q-0.5463257 -0.2550354 -1.144165 -0.08102417q-0.59783936 0.17404175 -1.7930298 0.97280884l-2.208435 1.4759521l2.2399902 3.3516235zm3.4294434 5.131378l2.7540894 -1.8406067q0.71447754 -0.47753906 0.96551514 -0.7204895q0.44592285 -0.4295349 0.64471436 -0.86312866q0.20318604 -0.45526123 0.15490723 -1.0055847q-0.048339844 -0.5503235 -0.40429688 -1.0829468q-0.41674805 -0.62353516 -1.0454102 -0.86117554q-0.6156616 -0.24630737 -1.3087769 -0.046142578q-0.6888428 0.1784668 -1.7540894 0.89038086l-2.559204 1.7103882l2.5525513 3.8193054zm7.485962 -6.581726l1.2120972 -1.1107788q0.64227295 0.7359619 1.4570923 0.8303528q0.80615234 0.0814209 1.7414551 -0.5437012q0.93536377 -0.6251221 1.1382446 -1.3057251q0.19421387 -0.6936035 -0.15307617 -1.2132263q-0.30389404 -0.4546814 -0.888916 -0.4583435q-0.39434814 4.5776367E-4 -1.6939087 0.4743042q-1.767395 0.61743164 -2.5343018 0.73532104q-0.75390625 0.109191895 -1.3739624 -0.17178345q-0.6286621 -0.2939453 -1.0280762 -0.8915405q-0.35595703 -0.5326233 -0.4130249 -1.1522522q-0.06573486 -0.6326294 0.16326904 -1.217926q0.15551758 -0.4421997 0.5969238 -0.96273804q0.44573975 -0.5422363 1.0693359 -0.95895386q0.9483032 -0.6338196 1.8451538 -0.8385315q0.89678955 -0.20471191 1.5471191 0.037231445q0.6633301 0.23324585 1.314148 0.9258728l-1.2164917 1.0761414q-0.5076904 -0.56277466 -1.1837769 -0.61834717q-0.663147 -0.0642395 -1.4555664 0.46536255q-0.94836426 0.6338196 -1.1427002 1.2147217q-0.18133545 0.5722656 0.09649658 0.9879761q0.17364502 0.25979614 0.47711182 0.37646484q0.3164673 0.10797119 0.77575684 0.0077819824q0.24694824 -0.05230713 1.4295654 -0.44802856q1.7067261 -0.5956726 2.4432983 -0.73083496q0.73657227 -0.13519287 1.3739014 0.11541748q0.6373291 0.25061035 1.1061401 0.9521179q0.46014404 0.6885071 0.45684814 1.5552368q0.009643555 0.8580322 -0.51812744 1.6993713q-0.53637695 0.8283386 -1.4847412 1.4621277q-1.5588989 1.0418396 -2.8244019 0.9479675q-1.2525024 -0.10256958 -2.3328857 -1.2410583zm11.964966 -0.06576538l-7.431885 -11.120148l1.2341309 -0.8247986l0.6945801 1.0392761q0.033569336 -0.9057617 0.3795166 -1.5692139q0.35021973 -0.6850891 1.1427002 -1.2147217q1.0262451 -0.68588257 2.1616821 -0.67419434q1.1397095 -0.009979248 2.1936035 0.6951904q1.045166 0.6921692 1.8178711 1.8483582q0.8248291 1.2341309 1.0429688 2.516632q0.21813965 1.2824707 -0.27026367 2.3794556q-0.49713135 1.0839539 -1.4324341 1.7090759q-0.6755371 0.45147705 -1.4121704 0.5303345q-0.7366333 0.078826904 -1.3695679 -0.13711548l2.6133423 3.9102478l-1.3640747 0.9116211zm-3.4802856 -7.8788147q1.0332031 1.5458984 2.1603394 1.8826294q1.1314087 0.31503296 2.0147705 -0.2753296q0.9093628 -0.60775757 1.0466919 -1.8083191q0.12860107 -1.213562 -0.94799805 -2.8244324q-1.0244751 -1.532898 -2.1732788 -1.8739319q-1.1358032 -0.34970093 -2.019165 0.24066162q-0.87042236 0.5817261 -0.9989624 1.851593q-0.12420654 1.24823 0.91760254 2.807129z" fill-rule="nonzero"/><path fill="#000000" d="m700.21344 412.46582l-4.2368774 -6.3395386l0.8574219 -0.57299805l6.6638794 2.7441406l-3.3252563 -4.975464l0.8054199 -0.53829956l4.2368774 6.339508l-0.8703613 0.5817261l-6.659607 -2.7658386l3.3339844 4.9884644l-0.80548096 0.53829956zm9.321167 -6.2296143l-0.45147705 -0.6755371q-0.024658203 1.144104 -0.934021 1.7518616q-0.41571045 0.27783203 -0.8706665 0.35635376q-0.45495605 0.07852173 -0.78009033 -0.04244995q-0.32513428 -0.12094116 -0.6375122 -0.4196167q-0.18658447 -0.1947937 -0.5252075 -0.70144653l-1.9013672 -2.8449707l0.77941895 -0.52093506l1.7017212 2.5462036q0.40808105 0.6105652 0.5946655 0.8053589q0.2775879 0.2467041 0.6329956 0.27227783q0.35968018 0.0039367676 0.69744873 -0.22180176q0.35076904 -0.23440552 0.5496826 -0.6116638q0.19018555 -0.3902588 0.09875488 -0.7801819q-0.078430176 -0.3985901 -0.46917725 -0.9831848l-1.6495972 -2.4682312l0.77948 -0.52093506l3.0734863 4.598755l-0.6885376 0.46014404zm1.9135132 -1.2788391l-3.0734863 -4.598755l0.70147705 -0.46884155l0.43414307 0.64953613q-0.0178833 -0.47665405 0.20690918 -0.9276123q0.22485352 -0.45095825 0.6795044 -0.7548218q0.50665283 -0.33862305 0.9790039 -0.33483887q0.46368408 -0.009185791 0.85839844 0.2720337q0.0073242188 -1.1700745 0.87768555 -1.75177q0.6885376 -0.46017456 1.3127441 -0.3135376q0.6154785 0.13363647 1.1364136 0.91308594l2.1098022 3.1567688l-0.7664795 0.51223755l-1.9360962 -2.8969421q-0.31256104 -0.46768188 -0.52075195 -0.6104431q-0.21685791 -0.15576172 -0.51153564 -0.14675903q-0.28167725 3.3569336E-4 -0.5415039 0.17398071q-0.49365234 0.32992554 -0.6013794 0.8717346q-0.09472656 0.5331421 0.3828125 1.2476501l1.7798462 2.6631165l-0.77948 0.52090454l-1.9968872 -2.9878845q-0.34729004 -0.5196228 -0.7157593 -0.64920044q-0.3555298 -0.13827515 -0.7972412 0.15692139q-0.32476807 0.21704102 -0.48901367 0.5899353q-0.15991211 0.3511963 -0.064086914 0.77578735q0.100097656 0.40292358 0.52557373 1.0394592l1.5888062 2.3773193l-0.77941895 0.52093506zm8.094666 -5.4099426l-0.71447754 0.47750854l-4.2368774 -6.339508l0.77941895 -0.52093506l1.5107422 2.2604065q0.0769043 -0.9534912 0.8303833 -1.4570618q0.4286499 -0.28649902 0.9269409 -0.3564148q0.48962402 -0.08288574 0.9448242 0.06390381q0.44647217 0.1338501 0.87158203 0.4887085q0.43811035 0.3461914 0.7680054 0.83984375q0.7901001 1.1821594 0.63964844 2.2223816q-0.15917969 1.0272522 -0.9776001 1.5742188q-0.8054199 0.53829956 -1.7245483 0.175354l0.381958 0.57159424zm-1.5540771 -2.3253784q0.5469971 0.8184204 1.0109253 1.0345764q0.77178955 0.36746216 1.3953247 -0.04928589q0.5196533 -0.34725952 0.5881958 -1.032074q0.07287598 -0.7064514 -0.5088501 -1.5768433q-0.59906006 -0.8963623 -1.2493286 -1.0819397q-0.63720703 -0.1942749 -1.1438599 0.14431763q-0.50665283 0.33859253 -0.5881958 1.032074q-0.06854248 0.68478394 0.49578857 1.5291748zm7.9209595 -4.0722656l0.8748779 -0.4343567q0.27398682 0.8317261 0.014831543 1.5687561q-0.24615479 0.7283325 -1.0516357 1.2666016q-1.0002441 0.6685486 -2.0145874 0.44436646q-1.0013428 -0.23287964 -1.7479858 -1.3500671q-0.7727051 -1.156189 -0.60058594 -2.1921082q0.16351318 -1.0489197 1.1118164 -1.6827393q0.9223633 -0.61642456 1.932373 -0.37057495q1.0013428 0.23287964 1.7653198 1.3760681q0.04345703 0.064941406 0.13024902 0.19485474l-3.4295654 2.2920837q0.5512085 0.7404175 1.210083 0.8826599q0.6588745 0.14224243 1.2304688 -0.23977661q0.42871094 -0.28649902 0.579895 -0.70703125q0.14251709 -0.4335327 -0.005554199 -1.0487366zm-3.4013672 0.45028687l2.5722046 -1.7190552q-0.43395996 -0.53686523 -0.88049316 -0.67071533q-0.67193604 -0.18988037 -1.2565308 0.20080566q-0.5325928 0.35595703 -0.66625977 0.9714966q-0.12927246 0.59384155 0.2310791 1.2174683zm6.161743 -0.15264893l-3.0734863 -4.598755l0.70147705 -0.46884155l0.46887207 0.70150757q-0.057128906 -0.67596436 0.059509277 -0.97946167q0.1296997 -0.3121643 0.40246582 -0.49450684q0.3897705 -0.26046753 0.9661255 -0.2697754l0.21765137 0.88812256q-0.3986206 0.022125244 -0.68444824 0.21313477q-0.25982666 0.17364502 -0.36346436 0.46844482q-0.09069824 0.2861328 7.324219E-4 0.61972046q0.14788818 0.50253296 0.47784424 0.9961548l1.6061401 2.4033203l-0.77941895 0.52093506z" fill-rule="nonzero"/><path fill="#cfe2f3" d="m629.7587 405.4429l0 0c-5.322876 -3.3456726 -12.350159 -1.7427979 -15.695801 3.5801086l-24.230774 38.55078l0 0c-1.6066284 2.5561829 -2.132019 5.645874 -1.4606323 8.5894165c0.6713867 2.9435425 2.4846191 5.499817 5.0407715 7.1064453l38.55078 24.230743c5.322937 3.345642 12.35022 1.7427673 15.695862 -3.5801392l24.230713 -38.55078c3.3457031 -5.322937 1.7427979 -12.350189 -3.5800781 -15.695862z" fill-rule="evenodd"/><path stroke="#000000" stroke-width="1.0" stroke-linejoin="round" stroke-linecap="butt" d="m629.7587 405.4429l0 0c-5.322876 -3.3456726 -12.350159 -1.7427979 -15.695801 3.5801086l-24.230774 38.55078l0 0c-1.6066284 2.5561829 -2.132019 5.645874 -1.4606323 8.5894165c0.6713867 2.9435425 2.4846191 5.499817 5.0407715 7.1064453l38.55078 24.230743c5.322937 3.345642 12.35022 1.7427673 15.695862 -3.5801392l24.230713 -38.55078c3.3457031 -5.322937 1.7427979 -12.350189 -3.5800781 -15.695862z" fill-rule="evenodd"/><path fill="#000000" fill-opacity="0.0" d="m387.52493 23.19685l287.46457 0l0 51.716534l-287.46457 0z" fill-rule="evenodd"/><path fill="#cfe2f3" d="m448.84232 57.79685l0 -19.078125l2.59375 0l10.015625 14.984375l0 -14.984375l2.421875 0l0 19.078125l-2.59375 0l-10.015625 -15.0l0 15.0l-2.421875 0zm28.031525 0l0 -2.03125q-1.609375 2.34375 -4.375 2.34375q-1.234375 0 -2.296875 -0.46875q-1.0625 -0.46875 -1.578125 -1.171875q-0.5 -0.71875 -0.71875 -1.75q-0.140625 -0.6875 -0.140625 -2.1875l0 -8.5625l2.34375 0l0 7.671875q0 1.828125 0.140625 2.46875q0.21875 0.921875 0.9375 1.453125q0.71875 0.53125 1.765625 0.53125q1.0625 0 1.984375 -0.53125q0.921875 -0.546875 1.296875 -1.46875q0.390625 -0.9375 0.390625 -2.71875l0 -7.40625l2.34375 0l0 13.828125l-2.09375 0zm5.762451 0l0 -13.828125l2.109375 0l0 1.9375q0.640625 -1.015625 1.71875 -1.625q1.09375 -0.625 2.46875 -0.625q1.53125 0 2.515625 0.640625q0.984375 0.640625 1.390625 1.78125q1.640625 -2.421875 4.265625 -2.421875q2.0625 0 3.15625 1.140625q1.109375 1.140625 1.109375 3.515625l0 9.484375l-2.328125 0l0 -8.703125q0 -1.40625 -0.234375 -2.015625q-0.21875 -0.625 -0.828125 -1.0q-0.59375 -0.390625 -1.390625 -0.390625q-1.46875 0 -2.4375 0.96875q-0.953125 0.96875 -0.953125 3.109375l0 8.03125l-2.34375 0l0 -8.984375q0 -1.5625 -0.578125 -2.34375q-0.5625 -0.78125 -1.875 -0.78125q-0.984375 0 -1.828125 0.53125q-0.828125 0.515625 -1.21875 1.515625q-0.375 1.0 -0.375 2.890625l0 7.171875l-2.34375 0zm24.37674 0l-2.171875 0l0 -19.078125l2.34375 0l0 6.796875q1.484375 -1.859375 3.78125 -1.859375q1.2812195 0 2.4062195 0.515625q1.140625 0.515625 1.875 1.453125q0.75 0.921875 1.15625 2.25q0.421875 1.3125 0.421875 2.796875q0 3.5625 -1.765625 5.5q-1.75 1.9375 -4.2187195 1.9375q-2.4375 0 -3.828125 -2.046875l0 1.734375zm-0.03125 -7.015625q0 2.484375 0.671875 3.59375q1.109375 1.8125 3.0 1.8125q1.5312195 0 2.6562195 -1.328125q1.125 -1.34375 1.125 -3.984375q0 -2.703125 -1.078125 -3.984375q-1.078125 -1.296875 -2.5937195 -1.296875q-1.546875 0 -2.671875 1.328125q-1.109375 1.328125 -1.109375 3.859375zm22.153046 2.5625l2.421875 0.296875q-0.578125 2.125 -2.125 3.296875q-1.546875 1.171875 -3.953125 1.171875q-3.03125 0 -4.8125 -1.859375q-1.78125 -1.875 -1.78125 -5.25q0 -3.484375 1.796875 -5.40625q1.796875 -1.9375 4.671875 -1.9375q2.765625 0 4.515625 1.890625q1.765625 1.890625 1.765625 5.3125q0 0.203125 -0.015625 0.625l-10.3125 0q0.140625 2.28125 1.296875 3.5q1.15625 1.203125 2.890625 1.203125q1.28125 0 2.1875 -0.671875q0.921875 -0.6875 1.453125 -2.171875zm-7.6875 -3.78125l7.71875 0q-0.15625 -1.75 -0.890625 -2.625q-1.125 -1.34375 -2.90625 -1.34375q-1.609375 0 -2.71875 1.078125q-1.09375 1.078125 -1.203125 2.890625zm13.028076 8.234375l0 -13.828125l2.109375 0l0 2.09375q0.796875 -1.46875 1.484375 -1.9375q0.6875 -0.46875 1.5 -0.46875q1.1875 0 2.40625 0.765625l-0.796875 2.171875q-0.859375 -0.515625 -1.71875 -0.515625q-0.765625 0 -1.390625 0.46875q-0.609375 0.453125 -0.859375 1.28125q-0.390625 1.25 -0.390625 2.734375l0 7.234375l-2.34375 0zm16.501465 0l0 -19.078125l2.53125 0l0 16.828125l9.390625 0l0 2.25l-11.921875 0zm23.653015 -1.703125q-1.3125 1.109375 -2.515625 1.5625q-1.203125 0.453125 -2.578125 0.453125q-2.28125 0 -3.5 -1.109375q-1.21875 -1.109375 -1.21875 -2.84375q0 -1.015625 0.453125 -1.859375q0.46875 -0.84375 1.21875 -1.34375q0.75 -0.515625 1.6875 -0.765625q0.6875 -0.1875 2.078125 -0.359375q2.828125 -0.328125 4.171875 -0.796875q0.015625 -0.484375 0.015625 -0.625q0 -1.421875 -0.65625 -2.015625q-0.90625 -0.796875 -2.671875 -0.796875q-1.65625 0 -2.453125 0.59375q-0.78125 0.578125 -1.15625 2.046875l-2.296875 -0.3125q0.3125 -1.46875 1.03125 -2.375q0.71875 -0.90625 2.0625 -1.390625q1.359375 -0.5 3.140625 -0.5q1.78125 0 2.875 0.421875q1.109375 0.421875 1.625 1.046875q0.53125 0.625 0.734375 1.59375q0.125 0.59375 0.125 2.15625l0 3.125q0 3.265625 0.140625 4.140625q0.15625 0.859375 0.59375 1.65625l-2.4375 0q-0.375 -0.734375 -0.46875 -1.703125zm-0.203125 -5.234375q-1.265625 0.515625 -3.828125 0.890625q-1.4375 0.203125 -2.046875 0.46875q-0.59375 0.25 -0.921875 0.75q-0.3125 0.5 -0.3125 1.125q0 0.9375 0.703125 1.5625q0.703125 0.625 2.078125 0.625q1.34375 0 2.390625 -0.59375q1.0625 -0.59375 1.5625 -1.625q0.375 -0.796875 0.375 -2.34375l0 -0.859375zm5.903076 12.265625l-0.265625 -2.203125q0.765625 0.203125 1.34375 0.203125q0.78125 0 1.25 -0.265625q0.46875 -0.25 0.765625 -0.71875q0.21875 -0.359375 0.71875 -1.75q0.0625 -0.1875 0.203125 -0.5625l-5.25 -13.859375l2.53125 0l2.875 8.015625q0.5625 1.515625 1.0 3.203125q0.40625 -1.625 0.96875 -3.15625l2.953125 -8.0625l2.34375 0l-5.265625 14.0625q-0.84375 2.28125 -1.3125 3.140625q-0.625 1.15625 -1.4375 1.6875q-0.796875 0.546875 -1.921875 0.546875q-0.671875 0 -1.5 -0.28125zm22.890625 -9.78125l2.421875 0.296875q-0.578125 2.125 -2.125 3.296875q-1.546875 1.171875 -3.953125 1.171875q-3.03125 0 -4.8125 -1.859375q-1.78125 -1.875 -1.78125 -5.25q0 -3.484375 1.796875 -5.40625q1.796875 -1.9375 4.671875 -1.9375q2.765625 0 4.515625 1.890625q1.765625 1.890625 1.765625 5.3125q0 0.203125 -0.015625 0.625l-10.3125 0q0.140625 2.28125 1.296875 3.5q1.15625 1.203125 2.890625 1.203125q1.28125 0 2.1875 -0.671875q0.921875 -0.6875 1.453125 -2.171875zm-7.6875 -3.78125l7.71875 0q-0.15625 -1.75 -0.890625 -2.625q-1.125 -1.34375 -2.90625 -1.34375q-1.609375 0 -2.71875 1.078125q-1.09375 1.078125 -1.203125 2.890625zm13.028076 8.234375l0 -13.828125l2.109375 0l0 2.09375q0.796875 -1.46875 1.484375 -1.9375q0.6875 -0.46875 1.5 -0.46875q1.1875 0 2.40625 0.765625l-0.796875 2.171875q-0.859375 -0.515625 -1.71875 -0.515625q-0.765625 0 -1.390625 0.46875q-0.609375 0.453125 -0.859375 1.28125q-0.390625 1.25 -0.390625 2.734375l0 7.234375l-2.34375 0z" fill-rule="nonzero"/></g></svg>