<svg version="1.1" viewBox="0.0 0.0 1062.5144356955382 514.0472440944882" fill="none" stroke="none" stroke-linecap="square" stroke-miterlimit="10" xmlns:xlink="http://www.w3.org/1999/xlink" xmlns="http://www.w3.org/2000/svg"><clipPath id="p.0"><path d="m0 0l1062.5144 0l0 514.04724l-1062.5144 0l0 -514.04724z" clip-rule="nonzero"/></clipPath><g clip-path="url(#p.0)"><path fill="#000000" fill-opacity="0.0" d="m0 0l1062.5144 0l0 514.04724l-1062.5144 0z" fill-rule="evenodd"/><path fill="#cfe2f3" d="m379.90622 109.94902l0 0c2.2555847 -5.867958 8.841003 -8.796379 14.708954 -6.5408096l42.49826 16.335793l0 0c2.8179016 1.0831604 5.090088 3.2413635 6.316742 5.999832c1.226654 2.7584686 1.307251 5.8912354 0.22409058 8.709122l-16.335815 42.49826c-2.2555542 5.8679657 -8.840973 8.796387 -14.708954 6.5408173l-42.49826 -16.3358c-5.8679504 -2.2555695 -8.796387 -8.840988 -6.540802 -14.708954z" fill-rule="evenodd"/><path stroke="#000000" stroke-width="1.0" stroke-linejoin="round" stroke-linecap="butt" d="m379.90622 109.94902l0 0c2.2555847 -5.867958 8.841003 -8.796379 14.708954 -6.5408096l42.49826 16.335793l0 0c2.8179016 1.0831604 5.090088 3.2413635 6.316742 5.999832c1.226654 2.7584686 1.307251 5.8912354 0.22409058 8.709122l-16.335815 42.49826c-2.2555542 5.8679657 -8.840973 8.796387 -14.708954 6.5408173l-42.49826 -16.3358c-5.8679504 -2.2555695 -8.796387 -8.840988 -6.540802 -14.708954z" fill-rule="evenodd"/><path fill="#000000" d="m392.39777 146.553l4.7932434 -12.469864l8.415344 3.2347412l-0.56622314 1.473053l-6.767273 -2.6012573l-1.4856262 3.8649292l5.848419 2.2480774l-0.5661926 1.4730377l-5.8484497 -2.2480621l-2.1752014 5.658844l-1.6480408 -0.63349915zm11.2659 1.0160522l1.523529 0.43495178q-0.20843506 1.1083832 0.13720703 1.7769165q0.3456421 0.6685333 1.1769714 0.9880829q0.70007324 0.269104 1.3484497 0.15005493q0.66296387 -0.11343384 1.2058411 -0.52412415q0.5574646 -0.40509033 1.1293945 -1.2398224q0.58654785 -0.8291321 0.95095825 -1.7771301q0.039245605 -0.10209656 0.11773682 -0.30628967q-0.7470398 0.5498352 -1.7229614 0.69363403q-0.96136475 0.14938354 -1.8802185 -0.20379639q-1.5605469 -0.5998688 -2.1935425 -2.1321259q-0.6329956 -1.5322723 0.07336426 -3.369934q0.7287903 -1.8960114 2.2801208 -2.6221313q1.5658875 -0.72050476 3.2431335 -0.075805664q1.2250977 0.47091675 1.979187 1.5140533q0.75405884 1.0431366 0.81378174 2.45549q0.059753418 1.4123383 -0.8204346 3.7021332q-0.9194031 2.3918762 -1.9882507 3.6047668q-1.0688477 1.2128906 -2.3756714 1.56427q-1.3068542 0.35139465 -2.6923828 -0.18119812q-1.4584656 -0.5606079 -2.077942 -1.736145q-0.6048889 -1.1699219 -0.22827148 -2.7158508zm8.384918 -3.0877686q0.5045471 -1.3126221 0.101623535 -2.3547058q-0.40292358 -1.0420837 -1.3946838 -1.4232941q-1.020935 -0.39242554 -2.098877 0.14736938q-1.0779724 0.5398102 -1.5881042 1.8670044q-0.4597168 1.1959534 -0.030975342 2.2144623q0.44329834 1.0241241 1.4934082 1.4277649q1.0646667 0.40925598 2.0360718 -0.07107544q0.9713745 -0.48033142 1.4815369 -1.8075256z" fill-rule="nonzero"/><path fill="#cfe2f3" d="m351.86676 182.92055l0 0c2.2555847 -5.8679657 8.841003 -8.796387 14.708954 -6.5408173l42.49826 16.335785l0 0c2.8179016 1.0831757 5.0901184 3.2413788 6.316742 5.999832c1.226654 2.7584686 1.307251 5.8912354 0.22409058 8.709137l-16.335785 42.49826c-2.2555847 5.8679504 -8.841003 8.796371 -14.708984 6.5408173l-42.49826 -16.3358c-5.8679504 -2.2555695 -8.796387 -8.841003 -6.540802 -14.708954z" fill-rule="evenodd"/><path stroke="#000000" stroke-width="1.0" stroke-linejoin="round" stroke-linecap="butt" d="m351.86676 182.92055l0 0c2.2555847 -5.8679657 8.841003 -8.796387 14.708954 -6.5408173l42.49826 16.335785l0 0c2.8179016 1.0831757 5.0901184 3.2413788 6.316742 5.999832c1.226654 2.7584686 1.307251 5.8912354 0.22409058 8.709137l-16.335785 42.49826c-2.2555847 5.8679504 -8.841003 8.796371 -14.708984 6.5408173l-42.49826 -16.3358c-5.8679504 -2.2555695 -8.796387 -8.841003 -6.540802 -14.708954z" fill-rule="evenodd"/><path fill="#000000" d="m364.3583 219.52452l4.7932434 -12.469879l8.415344 3.2347565l-0.56622314 1.473053l-6.767273 -2.6012573l-1.4856262 3.8649292l5.8484497 2.2480621l-0.56622314 1.473053l-5.8484497 -2.2480621l-2.1752014 5.6588287l-1.6480408 -0.6334839zm21.487152 -2.5376434l-1.561676 -0.46635437q0.1434021 -0.9827423 -0.078826904 -1.5368652q-0.36026 -0.8917694 -1.2791138 -1.2449646q-0.7292175 -0.28030396 -1.4403992 -0.08496094q-0.9164734 0.2503357 -1.7318726 1.1086884q-0.80978394 0.84376526 -1.5419312 2.7049866q0.8737488 -0.61828613 1.8328857 -0.71832275q0.95913696 -0.10003662 1.834198 0.23634338q1.5314026 0.5886383 2.1643982 2.1209106q0.647583 1.5378723 -0.036376953 3.3171997q-0.45407104 1.1813507 -1.3513794 1.9914703q-0.8826904 0.81573486 -1.9797974 1.0133972q-1.082489 0.20326233 -2.2055054 -0.22840881q-1.9251709 -0.74002075 -2.5975037 -2.6054535q-0.65216064 -1.8744202 0.5924072 -5.112213q1.3903198 -3.6169891 3.3454285 -4.7402954q1.716156 -0.98080444 3.6996765 -0.21836853q1.4584656 0.5606079 2.0723267 1.7507324q0.6340637 1.1811371 0.26306152 2.7124786zm-8.305298 2.9677124q-0.30273438 0.78756714 -0.24758911 1.645752q0.06072998 0.84358215 0.51293945 1.4526367q0.45220947 0.60905457 1.1231079 0.8669281q0.96258545 0.37001038 1.9597778 -0.13388062q1.0028076 -0.5184784 1.5185547 -1.86026q0.4989624 -1.2980347 0.09939575 -2.3053436q-0.39956665 -1.0072937 -1.4496765 -1.4109497q-1.035492 -0.3980255 -2.0506287 0.065475464q-1.0005798 0.4691162 -1.4658813 1.6796417z" fill-rule="nonzero"/><path fill="#cfe2f3" d="m323.8273 255.89206l0 0c2.2555847 -5.8679657 8.841003 -8.796387 14.708954 -6.5408173l42.49829 16.3358l0 0c2.817871 1.0831604 5.090088 3.2413635 6.3167114 5.999817c1.226654 2.758484 1.307251 5.8912354 0.22409058 8.709137l-16.335785 42.49826c-2.2555847 5.8679504 -8.841003 8.796387 -14.708954 6.540802l-42.49829 -16.335785c-5.8679504 -2.2555542 -8.796356 -8.841003 -6.540802 -14.708954z" fill-rule="evenodd"/><path stroke="#000000" stroke-width="1.0" stroke-linejoin="round" stroke-linecap="butt" d="m323.8273 255.89206l0 0c2.2555847 -5.8679657 8.841003 -8.796387 14.708954 -6.5408173l42.49829 16.3358l0 0c2.817871 1.0831604 5.090088 3.2413635 6.3167114 5.999817c1.226654 2.758484 1.307251 5.8912354 0.22409058 8.709137l-16.335785 42.49826c-2.2555847 5.8679504 -8.841003 8.796387 -14.708954 6.540802l-42.49829 -16.335785c-5.8679504 -2.2555542 -8.796356 -8.841003 -6.540802 -14.708954z" fill-rule="evenodd"/><path fill="#000000" d="m336.31885 292.49603l4.7932434 -12.469879l8.415344 3.2347717l-0.56622314 1.473053l-6.767273 -2.6012573l-1.4856262 3.8649292l5.8484497 2.2480469l-0.56622314 1.473053l-5.8484497 -2.2480469l-2.175171 5.6588135l-1.6480713 -0.6334839zm11.204132 0.5235901l1.6098633 0.38446045q-0.24203491 1.4135132 0.16647339 2.2233887q0.4230652 0.8154602 1.3273315 1.1630554q1.0792542 0.41485596 2.1089783 -0.043060303q1.0297546 -0.45788574 1.4558105 -1.5663147q0.403656 -1.0501099 -0.018341064 -1.9990845q-0.42199707 -0.9489441 -1.4866638 -1.3582153q-0.43756104 -0.16818237 -1.1409302 -0.25442505l0.6907654 -1.2745056q0.14025879 0.07064819 0.24234009 0.1098938q0.97717285 0.37561035 1.9463806 0.16226196q0.98376465 -0.20773315 1.3874207 -1.2578125q0.3251648 -0.84591675 -0.03060913 -1.6187744q-0.35577393 -0.77285767 -1.2600098 -1.1204224q-0.88967896 -0.34197998 -1.7062683 -0.0030212402q-0.81100464 0.32434082 -1.4031372 1.3857117l-1.4248657 -0.8657532q0.8657532 -1.4248657 2.1826782 -1.8895569q1.316925 -0.46469116 2.804535 0.1071167q1.020935 0.39242554 1.6986694 1.1551208q0.69229126 0.76831055 0.8529053 1.7005005q0.1751709 0.9378052 -0.14996338 1.7837219q-0.3083496 0.80215454 -1.0037537 1.3048401q-0.68981934 0.48812866 -1.6871033 0.5567627q1.0075073 0.68859863 1.3117371 1.7261963q0.30422974 1.0376282 -0.1611023 2.2481384q-0.62228394 1.6188965 -2.2554932 2.296814q-1.6186523 0.6835022 -3.4417114 -0.01727295q-1.6480713 -0.6334839 -2.351715 -2.0255127q-0.7036438 -1.3920288 -0.2642212 -3.0142517z" fill-rule="nonzero"/><path fill="#cfe2f3" d="m450.5316 147.19685l0 0c2.2555847 -5.8679657 8.841003 -8.796387 14.708954 -6.5408173l42.49829 16.3358l0 0c2.817871 1.0831604 5.090088 3.2413635 6.3167114 5.999832c1.2266235 2.7584534 1.307251 5.89122 0.22406006 8.709122l-16.335754 42.49826c-2.2555847 5.8679657 -8.841003 8.796387 -14.708954 6.5408173l-42.49829 -16.3358c-5.8679504 -2.2555695 -8.796356 -8.840988 -6.540802 -14.708954z" fill-rule="evenodd"/><path stroke="#000000" stroke-width="1.0" stroke-linejoin="round" stroke-linecap="butt" d="m450.5316 147.19685l0 0c2.2555847 -5.8679657 8.841003 -8.796387 14.708954 -6.5408173l42.49829 16.3358l0 0c2.817871 1.0831604 5.090088 3.2413635 6.3167114 5.999832c1.2266235 2.7584534 1.307251 5.89122 0.22406006 8.709122l-16.335754 42.49826c-2.2555847 5.8679657 -8.841003 8.796387 -14.708954 6.5408173l-42.49829 -16.3358c-5.8679504 -2.2555695 -8.796356 -8.840988 -6.540802 -14.708954z" fill-rule="evenodd"/><path fill="#cfe2f3" d="m422.49216 220.16837l0 0c2.2555542 -5.8679504 8.840973 -8.796387 14.708954 -6.540802l42.49826 16.335785l0 0c2.817871 1.0831604 5.090088 3.2413635 6.3167114 5.999832c1.226654 2.7584686 1.307251 5.8912354 0.22409058 8.709122l-16.335785 42.49826c-2.2555847 5.867981 -8.841003 8.796387 -14.708954 6.5408325l-42.49826 -16.335815c-5.867981 -2.2555542 -8.796387 -8.840973 -6.5408325 -14.708954z" fill-rule="evenodd"/><path stroke="#000000" stroke-width="1.0" stroke-linejoin="round" stroke-linecap="butt" d="m422.49216 220.16837l0 0c2.2555542 -5.8679504 8.840973 -8.796387 14.708954 -6.540802l42.49826 16.335785l0 0c2.817871 1.0831604 5.090088 3.2413635 6.3167114 5.999832c1.226654 2.7584686 1.307251 5.8912354 0.22409058 8.709122l-16.335785 42.49826c-2.2555847 5.867981 -8.841003 8.796387 -14.708954 6.5408325l-42.49826 -16.335815c-5.867981 -2.2555542 -8.796387 -8.840973 -6.5408325 -14.708954z" fill-rule="evenodd"/><path fill="#cfe2f3" d="m394.4527 293.1399l0 0c2.2555542 -5.867981 8.840973 -8.796387 14.708954 -6.5408325l42.49826 16.335815l0 0c2.8179016 1.0831604 5.090088 3.2413635 6.3167114 5.999817c1.226654 2.758484 1.307251 5.8912354 0.22409058 8.709137l-16.335785 42.49826c-2.2555847 5.8679504 -8.841003 8.796387 -14.708954 6.540802l-42.49826 -16.335785c-5.867981 -2.2555847 -8.796387 -8.841003 -6.5408325 -14.708954z" fill-rule="evenodd"/><path stroke="#000000" stroke-width="1.0" stroke-linejoin="round" stroke-linecap="butt" d="m394.4527 293.1399l0 0c2.2555542 -5.867981 8.840973 -8.796387 14.708954 -6.5408325l42.49826 16.335815l0 0c2.8179016 1.0831604 5.090088 3.2413635 6.3167114 5.999817c1.226654 2.758484 1.307251 5.8912354 0.22409058 8.709137l-16.335785 42.49826c-2.2555847 5.8679504 -8.841003 8.796387 -14.708954 6.540802l-42.49826 -16.335785c-5.867981 -2.2555847 -8.796387 -8.841003 -6.5408325 -14.708954z" fill-rule="evenodd"/><path fill="#cfe2f3" d="m230.29265 57.21729l0 0c2.2555695 -5.867962 8.840988 -8.796383 14.708954 -6.5408134l42.498276 16.335793l0 0c2.817871 1.083168 5.090088 3.2413712 6.3167114 5.999832c1.226654 2.7584686 1.307251 5.8912354 0.22409058 8.709129l-16.335785 42.49826c-2.2555847 5.867958 -8.841003 8.796379 -14.708954 6.5408096l-42.498276 -16.335793c-5.8679657 -2.2555695 -8.796387 -8.840996 -6.5408173 -14.708954z" fill-rule="evenodd"/><path stroke="#000000" stroke-width="1.0" stroke-linejoin="round" stroke-linecap="butt" d="m230.29265 57.21729l0 0c2.2555695 -5.867962 8.840988 -8.796383 14.708954 -6.5408134l42.498276 16.335793l0 0c2.817871 1.083168 5.090088 3.2413712 6.3167114 5.999832c1.226654 2.7584686 1.307251 5.8912354 0.22409058 8.709129l-16.335785 42.49826c-2.2555847 5.867958 -8.841003 8.796379 -14.708954 6.5408096l-42.498276 -16.335793c-5.8679657 -2.2555695 -8.796387 -8.840996 -6.5408173 -14.708954z" fill-rule="evenodd"/><path fill="#000000" d="m242.78418 93.821266l4.7932587 -12.4698715l8.415329 3.2347488l-0.56622314 1.473053l-6.767273 -2.6012573l-1.4856262 3.8649292l5.8484344 2.2480698l-0.5662079 1.4730453l-5.8484497 -2.2480621l-2.1751862 5.6588364l-1.648056 -0.6334915zm14.20459 -6.97744l0.56622314 -1.4730453l8.065308 3.1002045l-0.4597168 1.1959381q-1.6836548 0.8091583 -3.6577148 2.4608536q-1.97406 1.6516953 -3.467926 3.6218948q-1.0519714 1.3867645 -1.9008179 3.2031403l-1.5751495 -0.6054611q0.59539795 -1.4618378 1.9512787 -3.3344116q1.355896 -1.8725662 3.1168518 -3.4053116q1.7811279 -1.5417175 3.4580383 -2.4204254l-6.0963745 -2.3433762z" fill-rule="nonzero"/><path fill="#cfe2f3" d="m202.25319 130.18881l0 0c2.2555695 -5.8679657 8.841003 -8.796387 14.708954 -6.5408173l42.498276 16.3358l0 0c2.817871 1.0831604 5.090088 3.2413635 6.3167114 5.999832c1.226654 2.7584534 1.307251 5.89122 0.22409058 8.709122l-16.335785 42.49826c-2.2555847 5.8679657 -8.841003 8.796387 -14.708969 6.5408173l-42.49826 -16.3358c-5.8679504 -2.2555695 -8.796387 -8.840988 -6.540802 -14.708954z" fill-rule="evenodd"/><path stroke="#000000" stroke-width="1.0" stroke-linejoin="round" stroke-linecap="butt" d="m202.25319 130.18881l0 0c2.2555695 -5.8679657 8.841003 -8.796387 14.708954 -6.5408173l42.498276 16.3358l0 0c2.817871 1.0831604 5.090088 3.2413635 6.3167114 5.999832c1.226654 2.7584534 1.307251 5.89122 0.22409058 8.709122l-16.335785 42.49826c-2.2555847 5.8679657 -8.841003 8.796387 -14.708969 6.5408173l-42.49826 -16.3358c-5.8679504 -2.2555695 -8.796387 -8.840988 -6.540802 -14.708954z" fill-rule="evenodd"/><path fill="#000000" d="m214.74472 166.79279l4.7932587 -12.469864l8.415329 3.2347412l-0.5662079 1.473053l-6.767273 -2.6012573l-1.4856415 3.8649292l5.8484497 2.2480621l-0.56622314 1.473053l-5.8484497 -2.2480621l-2.1751862 5.6588287l-1.648056 -0.6334839zm14.83757 5.703369l1.1492615 -2.989853l-5.410904 -2.0798798l0.53819275 -1.400116l8.793823 -5.8934937l1.2542725 0.48213196l-3.1058044 8.07988l1.6772308 0.64471436l-0.53819275 1.400116l-1.6772308 -0.6446991l-1.1492615 2.989853l-1.5313873 -0.58865356zm1.6874542 -4.389969l2.158371 -5.615097l-6.067047 4.1126404l3.9086761 1.5024567z" fill-rule="nonzero"/><path fill="#cfe2f3" d="m174.21373 203.16032l0 0c2.2555695 -5.8679657 8.841003 -8.796387 14.708969 -6.5408173l42.49826 16.3358l0 0c2.8178864 1.0831604 5.090088 3.2413635 6.3167267 5.999832c1.2266388 2.7584686 1.307251 5.8912354 0.22407532 8.709122l-16.335785 42.498276c-2.2555695 5.8679504 -8.841003 8.796387 -14.708954 6.540802l-42.498276 -16.335785c-5.8679504 -2.2555847 -8.796371 -8.841003 -6.540802 -14.708969z" fill-rule="evenodd"/><path stroke="#000000" stroke-width="1.0" stroke-linejoin="round" stroke-linecap="butt" d="m174.21373 203.16032l0 0c2.2555695 -5.8679657 8.841003 -8.796387 14.708969 -6.5408173l42.49826 16.3358l0 0c2.8178864 1.0831604 5.090088 3.2413635 6.3167267 5.999832c1.2266388 2.7584686 1.307251 5.8912354 0.22407532 8.709122l-16.335785 42.498276c-2.2555695 5.8679504 -8.841003 8.796387 -14.708954 6.540802l-42.498276 -16.335785c-5.8679504 -2.2555847 -8.796371 -8.841003 -6.540802 -14.708969z" fill-rule="evenodd"/><path fill="#000000" d="m186.70526 239.7643l4.7932587 -12.469864l8.415344 3.2347565l-0.56622314 1.4730377l-6.767273 -2.6012573l-1.4856262 3.8649292l5.8484344 2.2480774l-0.56622314 1.4730377l-5.8484344 -2.2480621l-2.1751862 5.658844l-1.6480713 -0.63349915zm15.698074 6.034149l-1.5313873 -0.58865356l3.7505188 -9.757126q-0.7560425 0.31201172 -1.8677216 0.5040741q-1.0914764 0.18305969 -1.9070435 0.17088318l0.5718384 -1.4876251q1.5132904 -0.10462952 2.8066406 -0.5951233q1.2933502 -0.49047852 1.9954681 -1.1412811l0.99176025 0.3812256l-4.810074 12.513626z" fill-rule="nonzero"/><path fill="#cfe2f3" d="m309.67908 71.66482l0 0c2.2555847 -5.8679657 8.841003 -8.796387 14.708954 -6.5408173l42.49826 16.3358l0 0c2.8179016 1.0831604 5.090088 3.2413635 6.316742 5.9998245c1.226654 2.7584686 1.307251 5.8912354 0.22409058 8.709129l-16.335815 42.49827c-2.2555542 5.8679504 -8.840973 8.796371 -14.708954 6.540802l-42.49826 -16.335785c-5.8679504 -2.255577 -8.796387 -8.840996 -6.540802 -14.7089615z" fill-rule="evenodd"/><path stroke="#000000" stroke-width="1.0" stroke-linejoin="round" stroke-linecap="butt" d="m309.67908 71.66482l0 0c2.2555847 -5.8679657 8.841003 -8.796387 14.708954 -6.5408173l42.49826 16.3358l0 0c2.8179016 1.0831604 5.090088 3.2413635 6.316742 5.9998245c1.226654 2.7584686 1.307251 5.8912354 0.22409058 8.709129l-16.335815 42.49827c-2.2555542 5.8679504 -8.840973 8.796371 -14.708954 6.540802l-42.49826 -16.335785c-5.8679504 -2.255577 -8.796387 -8.840996 -6.540802 -14.7089615z" fill-rule="evenodd"/><path fill="#000000" d="m322.17062 108.26879l4.7932434 -12.4698715l8.415344 3.2347488l-0.56622314 1.473053l-6.767273 -2.6012573l-1.4856262 3.8649292l5.848419 2.2480698l-0.5661926 1.4730453l-5.8484497 -2.2480621l-2.1752014 5.6588364l-1.6480408 -0.6334915zm14.88089 -2.0303879q-0.81344604 -0.71443176 -1.0334778 -1.535553q-0.19985962 -0.830101 0.1477356 -1.7343445q0.5213623 -1.3563766 1.8517151 -1.8995972q1.335968 -0.5578003 2.9548645 0.06448364q1.6334839 0.6278839 2.2608337 1.9571075q0.64193726 1.3348236 0.12057495 2.6911926q-0.33636475 0.8750839 -1.0497437 1.33741q-0.6987915 0.46793365 -1.7521667 0.4647751q0.9974365 0.80189514 1.2758484 1.8630753q0.29299927 1.0667801 -0.15548706 2.233551q-0.61105347 1.5897293 -2.1691284 2.246292q-1.558075 0.65657043 -3.3957214 -0.049804688q-1.8522644 -0.7119827 -2.569397 -2.2431107q-0.70254517 -1.5255203 -0.07467651 -3.1589966q0.47091675 -1.2251129 1.3974304 -1.8063965q0.94107056 -0.57567596 2.190796 -0.43008423zm0.6916199 -2.7137985q-0.33636475 0.8750839 0.013793945 1.6625214q0.35577393 0.77285767 1.2745972 1.1260452q0.87509155 0.33636475 1.6569214 7.9345703E-4q0.78182983 -0.33557892 1.0901794 -1.1377335q0.32513428 -0.8459091 -0.0395813 -1.6389542q-0.35916138 -0.80763245 -1.2342224 -1.1440048q-0.87509155 -0.33636475 -1.677124 0.00818634q-0.78182983 0.33557892 -1.0845642 1.123146zm-2.7046814 5.5557404q-0.25228882 0.65631104 -0.18145752 1.3865967q0.08538818 0.7358856 0.56900024 1.3067932q0.48361206 0.5709076 1.1836853 0.83999634q1.0938416 0.42046356 2.0775757 -0.0048980713q0.98376465 -0.42536163 1.4042053 -1.5192108q0.42608643 -1.108429 -0.043029785 -2.1089935q-0.4489441 -1.0095367 -1.5427856 -1.4300003q-1.0792542 -0.41485596 -2.0686035 0.025093079q-0.98934937 0.43994904 -1.3985901 1.5046234z" fill-rule="nonzero"/><path fill="#cfe2f3" d="m281.63962 144.63634l0 0c2.2555847 -5.8679657 8.841003 -8.796387 14.708954 -6.5408173l42.49826 16.3358l0 0c2.8179016 1.0831604 5.0901184 3.2413635 6.316742 5.999832c1.226654 2.7584534 1.307251 5.89122 0.22409058 8.709122l-16.335815 42.49826c-2.2555542 5.8679657 -8.840973 8.796387 -14.708954 6.5408173l-42.49826 -16.3358c-5.8679504 -2.2555695 -8.796387 -8.840988 -6.540802 -14.708954z" fill-rule="evenodd"/><path stroke="#000000" stroke-width="1.0" stroke-linejoin="round" stroke-linecap="butt" d="m281.63962 144.63634l0 0c2.2555847 -5.8679657 8.841003 -8.796387 14.708954 -6.5408173l42.49826 16.3358l0 0c2.8179016 1.0831604 5.0901184 3.2413635 6.316742 5.999832c1.226654 2.7584534 1.307251 5.89122 0.22409058 8.709122l-16.335815 42.49826c-2.2555542 5.8679657 -8.840973 8.796387 -14.708954 6.5408173l-42.49826 -16.3358c-5.8679504 -2.2555695 -8.796387 -8.840988 -6.540802 -14.708954z" fill-rule="evenodd"/><path fill="#000000" d="m294.13116 181.24031l4.7932434 -12.469864l8.415344 3.2347412l-0.56622314 1.473053l-6.767273 -2.6012573l-1.4856262 3.8649292l5.8484497 2.2480621l-0.56622314 1.473053l-5.8484497 -2.2480621l-2.1752014 5.658844l-1.6480408 -0.63349915zm11.192902 0.55274963l1.6547546 0.4854126q-0.27346802 1.2340393 0.13839722 2.0786896q0.43206787 0.83566284 1.3509216 1.1888428q1.108429 0.42607117 2.1863708 -0.11373901q1.0925293 -0.53419495 1.6195068 -1.9051514q0.5045471 -1.3126068 0.05227661 -2.3569336q-0.43771362 -1.0387115 -1.633667 -1.4984131q-0.7292175 -0.28030396 -1.4561462 -0.17471313q-0.7268982 0.10560608 -1.2697754 0.5162964l-1.3710022 -0.74461365l3.6716309 -5.9373474l6.198456 2.3826141l-0.5606079 1.4584656l-4.973358 -1.9116974l-1.9602966 3.0965881q1.4257202 -0.35591125 2.6508484 0.11500549q1.6334839 0.62789917 2.3192139 2.197174q0.6913452 1.5546875 0.007385254 3.334015q-0.6502991 1.6918182 -2.104004 2.555893q-1.7935486 1.0514984 -3.8645935 0.25543213q-1.691803 -0.65031433 -2.4066772 -2.0131836q-0.70925903 -1.3774414 -0.24963379 -3.0086365z" fill-rule="nonzero"/><path fill="#cfe2f3" d="m253.60017 217.60785l0 0c2.2555695 -5.8679504 8.840988 -8.796371 14.708939 -6.540802l42.49829 16.335785l0 0c2.817871 1.0831604 5.090088 3.2413635 6.3167114 5.999832c1.226654 2.7584686 1.307251 5.8912354 0.22409058 8.709122l-16.335785 42.49826c-2.2555847 5.867981 -8.841003 8.796387 -14.708954 6.5408325l-42.498276 -16.335815c-5.8679657 -2.2555542 -8.796387 -8.840973 -6.5408173 -14.708954z" fill-rule="evenodd"/><path stroke="#000000" stroke-width="1.0" stroke-linejoin="round" stroke-linecap="butt" d="m253.60017 217.60785l0 0c2.2555695 -5.8679504 8.840988 -8.796371 14.708939 -6.540802l42.49829 16.335785l0 0c2.817871 1.0831604 5.090088 3.2413635 6.3167114 5.999832c1.226654 2.7584686 1.307251 5.8912354 0.22409058 8.709122l-16.335785 42.49826c-2.2555847 5.867981 -8.841003 8.796387 -14.708954 6.5408325l-42.498276 -16.335815c-5.8679657 -2.2555542 -8.796387 -8.840973 -6.5408173 -14.708954z" fill-rule="evenodd"/><path fill="#000000" d="m266.0917 254.21182l4.7932434 -12.469864l8.415344 3.2347565l-0.56622314 1.4730377l-6.767273 -2.601242l-1.4856262 3.8649292l5.8484497 2.2480621l-0.56622314 1.473053l-5.8484497 -2.2480774l-2.175171 5.658844l-1.6480713 -0.63349915zm18.53949 5.435669l-0.56622314 1.4730225l-8.240326 -3.16745q0.19845581 -0.559845 0.58425903 -0.997406q0.6460266 -0.7225952 1.6454468 -1.2758331q1.0140076 -0.5476532 2.7358704 -1.1077728q2.6663818 -0.88339233 3.7566223 -1.5858612q1.090271 -0.7024689 1.4210205 -1.5629578q0.35321045 -0.9188385 -0.06765747 -1.7836761q-0.40066528 -0.8738098 -1.4507446 -1.2774506q-1.108429 -0.42607117 -2.037201 -0.013061523q-0.90859985 0.40403748 -1.3570862 1.570816l-1.5134583 -0.76589966q0.83877563 -1.7030792 2.242035 -2.2182617q1.4178772 -0.5095825 3.1826172 0.1687622q1.7939148 0.68955994 2.4627686 2.0849457q0.6688843 1.395401 0.10266113 2.868454q-0.2859192 0.7438202 -0.87249756 1.3553162q-0.58657837 0.61151123 -1.6095581 1.1389618q-1.0028076 0.5184784 -3.2036438 1.2794952q-1.8138428 0.6252136 -2.3702087 0.89678955q-0.55075073 0.25701904 -0.95565796 0.57006836l6.110962 2.348999z" fill-rule="nonzero"/><path fill="#cfe2f3" d="m76.49765 15.367519l0 0c2.2555695 -5.867961 8.840996 -8.796383 14.7089615 -6.5408125l42.498253 16.335793l0 0c2.8179016 1.0831642 5.090103 3.2413673 6.316742 5.999832c1.2266388 2.758463 1.3072357 5.8912296 0.22407532 8.709124l-16.335793 42.498264c-2.2555695 5.867958 -8.840996 8.796379 -14.708954 6.5408096l-42.49826 -16.335793c-5.8679657 -2.2555695 -8.796387 -8.840992 -6.5408173 -14.708954z" fill-rule="evenodd"/><path stroke="#000000" stroke-width="1.0" stroke-linejoin="round" stroke-linecap="butt" d="m76.49765 15.367519l0 0c2.2555695 -5.867961 8.840996 -8.796383 14.7089615 -6.5408125l42.498253 16.335793l0 0c2.8179016 1.0831642 5.090103 3.2413673 6.316742 5.999832c1.2266388 2.758463 1.3072357 5.8912296 0.22407532 8.709124l-16.335793 42.498264c-2.2555695 5.867958 -8.840996 8.796379 -14.708954 6.5408096l-42.49826 -16.335793c-5.8679657 -2.2555695 -8.796387 -8.840992 -6.5408173 -14.708954z" fill-rule="evenodd"/><path fill="#cfe2f3" d="m48.4582 88.339035l0 0c2.2555695 -5.867958 8.840992 -8.796379 14.708954 -6.5408096l42.49826 16.335793l0 0c2.817894 1.083168 5.0900955 3.2413712 6.3167343 5.999832c1.2266388 2.7584686 1.3072433 5.8912277 0.22408295 8.709122l-16.335793 42.49826c-2.255577 5.8679657 -8.840996 8.796387 -14.7089615 6.5408173l-42.49826 -16.3358c-5.867962 -2.2555695 -8.796383 -8.840988 -6.5408134 -14.708954z" fill-rule="evenodd"/><path stroke="#000000" stroke-width="1.0" stroke-linejoin="round" stroke-linecap="butt" d="m48.4582 88.339035l0 0c2.2555695 -5.867958 8.840992 -8.796379 14.708954 -6.5408096l42.49826 16.335793l0 0c2.817894 1.083168 5.0900955 3.2413712 6.3167343 5.999832c1.2266388 2.7584686 1.3072433 5.8912277 0.22408295 8.709122l-16.335793 42.49826c-2.255577 5.8679657 -8.840996 8.796387 -14.7089615 6.5408173l-42.49826 -16.3358c-5.867962 -2.2555695 -8.796383 -8.840988 -6.5408134 -14.708954z" fill-rule="evenodd"/><path fill="#cfe2f3" d="m20.418741 161.31056l0 0c2.2555695 -5.8679657 8.840994 -8.796387 14.708956 -6.5408173l42.498264 16.3358l0 0c2.817894 1.0831604 5.090088 3.2413635 6.3167267 5.999817c1.2266464 2.7584686 1.307251 5.8912354 0.22408295 8.709137l-16.335793 42.49826c-2.2555695 5.8679657 -8.840996 8.796387 -14.708958 6.5408173l-42.49826 -16.3358c-5.867961 -2.2555695 -8.796383 -8.840988 -6.540813 -14.708954z" fill-rule="evenodd"/><path stroke="#000000" stroke-width="1.0" stroke-linejoin="round" stroke-linecap="butt" d="m20.418741 161.31056l0 0c2.2555695 -5.8679657 8.840994 -8.796387 14.708956 -6.5408173l42.498264 16.3358l0 0c2.817894 1.0831604 5.090088 3.2413635 6.3167267 5.999817c1.2266464 2.7584686 1.307251 5.8912354 0.22408295 8.709137l-16.335793 42.49826c-2.2555695 5.8679657 -8.840996 8.796387 -14.708958 6.5408173l-42.49826 -16.3358c-5.867961 -2.2555695 -8.796383 -8.840988 -6.540813 -14.708954z" fill-rule="evenodd"/><path fill="#cfe2f3" d="m150.50798 43.80614l0 0c2.2555695 -5.867962 8.840988 -8.796383 14.708954 -6.5408134l42.49826 16.335796l0 0c2.8179016 1.0831604 5.090103 3.2413635 6.316742 5.9998283c1.2266388 2.7584648 1.3072357 5.8912277 0.22407532 8.709122l-16.3358 42.49827c-2.2555695 5.867958 -8.840988 8.796379 -14.708954 6.5408096l-42.49826 -16.335793c-5.8679657 -2.2555695 -8.796387 -8.840996 -6.5408173 -14.708954z" fill-rule="evenodd"/><path stroke="#000000" stroke-width="1.0" stroke-linejoin="round" stroke-linecap="butt" d="m150.50798 43.80614l0 0c2.2555695 -5.867962 8.840988 -8.796383 14.708954 -6.5408134l42.49826 16.335796l0 0c2.8179016 1.0831604 5.090103 3.2413635 6.316742 5.9998283c1.2266388 2.7584648 1.3072357 5.8912277 0.22407532 8.709122l-16.3358 42.49827c-2.2555695 5.867958 -8.840988 8.796379 -14.708954 6.5408096l-42.49826 -16.335793c-5.8679657 -2.2555695 -8.796387 -8.840996 -6.5408173 -14.708954z" fill-rule="evenodd"/><path fill="#000000" d="m158.15707 78.548744l4.7932587 -12.469864l8.415344 3.2347488l-0.56622314 1.4730453l-6.767273 -2.6012573l-1.4856415 3.8649292l5.8484497 2.2480698l-0.56622314 1.4730453l-5.8484344 -2.2480621l-2.1751862 5.6588364l-1.6480713 -0.6334915zm15.698074 6.0341415l-1.5313873 -0.58864594l3.7505188 -9.757126q-0.7560425 0.31201172 -1.8677216 0.50406647q-1.0914764 0.18306732 -1.9070435 0.17089081l0.5718231 -1.4876328q1.5133057 -0.10462952 2.806656 -0.59511566q1.2933502 -0.49048615 1.9954681 -1.1412811l0.99176025 0.38121796l-4.810074 12.513626zm12.526291 3.1242523l-0.56622314 1.4730453l-8.240326 -3.1674728q0.19845581 -0.5598221 0.5842743 -0.997406q0.64601135 -0.7225723 1.6454315 -1.2758255q1.0140076 -0.54764557 2.7358856 -1.1077728q2.6663666 -0.88339233 3.7566223 -1.5858612q1.0902557 -0.7024689 1.4210205 -1.5629578q0.35317993 -0.9188385 -0.06765747 -1.7836685q-0.40066528 -0.8738098 -1.4507599 -1.2774506q-1.108429 -0.42607117 -2.037201 -0.013061523q-0.90859985 0.40403748 -1.3570862 1.5708084l-1.5134735 -0.76589966q0.83877563 -1.7030716 2.2420654 -2.2182617q1.4178619 -0.5095825 3.182602 0.1687622q1.7939148 0.6895523 2.4627838 2.0849533q0.668869 1.395401 0.10266113 2.8684464q-0.2859192 0.7438202 -0.87249756 1.3553238q-0.5865936 0.6115036 -1.6095734 1.1389542q-1.0027924 0.5184784 -3.2036438 1.2794952q-1.8138428 0.6252136 -2.3701935 0.8967972q-0.550766 0.25700378 -0.9556732 0.570076l6.110962 2.3489761z" fill-rule="nonzero"/><path fill="#cfe2f3" d="m122.46853 116.77766l0 0c2.2555695 -5.867958 8.840996 -8.796379 14.708946 -6.5408096l42.498276 16.335793l0 0c2.8178864 1.0831604 5.090088 3.2413712 6.3167267 5.99984c1.2266388 2.7584534 1.3072357 5.89122 0.22407532 8.709122l-16.335785 42.49826c-2.2555695 5.8679657 -8.841003 8.796387 -14.708954 6.5408173l-42.49827 -16.3358c-5.8679657 -2.2555695 -8.796387 -8.840988 -6.5408173 -14.708954z" fill-rule="evenodd"/><path stroke="#000000" stroke-width="1.0" stroke-linejoin="round" stroke-linecap="butt" d="m122.46853 116.77766l0 0c2.2555695 -5.867958 8.840996 -8.796379 14.708946 -6.5408096l42.498276 16.335793l0 0c2.8178864 1.0831604 5.090088 3.2413712 6.3167267 5.99984c1.2266388 2.7584534 1.3072357 5.89122 0.22407532 8.709122l-16.335785 42.49826c-2.2555695 5.8679657 -8.841003 8.796387 -14.708954 6.5408173l-42.49827 -16.3358c-5.8679657 -2.2555695 -8.796387 -8.840988 -6.5408173 -14.708954z" fill-rule="evenodd"/><path fill="#000000" d="m130.7642 151.7688l4.7932587 -12.469864l8.415344 3.2347565l-0.56622314 1.4730377l-6.767273 -2.6012573l-1.4856415 3.8649292l5.8484497 2.2480774l-0.56622314 1.4730377l-5.8484344 -2.2480621l-2.1751862 5.658844l-1.6480713 -0.63349915zm15.698074 6.034149l-1.5313873 -0.58865356l3.7505188 -9.757126q-0.7560425 0.31201172 -1.8677216 0.5040741q-1.0914764 0.18305969 -1.9070435 0.17088318l0.5718231 -1.4876251q1.5133057 -0.10462952 2.806656 -0.5951233q1.2933502 -0.49047852 1.9954681 -1.1412811l0.99176025 0.3812256l-4.810074 12.513626zm8.391693 3.2256622l-1.5313873 -0.58865356l3.7505188 -9.757126q-0.7560425 0.31201172 -1.8677216 0.50405884q-1.0914764 0.18307495 -1.9070435 0.17089844l0.5718231 -1.4876251q1.5133057 -0.10462952 2.806656 -0.5951233q1.2933502 -0.49049377 1.9954681 -1.1412811l0.99176025 0.3812256l-4.810074 12.513626z" fill-rule="nonzero"/><path fill="#cfe2f3" d="m94.42907 189.74918l0 0c2.2555695 -5.8679657 8.840996 -8.796387 14.708954 -6.5408173l42.49827 16.3358l0 0c2.8178864 1.0831604 5.090088 3.2413635 6.3167267 5.999832c1.2266388 2.7584686 1.307251 5.8912354 0.22409058 8.709122l-16.3358 42.49826c-2.2555695 5.867981 -8.840988 8.796387 -14.708954 6.5408325l-42.49827 -16.335815c-5.867958 -2.2555695 -8.796379 -8.840988 -6.5408096 -14.708954z" fill-rule="evenodd"/><path stroke="#000000" stroke-width="1.0" stroke-linejoin="round" stroke-linecap="butt" d="m94.42907 189.74918l0 0c2.2555695 -5.8679657 8.840996 -8.796387 14.708954 -6.5408173l42.49827 16.3358l0 0c2.8178864 1.0831604 5.090088 3.2413635 6.3167267 5.999832c1.2266388 2.7584686 1.307251 5.8912354 0.22409058 8.709122l-16.3358 42.49826c-2.2555695 5.867981 -8.840988 8.796387 -14.708954 6.5408325l-42.49827 -16.335815c-5.867958 -2.2555695 -8.796379 -8.840988 -6.5408096 -14.708954z" fill-rule="evenodd"/><path fill="#000000" d="m102.07816 224.49178l4.7932587 -12.469864l8.415337 3.2347565l-0.56622314 1.4730377l-6.767273 -2.601242l-1.4856262 3.8649292l5.8484344 2.2480621l-0.5662155 1.473053l-5.848442 -2.2480774l-2.1751862 5.658844l-1.6480637 -0.63349915zm15.698067 6.034149l-1.5313873 -0.58865356l3.7505188 -9.757126q-0.75603485 0.31201172 -1.8677139 0.5040741q-1.0914841 0.18305969 -1.9070435 0.17088318l0.57183075 -1.4876251q1.513298 -0.10462952 2.8066483 -0.5951233q1.2933502 -0.49047852 1.9954681 -1.1412659l0.99176025 0.38121033l-4.8100815 12.513626zm6.289734 -4.646408q0.8465271 -2.2022858 1.8144226 -3.370285q0.9734955 -1.1825714 2.1434631 -1.5698242q1.184555 -0.38165283 2.540924 0.13970947q1.0063477 0.38682556 1.6077728 1.0867157q0.6070404 0.68530273 0.79119873 1.6432953q0.20436096 0.9490051 0.06100464 2.1493835q-0.12315369 1.1913757 -0.83514404 3.0436249q-0.8465271 2.2022858 -1.8200226 3.3848724q-0.96788025 1.167984 -2.1580505 1.5642242q-1.1699677 0.3872528 -2.540924 -0.13972473q-1.7939148 -0.68955994 -2.3304749 -2.38562q-0.62525177 -2.031479 0.7258301 -5.5463715zm1.5605545 0.5998535q-1.1828918 3.077362 -0.8606796 4.372986q0.34240723 1.2866516 1.3925018 1.6902924q1.064682 0.40925598 2.171753 -0.3369751q1.1070862 -0.7462158 2.284378 -3.8089905q1.1828918 -3.077362 0.855072 -4.3584137q-0.32781982 -1.2810364 -1.4070892 -1.6958923q-1.0500946 -0.40364075 -2.0192108 0.2449646q-1.2394333 0.82925415 -2.4167252 3.8920288z" fill-rule="nonzero"/><path fill="#cfe2f3" d="m255.18892 313.26212l0 0c2.2555695 -5.8679504 8.840988 -8.796387 14.708969 -6.540802l42.49826 16.335785l0 0c2.8179016 1.0831604 5.090088 3.2413635 6.3167114 5.999817c1.226654 2.758484 1.307251 5.8912354 0.22409058 8.709137l-16.335785 42.49826c-2.2555847 5.8679504 -8.841003 8.796387 -14.708954 6.540802l-42.498276 -16.335785c-5.8679504 -2.2555542 -8.796371 -8.841003 -6.540802 -14.708954z" fill-rule="evenodd"/><path stroke="#000000" stroke-width="1.0" stroke-linejoin="round" stroke-linecap="butt" d="m255.18892 313.26212l0 0c2.2555695 -5.8679504 8.840988 -8.796387 14.708969 -6.540802l42.49826 16.335785l0 0c2.8179016 1.0831604 5.090088 3.2413635 6.3167114 5.999817c1.226654 2.758484 1.307251 5.8912354 0.22409058 8.709137l-16.335785 42.49826c-2.2555847 5.8679504 -8.841003 8.796387 -14.708954 6.540802l-42.498276 -16.335785c-5.8679504 -2.2555542 -8.796371 -8.841003 -6.540802 -14.708954z" fill-rule="evenodd"/><path fill="#cfe2f3" d="m340.597 355.90213l0 0c3.470337 -5.2417297 10.532867 -6.6777344 15.774597 -3.2073975l37.96289 25.133606l0 0c2.5171509 1.6665039 4.269226 4.2647095 4.8707275 7.2230225c0.60150146 2.958313 0.0032043457 6.0343933 -1.6633301 8.551575l-25.133606 37.96286c-3.470337 5.2417297 -10.532837 6.677765 -15.774597 3.207428l-37.96286 -25.133606c-5.2417297 -3.470337 -6.6777344 -10.532867 -3.207428 -15.774597z" fill-rule="evenodd"/><path stroke="#000000" stroke-width="1.0" stroke-linejoin="round" stroke-linecap="butt" d="m340.597 355.90213l0 0c3.470337 -5.2417297 10.532867 -6.6777344 15.774597 -3.2073975l37.96289 25.133606l0 0c2.5171509 1.6665039 4.269226 4.2647095 4.8707275 7.2230225c0.60150146 2.958313 0.0032043457 6.0343933 -1.6633301 8.551575l-25.133606 37.96286c-3.470337 5.2417297 -10.532837 6.677765 -15.774597 3.207428l-37.96286 -25.133606c-5.2417297 -3.470337 -6.6777344 -10.532867 -3.207428 -15.774597z" fill-rule="evenodd"/><path fill="#cfe2f3" d="m433.90088 408.73074l0 0c5.3084106 -3.3659668 12.340393 -1.7912903 15.706329 3.5171204l24.377716 38.4458l0 0c1.616394 2.5491943 2.1539307 5.6361084 1.4943237 8.581604c-0.6595764 2.9455261 -2.4622498 5.508362 -5.011444 7.124756l-38.4458 24.377716c-5.308441 3.3659668 -12.340393 1.7912903 -15.70636 -3.5171204l-24.377716 -38.44583c-3.3659668 -5.3084106 -1.7912903 -12.340393 3.5171204 -15.706329z" fill-rule="evenodd"/><path stroke="#000000" stroke-width="1.0" stroke-linejoin="round" stroke-linecap="butt" d="m433.90088 408.73074l0 0c5.3084106 -3.3659668 12.340393 -1.7912903 15.706329 3.5171204l24.377716 38.4458l0 0c1.616394 2.5491943 2.1539307 5.6361084 1.4943237 8.581604c-0.6595764 2.9455261 -2.4622498 5.508362 -5.011444 7.124756l-38.4458 24.377716c-5.308441 3.3659668 -12.340393 1.7912903 -15.70636 -3.5171204l-24.377716 -38.44583c-3.3659668 -5.3084106 -1.7912903 -12.340393 3.5171204 -15.706329z" fill-rule="evenodd"/><path fill="#cfe2f3" d="m682.5189 106.4395l0 0c-2.2787476 -5.859268 -8.875977 -8.761833 -14.7352295 -6.4830704l-42.43524 16.503769l0 0c-2.8137207 1.0942993 -5.0775146 3.261528 -6.293335 6.0249176c-1.2157593 2.763382 -1.2840576 5.8965683 -0.1897583 8.710289l16.503784 42.435272c2.2787476 5.859253 8.875916 8.761826 14.735168 6.4830627l42.435303 -16.503769c5.859253 -2.2787628 8.761841 -8.875946 6.4830933 -14.735199z" fill-rule="evenodd"/><path stroke="#000000" stroke-width="1.0" stroke-linejoin="round" stroke-linecap="butt" d="m682.5189 106.4395l0 0c-2.2787476 -5.859268 -8.875977 -8.761833 -14.7352295 -6.4830704l-42.43524 16.503769l0 0c-2.8137207 1.0942993 -5.0775146 3.261528 -6.293335 6.0249176c-1.2157593 2.763382 -1.2840576 5.8965683 -0.1897583 8.710289l16.503784 42.435272c2.2787476 5.859253 8.875916 8.761826 14.735168 6.4830627l42.435303 -16.503769c5.859253 -2.2787628 8.761841 -8.875946 6.4830933 -14.735199z" fill-rule="evenodd"/><path fill="#cfe2f3" d="m710.85876 179.29486l0 0c-2.2787476 -5.859253 -8.875916 -8.761826 -14.735168 -6.4830627l-42.435303 16.503769l0 0c-2.8137207 1.0942993 -5.0774536 3.2615204 -6.293274 6.0249176c-1.2158203 2.763382 -1.2840576 5.8965607 -0.1897583 8.710281l16.503784 42.435272c2.2787476 5.859268 8.875916 8.761841 14.735168 6.483078l42.435303 -16.503784c5.859253 -2.2787628 8.76178 -8.875931 6.483032 -14.735199z" fill-rule="evenodd"/><path stroke="#000000" stroke-width="1.0" stroke-linejoin="round" stroke-linecap="butt" d="m710.85876 179.29486l0 0c-2.2787476 -5.859253 -8.875916 -8.761826 -14.735168 -6.4830627l-42.435303 16.503769l0 0c-2.8137207 1.0942993 -5.0774536 3.2615204 -6.293274 6.0249176c-1.2158203 2.763382 -1.2840576 5.8965607 -0.1897583 8.710281l16.503784 42.435272c2.2787476 5.859268 8.875916 8.761841 14.735168 6.483078l42.435303 -16.503784c5.859253 -2.2787628 8.76178 -8.875931 6.483032 -14.735199z" fill-rule="evenodd"/><path fill="#cfe2f3" d="m739.19867 252.15024l0 0c-2.2787476 -5.859268 -8.875916 -8.761841 -14.7352295 -6.483078l-42.43524 16.503769l0 0c-2.8137207 1.0942993 -5.0775146 3.2615356 -6.293274 6.024933c-1.2158203 2.7633667 -1.2841187 5.8965454 -0.18981934 8.710266l16.503784 42.435272c2.2787476 5.8592834 8.875977 8.761841 14.7352295 6.4830933l42.43524 -16.503784c5.859253 -2.278778 8.761841 -8.875946 6.4830933 -14.735199z" fill-rule="evenodd"/><path stroke="#000000" stroke-width="1.0" stroke-linejoin="round" stroke-linecap="butt" d="m739.19867 252.15024l0 0c-2.2787476 -5.859268 -8.875916 -8.761841 -14.7352295 -6.483078l-42.43524 16.503769l0 0c-2.8137207 1.0942993 -5.0775146 3.2615356 -6.293274 6.024933c-1.2158203 2.7633667 -1.2841187 5.8965454 -0.18981934 8.710266l16.503784 42.435272c2.2787476 5.8592834 8.875977 8.761841 14.7352295 6.4830933l42.43524 -16.503784c5.859253 -2.278778 8.761841 -8.875946 6.4830933 -14.735199z" fill-rule="evenodd"/><path fill="#cfe2f3" d="m612.0476 143.978l0 0c-2.2787476 -5.859253 -8.875916 -8.761826 -14.7352295 -6.4830627l-42.43524 16.503769l0 0c-2.8137207 1.0942993 -5.0775146 3.2615356 -6.293274 6.0249176c-1.2158203 2.763382 -1.2841187 5.896576 -0.18981934 8.710297l16.503784 42.435257c2.2787476 5.859268 8.875916 8.761841 14.7352295 6.483078l42.43524 -16.503769c5.859253 -2.2787628 8.761841 -8.875946 6.4830933 -14.735214z" fill-rule="evenodd"/><path stroke="#000000" stroke-width="1.0" stroke-linejoin="round" stroke-linecap="butt" d="m612.0476 143.978l0 0c-2.2787476 -5.859253 -8.875916 -8.761826 -14.7352295 -6.4830627l-42.43524 16.503769l0 0c-2.8137207 1.0942993 -5.0775146 3.2615356 -6.293274 6.0249176c-1.2158203 2.763382 -1.2841187 5.896576 -0.18981934 8.710297l16.503784 42.435257c2.2787476 5.859268 8.875916 8.761841 14.7352295 6.483078l42.43524 -16.503769c5.859253 -2.2787628 8.761841 -8.875946 6.4830933 -14.735214z" fill-rule="evenodd"/><path fill="#cfe2f3" d="m640.3875 216.83337l0 0c-2.2788086 -5.859268 -8.875977 -8.761841 -14.7352295 -6.4830627l-42.43524 16.503769l0 0c-2.8137207 1.0942993 -5.0775146 3.2615204 -6.293335 6.0249023c-1.2158203 2.7633972 -1.2840576 5.896576 -0.1897583 8.710297l16.503784 42.435257c2.2787476 5.8592834 8.875916 8.761841 14.735168 6.4830933l42.435303 -16.503784c5.859253 -2.2787476 8.761841 -8.875946 6.483032 -14.735199z" fill-rule="evenodd"/><path stroke="#000000" stroke-width="1.0" stroke-linejoin="round" stroke-linecap="butt" d="m640.3875 216.83337l0 0c-2.2788086 -5.859268 -8.875977 -8.761841 -14.7352295 -6.4830627l-42.43524 16.503769l0 0c-2.8137207 1.0942993 -5.0775146 3.2615204 -6.293335 6.0249023c-1.2158203 2.7633972 -1.2840576 5.896576 -0.1897583 8.710297l16.503784 42.435257c2.2787476 5.8592834 8.875916 8.761841 14.735168 6.4830933l42.435303 -16.503784c5.859253 -2.2787476 8.761841 -8.875946 6.483032 -14.735199z" fill-rule="evenodd"/><path fill="#cfe2f3" d="m668.72736 289.68875l0 0c-2.2787476 -5.8592834 -8.875916 -8.761841 -14.735168 -6.4830933l-42.435303 16.503784l0 0c-2.8137207 1.0942993 -5.0774536 3.2615356 -6.293274 6.0249023c-1.2158203 2.7633972 -1.2841187 5.896576 -0.1897583 8.710297l16.503723 42.435272c2.2788086 5.8592834 8.875977 8.761841 14.7352295 6.4830627l42.43524 -16.503754c5.859314 -2.278778 8.761841 -8.875946 6.4830933 -14.735199z" fill-rule="evenodd"/><path stroke="#000000" stroke-width="1.0" stroke-linejoin="round" stroke-linecap="butt" d="m668.72736 289.68875l0 0c-2.2787476 -5.8592834 -8.875916 -8.761841 -14.735168 -6.4830933l-42.435303 16.503784l0 0c-2.8137207 1.0942993 -5.0774536 3.2615356 -6.293274 6.0249023c-1.2158203 2.7633972 -1.2841187 5.896576 -0.1897583 8.710297l16.503723 42.435272c2.2788086 5.8592834 8.875977 8.761841 14.7352295 6.4830627l42.43524 -16.503754c5.859314 -2.278778 8.761841 -8.875946 6.4830933 -14.735199z" fill-rule="evenodd"/><path fill="#cfe2f3" d="m831.91394 53.091763l0 0c-2.2787476 -5.8592644 -8.875916 -8.761833 -14.735168 -6.4830704l-42.435303 16.503773l0 0c-2.8137207 1.0942993 -5.0774536 3.261528 -6.293274 6.02491c-1.2158203 2.7633896 -1.2841187 5.896576 -0.18981934 8.710289l16.503784 42.435272c2.2788086 5.859268 8.875977 8.761833 14.7352295 6.4830704l42.43524 -16.503769c5.859253 -2.2787628 8.761841 -8.875938 6.4830933 -14.735207z" fill-rule="evenodd"/><path stroke="#000000" stroke-width="1.0" stroke-linejoin="round" stroke-linecap="butt" d="m831.91394 53.091763l0 0c-2.2787476 -5.8592644 -8.875916 -8.761833 -14.735168 -6.4830704l-42.435303 16.503773l0 0c-2.8137207 1.0942993 -5.0774536 3.261528 -6.293274 6.02491c-1.2158203 2.7633896 -1.2841187 5.896576 -0.18981934 8.710289l16.503784 42.435272c2.2788086 5.859268 8.875977 8.761833 14.7352295 6.4830704l42.43524 -16.503769c5.859253 -2.2787628 8.761841 -8.875938 6.4830933 -14.735207z" fill-rule="evenodd"/><path fill="#cfe2f3" d="m860.25385 125.94713l0 0c-2.2788086 -5.8592606 -8.875977 -8.761833 -14.7352295 -6.4830627l-42.43524 16.503769l0 0c-2.8137207 1.0942993 -5.0775146 3.2615204 -6.293335 6.0249176c-1.2158203 2.763382 -1.2840576 5.8965607 -0.1897583 8.710281l16.503784 42.435272c2.2787476 5.859268 8.875916 8.761841 14.735168 6.483078l42.435303 -16.503784c5.859253 -2.2787628 8.761841 -8.875931 6.4830933 -14.735199z" fill-rule="evenodd"/><path stroke="#000000" stroke-width="1.0" stroke-linejoin="round" stroke-linecap="butt" d="m860.25385 125.94713l0 0c-2.2788086 -5.8592606 -8.875977 -8.761833 -14.7352295 -6.4830627l-42.43524 16.503769l0 0c-2.8137207 1.0942993 -5.0775146 3.2615204 -6.293335 6.0249176c-1.2158203 2.763382 -1.2840576 5.8965607 -0.1897583 8.710281l16.503784 42.435272c2.2787476 5.859268 8.875916 8.761841 14.735168 6.483078l42.435303 -16.503784c5.859253 -2.2787628 8.761841 -8.875931 6.4830933 -14.735199z" fill-rule="evenodd"/><path fill="#cfe2f3" d="m888.5937 198.8025l0 0c-2.2787476 -5.859268 -8.875916 -8.761841 -14.735168 -6.483078l-42.435303 16.503769l0 0c-2.8137207 1.0943146 -5.0774536 3.2615356 -6.293274 6.0249176c-1.2158203 2.763382 -1.2840576 5.896576 -0.1897583 8.710297l16.503723 42.435272c2.2788086 5.859253 8.875977 8.761841 14.7352295 6.4830627l42.435303 -16.503769c5.859253 -2.2787628 8.76178 -8.875946 6.483032 -14.735199z" fill-rule="evenodd"/><path stroke="#000000" stroke-width="1.0" stroke-linejoin="round" stroke-linecap="butt" d="m888.5937 198.8025l0 0c-2.2787476 -5.859268 -8.875916 -8.761841 -14.735168 -6.483078l-42.435303 16.503769l0 0c-2.8137207 1.0943146 -5.0774536 3.2615356 -6.293274 6.0249176c-1.2158203 2.763382 -1.2840576 5.896576 -0.1897583 8.710297l16.503723 42.435272c2.2788086 5.859253 8.875977 8.761841 14.7352295 6.4830627l42.435303 -16.503769c5.859253 -2.2787628 8.76178 -8.875946 6.483032 -14.735199z" fill-rule="evenodd"/><path fill="#cfe2f3" d="m752.5877 67.86626l0 0c-2.2787476 -5.8592606 -8.875916 -8.761829 -14.735168 -6.4830666l-42.435303 16.503773l0 0c-2.8137207 1.0942993 -5.0774536 3.261528 -6.293274 6.02491c-1.2158203 2.7633896 -1.2841187 5.896576 -0.18981934 8.710289l16.503784 42.435272c2.2787476 5.859268 8.875977 8.761841 14.7352295 6.483078l42.43524 -16.503777c5.859253 -2.2787628 8.761841 -8.875938 6.4830933 -14.735207z" fill-rule="evenodd"/><path stroke="#000000" stroke-width="1.0" stroke-linejoin="round" stroke-linecap="butt" d="m752.5877 67.86626l0 0c-2.2787476 -5.8592606 -8.875916 -8.761829 -14.735168 -6.4830666l-42.435303 16.503773l0 0c-2.8137207 1.0942993 -5.0774536 3.261528 -6.293274 6.02491c-1.2158203 2.7633896 -1.2841187 5.896576 -0.18981934 8.710289l16.503784 42.435272c2.2787476 5.859268 8.875977 8.761841 14.7352295 6.483078l42.43524 -16.503777c5.859253 -2.2787628 8.761841 -8.875938 6.4830933 -14.735207z" fill-rule="evenodd"/><path fill="#cfe2f3" d="m780.9276 140.72163l0 0c-2.2788086 -5.859268 -8.875977 -8.761841 -14.7352295 -6.483078l-42.43524 16.503769l0 0c-2.8137207 1.0943146 -5.0775146 3.2615356 -6.293335 6.0249176c-1.2158203 2.7633972 -1.2840576 5.896576 -0.1897583 8.710297l16.503784 42.435272c2.2787476 5.859253 8.875916 8.761826 14.735168 6.4830627l42.435303 -16.503769c5.859253 -2.2787628 8.761841 -8.875946 6.483032 -14.735199z" fill-rule="evenodd"/><path stroke="#000000" stroke-width="1.0" stroke-linejoin="round" stroke-linecap="butt" d="m780.9276 140.72163l0 0c-2.2788086 -5.859268 -8.875977 -8.761841 -14.7352295 -6.483078l-42.43524 16.503769l0 0c-2.8137207 1.0943146 -5.0775146 3.2615356 -6.293335 6.0249176c-1.2158203 2.7633972 -1.2840576 5.896576 -0.1897583 8.710297l16.503784 42.435272c2.2787476 5.859253 8.875916 8.761826 14.735168 6.4830627l42.435303 -16.503769c5.859253 -2.2787628 8.761841 -8.875946 6.483032 -14.735199z" fill-rule="evenodd"/><path fill="#cfe2f3" d="m809.26746 213.577l0 0c-2.2787476 -5.859268 -8.875916 -8.761826 -14.735168 -6.4830627l-42.435303 16.503769l0 0c-2.8137207 1.0942993 -5.0774536 3.2615204 -6.293274 6.0249176c-1.2158203 2.763382 -1.2840576 5.8965607 -0.1897583 8.710281l16.503723 42.435287c2.2788086 5.859253 8.875977 8.76181 14.7352295 6.4830627l42.43524 -16.503784c5.859314 -2.2787476 8.761841 -8.875946 6.4830933 -14.735199z" fill-rule="evenodd"/><path stroke="#000000" stroke-width="1.0" stroke-linejoin="round" stroke-linecap="butt" d="m809.26746 213.577l0 0c-2.2787476 -5.859268 -8.875916 -8.761826 -14.735168 -6.4830627l-42.435303 16.503769l0 0c-2.8137207 1.0942993 -5.0774536 3.2615204 -6.293274 6.0249176c-1.2158203 2.763382 -1.2840576 5.8965607 -0.1897583 8.710281l16.503723 42.435287c2.2788086 5.859253 8.875977 8.76181 14.7352295 6.4830627l42.43524 -16.503784c5.859314 -2.2787476 8.761841 -8.875946 6.4830933 -14.735199z" fill-rule="evenodd"/><path fill="#cfe2f3" d="m985.5352 10.608669l0 0c-2.2787476 -5.859264 -8.875977 -8.761833 -14.7352295 -6.483069l-42.43524 16.50377l0 0c-2.8137207 1.0943012 -5.0775146 3.261528 -6.293335 6.024914c-1.2157593 2.7633877 -1.2840576 5.896572 -0.1897583 8.710289l16.503784 42.43527c2.2787476 5.859268 8.875916 8.761833 14.735168 6.4830704l42.435303 -16.503769c5.859253 -2.2787628 8.761841 -8.875938 6.4830933 -14.735203z" fill-rule="evenodd"/><path stroke="#000000" stroke-width="1.0" stroke-linejoin="round" stroke-linecap="butt" d="m985.5352 10.608669l0 0c-2.2787476 -5.859264 -8.875977 -8.761833 -14.7352295 -6.483069l-42.43524 16.50377l0 0c-2.8137207 1.0943012 -5.0775146 3.261528 -6.293335 6.024914c-1.2157593 2.7633877 -1.2840576 5.896572 -0.1897583 8.710289l16.503784 42.43527c2.2787476 5.859268 8.875916 8.761833 14.735168 6.4830704l42.435303 -16.503769c5.859253 -2.2787628 8.761841 -8.875938 6.4830933 -14.735203z" fill-rule="evenodd"/><path fill="#cfe2f3" d="m1013.87506 83.464035l0 0c-2.2787476 -5.8592606 -8.875916 -8.761833 -14.735168 -6.4830627l-42.435303 16.503769l0 0c-2.8137207 1.0942993 -5.0774536 3.261528 -6.293274 6.02491c-1.2158203 2.7633896 -1.2840576 5.896576 -0.1897583 8.710289l16.503784 42.435272c2.2787476 5.859268 8.875916 8.761841 14.735168 6.483078l42.435303 -16.503784c5.859192 -2.2787628 8.76178 -8.875931 6.4830933 -14.735199z" fill-rule="evenodd"/><path stroke="#000000" stroke-width="1.0" stroke-linejoin="round" stroke-linecap="butt" d="m1013.87506 83.464035l0 0c-2.2787476 -5.8592606 -8.875916 -8.761833 -14.735168 -6.4830627l-42.435303 16.503769l0 0c-2.8137207 1.0942993 -5.0774536 3.261528 -6.293274 6.02491c-1.2158203 2.7633896 -1.2840576 5.896576 -0.1897583 8.710289l16.503784 42.435272c2.2787476 5.859268 8.875916 8.761841 14.735168 6.483078l42.435303 -16.503784c5.859192 -2.2787628 8.76178 -8.875931 6.4830933 -14.735199z" fill-rule="evenodd"/><path fill="#cfe2f3" d="m1042.215 156.31941l0 0c-2.2788086 -5.859268 -8.875977 -8.761841 -14.7352295 -6.483078l-42.43524 16.503769l0 0c-2.8137207 1.0943146 -5.0775146 3.2615356 -6.293274 6.0249176c-1.2158203 2.7633972 -1.2841187 5.896576 -0.18981934 8.710297l16.503784 42.435272c2.2787476 5.859253 8.875977 8.761826 14.7352295 6.4830627l42.435303 -16.503769c5.859253 -2.2787628 8.761841 -8.875946 6.483032 -14.735199z" fill-rule="evenodd"/><path stroke="#000000" stroke-width="1.0" stroke-linejoin="round" stroke-linecap="butt" d="m1042.215 156.31941l0 0c-2.2788086 -5.859268 -8.875977 -8.761841 -14.7352295 -6.483078l-42.43524 16.503769l0 0c-2.8137207 1.0943146 -5.0775146 3.2615356 -6.293274 6.0249176c-1.2158203 2.7633972 -1.2841187 5.896576 -0.18981934 8.710297l16.503784 42.435272c2.2787476 5.859253 8.875977 8.761826 14.7352295 6.4830627l42.435303 -16.503769c5.859253 -2.2787628 8.761841 -8.875946 6.483032 -14.735199z" fill-rule="evenodd"/><path fill="#cfe2f3" d="m911.6427 39.351994l0 0c-2.2788086 -5.8592644 -8.875977 -8.761835 -14.7352295 -6.4830704l-42.43524 16.503773l0 0c-2.8137207 1.0942993 -5.0775146 3.2615242 -6.293335 6.024914c-1.2158203 2.7633858 -1.2840576 5.8965683 -0.1897583 8.710285l16.503784 42.435272c2.2787476 5.859268 8.875916 8.761833 14.735168 6.4830704l42.435303 -16.503769c5.859253 -2.2787628 8.761841 -8.875938 6.483032 -14.735207z" fill-rule="evenodd"/><path stroke="#000000" stroke-width="1.0" stroke-linejoin="round" stroke-linecap="butt" d="m911.6427 39.351994l0 0c-2.2788086 -5.8592644 -8.875977 -8.761835 -14.7352295 -6.4830704l-42.43524 16.503773l0 0c-2.8137207 1.0942993 -5.0775146 3.2615242 -6.293335 6.024914c-1.2158203 2.7633858 -1.2840576 5.8965683 -0.1897583 8.710285l16.503784 42.435272c2.2787476 5.859268 8.875916 8.761833 14.735168 6.4830704l42.435303 -16.503769c5.859253 -2.2787628 8.761841 -8.875938 6.483032 -14.735207z" fill-rule="evenodd"/><path fill="#cfe2f3" d="m939.98254 112.20736l0 0c-2.2787476 -5.8592606 -8.875916 -8.761833 -14.735168 -6.4830704l-42.435303 16.503777l0 0c-2.8137207 1.0942993 -5.0774536 3.261528 -6.293274 6.02491c-1.2158203 2.763382 -1.2840576 5.896576 -0.1897583 8.710297l16.503723 42.435272c2.2788086 5.859253 8.875977 8.761826 14.7352295 6.4830627l42.43524 -16.503769c5.859314 -2.2787628 8.761841 -8.875946 6.4830933 -14.735199z" fill-rule="evenodd"/><path stroke="#000000" stroke-width="1.0" stroke-linejoin="round" stroke-linecap="butt" d="m939.98254 112.20736l0 0c-2.2787476 -5.8592606 -8.875916 -8.761833 -14.735168 -6.4830704l-42.435303 16.503777l0 0c-2.8137207 1.0942993 -5.0774536 3.261528 -6.293274 6.02491c-1.2158203 2.763382 -1.2840576 5.896576 -0.1897583 8.710297l16.503723 42.435272c2.2788086 5.859253 8.875977 8.761826 14.7352295 6.4830627l42.43524 -16.503769c5.859314 -2.2787628 8.761841 -8.875946 6.4830933 -14.735199z" fill-rule="evenodd"/><path fill="#cfe2f3" d="m968.32245 185.06273l0 0c-2.2787476 -5.859268 -8.875977 -8.761826 -14.7352295 -6.4830627l-42.43524 16.503769l0 0c-2.8137207 1.0942993 -5.0775146 3.2615204 -6.293335 6.0249176c-1.2157593 2.763382 -1.2840576 5.8965607 -0.1897583 8.710281l16.503784 42.435272c2.2787476 5.859253 8.875916 8.761841 14.7352295 6.4830627l42.43524 -16.503769c5.859253 -2.2787628 8.761841 -8.875931 6.4830933 -14.735199z" fill-rule="evenodd"/><path stroke="#000000" stroke-width="1.0" stroke-linejoin="round" stroke-linecap="butt" d="m968.32245 185.06273l0 0c-2.2787476 -5.859268 -8.875977 -8.761826 -14.7352295 -6.4830627l-42.43524 16.503769l0 0c-2.8137207 1.0942993 -5.0775146 3.2615204 -6.293335 6.0249176c-1.2157593 2.763382 -1.2840576 5.8965607 -0.1897583 8.710281l16.503784 42.435272c2.2787476 5.859253 8.875916 8.761841 14.7352295 6.4830627l42.43524 -16.503769c5.859253 -2.2787628 8.761841 -8.875931 6.4830933 -14.735199z" fill-rule="evenodd"/><path fill="#00ff00" d="m808.0729 309.237l0 0c-2.2788086 -5.8592834 -8.875977 -8.761841 -14.7352295 -6.4830627l-42.43524 16.503754l0 0c-2.8137207 1.0942993 -5.0775146 3.2615356 -6.293335 6.024933c-1.2158203 2.7633667 -1.2840576 5.8965454 -0.1897583 8.710266l16.503784 42.435272c2.2787476 5.8592834 8.875916 8.761841 14.735168 6.4830933l42.435303 -16.503784c5.859253 -2.278778 8.761841 -8.875946 6.4830933 -14.735199z" fill-rule="evenodd"/><path stroke="#000000" stroke-width="1.0" stroke-linejoin="round" stroke-linecap="butt" d="m808.0729 309.237l0 0c-2.2788086 -5.8592834 -8.875977 -8.761841 -14.7352295 -6.4830627l-42.43524 16.503754l0 0c-2.8137207 1.0942993 -5.0775146 3.2615356 -6.293335 6.024933c-1.2158203 2.7633667 -1.2840576 5.8965454 -0.1897583 8.710266l16.503784 42.435272c2.2787476 5.8592834 8.875916 8.761841 14.735168 6.4830933l42.435303 -16.503784c5.859253 -2.278778 8.761841 -8.875946 6.4830933 -14.735199z" fill-rule="evenodd"/><path fill="#000000" d="m772.94507 347.77634l-4.842346 -12.450867l4.2958984 -1.6707458q1.4416504 -0.56069946 2.2871094 -0.6715698q1.1536865 -0.18041992 2.1657715 0.18035889q1.3130493 0.4449463 2.2976685 1.5541077q0.99920654 1.1034851 1.6448364 2.7636108q0.54937744 1.4125671 0.64489746 2.6495667q0.08984375 1.2224426 -0.15692139 2.1398926q-0.23217773 0.9117737 -0.6795654 1.5719604q-0.45300293 0.6456299 -1.2418213 1.2038574q-0.7944336 0.5437012 -1.9157715 0.97979736l-4.499756 1.7500305zm1.0734863 -2.1107788l2.664978 -1.036438q1.2232056 -0.47573853 1.8372803 -0.96603394q0.6083374 -0.5048523 0.8664551 -1.0914001q0.35595703 -0.809021 0.29119873 -1.9238892q-0.050231934 -1.1204834 -0.59954834 -2.5330505q-0.75897217 -1.951355 -1.8074951 -2.7506714q-1.048523 -0.7992859 -2.1018677 -0.7919922q-0.7572632 -0.0072631836 -2.2280273 0.5647583l-2.6212769 1.0194397l3.6983032 9.509277zm16.341309 -7.9983826l1.6463623 -0.42236328q0.15942383 1.5307007 -0.545166 2.6932983q-0.71032715 1.1480408 -2.283081 1.7597046q-1.9804688 0.77023315 -3.6155396 0.0146484375q-1.6261597 -0.7758484 -2.4813843 -2.974762q-0.88916016 -2.286316 -0.21124268 -3.9917603q0.6925049 -1.7111206 2.5564575 -2.4360657q1.8057251 -0.7022705 3.4230347 0.09378052q1.6261597 0.7758179 2.4926758 3.0038757q0.056640625 0.14562988 0.15856934 0.40774536l-6.727844 2.6165771q0.6651001 1.4513855 1.7338257 1.9577942q1.0631104 0.49188232 2.1843872 0.055786133q0.8446045 -0.3284912 1.2717896 -0.9975586q0.42144775 -0.6836548 0.39715576 -1.7807007zm-5.9868164 -0.5216675l5.038574 -1.9595947q-0.5437012 -1.0962219 -1.2451172 -1.4772644q-1.0736084 -0.60513306 -2.2385864 -0.15206909q-1.048523 0.4078064 -1.4990845 1.404541q-0.44171143 0.97650146 -0.055786133 2.1843872zm10.565857 2.077057l-4.842346 -12.450867l1.5290527 -0.5946655l4.842346 12.450867l-1.5290527 0.5946655z" fill-rule="nonzero"/><path fill="#000000" d="m771.6102 363.66037l-2.763855 -7.106476l4.7910767 -1.8633118l0.32281494 0.8300476l-3.8444824 1.4951782l0.86083984 2.213501l3.3348389 -1.2969666l0.32281494 0.8300781l-3.3348389 1.296936l1.2573242 3.2328796l-0.9465332 0.36813354zm9.284912 -3.6110535l-0.29455566 -0.7572632q-0.27178955 1.1116333 -1.2911377 1.5080872q-0.46600342 0.18121338 -0.92718506 0.15939331q-0.4611206 -0.021820068 -0.7523804 -0.21032715q-0.29125977 -0.18850708 -0.5315552 -0.547699q-0.13995361 -0.23059082 -0.36083984 -0.79852295l-1.2402954 -3.1891785l0.87371826 -0.33981323l1.1100464 2.854248q0.26623535 0.68444824 0.40618896 0.91500854q0.21759033 0.30096436 0.559021 0.40289307q0.3503418 0.08169556 0.7289429 -0.06555176q0.39318848 -0.15292358 0.6690674 -0.4781494q0.27020264 -0.33981323 0.26531982 -0.7402954q0.00970459 -0.40612793 -0.24511719 -1.0614319l-1.0761108 -2.7668457l0.8737793 -0.33984375l2.0048828 5.155121l-0.77178955 0.3001709zm2.1449585 -0.8342285l-2.0048828 -5.1550903l0.78637695 -0.30584717l0.28881836 0.7426758q0.23376465 -1.0800476 1.296875 -1.4934998q0.46594238 -0.18121338 0.927124 -0.15939331q0.45550537 0.0072631836 0.7523804 0.21032715q0.31152344 0.1973877 0.5258789 0.5331421q0.14001465 0.2305603 0.37786865 0.8421936l1.2290039 3.1600647l-0.8737793 0.33981323l-1.2176514 -3.130951q-0.20953369 -0.53878784 -0.41345215 -0.761261q-0.20385742 -0.22250366 -0.5282593 -0.2807312q-0.3098755 -0.06390381 -0.6593628 0.072021484q-0.55340576 0.21520996 -0.8195801 0.737854q-0.27178955 0.50808716 0.113342285 1.4983215l1.0930786 2.8105469l-0.8737793 0.33981323zm8.151123 -5.349579l0.90448 -0.21765137q0.19989014 0.9449463 -0.1843872 1.6811829q-0.3899536 0.7216797 -1.2345581 1.0501404q-1.048523 0.40777588 -1.9554443 -0.027435303q-0.91259766 -0.44979858 -1.4110107 -1.7312927q-0.32843018 -0.844635 -0.2952881 -1.5784302q0.03314209 -0.73379517 0.46759033 -1.2548218q0.44329834 -0.54125977 1.1132202 -0.8017578q0.8300171 -0.32284546 1.5387573 -0.09552002q0.70306396 0.21276855 1.1488647 0.927948l-0.7937012 0.4595337q-0.32928467 -0.45870972 -0.7369995 -0.6018982q-0.40777588 -0.14318848 -0.8446655 0.02670288q-0.65527344 0.2548828 -0.89068604 0.8996887q-0.22650146 0.62457275 0.16992188 1.6439514q0.4020996 1.0339355 0.98217773 1.3615723q0.58898926 0.30740356 1.2297363 0.05822754q0.5097046 -0.19824219 0.72003174 -0.64886475q0.22491455 -0.45629883 0.07196045 -1.1512756zm3.9400024 -0.2581482l0.416687 0.72647095q-0.33007812 0.22897339 -0.6213379 0.34225464q-0.46600342 0.1812439 -0.78479004 0.13754272q-0.32440186 -0.05822754 -0.5371704 -0.26049805q-0.19824219 -0.20791626 -0.50408936 -0.9942932l-1.1496582 -2.9561462l-0.6407471 0.24917603l-0.26623535 -0.6844177l0.6407471 -0.24920654l-0.49273682 -1.2669373l0.66986084 -0.8640442l0.6966553 1.7911682l0.87371826 -0.33981323l0.26617432 0.6844177l-0.87371826 0.33984375l1.1723633 3.0144043q0.14160156 0.3640747 0.23059082 0.463562q0.08331299 0.08496094 0.21356201 0.118133545q0.12463379 0.018585205 0.3284912 -0.060699463q0.14562988 -0.056640625 0.3616333 -0.19091797zm-1.2155762 -5.646515l-0.3908081 -1.0048218l0.8737793 -0.33981323l0.39074707 1.0048218l-0.87371826 0.33981323zm2.3730469 6.101654l-2.0049438 -5.1550903l0.8737793 -0.33981323l2.0048828 5.1550903l-0.87371826 0.33981323zm0.883667 -3.3110962q-0.5550537 -1.4270935 -0.034851074 -2.417389q0.44329834 -0.8430176 1.3898926 -1.2111511q1.0630493 -0.41342163 2.0047607 0.025054932q0.9562988 0.4328003 1.4320068 1.6560364q0.38513184 0.9902649 0.30584717 1.6916809q-0.070373535 0.6812134 -0.5136719 1.2224731q-0.44903564 0.52667236 -1.1334229 0.7928772q-1.0776367 0.4190979 -2.013733 -0.0048217773q-0.927124 -0.4441223 -1.4368286 -1.7547607zm0.88830566 -0.34545898q0.3850708 0.9902344 1.0145264 1.3154602q0.62945557 0.3251953 1.2702026 0.07601929q0.65527344 -0.2548828 0.8850708 -0.9142456q0.2442627 -0.66500854 -0.15216064 -1.6843872q-0.36816406 -0.9465637 -0.9975586 -1.2717896q-0.61486816 -0.33087158 -1.2702026 -0.07601929q-0.6407471 0.24920654 -0.8850708 0.9142456q-0.24993896 0.65045166 0.13519287 1.6407166zm5.957947 0.65026855l-2.0048828 -5.155121l0.78637695 -0.30581665l0.28881836 0.7426758q0.23382568 -1.0800781 1.296875 -1.4934998q0.46600342 -0.1812439 0.927124 -0.15942383q0.45550537 0.007293701 0.7523804 0.21035767q0.31152344 0.1973877 0.52593994 0.5331116q0.13995361 0.23059082 0.37780762 0.8421936l1.2290039 3.1600647l-0.8737793 0.33981323l-1.2176514 -3.1309204q-0.20953369 -0.53881836 -0.41345215 -0.7612915q-0.20385742 -0.22247314 -0.5282593 -0.2807312q-0.3098755 -0.06390381 -0.6593628 0.072021484q-0.55340576 0.21520996 -0.81951904 0.737854q-0.2718506 0.50808716 0.11328125 1.4983215l1.0930786 2.8105469l-0.8737793 0.33984375z" fill-rule="nonzero"/><path fill="#cfe2f3" d="m722.8459 352.2271l0 0c-3.4935303 -5.227234 -10.56311 -6.6326904 -15.790344 -3.1391602l-37.85791 25.301575l0 0c-2.5101929 1.6776428 -4.2511597 4.283783 -4.8398438 7.2450256c-0.5886841 2.9612732 0.023071289 6.0351257 1.7006836 8.545319l25.301575 37.85788c3.4935303 5.2272644 10.56311 6.632721 15.790344 3.1391907l37.85791 -25.301605c5.227234 -3.4934998 6.6326904 -10.56308 3.1391602 -15.790344z" fill-rule="evenodd"/><path stroke="#000000" stroke-width="1.0" stroke-linejoin="round" stroke-linecap="butt" d="m722.8459 352.2271l0 0c-3.4935303 -5.227234 -10.56311 -6.6326904 -15.790344 -3.1391602l-37.85791 25.301575l0 0c-2.5101929 1.6776428 -4.2511597 4.283783 -4.8398438 7.2450256c-0.5886841 2.9612732 0.023071289 6.0351257 1.7006836 8.545319l25.301575 37.85788c3.4935303 5.2272644 10.56311 6.632721 15.790344 3.1391907l37.85791 -25.301605c5.227234 -3.4934998 6.6326904 -10.56308 3.1391602 -15.790344z" fill-rule="evenodd"/><path fill="#cfe2f3" d="m629.7587 405.4429l0 0c-5.322876 -3.3456726 -12.350159 -1.7427979 -15.695801 3.5801086l-24.230774 38.55078l0 0c-1.6066284 2.5561829 -2.132019 5.645874 -1.4606323 8.5894165c0.6713867 2.9435425 2.4846191 5.499817 5.0407715 7.1064453l38.55078 24.230743c5.322937 3.345642 12.35022 1.7427673 15.695862 -3.5801392l24.230713 -38.55078c3.3457031 -5.322937 1.7427979 -12.350189 -3.5800781 -15.695862z" fill-rule="evenodd"/><path stroke="#000000" stroke-width="1.0" stroke-linejoin="round" stroke-linecap="butt" d="m629.7587 405.4429l0 0c-5.322876 -3.3456726 -12.350159 -1.7427979 -15.695801 3.5801086l-24.230774 38.55078l0 0c-1.6066284 2.5561829 -2.132019 5.645874 -1.4606323 8.5894165c0.6713867 2.9435425 2.4846191 5.499817 5.0407715 7.1064453l38.55078 24.230743c5.322937 3.345642 12.35022 1.7427673 15.695862 -3.5801392l24.230713 -38.55078c3.3457031 -5.322937 1.7427979 -12.350189 -3.5800781 -15.695862z" fill-rule="evenodd"/><path fill="#000000" fill-opacity="0.0" d="m387.52493 23.19685l287.46457 0l0 51.716534l-287.46457 0z" fill-rule="evenodd"/><path fill="#cfe2f3" d="m445.28256 57.79685l0 -19.078125l12.875 0l0 2.25l-10.34375 0l0 5.90625l8.953125 0l0 2.25l-8.953125 0l0 8.671875l-2.53125 0zm24.907684 0l0 -2.03125q-1.609375 2.34375 -4.375 2.34375q-1.234375 0 -2.296875 -0.46875q-1.0625 -0.46875 -1.578125 -1.171875q-0.5 -0.71875 -0.71875 -1.75q-0.140625 -0.6875 -0.140625 -2.1875l0 -8.5625l2.34375 0l0 7.671875q0 1.828125 0.140625 2.46875q0.21875 0.921875 0.9375 1.453125q0.71875 0.53125 1.765625 0.53125q1.0625 0 1.984375 -0.53125q0.921875 -0.546875 1.296875 -1.46875q0.390625 -0.9375 0.390625 -2.71875l0 -7.40625l2.34375 0l0 13.828125l-2.09375 0zm5.762451 0l0 -13.828125l2.109375 0l0 1.96875q1.53125 -2.28125 4.40625 -2.28125q1.25 0 2.296875 0.453125q1.046875 0.453125 1.5625 1.1875q0.53125 0.71875 0.734375 1.71875q0.125 0.65625 0.125 2.28125l0 8.5l-2.34375 0l0 -8.40625q0 -1.4375 -0.28125 -2.140625q-0.265625 -0.71875 -0.96875 -1.140625q-0.6875 -0.421875 -1.625 -0.421875q-1.484375 0 -2.578125 0.953125q-1.09375 0.953125 -1.09375 3.609375l0 7.546875l-2.34375 0zm23.85617 -5.0625l2.296875 0.296875q-0.375 2.390625 -1.9375 3.734375q-1.546875 1.34375 -3.8125 1.34375q-2.84375 0 -4.5625 -1.84375q-1.71875 -1.859375 -1.71875 -5.328125q0 -2.234375 0.734375 -3.90625q0.75 -1.6875 2.265625 -2.53125q1.515625 -0.84375 3.296875 -0.84375q2.25 0 3.671875 1.140625q1.4375 1.140625 1.84375 3.234375l-2.28125 0.359375q-0.328125 -1.390625 -1.15625 -2.09375q-0.8125 -0.703125 -1.984375 -0.703125q-1.78125 0 -2.890625 1.265625q-1.09375 1.265625 -1.09375 4.015625q0 2.78125 1.0625 4.046875q1.0625 1.265625 2.78125 1.265625q1.390625 0 2.3125 -0.84375q0.921875 -0.859375 1.171875 -2.609375zm9.421875 2.96875l0.328125 2.0625q-0.984375 0.21875 -1.765625 0.21875q-1.265625 0 -1.96875 -0.40625q-0.703125 -0.40625 -1.0 -1.0625q-0.28125 -0.65625 -0.28125 -2.765625l0 -7.953125l-1.71875 0l0 -1.828125l1.71875 0l0 -3.421875l2.328125 -1.40625l0 4.828125l2.359375 0l0 1.828125l-2.359375 0l0 8.078125q0 1.0 0.125 1.296875q0.125 0.28125 0.40625 0.453125q0.28125 0.171875 0.796875 0.171875q0.390625 0 1.03125 -0.09375zm2.2966003 -14.296875l0 -2.6875l2.34375 0l0 2.6875l-2.34375 0zm0 16.390625l0 -13.828125l2.34375 0l0 13.828125l-2.34375 0zm5.04718 -6.90625q0 -3.84375 2.125 -5.6875q1.78125 -1.546875 4.34375 -1.546875q2.859375 0 4.65625 1.875q1.8125 1.859375 1.8125 5.15625q0 2.671875 -0.796875 4.203125q-0.796875 1.53125 -2.328125 2.375q-1.53125 0.84375 -3.34375 0.84375q-2.890625 0 -4.6875 -1.859375q-1.78125 -1.859375 -1.78125 -5.359375zm2.40625 0q0 2.65625 1.15625 3.984375q1.15625 1.3125 2.90625 1.3125q1.75 0 2.90625 -1.328125q1.15625 -1.328125 1.15625 -4.046875q0 -2.5625 -1.171875 -3.890625q-1.15625 -1.328125 -2.890625 -1.328125q-1.75 0 -2.90625 1.328125q-1.15625 1.3125 -1.15625 3.96875zm13.278076 6.90625l0 -13.828125l2.109375 0l0 1.96875q1.53125 -2.28125 4.40625 -2.28125q1.25 0 2.296875 0.453125q1.046875 0.453125 1.5625 1.1875q0.53125 0.71875 0.734375 1.71875q0.125 0.65625 0.125 2.28125l0 8.5l-2.34375 0l0 -8.40625q0 -1.4375 -0.28125 -2.140625q-0.265625 -0.71875 -0.96875 -1.140625q-0.6875 -0.421875 -1.625 -0.421875q-1.484375 0 -2.578125 0.953125q-1.09375 0.953125 -1.09375 3.609375l0 7.546875l-2.34375 0zm22.434021 0l0 -19.078125l2.53125 0l0 16.828125l9.390625 0l0 2.25l-11.921875 0zm23.653015 -1.703125q-1.3125 1.109375 -2.515625 1.5625q-1.203125 0.453125 -2.578125 0.453125q-2.28125 0 -3.5 -1.109375q-1.21875 -1.109375 -1.21875 -2.84375q0 -1.015625 0.453125 -1.859375q0.46875 -0.84375 1.21875 -1.34375q0.75 -0.515625 1.6875 -0.765625q0.6875 -0.1875 2.078125 -0.359375q2.828125 -0.328125 4.171875 -0.796875q0.015625 -0.484375 0.015625 -0.625q0 -1.421875 -0.65625 -2.015625q-0.90625 -0.796875 -2.671875 -0.796875q-1.65625 0 -2.453125 0.59375q-0.78125 0.578125 -1.15625 2.046875l-2.296875 -0.3125q0.3125 -1.46875 1.03125 -2.375q0.71875 -0.90625 2.0625 -1.390625q1.359375 -0.5 3.140625 -0.5q1.78125 0 2.875 0.421875q1.109375 0.421875 1.625 1.046875q0.53125 0.625 0.734375 1.59375q0.125 0.59375 0.125 2.15625l0 3.125q0 3.265625 0.140625 4.140625q0.15625 0.859375 0.59375 1.65625l-2.4375 0q-0.375 -0.734375 -0.46875 -1.703125zm-0.203125 -5.234375q-1.265625 0.515625 -3.828125 0.890625q-1.4375 0.203125 -2.046875 0.46875q-0.59375 0.25 -0.921875 0.75q-0.3125 0.5 -0.3125 1.125q0 0.9375 0.703125 1.5625q0.703125 0.625 2.078125 0.625q1.34375 0 2.390625 -0.59375q1.0625 -0.59375 1.5625 -1.625q0.375 -0.796875 0.375 -2.34375l0 -0.859375zm5.903076 12.265625l-0.265625 -2.203125q0.765625 0.203125 1.34375 0.203125q0.78125 0 1.25 -0.265625q0.46875 -0.25 0.765625 -0.71875q0.21875 -0.359375 0.71875 -1.75q0.0625 -0.1875 0.203125 -0.5625l-5.25 -13.859375l2.53125 0l2.875 8.015625q0.5625 1.515625 1.0 3.203125q0.40625 -1.625 0.96875 -3.15625l2.953125 -8.0625l2.34375 0l-5.265625 14.0625q-0.84375 2.28125 -1.3125 3.140625q-0.625 1.15625 -1.4375 1.6875q-0.796875 0.546875 -1.921875 0.546875q-0.671875 0 -1.5 -0.28125zm22.890625 -9.78125l2.421875 0.296875q-0.578125 2.125 -2.125 3.296875q-1.546875 1.171875 -3.953125 1.171875q-3.03125 0 -4.8125 -1.859375q-1.78125 -1.875 -1.78125 -5.25q0 -3.484375 1.796875 -5.40625q1.796875 -1.9375 4.671875 -1.9375q2.765625 0 4.515625 1.890625q1.765625 1.890625 1.765625 5.3125q0 0.203125 -0.015625 0.625l-10.3125 0q0.140625 2.28125 1.296875 3.5q1.15625 1.203125 2.890625 1.203125q1.28125 0 2.1875 -0.671875q0.921875 -0.6875 1.453125 -2.171875zm-7.6875 -3.78125l7.71875 0q-0.15625 -1.75 -0.890625 -2.625q-1.125 -1.34375 -2.90625 -1.34375q-1.609375 0 -2.71875 1.078125q-1.09375 1.078125 -1.203125 2.890625zm13.028076 8.234375l0 -13.828125l2.109375 0l0 2.09375q0.796875 -1.46875 1.484375 -1.9375q0.6875 -0.46875 1.5 -0.46875q1.1875 0 2.40625 0.765625l-0.796875 2.171875q-0.859375 -0.515625 -1.71875 -0.515625q-0.765625 0 -1.390625 0.46875q-0.609375 0.453125 -0.859375 1.28125q-0.390625 1.25 -0.390625 2.734375l0 7.234375l-2.34375 0z" fill-rule="nonzero"/></g></svg>