<svg version="1.1" viewBox="0.0 0.0 1062.5144356955382 514.0472440944882" fill="none" stroke="none" stroke-linecap="square" stroke-miterlimit="10" xmlns:xlink="http://www.w3.org/1999/xlink" xmlns="http://www.w3.org/2000/svg"><clipPath id="p.0"><path d="m0 0l1062.5144 0l0 514.04724l-1062.5144 0l0 -514.04724z" clip-rule="nonzero"/></clipPath><g clip-path="url(#p.0)"><path fill="#000000" fill-opacity="0.0" d="m0 0l1062.5144 0l0 514.04724l-1062.5144 0z" fill-rule="evenodd"/><path fill="#cfe2f3" d="m379.90622 109.94902l0 0c2.2555847 -5.867958 8.841003 -8.796379 14.708954 -6.5408096l42.49826 16.335793l0 0c2.8179016 1.0831604 5.090088 3.2413635 6.316742 5.999832c1.226654 2.7584686 1.307251 5.8912354 0.22409058 8.709122l-16.335815 42.49826c-2.2555542 5.8679657 -8.840973 8.796387 -14.708954 6.5408173l-42.49826 -16.3358c-5.8679504 -2.2555695 -8.796387 -8.840988 -6.540802 -14.708954z" fill-rule="evenodd"/><path stroke="#000000" stroke-width="1.0" stroke-linejoin="round" stroke-linecap="butt" d="m379.90622 109.94902l0 0c2.2555847 -5.867958 8.841003 -8.796379 14.708954 -6.5408096l42.49826 16.335793l0 0c2.8179016 1.0831604 5.090088 3.2413635 6.316742 5.999832c1.226654 2.7584686 1.307251 5.8912354 0.22409058 8.709122l-16.335815 42.49826c-2.2555542 5.8679657 -8.840973 8.796387 -14.708954 6.5408173l-42.49826 -16.3358c-5.8679504 -2.2555695 -8.796387 -8.840988 -6.540802 -14.708954z" fill-rule="evenodd"/><path fill="#000000" d="m400.89197 154.0197q-0.6578064 -2.0774689 -0.70877075 -4.557785q-0.050994873 -2.480301 0.83477783 -4.784683q0.7736511 -2.01268 2.1419373 -3.6126404q1.6027222 -1.8614044 4.0109253 -3.3796997l1.0938416 0.4204712q-1.6992493 1.3722992 -2.326233 2.00177q-0.95895386 0.97055054 -1.7585754 2.1362762q-0.9756775 1.4495697 -1.5923462 3.0538788q-1.5697327 4.0836945 -0.6017151 9.142868l-1.0938416 -0.42045593z" fill-rule="nonzero"/><path fill="#cfe2f3" d="m351.86676 182.92055l0 0c2.2555847 -5.8679657 8.841003 -8.796387 14.708954 -6.5408173l42.49826 16.335785l0 0c2.8179016 1.0831757 5.0901184 3.2413788 6.316742 5.999832c1.226654 2.7584686 1.307251 5.8912354 0.22409058 8.709137l-16.335785 42.49826c-2.2555847 5.8679504 -8.841003 8.796371 -14.708984 6.5408173l-42.49826 -16.3358c-5.8679504 -2.2555695 -8.796387 -8.841003 -6.540802 -14.708954z" fill-rule="evenodd"/><path stroke="#000000" stroke-width="1.0" stroke-linejoin="round" stroke-linecap="butt" d="m351.86676 182.92055l0 0c2.2555847 -5.8679657 8.841003 -8.796387 14.708954 -6.5408173l42.49826 16.335785l0 0c2.8179016 1.0831757 5.0901184 3.2413788 6.316742 5.999832c1.226654 2.7584686 1.307251 5.8912354 0.22409058 8.709137l-16.335785 42.49826c-2.2555847 5.8679504 -8.841003 8.796371 -14.708984 6.5408173l-42.49826 -16.3358c-5.8679504 -2.2555695 -8.796387 -8.841003 -6.540802 -14.708954z" fill-rule="evenodd"/><path fill="#000000" d="m373.2853 216.22664l-1.5751343 -0.60546875l5.6224976 -5.6561584l1.239685 0.47651672l0.40097046 7.971512l-1.54599 -0.59425354l-0.14923096 -5.8827515l-3.9927979 4.2906036z" fill-rule="nonzero"/><path fill="#cfe2f3" d="m323.8273 255.89206l0 0c2.2555847 -5.8679657 8.841003 -8.796387 14.708954 -6.5408173l42.49829 16.3358l0 0c2.817871 1.0831604 5.090088 3.2413635 6.3167114 5.999817c1.226654 2.758484 1.307251 5.8912354 0.22409058 8.709137l-16.335785 42.49826c-2.2555847 5.8679504 -8.841003 8.796387 -14.708954 6.540802l-42.49829 -16.335785c-5.8679504 -2.2555542 -8.796356 -8.841003 -6.540802 -14.708954z" fill-rule="evenodd"/><path stroke="#000000" stroke-width="1.0" stroke-linejoin="round" stroke-linecap="butt" d="m323.8273 255.89206l0 0c2.2555847 -5.8679657 8.841003 -8.796387 14.708954 -6.5408173l42.49829 16.3358l0 0c2.817871 1.0831604 5.090088 3.2413635 6.3167114 5.999817c1.226654 2.758484 1.307251 5.8912354 0.22409058 8.709137l-16.335785 42.49826c-2.2555847 5.8679504 -8.841003 8.796387 -14.708954 6.540802l-42.49829 -16.335785c-5.8679504 -2.2555542 -8.796356 -8.841003 -6.540802 -14.708954z" fill-rule="evenodd"/><path fill="#000000" d="m340.99915 294.54617l2.13974 -3.3456726l-1.4438782 -0.5549927l0.48773193 -1.2688599l1.691803 0.6502991l1.8100586 -2.8363037l-2.3189697 -0.8913574l0.48773193 -1.2688599l2.581482 0.99227905l2.1453552 -3.36026l1.2688599 0.48776245l-2.1453552 3.3602295l2.6835938 1.0315247l2.1453552 -3.3602295l1.2834473 0.49334717l-2.1453552 3.3602295l1.473053 0.56622314l-0.48776245 1.2688599l-1.7209778 -0.66152954l-1.8246155 2.8306885l2.3627014 0.9082031l-0.48773193 1.2688599l-2.6252441 -1.0090942l-2.1251526 3.3512573l-1.2834473 -0.49334717l2.1251526 -3.3512573l-2.6689758 -1.02594l-2.1251526 3.3512878l-1.2834473 -0.49334717zm4.158844 -4.025879l2.6690063 1.0259094l1.8246155 -2.8306885l-2.6835632 -1.0315247l-1.8100586 2.8363037z" fill-rule="nonzero"/><path fill="#cfe2f3" d="m450.5316 147.19685l0 0c2.2555847 -5.8679657 8.841003 -8.796387 14.708954 -6.5408173l42.49829 16.3358l0 0c2.817871 1.0831604 5.090088 3.2413635 6.3167114 5.999832c1.2266235 2.7584534 1.307251 5.89122 0.22406006 8.709122l-16.335754 42.49826c-2.2555847 5.8679657 -8.841003 8.796387 -14.708954 6.5408173l-42.49829 -16.3358c-5.8679504 -2.2555695 -8.796356 -8.840988 -6.540802 -14.708954z" fill-rule="evenodd"/><path stroke="#000000" stroke-width="1.0" stroke-linejoin="round" stroke-linecap="butt" d="m450.5316 147.19685l0 0c2.2555847 -5.8679657 8.841003 -8.796387 14.708954 -6.5408173l42.49829 16.3358l0 0c2.817871 1.0831604 5.090088 3.2413635 6.3167114 5.999832c1.2266235 2.7584534 1.307251 5.89122 0.22406006 8.709122l-16.335754 42.49826c-2.2555847 5.8679657 -8.841003 8.796387 -14.708954 6.5408173l-42.49829 -16.3358c-5.8679504 -2.2555695 -8.796356 -8.840988 -6.540802 -14.708954z" fill-rule="evenodd"/><path fill="#000000" d="m476.17163 182.87892l-0.53256226 1.3855438q-0.66192627 -0.23770142 -1.204834 -0.044631958q-0.537323 0.1784668 -0.90740967 0.7057953q-0.35549927 0.53292847 -0.9194946 1.9566193q-0.5437927 1.4147034 -0.76135254 1.8500061q-0.34762573 0.68663025 -0.7289734 1.0254822q-0.37234497 0.35905457 -0.779541 0.5038452q-0.40719604 0.14480591 -0.9389343 0.09106445q-0.3545227 -0.035827637 -1.0837402 -0.31614685l-0.48129272 -0.18499756l0.51016235 -1.3271942l0.2625122 0.10090637q0.88967896 0.34196472 1.3046875 0.13323975q0.41503906 -0.20874023 0.841095 -1.3171844q0.81851196 -2.1293488 1.1100769 -2.6701202q0.4956665 -0.8975525 1.1170654 -1.2947845q0.62701416 -0.41183472 1.508728 -0.44117737q-0.79776 -0.8423157 -0.9089966 -1.7722778q-0.09667969 -0.9243469 0.60409546 -2.7474365q0.6390991 -1.6626434 0.71868896 -2.0003204q0.16030884 -0.5912323 -0.032714844 -0.91651917q-0.18740845 -0.33987427 -1.0041504 -0.6538086l-0.2625122 -0.10092163l0.51016235 -1.3271942l0.48129272 0.18499756q0.8312988 0.31954956 1.1600647 0.5965729q0.46673584 0.3970337 0.64297485 0.9837036q0.19644165 0.57769775 0.040649414 1.2878265q-0.14120483 0.715744 -0.7298584 2.2471313q-0.57406616 1.5369873 -0.6670227 2.1708374q-0.07281494 0.6248627 0.20101929 1.1318665q0.27941895 0.49241638 0.93011475 0.75927734z" fill-rule="nonzero"/><path fill="#cfe2f3" d="m422.49216 220.16837l0 0c2.2555542 -5.8679504 8.840973 -8.796387 14.708954 -6.540802l42.49826 16.335785l0 0c2.817871 1.0831604 5.090088 3.2413635 6.3167114 5.999832c1.226654 2.7584686 1.307251 5.8912354 0.22409058 8.709122l-16.335785 42.49826c-2.2555847 5.867981 -8.841003 8.796387 -14.708954 6.5408325l-42.49826 -16.335815c-5.867981 -2.2555542 -8.796387 -8.840973 -6.5408325 -14.708954z" fill-rule="evenodd"/><path stroke="#000000" stroke-width="1.0" stroke-linejoin="round" stroke-linecap="butt" d="m422.49216 220.16837l0 0c2.2555542 -5.8679504 8.840973 -8.796387 14.708954 -6.540802l42.49826 16.335785l0 0c2.817871 1.0831604 5.090088 3.2413635 6.3167114 5.999832c1.226654 2.7584686 1.307251 5.8912354 0.22409058 8.709122l-16.335785 42.49826c-2.2555847 5.867981 -8.841003 8.796387 -14.708954 6.5408325l-42.49826 -16.335815c-5.867981 -2.2555542 -8.796387 -8.840973 -6.5408325 -14.708954z" fill-rule="evenodd"/><path fill="#000000" d="m443.7651 257.83774l1.3174438 -3.4273834l-3.3982239 -1.3062286l0.5437927 -1.4147034l3.3982239 1.3062286l1.3062439 -3.3982239l1.4438782 0.55500793l-1.3062439 3.3982239l3.3982239 1.3062286l-0.5437927 1.4147186l-3.3982239 -1.3062439l-1.3174438 3.4273987l-1.4438782 -0.5550232z" fill-rule="nonzero"/><path fill="#cfe2f3" d="m394.4527 293.1399l0 0c2.2555542 -5.867981 8.840973 -8.796387 14.708954 -6.5408325l42.49826 16.335815l0 0c2.8179016 1.0831604 5.090088 3.2413635 6.3167114 5.999817c1.226654 2.758484 1.307251 5.8912354 0.22409058 8.709137l-16.335785 42.49826c-2.2555847 5.8679504 -8.841003 8.796387 -14.708954 6.540802l-42.49826 -16.335785c-5.867981 -2.2555847 -8.796387 -8.841003 -6.5408325 -14.708954z" fill-rule="evenodd"/><path stroke="#000000" stroke-width="1.0" stroke-linejoin="round" stroke-linecap="butt" d="m394.4527 293.1399l0 0c2.2555542 -5.867981 8.840973 -8.796387 14.708954 -6.5408325l42.49826 16.335815l0 0c2.8179016 1.0831604 5.090088 3.2413635 6.3167114 5.999817c1.226654 2.758484 1.307251 5.8912354 0.22409058 8.709137l-16.335785 42.49826c-2.2555847 5.8679504 -8.841003 8.796387 -14.708954 6.540802l-42.49826 -16.335785c-5.867981 -2.2555847 -8.796387 -8.841003 -6.5408325 -14.708954z" fill-rule="evenodd"/><path fill="#000000" d="m413.61133 336.50824l6.2789 -16.334778l1.3272095 0.51016235l-6.2789 16.334778l-1.3272095 -0.51016235z" fill-rule="nonzero"/><path fill="#cfe2f3" d="m230.29265 57.21729l0 0c2.2555695 -5.867962 8.840988 -8.796383 14.708954 -6.5408134l42.498276 16.335793l0 0c2.817871 1.083168 5.090088 3.2413712 6.3167114 5.999832c1.226654 2.7584686 1.307251 5.8912354 0.22409058 8.709129l-16.335785 42.49826c-2.2555847 5.867958 -8.841003 8.796379 -14.708954 6.5408096l-42.498276 -16.335793c-5.8679657 -2.2555695 -8.796387 -8.840996 -6.5408173 -14.708954z" fill-rule="evenodd"/><path stroke="#000000" stroke-width="1.0" stroke-linejoin="round" stroke-linecap="butt" d="m230.29265 57.21729l0 0c2.2555695 -5.867962 8.840988 -8.796383 14.708954 -6.5408134l42.498276 16.335793l0 0c2.817871 1.083168 5.090088 3.2413712 6.3167114 5.999832c1.226654 2.7584686 1.307251 5.8912354 0.22409058 8.709129l-16.335785 42.49826c-2.2555847 5.867958 -8.841003 8.796379 -14.708954 6.5408096l-42.498276 -16.335793c-5.8679657 -2.2555695 -8.796387 -8.840996 -6.5408173 -14.708954z" fill-rule="evenodd"/><path fill="#000000" d="m254.54411 96.65093q-1.0835724 0.55438995 -2.1358032 0.63536835q-1.0522461 0.08098602 -2.0877533 -0.31705475q-1.9105835 -0.7344055 -2.5346527 -2.4641113q-0.51519775 -1.4032822 -0.010635376 -2.7158966q0.44288635 -1.1521912 1.5454865 -1.7996902q1.1026154 -0.6475067 2.8593445 -0.7757416q-0.47590637 -1.2877426 -0.52316284 -1.9922256q-0.041641235 -0.71907806 0.1769867 -1.28788q0.43167114 -1.1230164 1.620697 -1.6033859q1.1946259 -0.49495697 2.5364227 0.020812988q1.2688751 0.48773193 1.7828827 1.5892487q0.5195923 1.0869293 0.09915161 2.1807785q-0.68395996 1.7793274 -3.5288086 2.125412l1.1326447 3.7163239q0.685318 -0.6070328 1.2651215 -1.5057144l1.4607544 0.94651794q-1.0362549 1.4765015 -2.1399536 2.2574997q0.42321777 1.4683685 1.2199402 2.6618118l-1.506424 0.8270798q-0.6889801 -0.95116425 -1.2322388 -2.4991531zm-0.61180115 -7.684273q1.2216034 -0.2167511 1.681488 -0.54216766q0.45986938 -0.32541656 0.66729736 -0.86504364q0.24667358 -0.64173126 -0.010314941 -1.192482q-0.2368164 -0.55973816 -0.8347931 -0.7895889q-0.62713623 -0.24106598 -1.2070618 0.004722595q-0.55973816 0.2368164 -0.77838135 0.8056183q-0.11212158 0.291687 -0.08961487 0.66861725q0.037094116 0.3825302 0.18864441 0.8592682l0.3827362 1.0510559zm0.11451721 6.1037445l-1.4659882 -4.5475235q-1.5256042 0.26729584 -2.2042084 0.7262497q-0.6786041 0.45895386 -0.9196625 1.0860901q-0.29151917 0.75839996 -0.007507324 1.8049927q0.2986145 1.0522003 1.4070435 1.4782715q0.68548584 0.26348877 1.577301 0.12084198q0.9119873 -0.15162659 1.6130219 -0.6689224z" fill-rule="nonzero"/><path fill="#cfe2f3" d="m202.25319 130.18881l0 0c2.2555695 -5.8679657 8.841003 -8.796387 14.708954 -6.5408173l42.498276 16.3358l0 0c2.817871 1.0831604 5.090088 3.2413635 6.3167114 5.999832c1.226654 2.7584534 1.307251 5.89122 0.22409058 8.709122l-16.335785 42.49826c-2.2555847 5.8679657 -8.841003 8.796387 -14.708969 6.5408173l-42.49826 -16.3358c-5.8679504 -2.2555695 -8.796387 -8.840988 -6.540802 -14.708954z" fill-rule="evenodd"/><path stroke="#000000" stroke-width="1.0" stroke-linejoin="round" stroke-linecap="butt" d="m202.25319 130.18881l0 0c2.2555695 -5.8679657 8.841003 -8.796387 14.708954 -6.5408173l42.498276 16.3358l0 0c2.817871 1.0831604 5.090088 3.2413635 6.3167114 5.999832c1.226654 2.7584534 1.307251 5.89122 0.22409058 8.709122l-16.335785 42.49826c-2.2555847 5.8679657 -8.841003 8.796387 -14.708969 6.5408173l-42.49826 -16.3358c-5.8679504 -2.2555695 -8.796387 -8.840988 -6.540802 -14.708954z" fill-rule="evenodd"/><path fill="#000000" d="m222.27611 171.74672l0.5886383 -1.5313873q-1.0815277 -0.5831299 -1.6706085 -1.2280426q-0.56889343 -0.6539154 -0.7799988 -1.6724701q-0.20549011 -1.0331421 0.1756897 -2.2425385l1.6435089 0.29696655q-0.2959137 1.2923737 -0.06802368 2.0495453q0.34236145 1.0690308 1.1983795 1.4985046l1.872467 -4.8712616q-0.8661499 -0.5338135 -1.644867 -1.4692535q-0.5722656 -0.6886749 -0.6913452 -1.5546875q-0.113479614 -0.8806 0.23970032 -1.7994232q0.62789917 -1.6334839 2.1669006 -2.1969452q1.0364838 -0.38835144 2.6093445 0.048843384l0.28030396 -0.7292328l0.9042511 0.34757996l-0.28030396 0.7292328q1.296936 0.6324463 1.8176422 1.5858765q0.68118286 1.2327423 0.33035278 2.7551117l-1.6704407 -0.3575287q0.20173645 -0.9603119 -0.05079651 -1.609787q-0.23796082 -0.6438751 -0.920105 -1.0902252l-1.6986542 4.4191437q1.0400543 0.7345886 1.3575897 1.0407715q0.5969238 0.5809784 0.87524414 1.2068939q0.27833557 0.6259155 0.27062988 1.3427582q0.012481689 0.7078552 -0.26782227 1.437088q-0.6110687 1.5897217 -2.0412445 2.2619781q-1.4155884 0.67785645 -3.0479279 0.13409424l-0.59425354 1.5459747l-0.9042511 -0.34757996zm5.152054 -13.40329q-0.9457245 -0.19612122 -1.6804352 0.1910553q-0.7291107 0.37257385 -1.0318298 1.1601562q-0.30273438 0.78756714 -0.0670166 1.4807892q0.23571777 0.6932373 1.1478882 1.4121399l1.6313934 -4.2441406zm-3.1602173 10.921448q0.9289093 0.23988342 1.7645721 -0.19216919q0.8412628 -0.44665527 1.2168732 -1.4238281q0.31954956 -0.83132935 0.107406616 -1.498764q-0.2121582 -0.6674347 -1.3004913 -1.537735l-1.7883606 4.6524963z" fill-rule="nonzero"/><path fill="#cfe2f3" d="m174.21373 203.16032l0 0c2.2555695 -5.8679657 8.841003 -8.796387 14.708969 -6.5408173l42.49826 16.3358l0 0c2.8178864 1.0831604 5.090088 3.2413635 6.3167267 5.999832c1.2266388 2.7584686 1.307251 5.8912354 0.22407532 8.709122l-16.335785 42.498276c-2.2555695 5.8679504 -8.841003 8.796387 -14.708954 6.540802l-42.498276 -16.335785c-5.8679504 -2.2555847 -8.796371 -8.841003 -6.540802 -14.708969z" fill-rule="evenodd"/><path stroke="#000000" stroke-width="1.0" stroke-linejoin="round" stroke-linecap="butt" d="m174.21373 203.16032l0 0c2.2555695 -5.8679657 8.841003 -8.796387 14.708969 -6.5408173l42.49826 16.3358l0 0c2.8178864 1.0831604 5.090088 3.2413635 6.3167267 5.999832c1.2266388 2.7584686 1.307251 5.8912354 0.22407532 8.709122l-16.335785 42.498276c-2.2555695 5.8679504 -8.841003 8.796387 -14.708954 6.540802l-42.498276 -16.335785c-5.8679504 -2.2555847 -8.796371 -8.841003 -6.540802 -14.708969z" fill-rule="evenodd"/><path fill="#000000" d="m196.17534 239.85568l2.072876 -6.7862244l1.0651703 -2.7710876l1.8960114 0.72880554l-1.0651703 2.7710724l-2.9917145 6.4330597l-0.97717285 -0.3756256zm-1.596878 2.9349823l0.67274475 -1.7501678l1.76474 0.6783447l-0.6727295 1.7501678l-1.7647552 -0.6783447z" fill-rule="nonzero"/><path fill="#cfe2f3" d="m309.67908 71.66482l0 0c2.2555847 -5.8679657 8.841003 -8.796387 14.708954 -6.5408173l42.49826 16.3358l0 0c2.8179016 1.0831604 5.090088 3.2413635 6.316742 5.9998245c1.226654 2.7584686 1.307251 5.8912354 0.22409058 8.709129l-16.335815 42.49827c-2.2555542 5.8679504 -8.840973 8.796371 -14.708954 6.540802l-42.49826 -16.335785c-5.8679504 -2.255577 -8.796387 -8.840996 -6.540802 -14.7089615z" fill-rule="evenodd"/><path stroke="#000000" stroke-width="1.0" stroke-linejoin="round" stroke-linecap="butt" d="m309.67908 71.66482l0 0c2.2555847 -5.8679657 8.841003 -8.796387 14.708954 -6.5408173l42.49826 16.3358l0 0c2.8179016 1.0831604 5.090088 3.2413635 6.316742 5.9998245c1.226654 2.7584686 1.307251 5.8912354 0.22409058 8.709129l-16.335815 42.49827c-2.2555542 5.8679504 -8.840973 8.796371 -14.708954 6.540802l-42.49826 -16.335785c-5.8679504 -2.255577 -8.796387 -8.840996 -6.540802 -14.7089615z" fill-rule="evenodd"/><path fill="#000000" d="m331.96664 100.350044l0.85910034 -1.059166q1.1713562 1.0026703 1.6493835 1.5881577q0.43380737 -1.6076355 0.6378784 -2.182045l1.239685 0.47652435q-0.34872437 0.8201065 -1.0114746 2.021698q1.0432739 -0.10116577 2.3266296 -0.04309082l-0.0715332 1.3618927q-1.2194214 -0.050239563 -2.2997742 -0.33159637q0.33666992 0.6483383 0.8417969 2.1649246l-1.301239 0.33679962q-0.23239136 -0.876091 -0.46038818 -2.2861557q-1.086853 0.95487213 -1.8148193 1.4115982l-0.7260437 -1.1160583q1.4570923 -0.82930756 2.0314026 -1.0605164q-1.0097656 -0.6392288 -1.9006042 -1.2829666z" fill-rule="nonzero"/><path fill="#cfe2f3" d="m281.63962 144.63634l0 0c2.2555847 -5.8679657 8.841003 -8.796387 14.708954 -6.5408173l42.49826 16.3358l0 0c2.8179016 1.0831604 5.0901184 3.2413635 6.316742 5.999832c1.226654 2.7584534 1.307251 5.89122 0.22409058 8.709122l-16.335815 42.49826c-2.2555542 5.8679657 -8.840973 8.796387 -14.708954 6.5408173l-42.49826 -16.3358c-5.8679504 -2.2555695 -8.796387 -8.840988 -6.540802 -14.708954z" fill-rule="evenodd"/><path stroke="#000000" stroke-width="1.0" stroke-linejoin="round" stroke-linecap="butt" d="m281.63962 144.63634l0 0c2.2555847 -5.8679657 8.841003 -8.796387 14.708954 -6.5408173l42.49826 16.3358l0 0c2.8179016 1.0831604 5.0901184 3.2413635 6.316742 5.999832c1.226654 2.7584534 1.307251 5.89122 0.22409058 8.709122l-16.335815 42.49826c-2.2555542 5.8679657 -8.840973 8.796387 -14.708954 6.5408173l-42.49826 -16.3358c-5.8679504 -2.2555695 -8.796387 -8.840988 -6.540802 -14.708954z" fill-rule="evenodd"/><path fill="#000000" d="m299.7657 172.54216q0.5157776 -1.3417816 1.5454407 -2.0173187q1.0296936 -0.67552185 2.3131409 -0.18218994q1.1667786 0.4485016 1.6145935 1.5915222q0.4534607 1.1284637 -0.16882324 2.7473602q-0.60546875 1.5751343 -1.7238159 2.1328888q-1.1037292 0.56336975 -2.241333 0.12609863q-1.1230164 -0.43167114 -1.5562744 -1.569107q-0.43325806 -1.1374359 0.21707153 -2.8292542zm3.4986877 -1.1325989q-0.5687866 -0.21862793 -1.1386108 0.13148499q-0.5697937 0.35011292 -1.0743408 1.662735q-0.4597168 1.1959381 -0.27111816 1.8375702q0.19418335 0.62705994 0.7630005 0.8457031q0.583374 0.22424316 1.1329956 -0.11689758q0.5697937 -0.35011292 1.0743713 -1.662735q0.4653015 -1.2105255 0.27111816 -1.8375854q-0.18859863 -0.6416321 -0.7574158 -0.86027527zm-4.641876 12.07608l11.871124 -10.502487l1.2397156 0.47651672l-11.84198 10.513718l-1.2688599 -0.4877472zm6.69693 -1.3093567q0.5157776 -1.3417816 1.539856 -2.0027313q1.0296936 -0.6755371 2.3131409 -0.18218994q1.1813354 0.4540863 1.6145935 1.5915222q0.45343018 1.1284485 -0.16885376 2.747345q-0.60546875 1.5751343 -1.709198 2.138504q-1.0981445 0.54878235 -2.2503357 0.105895996q-1.1376038 -0.43727112 -1.5708618 -1.574707q-0.41864014 -1.1318207 0.23165894 -2.823639zm3.493103 -1.1180115q-0.58340454 -0.22424316 -1.1531982 0.12586975q-0.5552368 0.35572815 -1.0597839 1.668335q-0.45968628 1.1959534 -0.27111816 1.8375854q0.19421387 0.6270447 0.7630005 0.84568787q0.58340454 0.22424316 1.147583 -0.11128235q0.5698242 -0.35011292 1.0743713 -1.662735q0.4653015 -1.2105255 0.25653076 -1.8431854q-0.18859863 -0.6416321 -0.75738525 -0.86027527z" fill-rule="nonzero"/><path fill="#cfe2f3" d="m253.60017 217.60785l0 0c2.2555695 -5.8679504 8.840988 -8.796371 14.708939 -6.540802l42.49829 16.335785l0 0c2.817871 1.0831604 5.090088 3.2413635 6.3167114 5.999832c1.226654 2.7584686 1.307251 5.8912354 0.22409058 8.709122l-16.335785 42.49826c-2.2555847 5.867981 -8.841003 8.796387 -14.708954 6.5408325l-42.498276 -16.335815c-5.8679657 -2.2555542 -8.796387 -8.840973 -6.5408173 -14.708954z" fill-rule="evenodd"/><path stroke="#000000" stroke-width="1.0" stroke-linejoin="round" stroke-linecap="butt" d="m253.60017 217.60785l0 0c2.2555695 -5.8679504 8.840988 -8.796371 14.708939 -6.540802l42.49829 16.335785l0 0c2.817871 1.0831604 5.090088 3.2413635 6.3167114 5.999832c1.226654 2.7584686 1.307251 5.8912354 0.22409058 8.709122l-16.335785 42.49826c-2.2555847 5.867981 -8.841003 8.796387 -14.708954 6.5408325l-42.498276 -16.335815c-5.8679657 -2.2555542 -8.796387 -8.840973 -6.5408173 -14.708954z" fill-rule="evenodd"/><path fill="#000000" d="m276.391 256.58047q-0.8008728 0.42871094 -1.6377258 0.5589905q-0.8312378 0.115722656 -1.5167236 -0.14776611q-0.75839233 -0.29153442 -1.3048401 -1.0037689q-0.54086304 -0.7268219 -0.639801 -1.8194427q-0.084350586 -1.0870209 0.3360901 -2.1808624q0.5213928 -1.356369 1.728241 -2.4492493q1.2214355 -1.0872803 2.5002441 -1.3657379q1.2989807 -0.28744507 2.2615662 0.08256531q0.74383545 0.28590393 1.2633667 0.9375763q0.52511597 0.63708496 0.7036743 1.6096497l0.79626465 -1.2004852l1.5313721 0.5886383l-3.4171143 5.231674q-0.722229 1.095047 -0.7670593 1.2117157q-0.08972168 0.2333374 0.018035889 0.47564697q0.113342285 0.22769165 0.3612671 0.32299805q0.45214844 0.1737976 1.3831787 -0.07095337q1.2350769 -0.29525757 2.2265625 -1.2198486q1.0116882 -0.9335327 1.4769897 -2.1440582q0.54940796 -1.4292908 0.29110718 -2.934723q-0.25271606 -1.519989 -1.4162903 -2.8042297q-1.1433716 -1.2932281 -2.8935547 -1.9659576q-1.98349 -0.7624359 -3.9903564 -0.4625244q-2.0012512 0.28533936 -3.578247 1.687912q-1.5713806 1.3880005 -2.3338013 3.3715057q-0.8016968 2.0856018 -0.47485352 3.9354095q0.32681274 1.8498077 1.7585144 3.2203522q1.4406738 1.3907776 3.5262756 2.1924438q2.2314453 0.85775757 4.025177 0.67678833q1.788147 -0.16638184 2.9411926 -0.9451599l1.54599 0.5942383q-0.7795105 0.7214966 -2.1828003 1.2366943q-1.408905 0.52975464 -3.0747986 0.50878906q-1.665863 -0.020996094 -3.7077332 -0.80584717q-1.8959961 -0.7288208 -3.3007202 -1.821167q-1.4047241 -1.0923767 -2.1521301 -2.5012207q-0.747406 -1.408844 -0.8284607 -2.896347q-0.09799194 -1.8790131 0.6140137 -3.7312622q0.80166626 -2.0856018 2.370758 -3.641861q1.9212952 -1.9063263 4.29718 -2.3824463q2.3815308 -0.4907074 5.094269 0.5520325q2.1147766 0.8128967 3.4612427 2.3181q1.3464661 1.505188 1.6677246 3.587204q0.2505188 1.7870026 -0.41101074 3.5079803q-0.94744873 2.464798 -3.4230347 3.7228546q-2.2018738 1.1121521 -4.039551 0.40576172q-0.583374 -0.22424316 -0.8807373 -0.5393982q-0.28274536 -0.3095703 -0.3288269 -0.7122803q-0.03817749 -0.24905396 0.11987305 -0.7909241zm-3.2270813 -3.8852997q-0.44848633 1.1667786 -0.1555481 2.0159302q0.30755615 0.8547516 1.0222168 1.1294556q0.48129272 0.18501282 1.112854 0.10972595q0.637146 -0.08987427 1.3314819 -0.4590912q0.6999512 -0.38380432 1.3369751 -1.1265564q0.63705444 -0.74276733 0.96780396 -1.6032715q0.44848633 -1.1667633 0.12075806 -2.0125427q-0.32214355 -0.8603668 -1.1534424 -1.1799164q-0.53964233 -0.20742798 -1.1274414 -0.11532593q-0.5878296 0.09210205 -1.2754211 0.53086853q-0.68756104 0.43876648 -1.3010559 1.2073364q-0.59887695 0.77415466 -0.8791809 1.5033875z" fill-rule="nonzero"/><path fill="#cfe2f3" d="m76.49765 15.367519l0 0c2.2555695 -5.867961 8.840996 -8.796383 14.7089615 -6.5408125l42.498253 16.335793l0 0c2.8179016 1.0831642 5.090103 3.2413673 6.316742 5.999832c1.2266388 2.758463 1.3072357 5.8912296 0.22407532 8.709124l-16.335793 42.498264c-2.2555695 5.867958 -8.840996 8.796379 -14.708954 6.5408096l-42.49826 -16.335793c-5.8679657 -2.2555695 -8.796387 -8.840992 -6.5408173 -14.708954z" fill-rule="evenodd"/><path stroke="#000000" stroke-width="1.0" stroke-linejoin="round" stroke-linecap="butt" d="m76.49765 15.367519l0 0c2.2555695 -5.867961 8.840996 -8.796383 14.7089615 -6.5408125l42.498253 16.335793l0 0c2.8179016 1.0831642 5.090103 3.2413673 6.316742 5.999832c1.2266388 2.758463 1.3072357 5.8912296 0.22407532 8.709124l-16.335793 42.498264c-2.2555695 5.867958 -8.840996 8.796379 -14.708954 6.5408096l-42.49826 -16.335793c-5.8679657 -2.2555695 -8.796387 -8.840992 -6.5408173 -14.708954z" fill-rule="evenodd"/><path fill="#cfe2f3" d="m48.4582 88.339035l0 0c2.2555695 -5.867958 8.840992 -8.796379 14.708954 -6.5408096l42.49826 16.335793l0 0c2.817894 1.083168 5.0900955 3.2413712 6.3167343 5.999832c1.2266388 2.7584686 1.3072433 5.8912277 0.22408295 8.709122l-16.335793 42.49826c-2.255577 5.8679657 -8.840996 8.796387 -14.7089615 6.5408173l-42.49826 -16.3358c-5.867962 -2.2555695 -8.796383 -8.840988 -6.5408134 -14.708954z" fill-rule="evenodd"/><path stroke="#000000" stroke-width="1.0" stroke-linejoin="round" stroke-linecap="butt" d="m48.4582 88.339035l0 0c2.2555695 -5.867958 8.840992 -8.796379 14.708954 -6.5408096l42.49826 16.335793l0 0c2.817894 1.083168 5.0900955 3.2413712 6.3167343 5.999832c1.2266388 2.7584686 1.3072433 5.8912277 0.22408295 8.709122l-16.335793 42.49826c-2.255577 5.8679657 -8.840996 8.796387 -14.7089615 6.5408173l-42.49826 -16.3358c-5.867962 -2.2555695 -8.796383 -8.840988 -6.5408134 -14.708954z" fill-rule="evenodd"/><path fill="#cfe2f3" d="m20.418741 161.31056l0 0c2.2555695 -5.8679657 8.840994 -8.796387 14.708956 -6.5408173l42.498264 16.3358l0 0c2.817894 1.0831604 5.090088 3.2413635 6.3167267 5.999817c1.2266464 2.7584686 1.307251 5.8912354 0.22408295 8.709137l-16.335793 42.49826c-2.2555695 5.8679657 -8.840996 8.796387 -14.708958 6.5408173l-42.49826 -16.3358c-5.867961 -2.2555695 -8.796383 -8.840988 -6.540813 -14.708954z" fill-rule="evenodd"/><path stroke="#000000" stroke-width="1.0" stroke-linejoin="round" stroke-linecap="butt" d="m20.418741 161.31056l0 0c2.2555695 -5.8679657 8.840994 -8.796387 14.708956 -6.5408173l42.498264 16.3358l0 0c2.817894 1.0831604 5.090088 3.2413635 6.3167267 5.999817c1.2266464 2.7584686 1.307251 5.8912354 0.22408295 8.709137l-16.335793 42.49826c-2.2555695 5.8679657 -8.840996 8.796387 -14.708958 6.5408173l-42.49826 -16.3358c-5.867961 -2.2555695 -8.796383 -8.840988 -6.540813 -14.708954z" fill-rule="evenodd"/><path fill="#cfe2f3" d="m150.50798 43.80614l0 0c2.2555695 -5.867962 8.840988 -8.796383 14.708954 -6.5408134l42.49826 16.335796l0 0c2.8179016 1.0831604 5.090103 3.2413635 6.316742 5.9998283c1.2266388 2.7584648 1.3072357 5.8912277 0.22407532 8.709122l-16.3358 42.49827c-2.2555695 5.867958 -8.840988 8.796379 -14.708954 6.5408096l-42.49826 -16.335793c-5.8679657 -2.2555695 -8.796387 -8.840996 -6.5408173 -14.708954z" fill-rule="evenodd"/><path stroke="#000000" stroke-width="1.0" stroke-linejoin="round" stroke-linecap="butt" d="m150.50798 43.80614l0 0c2.2555695 -5.867962 8.840988 -8.796383 14.708954 -6.5408134l42.49826 16.335796l0 0c2.8179016 1.0831604 5.090103 3.2413635 6.316742 5.9998283c1.2266388 2.7584648 1.3072357 5.8912277 0.22407532 8.709122l-16.3358 42.49827c-2.2555695 5.867958 -8.840988 8.796379 -14.708954 6.5408096l-42.49826 -16.335793c-5.8679657 -2.2555695 -8.796387 -8.840996 -6.5408173 -14.708954z" fill-rule="evenodd"/><path fill="#000000" d="m171.30592 77.62697q0.661911 0.23769379 1.199234 0.05921936q0.55189514 -0.17286682 0.9073944 -0.7058029q0.35551453 -0.53292847 0.89930725 -1.9476395q0.56399536 -1.4236832 0.7815399 -1.8589935q0.36219788 -0.6810074 0.73457336 -1.040062q0.3723755 -0.35905457 0.7739563 -0.48926544q0.4071808 -0.14479065 0.9389343 -0.091049194q0.3544922 0.035827637 1.083725 0.3161316l0.48129272 0.18500519l-0.51016235 1.3272018l-0.2625122 -0.10090637q-0.8896637 -0.34197998 -1.3047028 -0.13323975q-0.4150238 0.20874023 -0.841095 1.3171692q-0.8577423 2.231453 -1.1694946 2.7812042q-0.49342346 0.8481827 -1.0632324 1.1983032q-0.55522156 0.35572052 -1.4885559 0.43218994q0.7820587 0.75257874 0.8820801 1.7117081q0.11462402 0.9647293 -0.5861511 2.7878113q-0.6390991 1.6626511 -0.71868896 2.000328q-0.16029358 0.5912247 0.027114868 0.93109894q0.18740845 0.33986664 1.0041504 0.6538162l0.26252747 0.10090637l-0.51016235 1.3272018l-0.48129272 -0.18499756q-0.83132935 -0.31954956 -1.1600647 -0.5965729q-0.4667511 -0.39702606 -0.6575775 -0.9893036q-0.18185425 -0.57209015 -0.040649414 -1.2878342q0.15579224 -0.7101364 0.7298584 -2.2471313q0.5886383 -1.5313873 0.68162537 -2.1652222q0.09298706 -0.63384247 -0.20103455 -1.1318665q-0.27381897 -0.5070038 -0.9245148 -0.77386475l0.5325775 -1.3855438z" fill-rule="nonzero"/><path fill="#cfe2f3" d="m122.46853 116.77766l0 0c2.2555695 -5.867958 8.840996 -8.796379 14.708946 -6.5408096l42.498276 16.335793l0 0c2.8178864 1.0831604 5.090088 3.2413712 6.3167267 5.99984c1.2266388 2.7584534 1.3072357 5.89122 0.22407532 8.709122l-16.335785 42.49826c-2.2555695 5.8679657 -8.841003 8.796387 -14.708954 6.5408173l-42.49827 -16.3358c-5.8679657 -2.2555695 -8.796387 -8.840988 -6.5408173 -14.708954z" fill-rule="evenodd"/><path stroke="#000000" stroke-width="1.0" stroke-linejoin="round" stroke-linecap="butt" d="m122.46853 116.77766l0 0c2.2555695 -5.867958 8.840996 -8.796379 14.708946 -6.5408096l42.498276 16.335793l0 0c2.8178864 1.0831604 5.090088 3.2413712 6.3167267 5.99984c1.2266388 2.7584534 1.3072357 5.89122 0.22407532 8.709122l-16.335785 42.49826c-2.2555695 5.8679657 -8.841003 8.796387 -14.708954 6.5408173l-42.49827 -16.3358c-5.8679657 -2.2555695 -8.796387 -8.840988 -6.5408173 -14.708954z" fill-rule="evenodd"/><path fill="#000000" d="m145.65092 149.12128l0.6671295 -1.7355652l1.7355652 0.6671295l-0.6671295 1.7355652l-1.7355652 -0.6671295zm-2.8030853 7.292328l0.67274475 -1.7501678l1.7355652 0.6671448l-0.6727295 1.7501526l-1.7355804 -0.6671295z" fill-rule="nonzero"/><path fill="#cfe2f3" d="m94.42907 189.74918l0 0c2.2555695 -5.8679657 8.840996 -8.796387 14.708954 -6.5408173l42.49827 16.3358l0 0c2.8178864 1.0831604 5.090088 3.2413635 6.3167267 5.999832c1.2266388 2.7584686 1.307251 5.8912354 0.22409058 8.709122l-16.3358 42.49826c-2.2555695 5.867981 -8.840988 8.796387 -14.708954 6.5408325l-42.49827 -16.335815c-5.867958 -2.2555695 -8.796379 -8.840988 -6.5408096 -14.708954z" fill-rule="evenodd"/><path stroke="#000000" stroke-width="1.0" stroke-linejoin="round" stroke-linecap="butt" d="m94.42907 189.74918l0 0c2.2555695 -5.8679657 8.840996 -8.796387 14.708954 -6.5408173l42.49827 16.3358l0 0c2.8178864 1.0831604 5.090088 3.2413635 6.3167267 5.999832c1.2266388 2.7584686 1.307251 5.8912354 0.22409058 8.709122l-16.3358 42.49826c-2.2555695 5.867981 -8.840988 8.796387 -14.708954 6.5408325l-42.49827 -16.335815c-5.867958 -2.2555695 -8.796379 -8.840988 -6.5408096 -14.708954z" fill-rule="evenodd"/><path fill="#000000" d="m113.133385 223.3009l0.6671295 -1.7355652q1.2966766 -0.67333984 2.7551422 -0.11273193q0.5104675 0.19621277 1.0086212 0.5550995q0.51273346 0.3644867 1.3744583 1.2146454q0.49368286 0.45759583 0.7517395 0.65722656q0.26366425 0.18504333 0.56993866 0.30278015q0.5542145 0.21302795 1.2665482 0.10183716q0.7269058 -0.10560608 1.3696442 -0.4276886l-0.69516754 1.8085022q-0.7358475 0.3030243 -1.3943405 0.31774902q-0.6383133 0.005722046 -1.3237915 -0.25776672q-0.5104599 -0.19621277 -0.93231964 -0.49227905q-0.42185974 -0.29608154 -1.2544098 -1.135025q-0.83255005 -0.8389435 -1.5034409 -1.0968323q-0.5396347 -0.20742798 -1.1106262 -0.15907288q-0.5709915 0.048355103 -1.5491257 0.4591217z" fill-rule="nonzero"/><path fill="#cfe2f3" d="m255.18892 313.26212l0 0c2.2555695 -5.8679504 8.840988 -8.796387 14.708969 -6.540802l42.49826 16.335785l0 0c2.8179016 1.0831604 5.090088 3.2413635 6.3167114 5.999817c1.226654 2.758484 1.307251 5.8912354 0.22409058 8.709137l-16.335785 42.49826c-2.2555847 5.8679504 -8.841003 8.796387 -14.708954 6.540802l-42.498276 -16.335785c-5.8679504 -2.2555542 -8.796371 -8.841003 -6.540802 -14.708954z" fill-rule="evenodd"/><path stroke="#000000" stroke-width="1.0" stroke-linejoin="round" stroke-linecap="butt" d="m255.18892 313.26212l0 0c2.2555695 -5.8679504 8.840988 -8.796387 14.708969 -6.540802l42.49826 16.335785l0 0c2.8179016 1.0831604 5.090088 3.2413635 6.3167114 5.999817c1.226654 2.758484 1.307251 5.8912354 0.22409058 8.709137l-16.335785 42.49826c-2.2555847 5.8679504 -8.841003 8.796387 -14.708954 6.540802l-42.498276 -16.335785c-5.8679504 -2.2555542 -8.796371 -8.841003 -6.540802 -14.708954z" fill-rule="evenodd"/><path fill="#000000" d="m276.17465 357.3328q-0.6578064 -2.0774841 -0.70877075 -4.55777q-0.050964355 -2.4803162 0.83480835 -4.7846985q0.7736511 -2.0126648 2.1419373 -3.6126404q1.6026917 -1.8614197 4.0109253 -3.3796997l1.0938416 0.4204712q-1.6992798 1.3723145 -2.326233 2.00177q-0.95895386 0.97055054 -1.7585754 2.136261q-0.9756775 1.449585 -1.5923767 3.053894q-1.5697021 4.0837097 -0.6017151 9.142853l-1.0938416 -0.42044067z" fill-rule="nonzero"/><path fill="#cfe2f3" d="m340.597 355.90213l0 0c3.470337 -5.2417297 10.532867 -6.6777344 15.774597 -3.2073975l37.96289 25.133606l0 0c2.5171509 1.6665039 4.269226 4.2647095 4.8707275 7.2230225c0.60150146 2.958313 0.0032043457 6.0343933 -1.6633301 8.551575l-25.133606 37.96286c-3.470337 5.2417297 -10.532837 6.677765 -15.774597 3.207428l-37.96286 -25.133606c-5.2417297 -3.470337 -6.6777344 -10.532867 -3.207428 -15.774597z" fill-rule="evenodd"/><path stroke="#000000" stroke-width="1.0" stroke-linejoin="round" stroke-linecap="butt" d="m340.597 355.90213l0 0c3.470337 -5.2417297 10.532867 -6.6777344 15.774597 -3.2073975l37.96289 25.133606l0 0c2.5171509 1.6665039 4.269226 4.2647095 4.8707275 7.2230225c0.60150146 2.958313 0.0032043457 6.0343933 -1.6633301 8.551575l-25.133606 37.96286c-3.470337 5.2417297 -10.532837 6.677765 -15.774597 3.207428l-37.96286 -25.133606c-5.2417297 -3.470337 -6.6777344 -10.532867 -3.207428 -15.774597z" fill-rule="evenodd"/><path fill="#000000" d="m349.8556 402.3359l-0.9901428 -0.6555481q4.6951294 -2.1384888 7.1102905 -5.786438q0.948822 -1.433136 1.546051 -3.0428162q0.49847412 -1.3190002 0.7194824 -2.671814q0.15750122 -0.8888855 0.28482056 -3.0907593l0.9901428 0.6555481q0.1607666 2.8423157 -0.42529297 5.2276917q-0.5222168 2.0341187 -1.7125244 3.8320618q-1.362854 2.0585022 -3.412506 3.4561462q-2.0496826 1.397644 -4.110321 2.0759277z" fill-rule="nonzero"/><path fill="#cfe2f3" d="m433.90088 408.73074l0 0c5.3084106 -3.3659668 12.340393 -1.7912903 15.706329 3.5171204l24.377716 38.4458l0 0c1.616394 2.5491943 2.1539307 5.6361084 1.4943237 8.581604c-0.6595764 2.9455261 -2.4622498 5.508362 -5.011444 7.124756l-38.4458 24.377716c-5.308441 3.3659668 -12.340393 1.7912903 -15.70636 -3.5171204l-24.377716 -38.44583c-3.3659668 -5.3084106 -1.7912903 -12.340393 3.5171204 -15.706329z" fill-rule="evenodd"/><path stroke="#000000" stroke-width="1.0" stroke-linejoin="round" stroke-linecap="butt" d="m433.90088 408.73074l0 0c5.3084106 -3.3659668 12.340393 -1.7912903 15.706329 3.5171204l24.377716 38.4458l0 0c1.616394 2.5491943 2.1539307 5.6361084 1.4943237 8.581604c-0.6595764 2.9455261 -2.4622498 5.508362 -5.011444 7.124756l-38.4458 24.377716c-5.308441 3.3659668 -12.340393 1.7912903 -15.70636 -3.5171204l-24.377716 -38.44583c-3.3659668 -5.3084106 -1.7912903 -12.340393 3.5171204 -15.706329z" fill-rule="evenodd"/><path fill="#000000" d="m421.06113 450.8241l1.0028687 -0.6359253l5.815216 9.171112l-1.0028687 0.6359253l-5.815216 -9.171112z" fill-rule="nonzero"/><path fill="#cfe2f3" d="m682.5189 106.4395l0 0c-2.2787476 -5.859268 -8.875977 -8.761833 -14.7352295 -6.4830704l-42.43524 16.503769l0 0c-2.8137207 1.0942993 -5.0775146 3.261528 -6.293335 6.0249176c-1.2157593 2.763382 -1.2840576 5.8965683 -0.1897583 8.710289l16.503784 42.435272c2.2787476 5.859253 8.875916 8.761826 14.735168 6.4830627l42.435303 -16.503769c5.859253 -2.2787628 8.761841 -8.875946 6.4830933 -14.735199z" fill-rule="evenodd"/><path stroke="#000000" stroke-width="1.0" stroke-linejoin="round" stroke-linecap="butt" d="m682.5189 106.4395l0 0c-2.2787476 -5.859268 -8.875977 -8.761833 -14.7352295 -6.4830704l-42.43524 16.503769l0 0c-2.8137207 1.0942993 -5.0775146 3.261528 -6.293335 6.0249176c-1.2157593 2.763382 -1.2840576 5.8965683 -0.1897583 8.710289l16.503784 42.435272c2.2787476 5.859253 8.875916 8.761826 14.735168 6.4830627l42.435303 -16.503769c5.859253 -2.2787628 8.761841 -8.875946 6.4830933 -14.735199z" fill-rule="evenodd"/><path fill="#cfe2f3" d="m710.85876 179.29486l0 0c-2.2787476 -5.859253 -8.875916 -8.761826 -14.735168 -6.4830627l-42.435303 16.503769l0 0c-2.8137207 1.0942993 -5.0774536 3.2615204 -6.293274 6.0249176c-1.2158203 2.763382 -1.2840576 5.8965607 -0.1897583 8.710281l16.503784 42.435272c2.2787476 5.859268 8.875916 8.761841 14.735168 6.483078l42.435303 -16.503784c5.859253 -2.2787628 8.76178 -8.875931 6.483032 -14.735199z" fill-rule="evenodd"/><path stroke="#000000" stroke-width="1.0" stroke-linejoin="round" stroke-linecap="butt" d="m710.85876 179.29486l0 0c-2.2787476 -5.859253 -8.875916 -8.761826 -14.735168 -6.4830627l-42.435303 16.503769l0 0c-2.8137207 1.0942993 -5.0774536 3.2615204 -6.293274 6.0249176c-1.2158203 2.763382 -1.2840576 5.8965607 -0.1897583 8.710281l16.503784 42.435272c2.2787476 5.859268 8.875916 8.761841 14.735168 6.483078l42.435303 -16.503784c5.859253 -2.2787628 8.76178 -8.875931 6.483032 -14.735199z" fill-rule="evenodd"/><path fill="#000000" d="m677.8444 229.74503l0.85998535 -0.41828918q0.262146 0.5016022 0.6310425 0.7604828q0.36328125 0.24430847 0.928772 0.2758484q0.5598755 0.016983032 1.1715088 -0.22088623q0.5387573 -0.20954895 0.8842163 -0.5283203q0.34545898 -0.31877136 0.44171143 -0.67474365q0.09631348 -0.3559723 -0.033996582 -0.69091797q-0.13024902 -0.33493042 -0.43041992 -0.50320435q-0.2855835 -0.17393494 -0.784729 -0.16421509q-0.33654785 -0.0032196045 -1.4028931 0.14323425q-1.0662842 0.14646912 -1.5444336 0.080947876q-0.6116333 -0.06390381 -1.0266724 -0.35514832q-0.40045166 -0.29690552 -0.5930176 -0.7920227q-0.20953369 -0.53881836 -0.08496094 -1.1237488q0.124572754 -0.5849304 0.6107788 -1.0590363q0.50079346 -0.47976685 1.2143555 -0.75727844q0.78637695 -0.3058319 1.4853516 -0.27592468q0.70788574 0.00970459 1.2208252 0.3802185q0.52752686 0.36486816 0.8001709 0.97972107l-0.87457275 0.4239502q-0.333313 -0.6415558 -0.8915405 -0.82681274q-0.55822754 -0.1852417 -1.3737183 0.13191223q-0.8591919 0.33415222 -1.1278076 0.8074341q-0.2597046 0.45306396 -0.084106445 0.9045105q0.14727783 0.37861633 0.52020264 0.51856995q0.35839844 0.14561462 1.6107788 -0.03967285q1.2523804 -0.18530273 1.748352 -0.16023254q0.7394409 0.047714233 1.2006226 0.37130737q0.4611206 0.3236084 0.68200684 0.8915405q0.22088623 0.5679321 0.09875488 1.2022247q-0.12780762 0.61972046 -0.63183594 1.1342773q-0.5040283 0.5145569 -1.2612915 0.8090668q-0.975647 0.37945557 -1.7385864 0.35762024q-0.74835205 -0.02748108 -1.3478394 -0.4481659q-0.58496094 -0.42634583 -0.87701416 -1.1342468zm7.862976 -0.42591858l-2.763855 -7.1064606l0.93200684 -0.36247253l1.1326904 2.9124908l3.6988525 -1.4385529l-1.1326904 -2.9124756l0.9465332 -0.36813354l2.763855 7.1064606l-0.94659424 0.36813354l-1.3026123 -3.3493652l-3.6988525 1.4385529l1.3026123 3.3493652l-0.9319458 0.36245728zm7.3032837 -2.8403778l-2.763794 -7.106476l0.93200684 -0.36245728l2.763794 7.1064606l-0.93200684 0.36247253zm2.6428223 -1.027832l-2.763794 -7.106476l4.7910156 -1.8633118l0.32281494 0.83006287l-3.8444824 1.4951782l0.8609009 2.213501l3.3347778 -1.2969666l0.32281494 0.83006287l-3.3347778 1.2969513l1.2573242 3.2328644l-0.94659424 0.36813354zm7.8286743 -3.044693l-2.440979 -6.276413l-2.3446045 0.9118347l-0.32281494 -0.83006287l5.635681 -2.191803l0.32281494 0.83006287l-2.3591309 0.9174957l2.44104 6.276413l-0.93200684 0.36247253z" fill-rule="nonzero"/><path fill="#cfe2f3" d="m739.19867 252.15024l0 0c-2.2787476 -5.859268 -8.875916 -8.761841 -14.7352295 -6.483078l-42.43524 16.503769l0 0c-2.8137207 1.0942993 -5.0775146 3.2615356 -6.293274 6.024933c-1.2158203 2.7633667 -1.2841187 5.8965454 -0.18981934 8.710266l16.503784 42.435272c2.2787476 5.8592834 8.875977 8.761841 14.7352295 6.4830933l42.43524 -16.503784c5.859253 -2.278778 8.761841 -8.875946 6.4830933 -14.735199z" fill-rule="evenodd"/><path stroke="#000000" stroke-width="1.0" stroke-linejoin="round" stroke-linecap="butt" d="m739.19867 252.15024l0 0c-2.2787476 -5.859268 -8.875916 -8.761841 -14.7352295 -6.483078l-42.43524 16.503769l0 0c-2.8137207 1.0942993 -5.0775146 3.2615356 -6.293274 6.024933c-1.2158203 2.7633667 -1.2841187 5.8965454 -0.18981934 8.710266l16.503784 42.435272c2.2787476 5.8592834 8.875977 8.761841 14.7352295 6.4830933l42.43524 -16.503784c5.859253 -2.278778 8.761841 -8.875946 6.4830933 -14.735199z" fill-rule="evenodd"/><path fill="#cfe2f3" d="m612.0476 143.978l0 0c-2.2787476 -5.859253 -8.875916 -8.761826 -14.7352295 -6.4830627l-42.43524 16.503769l0 0c-2.8137207 1.0942993 -5.0775146 3.2615356 -6.293274 6.0249176c-1.2158203 2.763382 -1.2841187 5.896576 -0.18981934 8.710297l16.503784 42.435257c2.2787476 5.859268 8.875916 8.761841 14.7352295 6.483078l42.43524 -16.503769c5.859253 -2.2787628 8.761841 -8.875946 6.4830933 -14.735214z" fill-rule="evenodd"/><path stroke="#000000" stroke-width="1.0" stroke-linejoin="round" stroke-linecap="butt" d="m612.0476 143.978l0 0c-2.2787476 -5.859253 -8.875916 -8.761826 -14.7352295 -6.4830627l-42.43524 16.503769l0 0c-2.8137207 1.0942993 -5.0775146 3.2615356 -6.293274 6.0249176c-1.2158203 2.763382 -1.2841187 5.896576 -0.18981934 8.710297l16.503784 42.435257c2.2787476 5.859268 8.875916 8.761841 14.7352295 6.483078l42.43524 -16.503769c5.859253 -2.2787628 8.761841 -8.875946 6.4830933 -14.735214z" fill-rule="evenodd"/><path fill="#cfe2f3" d="m640.3875 216.83337l0 0c-2.2788086 -5.859268 -8.875977 -8.761841 -14.7352295 -6.4830627l-42.43524 16.503769l0 0c-2.8137207 1.0942993 -5.0775146 3.2615204 -6.293335 6.0249023c-1.2158203 2.7633972 -1.2840576 5.896576 -0.1897583 8.710297l16.503784 42.435257c2.2787476 5.8592834 8.875916 8.761841 14.735168 6.4830933l42.435303 -16.503784c5.859253 -2.2787476 8.761841 -8.875946 6.483032 -14.735199z" fill-rule="evenodd"/><path stroke="#000000" stroke-width="1.0" stroke-linejoin="round" stroke-linecap="butt" d="m640.3875 216.83337l0 0c-2.2788086 -5.859268 -8.875977 -8.761841 -14.7352295 -6.4830627l-42.43524 16.503769l0 0c-2.8137207 1.0942993 -5.0775146 3.2615204 -6.293335 6.0249023c-1.2158203 2.7633972 -1.2840576 5.896576 -0.1897583 8.710297l16.503784 42.435257c2.2787476 5.8592834 8.875916 8.761841 14.735168 6.4830933l42.435303 -16.503784c5.859253 -2.2787476 8.761841 -8.875946 6.483032 -14.735199z" fill-rule="evenodd"/><path fill="#cfe2f3" d="m668.72736 289.68875l0 0c-2.2787476 -5.8592834 -8.875916 -8.761841 -14.735168 -6.4830933l-42.435303 16.503784l0 0c-2.8137207 1.0942993 -5.0774536 3.2615356 -6.293274 6.0249023c-1.2158203 2.7633972 -1.2841187 5.896576 -0.1897583 8.710297l16.503723 42.435272c2.2788086 5.8592834 8.875977 8.761841 14.7352295 6.4830627l42.43524 -16.503754c5.859314 -2.278778 8.761841 -8.875946 6.4830933 -14.735199z" fill-rule="evenodd"/><path stroke="#000000" stroke-width="1.0" stroke-linejoin="round" stroke-linecap="butt" d="m668.72736 289.68875l0 0c-2.2787476 -5.8592834 -8.875916 -8.761841 -14.735168 -6.4830933l-42.435303 16.503784l0 0c-2.8137207 1.0942993 -5.0774536 3.2615356 -6.293274 6.0249023c-1.2158203 2.7633972 -1.2841187 5.896576 -0.1897583 8.710297l16.503723 42.435272c2.2788086 5.8592834 8.875977 8.761841 14.7352295 6.4830627l42.43524 -16.503754c5.859314 -2.278778 8.761841 -8.875946 6.4830933 -14.735199z" fill-rule="evenodd"/><path fill="#cfe2f3" d="m831.91394 53.091763l0 0c-2.2787476 -5.8592644 -8.875916 -8.761833 -14.735168 -6.4830704l-42.435303 16.503773l0 0c-2.8137207 1.0942993 -5.0774536 3.261528 -6.293274 6.02491c-1.2158203 2.7633896 -1.2841187 5.896576 -0.18981934 8.710289l16.503784 42.435272c2.2788086 5.859268 8.875977 8.761833 14.7352295 6.4830704l42.43524 -16.503769c5.859253 -2.2787628 8.761841 -8.875938 6.4830933 -14.735207z" fill-rule="evenodd"/><path stroke="#000000" stroke-width="1.0" stroke-linejoin="round" stroke-linecap="butt" d="m831.91394 53.091763l0 0c-2.2787476 -5.8592644 -8.875916 -8.761833 -14.735168 -6.4830704l-42.435303 16.503773l0 0c-2.8137207 1.0942993 -5.0774536 3.261528 -6.293274 6.02491c-1.2158203 2.7633896 -1.2841187 5.896576 -0.18981934 8.710289l16.503784 42.435272c2.2788086 5.859268 8.875977 8.761833 14.7352295 6.4830704l42.43524 -16.503769c5.859253 -2.2787628 8.761841 -8.875938 6.4830933 -14.735207z" fill-rule="evenodd"/><path fill="#cfe2f3" d="m860.25385 125.94713l0 0c-2.2788086 -5.8592606 -8.875977 -8.761833 -14.7352295 -6.4830627l-42.43524 16.503769l0 0c-2.8137207 1.0942993 -5.0775146 3.2615204 -6.293335 6.0249176c-1.2158203 2.763382 -1.2840576 5.8965607 -0.1897583 8.710281l16.503784 42.435272c2.2787476 5.859268 8.875916 8.761841 14.735168 6.483078l42.435303 -16.503784c5.859253 -2.2787628 8.761841 -8.875931 6.4830933 -14.735199z" fill-rule="evenodd"/><path stroke="#000000" stroke-width="1.0" stroke-linejoin="round" stroke-linecap="butt" d="m860.25385 125.94713l0 0c-2.2788086 -5.8592606 -8.875977 -8.761833 -14.7352295 -6.4830627l-42.43524 16.503769l0 0c-2.8137207 1.0942993 -5.0775146 3.2615204 -6.293335 6.0249176c-1.2158203 2.763382 -1.2840576 5.8965607 -0.1897583 8.710281l16.503784 42.435272c2.2787476 5.859268 8.875916 8.761841 14.735168 6.483078l42.435303 -16.503784c5.859253 -2.2787628 8.761841 -8.875931 6.4830933 -14.735199z" fill-rule="evenodd"/><path fill="#000000" d="m833.2689 176.68446l-0.040649414 -8.165558l1.0193481 -0.39645386l5.6763306 5.973755l-1.0776367 0.41911316l-1.6682739 -1.832428l-2.9707031 1.1553802l0.066345215 2.4553986l-1.0047607 0.39079285zm0.92059326 -3.7110596l2.402771 -0.93447876l-1.5129395 -1.6916504q-0.6804199 -0.7580414 -1.0671387 -1.278244q0.12054443 0.7410736 0.13354492 1.5072174l0.043762207 2.3971558zm6.44635 0.84591675l-2.763794 -7.1064606l0.9465332 -0.36813354l2.4353638 6.261841l3.494934 -1.3592529l0.3284912 0.84461975l-4.4415283 1.7273865zm6.635071 -2.5804749l-2.440979 -6.276413l-2.3445435 0.9118347l-0.32287598 -0.83006287l5.635681 -2.191803l0.32281494 0.83006287l-2.3590698 0.9174957l2.440979 6.276413l-0.93200684 0.36247253z" fill-rule="nonzero"/><path fill="#cfe2f3" d="m888.5937 198.8025l0 0c-2.2787476 -5.859268 -8.875916 -8.761841 -14.735168 -6.483078l-42.435303 16.503769l0 0c-2.8137207 1.0943146 -5.0774536 3.2615356 -6.293274 6.0249176c-1.2158203 2.763382 -1.2840576 5.896576 -0.1897583 8.710297l16.503723 42.435272c2.2788086 5.859253 8.875977 8.761841 14.7352295 6.4830627l42.435303 -16.503769c5.859253 -2.2787628 8.76178 -8.875946 6.483032 -14.735199z" fill-rule="evenodd"/><path stroke="#000000" stroke-width="1.0" stroke-linejoin="round" stroke-linecap="butt" d="m888.5937 198.8025l0 0c-2.2787476 -5.859268 -8.875916 -8.761841 -14.735168 -6.483078l-42.435303 16.503769l0 0c-2.8137207 1.0943146 -5.0774536 3.2615356 -6.293274 6.0249176c-1.2158203 2.763382 -1.2840576 5.896576 -0.1897583 8.710297l16.503723 42.435272c2.2788086 5.859253 8.875977 8.761841 14.7352295 6.4830627l42.435303 -16.503769c5.859253 -2.2787628 8.76178 -8.875946 6.483032 -14.735199z" fill-rule="evenodd"/><path fill="#cfe2f3" d="m752.5877 67.86626l0 0c-2.2787476 -5.8592606 -8.875916 -8.761829 -14.735168 -6.4830666l-42.435303 16.503773l0 0c-2.8137207 1.0942993 -5.0774536 3.261528 -6.293274 6.02491c-1.2158203 2.7633896 -1.2841187 5.896576 -0.18981934 8.710289l16.503784 42.435272c2.2787476 5.859268 8.875977 8.761841 14.7352295 6.483078l42.43524 -16.503777c5.859253 -2.2787628 8.761841 -8.875938 6.4830933 -14.735207z" fill-rule="evenodd"/><path stroke="#000000" stroke-width="1.0" stroke-linejoin="round" stroke-linecap="butt" d="m752.5877 67.86626l0 0c-2.2787476 -5.8592606 -8.875916 -8.761829 -14.735168 -6.4830666l-42.435303 16.503773l0 0c-2.8137207 1.0942993 -5.0774536 3.261528 -6.293274 6.02491c-1.2158203 2.7633896 -1.2841187 5.896576 -0.18981934 8.710289l16.503784 42.435272c2.2787476 5.859268 8.875977 8.761841 14.7352295 6.483078l42.43524 -16.503777c5.859253 -2.2787628 8.761841 -8.875938 6.4830933 -14.735207z" fill-rule="evenodd"/><path fill="#cfe2f3" d="m780.9276 140.72163l0 0c-2.2788086 -5.859268 -8.875977 -8.761841 -14.7352295 -6.483078l-42.43524 16.503769l0 0c-2.8137207 1.0943146 -5.0775146 3.2615356 -6.293335 6.0249176c-1.2158203 2.7633972 -1.2840576 5.896576 -0.1897583 8.710297l16.503784 42.435272c2.2787476 5.859253 8.875916 8.761826 14.735168 6.4830627l42.435303 -16.503769c5.859253 -2.2787628 8.761841 -8.875946 6.483032 -14.735199z" fill-rule="evenodd"/><path stroke="#000000" stroke-width="1.0" stroke-linejoin="round" stroke-linecap="butt" d="m780.9276 140.72163l0 0c-2.2788086 -5.859268 -8.875977 -8.761841 -14.7352295 -6.483078l-42.43524 16.503769l0 0c-2.8137207 1.0943146 -5.0775146 3.2615356 -6.293335 6.0249176c-1.2158203 2.7633972 -1.2840576 5.896576 -0.1897583 8.710297l16.503784 42.435272c2.2787476 5.859253 8.875916 8.761826 14.735168 6.4830627l42.435303 -16.503769c5.859253 -2.2787628 8.761841 -8.875946 6.483032 -14.735199z" fill-rule="evenodd"/><path fill="#000000" d="m756.87744 187.11543l-0.3284912 -0.84461975l3.0144653 -1.172348l1.0250854 2.6358032q-0.48376465 0.8252106 -1.1188354 1.3907471q-0.62054443 0.5598602 -1.392334 0.8600311q-1.048523 0.40777588 -2.0775757 0.3050537q-1.03479 -0.11727905 -1.8001099 -0.7919922q-0.7710571 -0.6892853 -1.178833 -1.7377777q-0.4020996 -1.0339355 -0.31640625 -2.1067047q0.085754395 -1.0727844 0.73132324 -1.8268127q0.6456299 -0.7540436 1.7086792 -1.1674805q0.77178955 -0.3001709 1.4853516 -0.27590942q0.72247314 0.0040283203 1.2475586 0.3195343q0.53393555 0.2952881 1.0007935 0.9352112l-0.7685547 0.56715393q-0.36975098 -0.47651672 -0.7216797 -0.6917114q-0.35760498 -0.22975159 -0.87701416 -0.22892761q-0.51049805 -0.01940918 -1.0493164 0.19013977q-0.6407471 0.24920654 -1.0419922 0.6399689q-0.39239502 0.3705597 -0.559021 0.8041992q-0.15209961 0.42797852 -0.16503906 0.8688965q-0.021850586 0.7629242 0.2783203 1.534729q0.37384033 0.9611206 0.9434204 1.4772797q0.5784302 0.49591064 1.3292236 0.5727539q0.7451172 0.062286377 1.4440918 -0.20956421q0.6116333 -0.23786926 1.1035156 -0.6974182q0.49188232 -0.45954895 0.6901245 -0.8551636l-0.5097656 -1.3106232l-2.0969849 0.81555176zm7.3827515 -7.8505096l0.94659424 -0.36813354l1.5971069 4.106613q0.41345215 1.0630646 0.4151001 1.8000946q-0.0040283203 0.7224579 -0.49188232 1.3648376q-0.4732666 0.63671875 -1.4926147 1.0331726q-1.0048218 0.39079285 -1.7758179 0.3050537q-0.762146 -0.10597229 -1.2936401 -0.65367126q-0.5170288 -0.55337524 -0.953125 -1.6746826l-1.5971069 -4.106598l0.93200684 -0.36247253l1.5971069 4.106613q0.35681152 0.9174347 0.70147705 1.2863464q0.34466553 0.36889648 0.84869385 0.45788574q0.5128784 0.0687561 1.1245117 -0.16911316q1.0339355 -0.40211487 1.2896118 -1.0380249q0.26452637 -0.6561279 -0.2508545 -1.981308l-1.597168 -4.106613zm5.4363403 6.067108l-2.763855 -7.106476l0.93200684 -0.36247253l2.763855 7.106476l-0.93200684 0.36247253z" fill-rule="nonzero"/><path fill="#cfe2f3" d="m809.26746 213.577l0 0c-2.2787476 -5.859268 -8.875916 -8.761826 -14.735168 -6.4830627l-42.435303 16.503769l0 0c-2.8137207 1.0942993 -5.0774536 3.2615204 -6.293274 6.0249176c-1.2158203 2.763382 -1.2840576 5.8965607 -0.1897583 8.710281l16.503723 42.435287c2.2788086 5.859253 8.875977 8.76181 14.7352295 6.4830627l42.43524 -16.503784c5.859314 -2.2787476 8.761841 -8.875946 6.4830933 -14.735199z" fill-rule="evenodd"/><path stroke="#000000" stroke-width="1.0" stroke-linejoin="round" stroke-linecap="butt" d="m809.26746 213.577l0 0c-2.2787476 -5.859268 -8.875916 -8.761826 -14.735168 -6.4830627l-42.435303 16.503769l0 0c-2.8137207 1.0942993 -5.0774536 3.2615204 -6.293274 6.0249176c-1.2158203 2.763382 -1.2840576 5.8965607 -0.1897583 8.710281l16.503723 42.435287c2.2788086 5.859253 8.875977 8.76181 14.7352295 6.4830627l42.43524 -16.503784c5.859314 -2.2787476 8.761841 -8.875946 6.4830933 -14.735199z" fill-rule="evenodd"/><path fill="#cfe2f3" d="m985.5352 10.608669l0 0c-2.2787476 -5.859264 -8.875977 -8.761833 -14.7352295 -6.483069l-42.43524 16.50377l0 0c-2.8137207 1.0943012 -5.0775146 3.261528 -6.293335 6.024914c-1.2157593 2.7633877 -1.2840576 5.896572 -0.1897583 8.710289l16.503784 42.43527c2.2787476 5.859268 8.875916 8.761833 14.735168 6.4830704l42.435303 -16.503769c5.859253 -2.2787628 8.761841 -8.875938 6.4830933 -14.735203z" fill-rule="evenodd"/><path stroke="#000000" stroke-width="1.0" stroke-linejoin="round" stroke-linecap="butt" d="m985.5352 10.608669l0 0c-2.2787476 -5.859264 -8.875977 -8.761833 -14.7352295 -6.483069l-42.43524 16.50377l0 0c-2.8137207 1.0943012 -5.0775146 3.261528 -6.293335 6.024914c-1.2157593 2.7633877 -1.2840576 5.896572 -0.1897583 8.710289l16.503784 42.43527c2.2787476 5.859268 8.875916 8.761833 14.735168 6.4830704l42.435303 -16.503769c5.859253 -2.2787628 8.761841 -8.875938 6.4830933 -14.735203z" fill-rule="evenodd"/><path fill="#cfe2f3" d="m1013.87506 83.464035l0 0c-2.2787476 -5.8592606 -8.875916 -8.761833 -14.735168 -6.4830627l-42.435303 16.503769l0 0c-2.8137207 1.0942993 -5.0774536 3.261528 -6.293274 6.02491c-1.2158203 2.7633896 -1.2840576 5.896576 -0.1897583 8.710289l16.503784 42.435272c2.2787476 5.859268 8.875916 8.761841 14.735168 6.483078l42.435303 -16.503784c5.859192 -2.2787628 8.76178 -8.875931 6.4830933 -14.735199z" fill-rule="evenodd"/><path stroke="#000000" stroke-width="1.0" stroke-linejoin="round" stroke-linecap="butt" d="m1013.87506 83.464035l0 0c-2.2787476 -5.8592606 -8.875916 -8.761833 -14.735168 -6.4830627l-42.435303 16.503769l0 0c-2.8137207 1.0942993 -5.0774536 3.261528 -6.293274 6.02491c-1.2158203 2.7633896 -1.2840576 5.896576 -0.1897583 8.710289l16.503784 42.435272c2.2787476 5.859268 8.875916 8.761841 14.735168 6.483078l42.435303 -16.503784c5.859192 -2.2787628 8.76178 -8.875931 6.4830933 -14.735199z" fill-rule="evenodd"/><path fill="#cfe2f3" d="m1042.215 156.31941l0 0c-2.2788086 -5.859268 -8.875977 -8.761841 -14.7352295 -6.483078l-42.43524 16.503769l0 0c-2.8137207 1.0943146 -5.0775146 3.2615356 -6.293274 6.0249176c-1.2158203 2.7633972 -1.2841187 5.896576 -0.18981934 8.710297l16.503784 42.435272c2.2787476 5.859253 8.875977 8.761826 14.7352295 6.4830627l42.435303 -16.503769c5.859253 -2.2787628 8.761841 -8.875946 6.483032 -14.735199z" fill-rule="evenodd"/><path stroke="#000000" stroke-width="1.0" stroke-linejoin="round" stroke-linecap="butt" d="m1042.215 156.31941l0 0c-2.2788086 -5.859268 -8.875977 -8.761841 -14.7352295 -6.483078l-42.43524 16.503769l0 0c-2.8137207 1.0943146 -5.0775146 3.2615356 -6.293274 6.0249176c-1.2158203 2.7633972 -1.2841187 5.896576 -0.18981934 8.710297l16.503784 42.435272c2.2787476 5.859253 8.875977 8.761826 14.7352295 6.4830627l42.435303 -16.503769c5.859253 -2.2787628 8.761841 -8.875946 6.483032 -14.735199z" fill-rule="evenodd"/><path fill="#cfe2f3" d="m911.6427 39.351994l0 0c-2.2788086 -5.8592644 -8.875977 -8.761835 -14.7352295 -6.4830704l-42.43524 16.503773l0 0c-2.8137207 1.0942993 -5.0775146 3.2615242 -6.293335 6.024914c-1.2158203 2.7633858 -1.2840576 5.8965683 -0.1897583 8.710285l16.503784 42.435272c2.2787476 5.859268 8.875916 8.761833 14.735168 6.4830704l42.435303 -16.503769c5.859253 -2.2787628 8.761841 -8.875938 6.483032 -14.735207z" fill-rule="evenodd"/><path stroke="#000000" stroke-width="1.0" stroke-linejoin="round" stroke-linecap="butt" d="m911.6427 39.351994l0 0c-2.2788086 -5.8592644 -8.875977 -8.761835 -14.7352295 -6.4830704l-42.43524 16.503773l0 0c-2.8137207 1.0942993 -5.0775146 3.2615242 -6.293335 6.024914c-1.2158203 2.7633858 -1.2840576 5.8965683 -0.1897583 8.710285l16.503784 42.435272c2.2787476 5.859268 8.875916 8.761833 14.735168 6.4830704l42.435303 -16.503769c5.859253 -2.2787628 8.761841 -8.875938 6.483032 -14.735207z" fill-rule="evenodd"/><path fill="#cfe2f3" d="m939.98254 112.20736l0 0c-2.2787476 -5.8592606 -8.875916 -8.761833 -14.735168 -6.4830704l-42.435303 16.503777l0 0c-2.8137207 1.0942993 -5.0774536 3.261528 -6.293274 6.02491c-1.2158203 2.763382 -1.2840576 5.896576 -0.1897583 8.710297l16.503723 42.435272c2.2788086 5.859253 8.875977 8.761826 14.7352295 6.4830627l42.43524 -16.503769c5.859314 -2.2787628 8.761841 -8.875946 6.4830933 -14.735199z" fill-rule="evenodd"/><path stroke="#000000" stroke-width="1.0" stroke-linejoin="round" stroke-linecap="butt" d="m939.98254 112.20736l0 0c-2.2787476 -5.8592606 -8.875916 -8.761833 -14.735168 -6.4830704l-42.435303 16.503777l0 0c-2.8137207 1.0942993 -5.0774536 3.261528 -6.293274 6.02491c-1.2158203 2.763382 -1.2840576 5.896576 -0.1897583 8.710297l16.503723 42.435272c2.2788086 5.859253 8.875977 8.761826 14.7352295 6.4830627l42.43524 -16.503769c5.859314 -2.2787628 8.761841 -8.875946 6.4830933 -14.735199z" fill-rule="evenodd"/><path fill="#000000" d="m913.65424 159.82251l1.0371704 -0.13513184q0.14727783 1.2839203 -0.3866577 2.1957092q-0.52508545 0.89157104 -1.6463623 1.3276672q-1.1504517 0.4474182 -2.045227 0.25894165q-0.8947754 -0.18849182 -1.6188965 -0.9295502q-0.7241211 -0.7410431 -1.1205444 -1.7604218q-0.43041992 -1.1067352 -0.33093262 -2.1010437q0.099487305 -0.9943085 0.72161865 -1.7224426q0.6164551 -0.7427063 1.5484619 -1.1051788q1.0775757 -0.4190979 2.020935 -0.14891052q0.9376831 0.2556305 1.5994873 1.1382751l-0.83251953 0.5752411q-0.5533447 -0.690094 -1.1698608 -0.85269165q-0.6019287 -0.16827393 -1.3154907 0.10925293q-0.8154907 0.31715393 -1.2159424 0.92555237q-0.40045166 0.60839844 -0.3583374 1.3632355q0.036376953 0.74024963 0.30822754 1.4392548q0.35113525 0.9028778 0.87945557 1.4853668q0.52264404 0.56791687 1.2062988 0.6876373q0.6836548 0.11972046 1.3389282 -0.13513184q0.78637695 -0.3058319 1.1641846 -0.9724884q0.37213135 -0.6812134 0.21600342 -1.6431427zm4.878723 0.96939087l-2.440979 -6.2763977l-2.3445435 0.9118347l-0.32281494 -0.83006287l5.63562 -2.191803l0.32281494 0.83006287l-2.3590698 0.9174957l2.440979 6.276413l-0.93200684 0.36245728zm4.2754517 -1.6627808l-2.763855 -7.1064606l3.1455078 -1.2233429q0.9465332 -0.3681183 1.5153198 -0.3713684q0.5687256 -0.003250122 1.0525513 0.37860107q0.49267578 0.36161804 0.7192383 0.9441223q0.29449463 0.7572479 0.0032958984 1.4740448q-0.28234863 0.69659424 -1.2596436 1.2443237q0.44659424 0.027496338 0.7038574 0.12861633q0.5695801 0.21438599 1.15448 0.6407318l1.9910889 1.4553986l-1.1795654 0.4587555l-1.524231 -1.1172333q-0.6569824 -0.48217773 -1.0639038 -0.7095032q-0.39239502 -0.23298645 -0.6618042 -0.2790985q-0.26049805 -0.066329956 -0.49591064 -0.02507019q-0.17718506 0.018615723 -0.54125977 0.16020203l-1.0921631 0.42477417l1.2290039 3.1600494l-0.93200684 0.36245728zm-0.6141968 -4.3380127l2.024231 -0.78723145q0.6407471 -0.24919128 0.9537964 -0.5218506q0.31311035 -0.27264404 0.38916016 -0.63752747q0.076049805 -0.36486816 -0.05987549 -0.7143707q-0.19824219 -0.50968933 -0.68688965 -0.68847656q-0.4887085 -0.17877197 -1.2750854 0.12705994l-2.257141 0.8778534l0.9118042 2.3445435zm7.7282104 1.5712585l-2.763855 -7.106476l0.94659424 -0.36813354l2.4353027 6.261856l3.494995 -1.3592529l0.3284912 0.84461975l-4.4415283 1.7273865z" fill-rule="nonzero"/><path fill="#cfe2f3" d="m968.32245 185.06273l0 0c-2.2787476 -5.859268 -8.875977 -8.761826 -14.7352295 -6.4830627l-42.43524 16.503769l0 0c-2.8137207 1.0942993 -5.0775146 3.2615204 -6.293335 6.0249176c-1.2157593 2.763382 -1.2840576 5.8965607 -0.1897583 8.710281l16.503784 42.435272c2.2787476 5.859253 8.875916 8.761841 14.7352295 6.4830627l42.43524 -16.503769c5.859253 -2.2787628 8.761841 -8.875931 6.4830933 -14.735199z" fill-rule="evenodd"/><path stroke="#000000" stroke-width="1.0" stroke-linejoin="round" stroke-linecap="butt" d="m968.32245 185.06273l0 0c-2.2787476 -5.859268 -8.875977 -8.761826 -14.7352295 -6.4830627l-42.43524 16.503769l0 0c-2.8137207 1.0942993 -5.0775146 3.2615204 -6.293335 6.0249176c-1.2157593 2.763382 -1.2840576 5.8965607 -0.1897583 8.710281l16.503784 42.435272c2.2787476 5.859253 8.875916 8.761841 14.7352295 6.4830627l42.43524 -16.503769c5.859253 -2.2787628 8.761841 -8.875931 6.4830933 -14.735199z" fill-rule="evenodd"/><path fill="#cfe2f3" d="m808.0729 309.237l0 0c-2.2788086 -5.8592834 -8.875977 -8.761841 -14.7352295 -6.4830627l-42.43524 16.503754l0 0c-2.8137207 1.0942993 -5.0775146 3.2615356 -6.293335 6.024933c-1.2158203 2.7633667 -1.2840576 5.8965454 -0.1897583 8.710266l16.503784 42.435272c2.2787476 5.8592834 8.875916 8.761841 14.735168 6.4830933l42.435303 -16.503784c5.859253 -2.278778 8.761841 -8.875946 6.4830933 -14.735199z" fill-rule="evenodd"/><path stroke="#000000" stroke-width="1.0" stroke-linejoin="round" stroke-linecap="butt" d="m808.0729 309.237l0 0c-2.2788086 -5.8592834 -8.875977 -8.761841 -14.7352295 -6.4830627l-42.43524 16.503754l0 0c-2.8137207 1.0942993 -5.0775146 3.2615356 -6.293335 6.024933c-1.2158203 2.7633667 -1.2840576 5.8965454 -0.1897583 8.710266l16.503784 42.435272c2.2787476 5.8592834 8.875916 8.761841 14.735168 6.4830933l42.435303 -16.503784c5.859253 -2.278778 8.761841 -8.875946 6.4830933 -14.735199z" fill-rule="evenodd"/><path fill="#cfe2f3" d="m722.8459 352.2271l0 0c-3.4935303 -5.227234 -10.56311 -6.6326904 -15.790344 -3.1391602l-37.85791 25.301575l0 0c-2.5101929 1.6776428 -4.2511597 4.283783 -4.8398438 7.2450256c-0.5886841 2.9612732 0.023071289 6.0351257 1.7006836 8.545319l25.301575 37.85788c3.4935303 5.2272644 10.56311 6.632721 15.790344 3.1391907l37.85791 -25.301605c5.227234 -3.4934998 6.6326904 -10.56308 3.1391602 -15.790344z" fill-rule="evenodd"/><path stroke="#000000" stroke-width="1.0" stroke-linejoin="round" stroke-linecap="butt" d="m722.8459 352.2271l0 0c-3.4935303 -5.227234 -10.56311 -6.6326904 -15.790344 -3.1391602l-37.85791 25.301575l0 0c-2.5101929 1.6776428 -4.2511597 4.283783 -4.8398438 7.2450256c-0.5886841 2.9612732 0.023071289 6.0351257 1.7006836 8.545319l25.301575 37.85788c3.4935303 5.2272644 10.56311 6.632721 15.790344 3.1391907l37.85791 -25.301605c5.227234 -3.4934998 6.6326904 -10.56308 3.1391602 -15.790344z" fill-rule="evenodd"/><path fill="#cfe2f3" d="m629.7587 405.4429l0 0c-5.322876 -3.3456726 -12.350159 -1.7427979 -15.695801 3.5801086l-24.230774 38.55078l0 0c-1.6066284 2.5561829 -2.132019 5.645874 -1.4606323 8.5894165c0.6713867 2.9435425 2.4846191 5.499817 5.0407715 7.1064453l38.55078 24.230743c5.322937 3.345642 12.35022 1.7427673 15.695862 -3.5801392l24.230713 -38.55078c3.3457031 -5.322937 1.7427979 -12.350189 -3.5800781 -15.695862z" fill-rule="evenodd"/><path stroke="#000000" stroke-width="1.0" stroke-linejoin="round" stroke-linecap="butt" d="m629.7587 405.4429l0 0c-5.322876 -3.3456726 -12.350159 -1.7427979 -15.695801 3.5801086l-24.230774 38.55078l0 0c-1.6066284 2.5561829 -2.132019 5.645874 -1.4606323 8.5894165c0.6713867 2.9435425 2.4846191 5.499817 5.0407715 7.1064453l38.55078 24.230743c5.322937 3.345642 12.35022 1.7427673 15.695862 -3.5801392l24.230713 -38.55078c3.3457031 -5.322937 1.7427979 -12.350189 -3.5800781 -15.695862z" fill-rule="evenodd"/><path fill="#000000" fill-opacity="0.0" d="m387.52493 23.19685l287.46457 0l0 51.716534l-287.46457 0z" fill-rule="evenodd"/><path fill="#cfe2f3" d="m450.97525 51.67185l2.375 -0.21875q0.171875 1.4375 0.78125 2.359375q0.625 0.90625 1.921875 1.484375q1.3125 0.5625 2.9375 0.5625q1.4375 0 2.546875 -0.421875q1.109375 -0.4375 1.640625 -1.1875q0.546875 -0.75 0.546875 -1.640625q0 -0.890625 -0.53125 -1.5625q-0.515625 -0.671875 -1.703125 -1.125q-0.765625 -0.296875 -3.40625 -0.921875q-2.625 -0.640625 -3.671875 -1.203125q-1.375 -0.71875 -2.046875 -1.765625q-0.671875 -1.0625 -0.671875 -2.375q0 -1.453125 0.8125 -2.703125q0.828125 -1.265625 2.40625 -1.90625q1.578125 -0.65625 3.5 -0.65625q2.125 0 3.734375 0.6875q1.625 0.671875 2.5 2.0q0.875 1.328125 0.9375 3.015625l-2.421875 0.1875q-0.1875 -1.8125 -1.3125 -2.734375q-1.125 -0.9375 -3.328125 -0.9375q-2.296875 0 -3.34375 0.84375q-1.046875 0.84375 -1.046875 2.03125q0 1.015625 0.75 1.6875q0.71875 0.65625 3.796875 1.359375q3.078125 0.703125 4.234375 1.21875q1.65625 0.765625 2.453125 1.953125q0.796875 1.171875 0.796875 2.703125q0 1.53125 -0.875 2.875q-0.875 1.34375 -2.515625 2.09375q-1.625 0.75 -3.671875 0.75q-2.59375 0 -4.34375 -0.75q-1.75 -0.765625 -2.75 -2.28125q-0.984375 -1.515625 -1.03125 -3.421875zm18.232635 11.453125l-0.265625 -2.203125q0.765625 0.203125 1.34375 0.203125q0.78125 0 1.25 -0.265625q0.46875 -0.25 0.765625 -0.71875q0.21875 -0.359375 0.71875 -1.75q0.0625 -0.1875 0.203125 -0.5625l-5.25 -13.859375l2.53125 0l2.875 8.015625q0.5625 1.515625 1.0 3.203125q0.40625 -1.625 0.96875 -3.15625l2.953125 -8.0625l2.34375 0l-5.265625 14.0625q-0.84375 2.28125 -1.3125 3.140625q-0.625 1.15625 -1.4375 1.6875q-0.796875 0.546875 -1.921875 0.546875q-0.671875 0 -1.5 -0.28125zm13.421875 -5.328125l0 -13.828125l2.109375 0l0 1.9375q0.640625 -1.015625 1.71875 -1.625q1.09375 -0.625 2.46875 -0.625q1.53125 0 2.515625 0.640625q0.984375 0.640625 1.390625 1.78125q1.640625 -2.421875 4.265625 -2.421875q2.0625 0 3.15625 1.140625q1.109375 1.140625 1.109375 3.515625l0 9.484375l-2.328125 0l0 -8.703125q0 -1.40625 -0.234375 -2.015625q-0.21875 -0.625 -0.828125 -1.0q-0.59375 -0.390625 -1.390625 -0.390625q-1.46875 0 -2.4375 0.96875q-0.953125 0.96875 -0.953125 3.109375l0 8.03125l-2.34375 0l0 -8.984375q0 -1.5625 -0.578125 -2.34375q-0.5625 -0.78125 -1.875 -0.78125q-0.984375 0 -1.828125 0.53125q-0.828125 0.515625 -1.21875 1.515625q-0.375 1.0 -0.375 2.890625l0 7.171875l-2.34375 0zm24.37674 0l-2.171875 0l0 -19.078125l2.34375 0l0 6.796875q1.484375 -1.859375 3.78125 -1.859375q1.2812805 0 2.4062805 0.515625q1.140625 0.515625 1.875 1.453125q0.75 0.921875 1.15625 2.25q0.421875 1.3125 0.421875 2.796875q0 3.5625 -1.765625 5.5q-1.75 1.9375 -4.2187805 1.9375q-2.4375 0 -3.828125 -2.046875l0 1.734375zm-0.03125 -7.015625q0 2.484375 0.671875 3.59375q1.109375 1.8125 3.0 1.8125q1.5312805 0 2.6562805 -1.328125q1.125 -1.34375 1.125 -3.984375q0 -2.703125 -1.078125 -3.984375q-1.078125 -1.296875 -2.5937805 -1.296875q-1.546875 0 -2.671875 1.328125q-1.109375 1.328125 -1.109375 3.859375zm11.824982 0.109375q0 -3.84375 2.125 -5.6875q1.78125 -1.546875 4.34375 -1.546875q2.859375 0 4.65625 1.875q1.8125 1.859375 1.8125 5.15625q0 2.671875 -0.796875 4.203125q-0.796875 1.53125 -2.328125 2.375q-1.53125 0.84375 -3.34375 0.84375q-2.890625 0 -4.6875 -1.859375q-1.78125 -1.859375 -1.78125 -5.359375zm2.40625 0q0 2.65625 1.15625 3.984375q1.15625 1.3125 2.90625 1.3125q1.75 0 2.90625 -1.328125q1.15625 -1.328125 1.15625 -4.046875q0 -2.5625 -1.171875 -3.890625q-1.15625 -1.328125 -2.890625 -1.328125q-1.75 0 -2.90625 1.328125q-1.15625 1.3125 -1.15625 3.96875zm13.23114 6.90625l0 -19.078125l2.34375 0l0 19.078125l-2.34375 0zm13.578125 0l0 -19.078125l2.53125 0l0 16.828125l9.390625 0l0 2.25l-11.921875 0zm23.653076 -1.703125q-1.3125 1.109375 -2.515625 1.5625q-1.203125 0.453125 -2.578125 0.453125q-2.28125 0 -3.5 -1.109375q-1.21875 -1.109375 -1.21875 -2.84375q0 -1.015625 0.453125 -1.859375q0.46875 -0.84375 1.21875 -1.34375q0.75 -0.515625 1.6875 -0.765625q0.6875 -0.1875 2.078125 -0.359375q2.828125 -0.328125 4.171875 -0.796875q0.015625 -0.484375 0.015625 -0.625q0 -1.421875 -0.65625 -2.015625q-0.90625 -0.796875 -2.671875 -0.796875q-1.65625 0 -2.453125 0.59375q-0.78125 0.578125 -1.15625 2.046875l-2.296875 -0.3125q0.3125 -1.46875 1.03125 -2.375q0.71875 -0.90625 2.0625 -1.390625q1.359375 -0.5 3.140625 -0.5q1.78125 0 2.875 0.421875q1.109375 0.421875 1.625 1.046875q0.53125 0.625 0.734375 1.59375q0.125 0.59375 0.125 2.15625l0 3.125q0 3.265625 0.140625 4.140625q0.15625 0.859375 0.59375 1.65625l-2.4375 0q-0.375 -0.734375 -0.46875 -1.703125zm-0.203125 -5.234375q-1.265625 0.515625 -3.828125 0.890625q-1.4375 0.203125 -2.046875 0.46875q-0.59375 0.25 -0.921875 0.75q-0.3125 0.5 -0.3125 1.125q0 0.9375 0.703125 1.5625q0.703125 0.625 2.078125 0.625q1.34375 0 2.390625 -0.59375q1.0625 -0.59375 1.5625 -1.625q0.375 -0.796875 0.375 -2.34375l0 -0.859375zm5.903076 12.265625l-0.265625 -2.203125q0.765625 0.203125 1.34375 0.203125q0.78125 0 1.25 -0.265625q0.46875 -0.25 0.765625 -0.71875q0.21875 -0.359375 0.71875 -1.75q0.0625 -0.1875 0.203125 -0.5625l-5.25 -13.859375l2.53125 0l2.875 8.015625q0.5625 1.515625 1.0 3.203125q0.40625 -1.625 0.96875 -3.15625l2.953125 -8.0625l2.34375 0l-5.265625 14.0625q-0.84375 2.28125 -1.3125 3.140625q-0.625 1.15625 -1.4375 1.6875q-0.796875 0.546875 -1.921875 0.546875q-0.671875 0 -1.5 -0.28125zm22.890625 -9.78125l2.421875 0.296875q-0.578125 2.125 -2.125 3.296875q-1.546875 1.171875 -3.953125 1.171875q-3.03125 0 -4.8125 -1.859375q-1.78125 -1.875 -1.78125 -5.25q0 -3.484375 1.796875 -5.40625q1.796875 -1.9375 4.671875 -1.9375q2.765625 0 4.515625 1.890625q1.765625 1.890625 1.765625 5.3125q0 0.203125 -0.015625 0.625l-10.3125 0q0.140625 2.28125 1.296875 3.5q1.15625 1.203125 2.890625 1.203125q1.28125 0 2.1875 -0.671875q0.921875 -0.6875 1.453125 -2.171875zm-7.6875 -3.78125l7.71875 0q-0.15625 -1.75 -0.890625 -2.625q-1.125 -1.34375 -2.90625 -1.34375q-1.609375 0 -2.71875 1.078125q-1.09375 1.078125 -1.203125 2.890625zm13.028076 8.234375l0 -13.828125l2.109375 0l0 2.09375q0.796875 -1.46875 1.484375 -1.9375q0.6875 -0.46875 1.5 -0.46875q1.1875 0 2.40625 0.765625l-0.796875 2.171875q-0.859375 -0.515625 -1.71875 -0.515625q-0.765625 0 -1.390625 0.46875q-0.609375 0.453125 -0.859375 1.28125q-0.390625 1.25 -0.390625 2.734375l0 7.234375l-2.34375 0z" fill-rule="nonzero"/><path fill="#00ff00" d="m629.7587 405.4429l0 0c-5.322876 -3.3456726 -12.350159 -1.7427979 -15.695801 3.5801086l-24.230774 38.55078l0 0c-1.6066284 2.5561829 -2.132019 5.645874 -1.4606323 8.5894165c0.6713867 2.9435425 2.4846191 5.499817 5.0407715 7.1064453l38.55078 24.230743c5.322937 3.345642 12.35022 1.7427673 15.695862 -3.5801392l24.230713 -38.55078c3.3457031 -5.322937 1.7427979 -12.350189 -3.5800781 -15.695862z" fill-rule="evenodd"/><path stroke="#000000" stroke-width="1.0" stroke-linejoin="round" stroke-linecap="butt" d="m629.7587 405.4429l0 0c-5.322876 -3.3456726 -12.350159 -1.7427979 -15.695801 3.5801086l-24.230774 38.55078l0 0c-1.6066284 2.5561829 -2.132019 5.645874 -1.4606323 8.5894165c0.6713867 2.9435425 2.4846191 5.499817 5.0407715 7.1064453l38.55078 24.230743c5.322937 3.345642 12.35022 1.7427673 15.695862 -3.5801392l24.230713 -38.55078c3.3457031 -5.322937 1.7427979 -12.350189 -3.5800781 -15.695862z" fill-rule="evenodd"/><path fill="#000000" d="m620.2679 462.6486l-10.503784 -6.6020203l4.772766 -7.593384l1.2435303 0.7815857l-3.8997192 6.2043457l3.2146606 2.0205383l3.6502075 -5.807495l1.2302856 0.7732849l-3.6502075 5.8074646l3.5717773 2.2450256l4.0493774 -6.442444l1.2434692 0.7815857l-4.9223633 7.8315125zm6.025696 -9.586914l-7.6065674 -4.781067l0.73168945 -1.1641235l1.0847778 0.68182373q-0.73291016 -1.623352 0.26489258 -3.2108154q0.43237305 -0.6878967 1.0412598 -1.0987549q0.6039429 -0.43240356 1.1886597 -0.4524536q0.579834 -0.04159546 1.2102661 0.18856812q0.39874268 0.15838623 1.2850952 0.7154846l4.6829834 2.943451l-0.80651855 1.2832031l-4.630127 -2.9102173q-0.7805176 -0.49057007 -1.263916 -0.5729675q-0.4883423 -0.10391235 -0.96759033 0.13006592q-0.47924805 0.23394775 -0.80352783 0.7498779q-0.5155029 0.8201904 -0.36053467 1.7480774q0.14178467 0.9195862 1.6101685 1.8425598l4.1538696 2.6108704l-0.8148804 1.2964172zm5.748596 -11.700378l1.2540894 0.5298767q-0.2218628 0.617218 -0.49627686 1.053772q-0.44067383 0.70114136 -0.90667725 0.9434204q-0.46600342 0.24227905 -0.92297363 0.17654419q-0.47021484 -0.07406616 -1.6210938 -0.79748535l-4.378784 -2.7522278l-0.59869385 0.95248413l-1.0053711 -0.6319275l0.59869385 -0.95248413l-1.87854 -1.1806946l0.026062012 -1.7738037l2.6589966 1.6712952l0.8148804 -1.2964172l1.0053711 0.6319275l-0.8148804 1.2964478l4.4449463 2.7937927q0.555603 0.34921265 0.7559204 0.38284302q0.20031738 0.03363037 0.3843994 -0.05368042q0.19238281 -0.1005249 0.37530518 -0.39157104q0.13305664 -0.21166992 0.30462646 -0.6021118zm2.7705078 -7.285309l0.9902344 -1.223114q0.986145 1.0443115 1.0938721 2.311615q0.10284424 1.245758 -0.7286377 2.568634q-1.0560303 1.6800842 -2.6899414 2.0187683q-1.638855 0.31713867 -3.5040894 -0.8552551q-1.9182129 -1.205658 -2.361206 -2.8497925q-0.43469238 -1.6573486 0.55474854 -3.231598q0.9645386 -1.5345459 2.6166382 -1.8433838q1.638794 -0.31713867 3.517334 0.8635864q0.119018555 0.0748291 0.33563232 0.22940063l-3.5670776 5.6752014q1.3066406 0.7105408 2.3804321 0.49960327q1.0605469 -0.21923828 1.6591797 -1.1717224q0.44903564 -0.71435547 0.3945923 -1.4498596q-0.05444336 -0.73553467 -0.6917114 -1.5420837zm-4.7509155 2.9194946l2.6690674 -4.24646q-1.0106812 -0.506073 -1.7496338 -0.41687012q-1.1315918 0.15612793 -1.7468872 1.1350708q-0.5571289 0.886322 -0.34429932 1.8690186q0.22113037 0.9694824 1.1717529 1.6592407zm9.042297 -4.3150635l-7.6066284 -4.7810364l0.73168945 -1.164154l1.15094 0.7233887q-0.5325928 -0.9437561 -0.5510864 -1.4721375q-0.023498535 -0.54992676 0.2592163 -0.99972534q0.41577148 -0.661438 1.2415771 -1.0651245l0.92944336 1.1932068q-0.57714844 0.30163574 -0.87646484 0.77786255q-0.26605225 0.42333984 -0.22259521 0.91204834q0.04345703 0.48867798 0.40179443 0.91690063q0.5465698 0.6572876 1.3667603 1.1727905l3.9818726 2.502777l-0.80651855 1.2832031z" fill-rule="nonzero"/><path fill="#000000" d="m630.2258 469.63144l0.44110107 -0.84851074q0.50946045 0.24639893 0.960022 0.23431396q0.4373169 -0.02041626 0.9100952 -0.33224487q0.45959473 -0.3201599 0.8088379 -0.87576294q0.30767822 -0.48947144 0.3949585 -0.951355q0.08728027 -0.46185303 -0.047668457 -0.8050537q-0.1348877 -0.34320068 -0.43920898 -0.5344238q-0.30426025 -0.19125366 -0.6455078 -0.1473999q-0.3330078 0.030639648 -0.7279663 0.33602905q-0.27215576 0.19805908 -1.0408936 0.951355q-0.7687378 0.7532959 -1.1917114 0.9857483q-0.52911377 0.3133545 -1.0359497 0.32696533q-0.49853516 3.9672852E-4 -0.94836426 -0.28231812q-0.48944092 -0.3076477 -0.7381592 -0.851532q-0.24871826 -0.5438843 -0.14099121 -1.214386q0.11602783 -0.68374634 0.5234375 -1.3319702q0.4489746 -0.71435547 1.0280151 -1.1070557q0.5741577 -0.41427612 1.2068481 -0.42260742q0.6409912 -0.02154541 1.2265015 0.3095398l-0.44940186 0.8617554q-0.65008545 -0.3163452 -1.2087402 -0.13226318q-0.55859375 0.18408203 -1.024231 0.92489624q-0.4906006 0.7805176 -0.42407227 1.3206177q0.061645508 0.5185547 0.47174072 0.77633667q0.3439331 0.21618652 0.72680664 0.106170654q0.37457275 -0.09677124 1.2695923 -0.992157q0.8949585 -0.89541626 1.3081055 -1.1709595q0.6220703 -0.40255737 1.1852417 -0.4176941q0.5631714 -0.015136719 1.0791016 0.30914307q0.5159302 0.3242798 0.7960205 0.90634155q0.2668457 0.573761 0.16894531 1.2873535q-0.097839355 0.7135925 -0.5302124 1.4014893q-0.5571289 0.886322 -1.1826172 1.3236389q-0.6171875 0.42410278 -1.3493042 0.44378662q-0.7238159 0.006439209 -1.3803711 -0.38778687zm7.749878 -3.7268982l-0.79071045 -0.386261q0.2241211 -0.20977783 0.34887695 -0.40823364q0.16625977 -0.26455688 0.17346191 -0.48150635q0.020385742 -0.20864868 -0.07183838 -0.4142456q-0.07745361 -0.14099121 -0.44561768 -0.6123047q-0.04949951 -0.06802368 -0.14361572 -0.18255615l-5.810425 -1.1791077l0.5404663 -0.8598633l3.3189087 0.73883057q0.640625 0.12585449 1.3009033 0.3378601q-0.45922852 -0.47317505 -0.87194824 -0.9909973l-2.0932007 -2.7182617l0.49884033 -0.7937317l3.6398926 4.7792664q0.59265137 0.7600708 0.78393555 1.1017456q0.26385498 0.4611206 0.27441406 0.85531616q0.018920898 0.38098145 -0.222229 0.7646179q-0.14135742 0.22491455 -0.43011475 0.44943237zm1.0612183 -5.6815796l-4.6830444 -2.943451l0.44903564 -0.71435547l0.661438 0.41574097q-0.2109375 -0.42785645 -0.1897583 -0.93130493q0.021118164 -0.5034485 0.3121338 -0.9664612q0.3242798 -0.5159302 0.7570801 -0.70529175q0.41949463 -0.19769287 0.8946533 -0.1020813q-0.4710083 -1.0711365 0.086120605 -1.9574585q0.44067383 -0.70114136 1.0703735 -0.8220825q0.6164551 -0.12930298 1.4101562 0.3695984l3.2146606 2.0205078l-0.4906006 0.7805176l-2.9500732 -1.8542175q-0.4761963 -0.29934692 -0.72454834 -0.34469604q-0.26153564 -0.053649902 -0.52685547 0.07485962q-0.25701904 0.11529541 -0.42333984 0.3798523q-0.31591797 0.50271606 -0.19311523 1.0412903q0.13116455 0.5253601 0.85876465 0.98269653l2.711914 1.7045593l-0.49890137 0.7937317l-3.0426025 -1.9124451q-0.5291748 -0.33258057 -0.91845703 -0.30044556q-0.38098145 0.01889038 -0.6636963 0.46868896q-0.20788574 0.330719 -0.20562744 0.7381592q-0.0026245117 0.38589478 0.2581787 0.734375q0.2559204 0.3269348 0.90411377 0.734375l2.4208984 1.5216064l-0.49890137 0.7937317zm5.1810913 -8.243042l-0.45733643 0.7275696l-6.4556885 -4.0576477l0.49890137 -0.7937317l2.3018188 1.4467773q-0.31903076 -0.90182495 0.16326904 -1.6690979q0.27435303 -0.43655396 0.7006836 -0.70376587q0.41314697 -0.2755432 0.88861084 -0.32733154q0.46221924 -0.06011963 0.9951782 0.09030151q0.54125977 0.13717651 1.0439453 0.45315552q1.2037964 0.75665283 1.4910889 1.7677002q0.27404785 1.0027161 -0.24975586 1.8361511q-0.51556396 0.8201904 -1.5028076 0.8640442l0.5820923 0.36587524zm-2.367981 -1.4883728q0.83343506 0.5238342 1.3452148 0.5317688q0.8545532 0.020385742 1.2536621 -0.6145935q0.33258057 -0.5291748 0.115600586 -1.1822815q-0.2218628 -0.6746521 -1.1081543 -1.2317505q-0.9128418 -0.57373047 -1.5822144 -0.47772217q-0.66101074 0.08279419 -0.9852905 0.59872437q-0.3242798 0.5159302 -0.11566162 1.182251q0.21697998 0.6531372 1.0768433 1.1936035zm2.540039 -3.9824219q-1.2964478 -0.81484985 -1.4691772 -1.9200134q-0.14666748 -0.9411316 0.39379883 -1.8009949q0.6069336 -0.96569824 1.6244507 -1.1751099q1.0257568 -0.22265625 2.136963 0.47579956q0.89959717 0.56539917 1.2541504 1.1758118q0.34960938 0.5888672 0.3163452 1.2877197q-0.046447754 0.69052124 -0.43725586 1.3122864q-0.6152954 0.9789429 -1.6195679 1.1966553q-1.0091553 0.19619751 -2.199707 -0.55215454zm0.50720215 -0.8069458q0.89953613 0.56539917 1.5987549 0.4512329q0.6992798 -0.11413574 1.0651245 -0.696228q0.3741455 -0.5952759 0.16552734 -1.2616272q-0.20037842 -0.6795654 -1.1264038 -1.2616272q-0.8598633 -0.5404663 -1.559082 -0.42630005q-0.69091797 0.10092163 -1.0650635 0.696228q-0.36590576 0.58206177 -0.16552734 1.2616577q0.18707275 0.67123413 1.0866699 1.2366638zm5.1627197 -3.0167847l-6.4556885 -4.0576477l0.49890137 -0.7937317l6.4556885 4.0576477l-0.49890137 0.7937317zm-0.3336792 -2.5815125l0.371521 -0.8553467q0.51782227 0.23318481 0.9604492 0.08691406q0.44256592 -0.14630127 0.78344727 -0.6886902q0.34094238 -0.5423584 0.28234863 -0.9483032q-0.05859375 -0.4059143 -0.362854 -0.59716797q-0.2645874 -0.16629028 -0.57299805 -0.027954102q-0.20562744 0.09222412 -0.77178955 0.6406555q-0.77368164 0.7317505 -1.1486206 0.97592163q-0.36657715 0.23095703 -0.75250244 0.228302q-0.3991089 -0.010925293 -0.743103 -0.22714233q-0.30426025 -0.19122314 -0.47735596 -0.50305176q-0.18634033 -0.3201294 -0.20861816 -0.6663208q-0.015930176 -0.26837158 0.09106445 -0.6440735q0.10205078 -0.3972473 0.3265381 -0.75442505q0.34918213 -0.555603 0.7657471 -0.86590576q0.4248047 -0.32354736 0.82733154 -0.3473816q0.38928223 -0.03213501 0.89385986 0.19274902l-0.3764038 0.83380127q-0.40368652 -0.17990112 -0.7684326 -0.04006958q-0.35638428 0.12664795 -0.6390991 0.576416q-0.34924316 0.555603 -0.31365967 0.91015625q0.030578613 0.3329773 0.2687378 0.4826355q0.15875244 0.09979248 0.33599854 0.08200073q0.1987915 -0.02267456 0.40289307 -0.17120361q0.12774658 -0.08581543 0.65234375 -0.5680847q0.7570801 -0.70532227 1.1104126 -0.9445801q0.34020996 -0.2475586 0.734375 -0.2581482q0.38934326 -0.03213501 0.7994385 0.22561646q0.3968506 0.24945068 0.6043701 0.71206665q0.20257568 0.44107056 0.12664795 1.0023499q-0.08917236 0.5529785 -0.43841553 1.1085815q-0.57373047 0.91278076 -1.2434692 1.1562195q-0.6829834 0.23510742 -1.5202026 -0.106536865z" fill-rule="nonzero"/></g></svg>