<svg version="1.1" viewBox="0.0 0.0 1062.5144356955382 514.0472440944882" fill="none" stroke="none" stroke-linecap="square" stroke-miterlimit="10" xmlns:xlink="http://www.w3.org/1999/xlink" xmlns="http://www.w3.org/2000/svg"><clipPath id="p.0"><path d="m0 0l1062.5144 0l0 514.04724l-1062.5144 0l0 -514.04724z" clip-rule="nonzero"/></clipPath><g clip-path="url(#p.0)"><path fill="#000000" fill-opacity="0.0" d="m0 0l1062.5144 0l0 514.04724l-1062.5144 0z" fill-rule="evenodd"/><path fill="#cfe2f3" d="m379.90622 109.94902l0 0c2.2555847 -5.867958 8.841003 -8.796379 14.708954 -6.5408096l42.49826 16.335793l0 0c2.8179016 1.0831604 5.090088 3.2413635 6.316742 5.999832c1.226654 2.7584686 1.307251 5.8912354 0.22409058 8.709122l-16.335815 42.49826c-2.2555542 5.8679657 -8.840973 8.796387 -14.708954 6.5408173l-42.49826 -16.3358c-5.8679504 -2.2555695 -8.796387 -8.840988 -6.540802 -14.708954z" fill-rule="evenodd"/><path stroke="#000000" stroke-width="1.0" stroke-linejoin="round" stroke-linecap="butt" d="m379.90622 109.94902l0 0c2.2555847 -5.867958 8.841003 -8.796379 14.708954 -6.5408096l42.49826 16.335793l0 0c2.8179016 1.0831604 5.090088 3.2413635 6.316742 5.999832c1.226654 2.7584686 1.307251 5.8912354 0.22409058 8.709122l-16.335815 42.49826c-2.2555542 5.8679657 -8.840973 8.796387 -14.708954 6.5408173l-42.49826 -16.3358c-5.8679504 -2.2555695 -8.796387 -8.840988 -6.540802 -14.708954z" fill-rule="evenodd"/><path fill="#000000" d="m403.8759 141.23935l0.58862305 -1.5313873q-1.081543 -0.5831299 -1.6706238 -1.2280579q-0.5688782 -0.65390015 -0.77996826 -1.6724548q-0.20550537 -1.0331421 0.17565918 -2.2425385l1.6435242 0.2969513q-0.29589844 1.2923889 -0.06802368 2.0495605q0.3423462 1.0690155 1.1983948 1.4985046l1.8724365 -4.871277q-0.8661194 -0.5337982 -1.644867 -1.4692383q-0.5722351 -0.6886749 -0.6913452 -1.5546875q-0.113464355 -0.8806 0.23971558 -1.7994385q0.62789917 -1.6334763 2.1669006 -2.19693q1.0364685 -0.38835144 2.6093445 0.048843384l0.28030396 -0.7292328l0.90426636 0.34757996l-0.28033447 0.7292328q1.2969666 0.6324463 1.8176575 1.5858765q0.68118286 1.2327423 0.33035278 2.7550964l-1.6704407 -0.35751343q0.20175171 -0.9603119 -0.05078125 -1.609787q-0.23797607 -0.6438751 -0.920105 -1.0902252l-1.6986694 4.4191437q1.0400696 0.7345886 1.357605 1.0407715q0.5968933 0.5809784 0.87524414 1.2068939q0.2783203 0.6259155 0.27062988 1.3427582q0.012481689 0.7078552 -0.26785278 1.437088q-0.61105347 1.5897217 -2.0412292 2.2619781q-1.4155884 0.67785645 -3.047943 0.13409424l-0.5942383 1.5459747l-0.90423584 -0.34757996zm5.1520386 -13.403282q-0.94573975 -0.19612885 -1.6804199 0.19103241q-0.729126 0.3725891 -1.0318604 1.1601562q-0.30273438 0.7875824 -0.0670166 1.4808044q0.23571777 0.6932373 1.1479187 1.4121399l1.6313782 -4.244133zm-3.1602173 10.92144q0.92892456 0.23988342 1.7645874 -0.19218445q0.84124756 -0.44664 1.2168579 -1.4238129q0.31954956 -0.83132935 0.10739136 -1.498764q-0.21212769 -0.6674347 -1.3004761 -1.537735l-1.7883606 4.6524963z" fill-rule="nonzero"/><path fill="#000000" d="m397.97 160.47955l1.1492615 -2.989853l-5.4108887 -2.0798798l0.5381775 -1.400116l8.793823 -5.8934937l1.2542725 0.4821167l-3.1058044 8.079895l1.6772156 0.64471436l-0.5381775 1.400116l-1.6772461 -0.6446991l-1.1492615 2.989853l-1.5313721 -0.58865356zm1.687439 -4.389969l2.1583862 -5.615097l-6.067047 4.1126404l3.908661 1.5024567z" fill-rule="nonzero"/><path fill="#cfe2f3" d="m351.86676 182.92055l0 0c2.2555847 -5.8679657 8.841003 -8.796387 14.708954 -6.5408173l42.49826 16.335785l0 0c2.8179016 1.0831757 5.0901184 3.2413788 6.316742 5.999832c1.226654 2.7584686 1.307251 5.8912354 0.22409058 8.709137l-16.335785 42.49826c-2.2555847 5.8679504 -8.841003 8.796371 -14.708984 6.5408173l-42.49826 -16.3358c-5.8679504 -2.2555695 -8.796387 -8.841003 -6.540802 -14.708954z" fill-rule="evenodd"/><path stroke="#000000" stroke-width="1.0" stroke-linejoin="round" stroke-linecap="butt" d="m351.86676 182.92055l0 0c2.2555847 -5.8679657 8.841003 -8.796387 14.708954 -6.5408173l42.49826 16.335785l0 0c2.8179016 1.0831757 5.0901184 3.2413788 6.316742 5.999832c1.226654 2.7584686 1.307251 5.8912354 0.22409058 8.709137l-16.335785 42.49826c-2.2555847 5.8679504 -8.841003 8.796371 -14.708984 6.5408173l-42.49826 -16.3358c-5.8679504 -2.2555695 -8.796387 -8.841003 -6.540802 -14.708954z" fill-rule="evenodd"/><path fill="#cfe2f3" d="m323.8273 255.89206l0 0c2.2555847 -5.8679657 8.841003 -8.796387 14.708954 -6.5408173l42.49829 16.3358l0 0c2.817871 1.0831604 5.090088 3.2413635 6.3167114 5.999817c1.226654 2.758484 1.307251 5.8912354 0.22409058 8.709137l-16.335785 42.49826c-2.2555847 5.8679504 -8.841003 8.796387 -14.708954 6.540802l-42.49829 -16.335785c-5.8679504 -2.2555542 -8.796356 -8.841003 -6.540802 -14.708954z" fill-rule="evenodd"/><path stroke="#000000" stroke-width="1.0" stroke-linejoin="round" stroke-linecap="butt" d="m323.8273 255.89206l0 0c2.2555847 -5.8679657 8.841003 -8.796387 14.708954 -6.5408173l42.49829 16.3358l0 0c2.817871 1.0831604 5.090088 3.2413635 6.3167114 5.999817c1.226654 2.758484 1.307251 5.8912354 0.22409058 8.709137l-16.335785 42.49826c-2.2555847 5.8679504 -8.841003 8.796387 -14.708954 6.540802l-42.49829 -16.335785c-5.8679504 -2.2555542 -8.796356 -8.841003 -6.540802 -14.708954z" fill-rule="evenodd"/><path fill="#cfe2f3" d="m450.5316 147.19685l0 0c2.2555847 -5.8679657 8.841003 -8.796387 14.708954 -6.5408173l42.49829 16.3358l0 0c2.817871 1.0831604 5.090088 3.2413635 6.3167114 5.999832c1.2266235 2.7584534 1.307251 5.89122 0.22406006 8.709122l-16.335754 42.49826c-2.2555847 5.8679657 -8.841003 8.796387 -14.708954 6.5408173l-42.49829 -16.3358c-5.8679504 -2.2555695 -8.796356 -8.840988 -6.540802 -14.708954z" fill-rule="evenodd"/><path stroke="#000000" stroke-width="1.0" stroke-linejoin="round" stroke-linecap="butt" d="m450.5316 147.19685l0 0c2.2555847 -5.8679657 8.841003 -8.796387 14.708954 -6.5408173l42.49829 16.3358l0 0c2.817871 1.0831604 5.090088 3.2413635 6.3167114 5.999832c1.2266235 2.7584534 1.307251 5.89122 0.22406006 8.709122l-16.335754 42.49826c-2.2555847 5.8679657 -8.841003 8.796387 -14.708954 6.5408173l-42.49829 -16.3358c-5.8679504 -2.2555695 -8.796356 -8.840988 -6.540802 -14.708954z" fill-rule="evenodd"/><path fill="#000000" d="m472.60437 164.8351q0.5157776 -1.3417816 1.5454712 -2.0173187q1.0296936 -0.6755371 2.3131409 -0.18218994q1.166748 0.44848633 1.6145935 1.5915222q0.45343018 1.1284485 -0.16885376 2.747345q-0.60546875 1.5751343 -1.7237854 2.132904q-1.1037598 0.56336975 -2.2413635 0.12608337q-1.1230164 -0.43167114 -1.5562439 -1.569107q-0.43325806 -1.1374207 0.21704102 -2.829239zm3.4987183 -1.1325989q-0.56881714 -0.21864319 -1.1386108 0.13146973q-0.5698242 0.35012817 -1.0743713 1.662735q-0.45968628 1.1959381 -0.27111816 1.8375854q0.19421387 0.6270447 0.7630005 0.84568787q0.58340454 0.22424316 1.1330261 -0.11689758q0.5697937 -0.35011292 1.0743408 -1.662735q0.46533203 -1.2105255 0.27111816 -1.8375702q-0.18859863 -0.6416321 -0.75738525 -0.86027527zm-4.6419067 12.07608l11.871155 -10.502502l1.239685 0.47653198l-11.84198 10.513702l-1.2688599 -0.48773193zm6.6969604 -1.3093567q0.5157471 -1.3417969 1.5398254 -2.0027466q1.0296936 -0.6755371 2.3131409 -0.18218994q1.181366 0.45410156 1.6145935 1.5915222q0.4534607 1.1284637 -0.16882324 2.747345q-0.60546875 1.5751495 -1.7092285 2.1385193q-1.0981445 0.54878235 -2.2503357 0.105895996q-1.1376038 -0.43728638 -1.5708313 -1.574707q-0.41867065 -1.1318207 0.23165894 -2.823639zm3.4930725 -1.1180267q-0.583374 -0.22424316 -1.1531677 0.12586975q-0.5552368 0.35572815 -1.0597839 1.6683502q-0.4597168 1.1959381 -0.27111816 1.8375702q0.19418335 0.62705994 0.7630005 0.8457031q0.583374 0.22424316 1.147583 -0.11129761q0.5698242 -0.35011292 1.0743713 -1.662735q0.4653015 -1.2105255 0.25653076 -1.8431854q-0.18859863 -0.6416321 -0.7574158 -0.86027527z" fill-rule="nonzero"/><path fill="#000000" d="m464.9507 192.57675l1.6547546 0.48542786q-0.27346802 1.2340393 0.13839722 2.0786743q0.43206787 0.83566284 1.3508911 1.188858q1.108429 0.42607117 2.1864014 -0.11373901q1.0925293 -0.53419495 1.6195068 -1.9051514q0.5045471 -1.3126221 0.052246094 -2.3569336q-0.43771362 -1.0387115 -1.6336365 -1.4984131q-0.72924805 -0.28030396 -1.4561462 -0.17471313q-0.7268982 0.10559082 -1.2697754 0.5162811l-1.3710022 -0.74461365l3.6716309 -5.9373474l6.198456 2.3826141l-0.5606079 1.4584656l-4.973358 -1.9116974l-1.9603271 3.0965881q1.4257507 -0.355896 2.650879 0.11502075q1.6334534 0.6278839 2.3192139 2.1971588q0.6913452 1.5547028 0.007385254 3.334015q-0.6502991 1.6918182 -2.104004 2.5559082q-1.7935791 1.0514832 -3.8645935 0.25541687q-1.691803 -0.65031433 -2.4066772 -2.0131683q-0.70925903 -1.3774414 -0.24963379 -3.0086517z" fill-rule="nonzero"/><path fill="#cfe2f3" d="m422.49216 220.16837l0 0c2.2555542 -5.8679504 8.840973 -8.796387 14.708954 -6.540802l42.49826 16.335785l0 0c2.817871 1.0831604 5.090088 3.2413635 6.3167114 5.999832c1.226654 2.7584686 1.307251 5.8912354 0.22409058 8.709122l-16.335785 42.49826c-2.2555847 5.867981 -8.841003 8.796387 -14.708954 6.5408325l-42.49826 -16.335815c-5.867981 -2.2555542 -8.796387 -8.840973 -6.5408325 -14.708954z" fill-rule="evenodd"/><path stroke="#000000" stroke-width="1.0" stroke-linejoin="round" stroke-linecap="butt" d="m422.49216 220.16837l0 0c2.2555542 -5.8679504 8.840973 -8.796387 14.708954 -6.540802l42.49826 16.335785l0 0c2.817871 1.0831604 5.090088 3.2413635 6.3167114 5.999832c1.226654 2.7584686 1.307251 5.8912354 0.22409058 8.709122l-16.335785 42.49826c-2.2555847 5.867981 -8.841003 8.796387 -14.708954 6.5408325l-42.49826 -16.335815c-5.867981 -2.2555542 -8.796387 -8.840973 -6.5408325 -14.708954z" fill-rule="evenodd"/><path fill="#cfe2f3" d="m394.4527 293.1399l0 0c2.2555542 -5.867981 8.840973 -8.796387 14.708954 -6.5408325l42.49826 16.335815l0 0c2.8179016 1.0831604 5.090088 3.2413635 6.3167114 5.999817c1.226654 2.758484 1.307251 5.8912354 0.22409058 8.709137l-16.335785 42.49826c-2.2555847 5.8679504 -8.841003 8.796387 -14.708954 6.540802l-42.49826 -16.335785c-5.867981 -2.2555847 -8.796387 -8.841003 -6.5408325 -14.708954z" fill-rule="evenodd"/><path stroke="#000000" stroke-width="1.0" stroke-linejoin="round" stroke-linecap="butt" d="m394.4527 293.1399l0 0c2.2555542 -5.867981 8.840973 -8.796387 14.708954 -6.5408325l42.49826 16.335815l0 0c2.8179016 1.0831604 5.090088 3.2413635 6.3167114 5.999817c1.226654 2.758484 1.307251 5.8912354 0.22409058 8.709137l-16.335785 42.49826c-2.2555847 5.8679504 -8.841003 8.796387 -14.708954 6.540802l-42.49826 -16.335785c-5.867981 -2.2555847 -8.796387 -8.841003 -6.5408325 -14.708954z" fill-rule="evenodd"/><path fill="#cfe2f3" d="m230.29265 57.21729l0 0c2.2555695 -5.867962 8.840988 -8.796383 14.708954 -6.5408134l42.498276 16.335793l0 0c2.817871 1.083168 5.090088 3.2413712 6.3167114 5.999832c1.226654 2.7584686 1.307251 5.8912354 0.22409058 8.709129l-16.335785 42.49826c-2.2555847 5.867958 -8.841003 8.796379 -14.708954 6.5408096l-42.498276 -16.335793c-5.8679657 -2.2555695 -8.796387 -8.840996 -6.5408173 -14.708954z" fill-rule="evenodd"/><path stroke="#000000" stroke-width="1.0" stroke-linejoin="round" stroke-linecap="butt" d="m230.29265 57.21729l0 0c2.2555695 -5.867962 8.840988 -8.796383 14.708954 -6.5408134l42.498276 16.335793l0 0c2.817871 1.083168 5.090088 3.2413712 6.3167114 5.999832c1.226654 2.7584686 1.307251 5.8912354 0.22409058 8.709129l-16.335785 42.49826c-2.2555847 5.867958 -8.841003 8.796379 -14.708954 6.5408096l-42.498276 -16.335793c-5.8679657 -2.2555695 -8.796387 -8.840996 -6.5408173 -14.708954z" fill-rule="evenodd"/><path fill="#000000" d="m257.0302 85.92234q-0.8009033 0.42868805 -1.6377411 0.55898285q-0.8312378 0.11571503 -1.5167084 -0.14777374q-0.7584076 -0.29151917 -1.3048706 -1.0037613q-0.5408478 -0.7268295 -0.63978577 -1.8194504q-0.084350586 -1.0870132 0.33610535 -2.1808624q0.52137756 -1.356369 1.7282257 -2.449257q1.2214355 -1.0872726 2.500229 -1.3657379q1.2990112 -0.28743744 2.2615967 0.08256531q0.74380493 0.28591156 1.2633362 0.9375839q0.5251465 0.63708496 0.70370483 1.6096573l0.79623413 -1.2005005l1.5314026 0.58864594l-3.4171143 5.231682q-0.722229 1.0950317 -0.76708984 1.2117081q-0.08969116 0.23335266 0.018035889 0.47563934q0.1133728 0.22770691 0.3612976 0.3230133q0.45211792 0.17378998 1.3831787 -0.07095337q1.2350464 -0.29528046 2.2265625 -1.2198486q1.0116577 -0.933548 1.4769897 -2.1440659q0.54940796 -1.4292984 0.29107666 -2.9347153q-0.25271606 -1.5200043 -1.4162903 -2.804245q-1.1433716 -1.2932205 -2.8935242 -1.9659576q-1.9835205 -0.7624359 -3.9903564 -0.46250916q-2.0012665 0.28533173 -3.578247 1.687912q-1.5713806 1.3879852 -2.3338165 3.371498q-0.8016815 2.0856018 -0.47486877 3.935402q0.32681274 1.8498001 1.7585144 3.2203674q1.4406891 1.3907547 3.526291 2.1924362q2.23143 0.8577423 4.0251923 0.6767731q1.7881165 -0.16638184 2.9411926 -0.94514465l1.5459595 0.59425354q-0.7795105 0.7214737 -2.1828003 1.2366638q-1.4088745 0.5297775 -3.074768 0.50878906q-1.6658936 -0.020980835 -3.7077484 -0.80583954q-1.8959961 -0.72880554 -3.3007202 -1.821167q-1.4047241 -1.0923615 -2.1521301 -2.5012054q-0.747406 -1.408844 -0.8284607 -2.896347q-0.097976685 -1.8790131 0.6139984 -3.7312622q0.8016815 -2.0856018 2.3707886 -3.6418686q1.9212799 -1.9063339 4.29718 -2.382454q2.3815002 -0.49069977 5.0942383 0.5520401q2.1147766 0.8128891 3.4612427 2.3180923q1.3464661 1.5052032 1.6677246 3.5872192q0.2505188 1.7869873 -0.41101074 3.5079803q-0.9474182 2.4648056 -3.4230042 3.7228394q-2.2019043 1.1121521 -4.0395813 0.40577698q-0.583374 -0.22424316 -0.8807068 -0.53941345q-0.28277588 -0.30956268 -0.3288269 -0.7122803q-0.038208008 -0.2490387 0.11987305 -0.7909012zm-3.2270966 -3.8853073q-0.4485016 1.1667709 -0.15553284 2.0159225q0.3075409 0.8547592 1.0221863 1.1294556q0.48129272 0.18500519 1.112854 0.10971832q0.6371765 -0.08987427 1.3315125 -0.45908356q0.69992065 -0.3837967 1.3369751 -1.126564q0.6370239 -0.74276733 0.96780396 -1.6032562q0.44848633 -1.1667709 0.12072754 -2.0125504q-0.32211304 -0.8603668 -1.1534424 -1.1799164q-0.53964233 -0.20742798 -1.1274414 -0.11532593q-0.5877991 0.09210968 -1.2753906 0.53087616q-0.6875763 0.43875885 -1.3010559 1.2073212q-0.5988922 0.7741699 -0.87919617 1.5034027z" fill-rule="nonzero"/><path fill="#000000" d="m252.05833 107.480095l-0.56622314 1.473053l-8.240311 -3.1674805q0.19844055 -0.5598221 0.58425903 -0.9973984q0.6460266 -0.72257996 1.6454468 -1.2758255q1.0140076 -0.54764557 2.7358704 -1.1077728q2.6663666 -0.88339233 3.7566223 -1.5858612q1.0902557 -0.7024689 1.4210205 -1.5629654q0.3531952 -0.9188309 -0.06765747 -1.7836609q-0.40066528 -0.8738098 -1.4507599 -1.2774582q-1.108429 -0.42606354 -2.037201 -0.013053894q-0.9085846 0.40402985 -1.3570862 1.5708008l-1.5134735 -0.765892q0.83877563 -1.7030716 2.2420654 -2.2182617q1.4178619 -0.5095825 3.182602 0.1687622q1.7939148 0.6895523 2.4627838 2.0849533q0.6688843 1.3953934 0.10266113 2.8684464q-0.2859192 0.74381256 -0.87249756 1.3553162q-0.5865936 0.6115036 -1.6095734 1.1389618q-1.0027924 0.51847076 -3.2036285 1.2794952q-1.8138428 0.625206 -2.3702087 0.8967972q-0.550766 0.25700378 -0.9556732 0.57006836l6.110962 2.3489761z" fill-rule="nonzero"/><path fill="#cfe2f3" d="m202.25319 130.18881l0 0c2.2555695 -5.8679657 8.841003 -8.796387 14.708954 -6.5408173l42.498276 16.3358l0 0c2.817871 1.0831604 5.090088 3.2413635 6.3167114 5.999832c1.226654 2.7584534 1.307251 5.89122 0.22409058 8.709122l-16.335785 42.49826c-2.2555847 5.8679657 -8.841003 8.796387 -14.708969 6.5408173l-42.49826 -16.3358c-5.8679504 -2.2555695 -8.796387 -8.840988 -6.540802 -14.708954z" fill-rule="evenodd"/><path stroke="#000000" stroke-width="1.0" stroke-linejoin="round" stroke-linecap="butt" d="m202.25319 130.18881l0 0c2.2555695 -5.8679657 8.841003 -8.796387 14.708954 -6.5408173l42.498276 16.3358l0 0c2.817871 1.0831604 5.090088 3.2413635 6.3167114 5.999832c1.226654 2.7584534 1.307251 5.89122 0.22409058 8.709122l-16.335785 42.49826c-2.2555847 5.8679657 -8.841003 8.796387 -14.708969 6.5408173l-42.49826 -16.3358c-5.8679504 -2.2555695 -8.796387 -8.840988 -6.540802 -14.708954z" fill-rule="evenodd"/><path fill="#cfe2f3" d="m174.21373 203.16032l0 0c2.2555695 -5.8679657 8.841003 -8.796387 14.708969 -6.5408173l42.49826 16.3358l0 0c2.8178864 1.0831604 5.090088 3.2413635 6.3167267 5.999832c1.2266388 2.7584686 1.307251 5.8912354 0.22407532 8.709122l-16.335785 42.498276c-2.2555695 5.8679504 -8.841003 8.796387 -14.708954 6.540802l-42.498276 -16.335785c-5.8679504 -2.2555847 -8.796371 -8.841003 -6.540802 -14.708969z" fill-rule="evenodd"/><path stroke="#000000" stroke-width="1.0" stroke-linejoin="round" stroke-linecap="butt" d="m174.21373 203.16032l0 0c2.2555695 -5.8679657 8.841003 -8.796387 14.708969 -6.5408173l42.49826 16.3358l0 0c2.8178864 1.0831604 5.090088 3.2413635 6.3167267 5.999832c1.2266388 2.7584686 1.307251 5.8912354 0.22407532 8.709122l-16.335785 42.498276c-2.2555695 5.8679504 -8.841003 8.796387 -14.708954 6.540802l-42.498276 -16.335785c-5.8679504 -2.2555847 -8.796371 -8.841003 -6.540802 -14.708969z" fill-rule="evenodd"/><path fill="#cfe2f3" d="m309.67908 71.66482l0 0c2.2555847 -5.8679657 8.841003 -8.796387 14.708954 -6.5408173l42.49826 16.3358l0 0c2.8179016 1.0831604 5.090088 3.2413635 6.316742 5.9998245c1.226654 2.7584686 1.307251 5.8912354 0.22409058 8.709129l-16.335815 42.49827c-2.2555542 5.8679504 -8.840973 8.796371 -14.708954 6.540802l-42.49826 -16.335785c-5.8679504 -2.255577 -8.796387 -8.840996 -6.540802 -14.7089615z" fill-rule="evenodd"/><path stroke="#000000" stroke-width="1.0" stroke-linejoin="round" stroke-linecap="butt" d="m309.67908 71.66482l0 0c2.2555847 -5.8679657 8.841003 -8.796387 14.708954 -6.5408173l42.49826 16.3358l0 0c2.8179016 1.0831604 5.090088 3.2413635 6.316742 5.9998245c1.226654 2.7584686 1.307251 5.8912354 0.22409058 8.709129l-16.335815 42.49827c-2.2555542 5.8679504 -8.840973 8.796371 -14.708954 6.540802l-42.49826 -16.335785c-5.8679504 -2.255577 -8.796387 -8.840996 -6.540802 -14.7089615z" fill-rule="evenodd"/><path fill="#000000" d="m330.79764 100.051346l2.13974 -3.345665l-1.4438782 -0.55500793l0.48773193 -1.2688675l1.6918335 0.65031433l1.8100281 -2.836296l-2.3189697 -0.8913727l0.48773193 -1.2688675l2.581482 0.9922943l2.1453552 -3.3602524l1.2688904 0.48773956l-2.1453552 3.3602448l2.6835632 1.0315323l2.1453552 -3.3602448l1.2834473 0.49333954l-2.1453552 3.3602448l1.473053 0.56622314l-0.48773193 1.2688599l-1.7210083 -0.6615219l-1.8246155 2.8306885l2.3627014 0.9081955l-0.48773193 1.2688599l-2.6252136 -1.0091019l-2.125183 3.351265l-1.2834473 -0.49333954l2.125183 -3.351265l-2.6690063 -1.0259323l-2.1251526 3.3512726l-1.2834473 -0.49333954zm4.1588745 -4.0258865l2.6689758 1.0259323l1.8246155 -2.8306885l-2.6835632 -1.0315323l-1.8100281 2.8362885z" fill-rule="nonzero"/><path fill="#000000" d="m324.1094 117.01556l1.6098633 0.38446045q-0.2420044 1.4135284 0.16647339 2.2233887q0.4230957 0.81547546 1.3273315 1.1630554q1.0792847 0.41485596 2.1090088 -0.043045044q1.0297241 -0.457901 1.45578 -1.5663376q0.403656 -1.0500946 -0.018341064 -1.9990616q-0.42199707 -0.948967 -1.4866638 -1.3582153q-0.43753052 -0.16818237 -1.1409302 -0.25442505l0.6907959 -1.2745132q0.14022827 0.07064819 0.24230957 0.1098938q0.97717285 0.37561035 1.9463806 0.16226959q0.98379517 -0.20772552 1.3874207 -1.2578201q0.3251648 -0.8459091 -0.03060913 -1.6187668q-0.35577393 -0.77285767 -1.2600098 -1.1204376q-0.88964844 -0.34197235 -1.7062683 -0.0030288696q-0.81100464 0.3243637 -1.4031067 1.3857193l-1.4248657 -0.8657532q0.8657532 -1.4248734 2.1826477 -1.8895645q1.316925 -0.46469116 2.8045654 0.10713959q1.0209045 0.39242554 1.6986389 1.1551208q0.6923218 0.7683029 0.8529053 1.7004929q0.17520142 0.9378052 -0.14996338 1.7837143q-0.3083191 0.80215454 -1.0037537 1.304863q-0.68981934 0.48812103 -1.6871033 0.55674744q1.0075378 0.688591 1.3117371 1.7262039q0.30422974 1.0376205 -0.16107178 2.2481384q-0.62228394 1.6188965 -2.2555237 2.2967987q-1.6186218 0.6835022 -3.4417114 -0.01726532q-1.6480713 -0.63349915 -2.351715 -2.0255203q-0.7036438 -1.3920288 -0.2642212 -3.0142517z" fill-rule="nonzero"/><path fill="#cfe2f3" d="m281.63962 144.63634l0 0c2.2555847 -5.8679657 8.841003 -8.796387 14.708954 -6.5408173l42.49826 16.3358l0 0c2.8179016 1.0831604 5.0901184 3.2413635 6.316742 5.999832c1.226654 2.7584534 1.307251 5.89122 0.22409058 8.709122l-16.335815 42.49826c-2.2555542 5.8679657 -8.840973 8.796387 -14.708954 6.5408173l-42.49826 -16.3358c-5.8679504 -2.2555695 -8.796387 -8.840988 -6.540802 -14.708954z" fill-rule="evenodd"/><path stroke="#000000" stroke-width="1.0" stroke-linejoin="round" stroke-linecap="butt" d="m281.63962 144.63634l0 0c2.2555847 -5.8679657 8.841003 -8.796387 14.708954 -6.5408173l42.49826 16.3358l0 0c2.8179016 1.0831604 5.0901184 3.2413635 6.316742 5.999832c1.226654 2.7584534 1.307251 5.89122 0.22409058 8.709122l-16.335815 42.49826c-2.2555542 5.8679657 -8.840973 8.796387 -14.708954 6.5408173l-42.49826 -16.3358c-5.8679504 -2.2555695 -8.796387 -8.840988 -6.540802 -14.708954z" fill-rule="evenodd"/><path fill="#cfe2f3" d="m253.60017 217.60785l0 0c2.2555695 -5.8679504 8.840988 -8.796371 14.708939 -6.540802l42.49829 16.335785l0 0c2.817871 1.0831604 5.090088 3.2413635 6.3167114 5.999832c1.226654 2.7584686 1.307251 5.8912354 0.22409058 8.709122l-16.335785 42.49826c-2.2555847 5.867981 -8.841003 8.796387 -14.708954 6.5408325l-42.498276 -16.335815c-5.8679657 -2.2555542 -8.796387 -8.840973 -6.5408173 -14.708954z" fill-rule="evenodd"/><path stroke="#000000" stroke-width="1.0" stroke-linejoin="round" stroke-linecap="butt" d="m253.60017 217.60785l0 0c2.2555695 -5.8679504 8.840988 -8.796371 14.708939 -6.540802l42.49829 16.335785l0 0c2.817871 1.0831604 5.090088 3.2413635 6.3167114 5.999832c1.226654 2.7584686 1.307251 5.8912354 0.22409058 8.709122l-16.335785 42.49826c-2.2555847 5.867981 -8.841003 8.796387 -14.708954 6.5408325l-42.498276 -16.335815c-5.8679657 -2.2555542 -8.796387 -8.840973 -6.5408173 -14.708954z" fill-rule="evenodd"/><path fill="#cfe2f3" d="m150.50798 43.80614l0 0c2.2555695 -5.867962 8.840988 -8.796383 14.708954 -6.5408134l42.49826 16.335796l0 0c2.8179016 1.0831604 5.090103 3.2413635 6.316742 5.9998283c1.2266388 2.7584648 1.3072357 5.8912277 0.22407532 8.709122l-16.3358 42.49827c-2.2555695 5.867958 -8.840988 8.796379 -14.708954 6.5408096l-42.49826 -16.335793c-5.8679657 -2.2555695 -8.796387 -8.840996 -6.5408173 -14.708954z" fill-rule="evenodd"/><path stroke="#000000" stroke-width="1.0" stroke-linejoin="round" stroke-linecap="butt" d="m150.50798 43.80614l0 0c2.2555695 -5.867962 8.840988 -8.796383 14.708954 -6.5408134l42.49826 16.335796l0 0c2.8179016 1.0831604 5.090103 3.2413635 6.316742 5.9998283c1.2266388 2.7584648 1.3072357 5.8912277 0.22407532 8.709122l-16.3358 42.49827c-2.2555695 5.867958 -8.840988 8.796379 -14.708954 6.5408096l-42.49826 -16.335793c-5.8679657 -2.2555695 -8.796387 -8.840996 -6.5408173 -14.708954z" fill-rule="evenodd"/><path fill="#000000" d="m176.41632 70.23392l2.072876 -6.7862396l1.0651703 -2.77108l1.8959961 0.7287979l-1.0651703 2.77108l-2.9916992 6.433052l-0.97717285 -0.37561035zm-1.596878 2.9349747l0.67274475 -1.7501602l1.76474 0.6783447l-0.67274475 1.7501602l-1.76474 -0.6783447z" fill-rule="nonzero"/><path fill="#000000" d="m169.43225 94.667435l-1.5313873 -0.58864594l3.7505188 -9.757118q-0.7560425 0.31201172 -1.8677216 0.50405884q-1.0914764 0.18307495 -1.9070435 0.17089844l0.5718384 -1.4876328q1.5132904 -0.10462952 2.8066406 -0.5951233q1.2933502 -0.49048615 1.9954681 -1.1412735l0.99176025 0.38121796l-4.810074 12.513618z" fill-rule="nonzero"/><path fill="#cfe2f3" d="m122.46853 116.77766l0 0c2.2555695 -5.867958 8.840996 -8.796379 14.708946 -6.5408096l42.498276 16.335793l0 0c2.8178864 1.0831604 5.090088 3.2413712 6.3167267 5.99984c1.2266388 2.7584534 1.3072357 5.89122 0.22407532 8.709122l-16.335785 42.49826c-2.2555695 5.8679657 -8.841003 8.796387 -14.708954 6.5408173l-42.49827 -16.3358c-5.8679657 -2.2555695 -8.796387 -8.840988 -6.5408173 -14.708954z" fill-rule="evenodd"/><path stroke="#000000" stroke-width="1.0" stroke-linejoin="round" stroke-linecap="butt" d="m122.46853 116.77766l0 0c2.2555695 -5.867958 8.840996 -8.796379 14.708946 -6.5408096l42.498276 16.335793l0 0c2.8178864 1.0831604 5.090088 3.2413712 6.3167267 5.99984c1.2266388 2.7584534 1.3072357 5.89122 0.22407532 8.709122l-16.335785 42.49826c-2.2555695 5.8679657 -8.841003 8.796387 -14.708954 6.5408173l-42.49827 -16.3358c-5.8679657 -2.2555695 -8.796387 -8.840988 -6.5408173 -14.708954z" fill-rule="evenodd"/><path fill="#cfe2f3" d="m94.42907 189.74918l0 0c2.2555695 -5.8679657 8.840996 -8.796387 14.708954 -6.5408173l42.49827 16.3358l0 0c2.8178864 1.0831604 5.090088 3.2413635 6.3167267 5.999832c1.2266388 2.7584686 1.307251 5.8912354 0.22409058 8.709122l-16.3358 42.49826c-2.2555695 5.867981 -8.840988 8.796387 -14.708954 6.5408325l-42.49827 -16.335815c-5.867958 -2.2555695 -8.796379 -8.840988 -6.5408096 -14.708954z" fill-rule="evenodd"/><path stroke="#000000" stroke-width="1.0" stroke-linejoin="round" stroke-linecap="butt" d="m94.42907 189.74918l0 0c2.2555695 -5.8679657 8.840996 -8.796387 14.708954 -6.5408173l42.49827 16.3358l0 0c2.8178864 1.0831604 5.090088 3.2413635 6.3167267 5.999832c1.2266388 2.7584686 1.307251 5.8912354 0.22409058 8.709122l-16.3358 42.49826c-2.2555695 5.867981 -8.840988 8.796387 -14.708954 6.5408325l-42.49827 -16.335815c-5.867958 -2.2555695 -8.796379 -8.840988 -6.5408096 -14.708954z" fill-rule="evenodd"/><path fill="#cfe2f3" d="m682.5189 106.4395l0 0c-2.2787476 -5.859268 -8.875977 -8.761833 -14.7352295 -6.4830704l-42.43524 16.503769l0 0c-2.8137207 1.0942993 -5.0775146 3.261528 -6.293335 6.0249176c-1.2157593 2.763382 -1.2840576 5.8965683 -0.1897583 8.710289l16.503784 42.435272c2.2787476 5.859253 8.875916 8.761826 14.735168 6.4830627l42.435303 -16.503769c5.859253 -2.2787628 8.761841 -8.875946 6.4830933 -14.735199z" fill-rule="evenodd"/><path stroke="#000000" stroke-width="1.0" stroke-linejoin="round" stroke-linecap="butt" d="m682.5189 106.4395l0 0c-2.2787476 -5.859268 -8.875977 -8.761833 -14.7352295 -6.4830704l-42.43524 16.503769l0 0c-2.8137207 1.0942993 -5.0775146 3.261528 -6.293335 6.0249176c-1.2157593 2.763382 -1.2840576 5.8965683 -0.1897583 8.710289l16.503784 42.435272c2.2787476 5.859253 8.875916 8.761826 14.735168 6.4830627l42.435303 -16.503769c5.859253 -2.2787628 8.761841 -8.875946 6.4830933 -14.735199z" fill-rule="evenodd"/><path fill="#000000" d="m659.3514 133.8057q-0.42877197 1.1391296 -1.152832 1.9069061q-0.72406006 0.76779175 -1.7579956 1.1699066q-1.9077148 0.7419281 -3.533081 -0.11802673q-1.3251953 -0.69169617 -1.8348999 -2.0023193q-0.44744873 -1.1504364 -0.06719971 -2.3712616q0.380188 -1.2208405 1.593689 -2.497528q-1.2183838 -0.6326294 -1.7272949 -1.1220856q-0.51452637 -0.50401306 -0.7354126 -1.0719452q-0.4360962 -1.1213074 0.1204834 -2.276619q0.5509033 -1.1698761 1.890625 -1.6909256q1.2669678 -0.4927292 2.3883057 -0.023513794q1.1156616 0.45465088 1.5404053 1.5468292q0.690979 1.776619 -1.1810913 3.9464874l3.3381348 1.9877167q0.09869385 -0.9101715 -0.0769043 -1.9651489l1.7175293 -0.28237915q0.22662354 1.789566 -0.06463623 3.109909q1.3009644 0.8017273 2.6932983 1.1487579l-0.5581665 1.6253662q-1.1496582 -0.24024963 -2.5929565 -1.0201263zm-5.6221313 -5.273941q0.75805664 -0.982193 0.87939453 -1.5323334q0.12133789 -0.550148 -0.0881958 -1.0889587q-0.24920654 -0.6407471 -0.8098755 -0.87535095q-0.5517578 -0.2548294 -1.1488037 -0.022621155q-0.6262207 0.24353027 -0.8899536 0.81552124q-0.25482178 0.55176544 -0.033935547 1.1197052q0.11328125 0.2912445 0.3834839 0.55498505q0.28479004 0.2580719 0.71765137 0.50886536l0.9902344 0.5201874zm4.190918 4.4390564l-4.143921 -2.3784637q-0.9489746 1.2240906 -1.142334 2.0201874q-0.19329834 0.79608154 0.050231934 1.4222717q0.29449463 0.7572479 1.2086792 1.3405457q0.928833 0.57762146 2.0355835 0.14718628q0.6843872 -0.26618958 1.248291 -0.9716797q0.5727539 -0.725708 0.74346924 -1.5800476z" fill-rule="nonzero"/><path fill="#000000" d="m657.22644 147.47417l-0.5720215 -1.4707947l8.0529785 -3.131958l0.4644165 1.1941223q-0.701355 1.7313385 -1.0507812 4.281418q-0.3494873 2.5500793 -0.1293335 5.0127563q0.15454102 1.7337646 0.7484131 3.6487274l-1.5727539 0.6116638q-0.5428467 -1.482132 -0.79937744 -3.7797852q-0.25653076 -2.297638 0.015258789 -4.616333q0.28063965 -2.338913 0.93029785 -4.1171875l-6.087097 2.3673706z" fill-rule="nonzero"/><path fill="#cfe2f3" d="m739.19867 252.15024l0 0c-2.2787476 -5.859268 -8.875916 -8.761841 -14.7352295 -6.483078l-42.43524 16.503769l0 0c-2.8137207 1.0942993 -5.0775146 3.2615356 -6.293274 6.024933c-1.2158203 2.7633667 -1.2841187 5.8965454 -0.18981934 8.710266l16.503784 42.435272c2.2787476 5.8592834 8.875977 8.761841 14.7352295 6.4830933l42.43524 -16.503784c5.859253 -2.278778 8.761841 -8.875946 6.4830933 -14.735199z" fill-rule="evenodd"/><path stroke="#000000" stroke-width="1.0" stroke-linejoin="round" stroke-linecap="butt" d="m739.19867 252.15024l0 0c-2.2787476 -5.859268 -8.875916 -8.761841 -14.7352295 -6.483078l-42.43524 16.503769l0 0c-2.8137207 1.0942993 -5.0775146 3.2615356 -6.293274 6.024933c-1.2158203 2.7633667 -1.2841187 5.8965454 -0.18981934 8.710266l16.503784 42.435272c2.2787476 5.8592834 8.875977 8.761841 14.7352295 6.4830933l42.43524 -16.503784c5.859253 -2.278778 8.761841 -8.875946 6.4830933 -14.735199z" fill-rule="evenodd"/><path fill="#cfe2f3" d="m612.0476 143.978l0 0c-2.2787476 -5.859253 -8.875916 -8.761826 -14.7352295 -6.4830627l-42.43524 16.503769l0 0c-2.8137207 1.0942993 -5.0775146 3.2615356 -6.293274 6.0249176c-1.2158203 2.763382 -1.2841187 5.896576 -0.18981934 8.710297l16.503784 42.435257c2.2787476 5.859268 8.875916 8.761841 14.7352295 6.483078l42.43524 -16.503769c5.859253 -2.2787628 8.761841 -8.875946 6.4830933 -14.735214z" fill-rule="evenodd"/><path stroke="#000000" stroke-width="1.0" stroke-linejoin="round" stroke-linecap="butt" d="m612.0476 143.978l0 0c-2.2787476 -5.859253 -8.875916 -8.761826 -14.7352295 -6.4830627l-42.43524 16.503769l0 0c-2.8137207 1.0942993 -5.0775146 3.2615356 -6.293274 6.0249176c-1.2158203 2.763382 -1.2841187 5.896576 -0.18981934 8.710297l16.503784 42.435257c2.2787476 5.859268 8.875916 8.761841 14.7352295 6.483078l42.43524 -16.503769c5.859253 -2.2787628 8.761841 -8.875946 6.4830933 -14.735214z" fill-rule="evenodd"/><path fill="#000000" d="m582.6618 168.71628l-1.5727539 0.6116638l0.35498047 -7.967346l1.237854 -0.4814148l5.6593018 5.628311l-1.5436401 0.60032654l-4.067932 -4.2521667l-0.06781006 5.860626z" fill-rule="nonzero"/><path fill="#000000" d="m595.1302 183.39847l-1.4691772 0.7055054q-0.5550537 -0.8235779 -1.0922241 -1.0840759q-0.8665161 -0.4174347 -1.7839355 -0.060638428q-0.7280884 0.28318787 -1.1229248 0.9061432q-0.50964355 0.8017731 -0.53552246 1.9853821q-0.03149414 1.1690521 0.678833 3.0387115q0.23059082 -1.0452881 0.8729248 -1.7645264q0.642334 -0.7192383 1.5161133 -1.0590515q1.5290527 -0.5946808 3.0281982 0.1131897q1.5137329 0.7021942 2.2046509 2.4788208q0.45874023 1.1795502 0.33984375 2.3825836q-0.10430908 1.1973724 -0.78308105 2.081665q-0.6641846 0.87861633 -1.7854614 1.3147125q-1.9222412 0.7475891 -3.6746826 -0.18032837q-1.7434692 -0.9481354 -3.0007935 -4.1809998q-1.404541 -3.6114807 -0.7136841 -5.7578583q0.60998535 -1.8802032 2.590454 -2.6504517q1.4562378 -0.5663605 2.7110596 -0.09877014q1.2637329 0.44737244 2.0194092 1.8299866zm-4.1485596 7.7829742q0.30584717 0.78637695 0.9239502 1.3842316q0.6124878 0.5832977 1.3567505 0.72972107q0.74432373 0.14642334 1.4141846 -0.114105225q0.9611206 -0.37379456 1.3599854 -1.4174652q0.39312744 -1.0582123 -0.12786865 -2.3979645q-0.50408936 -1.296051 -1.477356 -1.7725525q-0.9732666 -0.4764862 -2.0217896 -0.06871033q-1.0339355 0.4020996 -1.4732056 1.4279633q-0.42468262 1.0202026 0.04534912 2.2288818z" fill-rule="nonzero"/><path fill="#cfe2f3" d="m640.3875 216.83337l0 0c-2.2788086 -5.859268 -8.875977 -8.761841 -14.7352295 -6.4830627l-42.43524 16.503769l0 0c-2.8137207 1.0942993 -5.0775146 3.2615204 -6.293335 6.0249023c-1.2158203 2.7633972 -1.2840576 5.896576 -0.1897583 8.710297l16.503784 42.435257c2.2787476 5.8592834 8.875916 8.761841 14.735168 6.4830933l42.435303 -16.503784c5.859253 -2.2787476 8.761841 -8.875946 6.483032 -14.735199z" fill-rule="evenodd"/><path stroke="#000000" stroke-width="1.0" stroke-linejoin="round" stroke-linecap="butt" d="m640.3875 216.83337l0 0c-2.2788086 -5.859268 -8.875977 -8.761841 -14.7352295 -6.4830627l-42.43524 16.503769l0 0c-2.8137207 1.0942993 -5.0775146 3.2615204 -6.293335 6.0249023c-1.2158203 2.7633972 -1.2840576 5.896576 -0.1897583 8.710297l16.503784 42.435257c2.2787476 5.8592834 8.875916 8.761841 14.735168 6.4830933l42.435303 -16.503784c5.859253 -2.2787476 8.761841 -8.875946 6.483032 -14.735199z" fill-rule="evenodd"/><path fill="#cfe2f3" d="m668.72736 289.68875l0 0c-2.2787476 -5.8592834 -8.875916 -8.761841 -14.735168 -6.4830933l-42.435303 16.503784l0 0c-2.8137207 1.0942993 -5.0774536 3.2615356 -6.293274 6.0249023c-1.2158203 2.7633972 -1.2841187 5.896576 -0.1897583 8.710297l16.503723 42.435272c2.2788086 5.8592834 8.875977 8.761841 14.7352295 6.4830627l42.43524 -16.503754c5.859314 -2.278778 8.761841 -8.875946 6.4830933 -14.735199z" fill-rule="evenodd"/><path stroke="#000000" stroke-width="1.0" stroke-linejoin="round" stroke-linecap="butt" d="m668.72736 289.68875l0 0c-2.2787476 -5.8592834 -8.875916 -8.761841 -14.735168 -6.4830933l-42.435303 16.503784l0 0c-2.8137207 1.0942993 -5.0774536 3.2615356 -6.293274 6.0249023c-1.2158203 2.7633972 -1.2841187 5.896576 -0.1897583 8.710297l16.503723 42.435272c2.2788086 5.8592834 8.875977 8.761841 14.7352295 6.4830627l42.43524 -16.503754c5.859314 -2.278778 8.761841 -8.875946 6.4830933 -14.735199z" fill-rule="evenodd"/><path fill="#cfe2f3" d="m831.91394 53.091763l0 0c-2.2787476 -5.8592644 -8.875916 -8.761833 -14.735168 -6.4830704l-42.435303 16.503773l0 0c-2.8137207 1.0942993 -5.0774536 3.261528 -6.293274 6.02491c-1.2158203 2.7633896 -1.2841187 5.896576 -0.18981934 8.710289l16.503784 42.435272c2.2788086 5.859268 8.875977 8.761833 14.7352295 6.4830704l42.43524 -16.503769c5.859253 -2.2787628 8.761841 -8.875938 6.4830933 -14.735207z" fill-rule="evenodd"/><path stroke="#000000" stroke-width="1.0" stroke-linejoin="round" stroke-linecap="butt" d="m831.91394 53.091763l0 0c-2.2787476 -5.8592644 -8.875916 -8.761833 -14.735168 -6.4830704l-42.435303 16.503773l0 0c-2.8137207 1.0942993 -5.0774536 3.261528 -6.293274 6.02491c-1.2158203 2.7633896 -1.2841187 5.896576 -0.18981934 8.710289l16.503784 42.435272c2.2788086 5.859268 8.875977 8.761833 14.7352295 6.4830704l42.43524 -16.503769c5.859253 -2.2787628 8.761841 -8.875938 6.4830933 -14.735207z" fill-rule="evenodd"/><path fill="#000000" d="m809.4496 86.08579q-1.8842773 -1.094574 -3.5905762 -2.8954391q-1.7062988 -1.8008652 -2.6011353 -4.1017303q-0.7815552 -2.009613 -0.84552 -4.113907q-0.06640625 -2.4554062 0.69403076 -5.1988525l1.0921631 -0.42476654q-0.3340454 2.1585007 -0.37451172 3.0460129q-0.05657959 1.3632202 0.13598633 2.763649q0.2532959 1.7288895 0.87628174 3.3307648q1.5858154 4.0774765 5.7054443 7.1695023l-1.0921631 0.42476654z" fill-rule="nonzero"/><path fill="#000000" d="m809.8246 102.01766l1.4198608 -0.70308685q0.59143066 0.9603119 1.296875 1.2224197q0.7055054 0.26210785 1.5355835 -0.06071472q0.6989746 -0.2718506 1.0986328 -0.79611206q0.41418457 -0.5299301 0.5396118 -1.1989975q0.13995361 -0.674736 0.0015258789 -1.677124q-0.1237793 -1.008049 -0.49188232 -1.9546127q-0.03967285 -0.10193634 -0.11895752 -0.30580902q-0.1828003 0.90935516 -0.8081665 1.672287q-0.61083984 0.7572708 -1.5282593 1.1140747q-1.5581665 0.6060028 -3.057312 -0.101867676q-1.4991455 -0.70786285 -2.2127686 -2.5427322q-0.7362671 -1.8931198 -0.07696533 -3.4739838q0.67388916 -1.586525 2.3485718 -2.2378387q1.2232666 -0.47573853 2.4829102 -0.21121216q1.2597046 0.26452637 2.2540283 1.2693176q0.99432373 1.0047913 1.8834839 3.291092q0.928833 2.3882446 0.95391846 4.0046844q0.025146484 1.6164474 -0.7053833 2.7555847q-0.7305298 1.1391296 -2.1139526 1.6771698q-1.4562378 0.5663605 -2.7053833 0.11332703q-1.2346191 -0.45868683 -1.9959717 -1.8558655zm4.126709 -7.925377q-0.5097046 -1.3106155 -1.5089111 -1.8105774q-0.9991455 -0.49995422 -1.9893799 -0.11483765q-1.0194092 0.39645386 -1.4537964 1.521019q-0.43444824 1.1245651 0.08093262 2.4497452q0.4644165 1.1941223 1.4668579 1.6592865q1.0169067 0.4595108 2.0654297 0.051727295q1.0630493 -0.4134369 1.4586792 -1.4223099q0.39556885 -1.008873 -0.11981201 -2.334053z" fill-rule="nonzero"/><path fill="#cfe2f3" d="m888.5937 198.8025l0 0c-2.2787476 -5.859268 -8.875916 -8.761841 -14.735168 -6.483078l-42.435303 16.503769l0 0c-2.8137207 1.0943146 -5.0774536 3.2615356 -6.293274 6.0249176c-1.2158203 2.763382 -1.2840576 5.896576 -0.1897583 8.710297l16.503723 42.435272c2.2788086 5.859253 8.875977 8.761841 14.7352295 6.4830627l42.435303 -16.503769c5.859253 -2.2787628 8.76178 -8.875946 6.483032 -14.735199z" fill-rule="evenodd"/><path stroke="#000000" stroke-width="1.0" stroke-linejoin="round" stroke-linecap="butt" d="m888.5937 198.8025l0 0c-2.2787476 -5.859268 -8.875916 -8.761841 -14.735168 -6.483078l-42.435303 16.503769l0 0c-2.8137207 1.0943146 -5.0774536 3.2615356 -6.293274 6.0249176c-1.2158203 2.763382 -1.2840576 5.896576 -0.1897583 8.710297l16.503723 42.435272c2.2788086 5.859253 8.875977 8.761841 14.7352295 6.4830627l42.435303 -16.503769c5.859253 -2.2787628 8.76178 -8.875946 6.483032 -14.735199z" fill-rule="evenodd"/><path fill="#cfe2f3" d="m752.5877 67.86626l0 0c-2.2787476 -5.8592606 -8.875916 -8.761829 -14.735168 -6.4830666l-42.435303 16.503773l0 0c-2.8137207 1.0942993 -5.0774536 3.261528 -6.293274 6.02491c-1.2158203 2.7633896 -1.2841187 5.896576 -0.18981934 8.710289l16.503784 42.435272c2.2787476 5.859268 8.875977 8.761841 14.7352295 6.483078l42.43524 -16.503777c5.859253 -2.2787628 8.761841 -8.875938 6.4830933 -14.735207z" fill-rule="evenodd"/><path stroke="#000000" stroke-width="1.0" stroke-linejoin="round" stroke-linecap="butt" d="m752.5877 67.86626l0 0c-2.2787476 -5.8592606 -8.875916 -8.761829 -14.735168 -6.4830666l-42.435303 16.503773l0 0c-2.8137207 1.0942993 -5.0774536 3.261528 -6.293274 6.02491c-1.2158203 2.7633896 -1.2841187 5.896576 -0.18981934 8.710289l16.503784 42.435272c2.2787476 5.859268 8.875977 8.761841 14.7352295 6.483078l42.43524 -16.503777c5.859253 -2.2787628 8.761841 -8.875938 6.4830933 -14.735207z" fill-rule="evenodd"/><path fill="#000000" d="m720.7363 88.60098l-0.0769043 -1.3616028q1.5411987 -0.046150208 2.2887573 0.065475464q-0.76049805 -1.4813156 -0.9959717 -2.0435867l1.237793 -0.48140717q0.29370117 0.8413925 0.61169434 2.1762848q0.7038574 -0.7766876 1.6924438 -1.5970688l0.86328125 1.0557632q-0.93603516 0.783165 -1.9246826 1.3017807q0.68530273 0.25321198 2.0792847 1.0355072l-0.73620605 1.1245728q-0.7612915 -0.4918747 -1.8786011 -1.3817825q-0.1618042 1.4376526 -0.39312744 2.2653046l-1.2880249 -0.3373413q0.52020264 -1.5938034 0.7896118 -2.1512299q-1.177185 0.20632935 -2.2693481 0.32933044z" fill-rule="nonzero"/><path fill="#000000" d="m731.12366 112.10623q-1.0825195 0.018630981 -1.7976685 -0.44087982q-0.7062988 -0.47974396 -1.0574951 -1.3826141q-0.52667236 -1.3543015 0.09222412 -2.6511993q0.6131592 -1.3114548 2.2296143 -1.9401093q1.6309814 -0.6343155 2.98938 -0.072883606q1.3729248 0.5557709 1.8996582 1.91008q0.3397827 0.8737488 0.12298584 1.6957245q-0.20220947 0.8163223 -0.9837036 1.5226212q1.2774048 -0.077697754 2.1973267 0.52015686q0.93444824 0.592186 1.3875122 1.7571869q0.6173096 1.5873032 -0.09375 3.1212463q-0.7111206 1.5339432 -2.5459595 2.247551q-1.8494263 0.7192688 -3.4100952 0.068847656q-1.5460815 -0.6560898 -2.18042 -2.2870789q-0.475708 -1.2232437 -0.18127441 -2.2766113q0.309021 -1.0590286 1.331665 -1.792038zm-1.3139648 -2.4731827q0.33984375 0.8737488 1.1286621 1.2208023q0.7831421 0.33249664 1.7005615 -0.024307251q0.8737793 -0.33981323 1.2265015 -1.1140671q0.35272217 -0.77425385 0.04119873 -1.5751877q-0.3284912 -0.84461975 -1.131897 -1.1860123q-0.809021 -0.35595703 -1.6827393 -0.016143799q-0.8737793 0.33981323 -1.2353516 1.1342926q-0.35272217 0.77425385 -0.046936035 1.5606232zm1.7363281 5.9301605q0.2548828 0.6553116 0.798584 1.1480026q0.55822754 0.4870224 1.3001099 0.5840912q0.7418823 0.09706116 1.4408569 -0.17478943q1.0922241 -0.42476654 1.5339355 -1.4012756q0.4416504 -0.9765167 0.016906738 -2.068695q-0.43041992 -1.1067505 -1.4506226 -1.5314636q-1.0112915 -0.4449463 -2.1035156 -0.020179749q-1.0775757 0.41910553 -1.5136108 1.4101791q-0.4360962 0.9910736 -0.022644043 2.0541306z" fill-rule="nonzero"/><path fill="#cfe2f3" d="m809.26746 213.577l0 0c-2.2787476 -5.859268 -8.875916 -8.761826 -14.735168 -6.4830627l-42.435303 16.503769l0 0c-2.8137207 1.0942993 -5.0774536 3.2615204 -6.293274 6.0249176c-1.2158203 2.763382 -1.2840576 5.8965607 -0.1897583 8.710281l16.503723 42.435287c2.2788086 5.859253 8.875977 8.76181 14.7352295 6.4830627l42.43524 -16.503784c5.859314 -2.2787476 8.761841 -8.875946 6.4830933 -14.735199z" fill-rule="evenodd"/><path stroke="#000000" stroke-width="1.0" stroke-linejoin="round" stroke-linecap="butt" d="m809.26746 213.577l0 0c-2.2787476 -5.859268 -8.875916 -8.761826 -14.735168 -6.4830627l-42.435303 16.503769l0 0c-2.8137207 1.0942993 -5.0774536 3.2615204 -6.293274 6.0249176c-1.2158203 2.763382 -1.2840576 5.8965607 -0.1897583 8.710281l16.503723 42.435287c2.2788086 5.859253 8.875977 8.76181 14.7352295 6.4830627l42.43524 -16.503784c5.859314 -2.2787476 8.761841 -8.875946 6.4830933 -14.735199z" fill-rule="evenodd"/><path fill="#cfe2f3" d="m911.6427 39.351994l0 0c-2.2788086 -5.8592644 -8.875977 -8.761835 -14.7352295 -6.4830704l-42.43524 16.503773l0 0c-2.8137207 1.0942993 -5.0775146 3.2615242 -6.293335 6.024914c-1.2158203 2.7633858 -1.2840576 5.8965683 -0.1897583 8.710285l16.503784 42.435272c2.2787476 5.859268 8.875916 8.761833 14.735168 6.4830704l42.435303 -16.503769c5.859253 -2.2787628 8.761841 -8.875938 6.483032 -14.735207z" fill-rule="evenodd"/><path stroke="#000000" stroke-width="1.0" stroke-linejoin="round" stroke-linecap="butt" d="m911.6427 39.351994l0 0c-2.2788086 -5.8592644 -8.875977 -8.761835 -14.7352295 -6.4830704l-42.43524 16.503773l0 0c-2.8137207 1.0942993 -5.0775146 3.2615242 -6.293335 6.024914c-1.2158203 2.7633858 -1.2840576 5.8965683 -0.1897583 8.710285l16.503784 42.435272c2.2787476 5.859268 8.875916 8.761833 14.735168 6.4830704l42.435303 -16.503769c5.859253 -2.2787628 8.761841 -8.875938 6.483032 -14.735207z" fill-rule="evenodd"/><path fill="#000000" d="m887.2706 73.08795l-1.1067505 0.43042755q0.9626465 -5.0686035 -0.62316895 -9.146088q-0.62298584 -1.6018677 -1.5930786 -3.0184593q-0.7896118 -1.1682243 -1.7669678 -2.1293297q-0.6350708 -0.64154816 -2.3599854 -2.0160522l1.1067505 -0.43043137q2.4141846 1.5087852 4.02417 3.3638573q1.3600464 1.600235 2.1416016 3.6098518q0.8948364 2.3008614 0.8536377 4.781353q-0.04119873 2.4804993 -0.6762085 4.5548706z" fill-rule="nonzero"/><path fill="#000000" d="m888.0663 85.10085q-0.8552246 -2.1989212 -0.9248657 -3.714241q-0.07525635 -1.5298767 0.5299072 -2.6034775q0.61968994 -1.0792618 1.973999 -1.6059723q1.0047607 -0.39078522 1.9205933 -0.2775421q0.91015625 0.09867859 1.690918 0.6835861q0.7896118 0.56468964 1.4910889 1.549263q0.71032715 0.96434784 1.4296265 2.8137817q0.8551636 2.1989288 0.93048096 3.7288055q0.06958008 1.5153122 -0.5444336 2.6091385q-0.6051636 1.0736008 -1.973999 1.6059723q-1.7911987 0.69662476 -3.3291626 -0.19731903q-1.8292847 -1.0824432 -3.1941528 -4.5919952zm1.5581665 -0.6059952q1.1950073 3.07267 2.3049927 3.8145294q1.1189575 0.7216263 2.1674194 0.3138504q1.0630493 -0.41344452 1.380188 -1.7103271q0.31707764 -1.2968826 -0.8722534 -4.3549957q-1.1950073 -3.0726776 -2.2993774 -3.799965q-1.1043091 -0.7272949 -2.1819458 -0.3081894q-1.048523 0.40777588 -1.3292236 1.5396194q-0.35913086 1.4473648 0.8302002 4.505478z" fill-rule="nonzero"/><path fill="#cfe2f3" d="m968.32245 185.06273l0 0c-2.2787476 -5.859268 -8.875977 -8.761826 -14.7352295 -6.4830627l-42.43524 16.503769l0 0c-2.8137207 1.0942993 -5.0775146 3.2615204 -6.293335 6.0249176c-1.2157593 2.763382 -1.2840576 5.8965607 -0.1897583 8.710281l16.503784 42.435272c2.2787476 5.859253 8.875916 8.761841 14.7352295 6.4830627l42.43524 -16.503769c5.859253 -2.2787628 8.761841 -8.875931 6.4830933 -14.735199z" fill-rule="evenodd"/><path stroke="#000000" stroke-width="1.0" stroke-linejoin="round" stroke-linecap="butt" d="m968.32245 185.06273l0 0c-2.2787476 -5.859268 -8.875977 -8.761826 -14.7352295 -6.4830627l-42.43524 16.503769l0 0c-2.8137207 1.0942993 -5.0775146 3.2615204 -6.293335 6.0249176c-1.2157593 2.763382 -1.2840576 5.8965607 -0.1897583 8.710281l16.503784 42.435272c2.2787476 5.859253 8.875916 8.761841 14.7352295 6.4830627l42.43524 -16.503769c5.859253 -2.2787628 8.761841 -8.875931 6.4830933 -14.735199z" fill-rule="evenodd"/><path fill="#000000" fill-opacity="0.0" d="m387.52493 23.19685l287.46457 0l0 51.716534l-287.46457 0z" fill-rule="evenodd"/><path fill="#cfe2f3" d="m442.17825 57.79685l0 -19.078125l2.59375 0l10.015625 14.984375l0 -14.984375l2.421875 0l0 19.078125l-2.59375 0l-10.015625 -15.0l0 15.0l-2.421875 0zm28.031525 0l0 -2.03125q-1.609375 2.34375 -4.375 2.34375q-1.234375 0 -2.296875 -0.46875q-1.0625 -0.46875 -1.578125 -1.171875q-0.5 -0.71875 -0.71875 -1.75q-0.140625 -0.6875 -0.140625 -2.1875l0 -8.5625l2.34375 0l0 7.671875q0 1.828125 0.140625 2.46875q0.21875 0.921875 0.9375 1.453125q0.71875 0.53125 1.765625 0.53125q1.0625 0 1.984375 -0.53125q0.921875 -0.546875 1.296875 -1.46875q0.390625 -0.9375 0.390625 -2.71875l0 -7.40625l2.34375 0l0 13.828125l-2.09375 0zm5.762451 0l0 -13.828125l2.109375 0l0 1.9375q0.640625 -1.015625 1.71875 -1.625q1.09375 -0.625 2.46875 -0.625q1.53125 0 2.515625 0.640625q0.984375 0.640625 1.390625 1.78125q1.640625 -2.421875 4.265625 -2.421875q2.0625 0 3.15625 1.140625q1.109375 1.140625 1.109375 3.515625l0 9.484375l-2.328125 0l0 -8.703125q0 -1.40625 -0.234375 -2.015625q-0.21875 -0.625 -0.828125 -1.0q-0.59375 -0.390625 -1.390625 -0.390625q-1.46875 0 -2.4375 0.96875q-0.953125 0.96875 -0.953125 3.109375l0 8.03125l-2.34375 0l0 -8.984375q0 -1.5625 -0.578125 -2.34375q-0.5625 -0.78125 -1.875 -0.78125q-0.984375 0 -1.828125 0.53125q-0.828125 0.515625 -1.21875 1.515625q-0.375 1.0 -0.375 2.890625l0 7.171875l-2.34375 0zm24.37674 0l-2.171875 0l0 -19.078125l2.34375 0l0 6.796875q1.484375 -1.859375 3.78125 -1.859375q1.28125 0 2.40625 0.515625q1.140625 0.515625 1.875 1.453125q0.75 0.921875 1.15625 2.25q0.421875 1.3125 0.421875 2.796875q0 3.5625 -1.765625 5.5q-1.75 1.9375 -4.21875 1.9375q-2.4375 0 -3.828125 -2.046875l0 1.734375zm-0.03125 -7.015625q0 2.484375 0.671875 3.59375q1.109375 1.8125 3.0 1.8125q1.53125 0 2.65625 -1.328125q1.125 -1.34375 1.125 -3.984375q0 -2.703125 -1.078125 -3.984375q-1.078125 -1.296875 -2.59375 -1.296875q-1.546875 0 -2.671875 1.328125q-1.109375 1.328125 -1.109375 3.859375zm22.153046 2.5625l2.421875 0.296875q-0.578125 2.125 -2.125 3.296875q-1.546875 1.171875 -3.953125 1.171875q-3.03125 0 -4.8125 -1.859375q-1.78125 -1.875 -1.78125 -5.25q0 -3.484375 1.796875 -5.40625q1.796875 -1.9375 4.671875 -1.9375q2.765625 0 4.515625 1.890625q1.765625 1.890625 1.765625 5.3125q0 0.203125 -0.015625 0.625l-10.3125 0q0.140625 2.28125 1.296875 3.5q1.15625 1.203125 2.890625 1.203125q1.28125 0 2.1875 -0.671875q0.921875 -0.6875 1.453125 -2.171875zm-7.6875 -3.78125l7.71875 0q-0.15625 -1.75 -0.890625 -2.625q-1.125 -1.34375 -2.90625 -1.34375q-1.609375 0 -2.71875 1.078125q-1.09375 1.078125 -1.203125 2.890625zm13.028076 8.234375l0 -13.828125l2.109375 0l0 2.09375q0.796875 -1.46875 1.484375 -1.9375q0.6875 -0.46875 1.5 -0.46875q1.1875 0 2.40625 0.765625l-0.796875 2.171875q-0.859375 -0.515625 -1.71875 -0.515625q-0.765625 0 -1.390625 0.46875q-0.609375 0.453125 -0.859375 1.28125q-0.390625 1.25 -0.390625 2.734375l0 7.234375l-2.34375 0zm7.954834 -4.125l2.328125 -0.359375q0.1875 1.390625 1.078125 2.140625q0.890625 0.734375 2.5 0.734375q1.609375 0 2.390625 -0.65625q0.78125 -0.65625 0.78125 -1.546875q0 -0.796875 -0.6875 -1.25q-0.484375 -0.3125 -2.390625 -0.796875q-2.578125 -0.65625 -3.578125 -1.125q-1.0 -0.46875 -1.515625 -1.3125q-0.515625 -0.84375 -0.515625 -1.859375q0 -0.921875 0.421875 -1.703125q0.4375 -0.796875 1.15625 -1.3125q0.546875 -0.40625 1.484375 -0.6875q0.953125 -0.28125 2.03125 -0.28125q1.625 0 2.859375 0.46875q1.234375 0.46875 1.8125 1.28125q0.59375 0.796875 0.8125 2.140625l-2.296875 0.3125q-0.15625 -1.078125 -0.90625 -1.671875q-0.75 -0.59375 -2.109375 -0.59375q-1.609375 0 -2.3125 0.53125q-0.6875 0.53125 -0.6875 1.25q0 0.453125 0.296875 0.8125q0.28125 0.375 0.890625 0.625q0.359375 0.140625 2.078125 0.609375q2.484375 0.65625 3.46875 1.078125q0.984375 0.421875 1.53125 1.234375q0.5625 0.796875 0.5625 2.0q0 1.171875 -0.6875 2.21875q-0.671875 1.03125 -1.96875 1.59375q-1.28125 0.5625 -2.90625 0.5625q-2.703125 0 -4.125 -1.109375q-1.40625 -1.125 -1.796875 -3.328125zm21.874756 4.125l0 -19.078125l2.53125 0l0 16.828125l9.390625 0l0 2.25l-11.921875 0zm23.653015 -1.703125q-1.3125 1.109375 -2.515625 1.5625q-1.203125 0.453125 -2.578125 0.453125q-2.28125 0 -3.5 -1.109375q-1.21875 -1.109375 -1.21875 -2.84375q0 -1.015625 0.453125 -1.859375q0.46875 -0.84375 1.21875 -1.34375q0.75 -0.515625 1.6875 -0.765625q0.6875 -0.1875 2.078125 -0.359375q2.828125 -0.328125 4.171875 -0.796875q0.015625 -0.484375 0.015625 -0.625q0 -1.421875 -0.65625 -2.015625q-0.90625 -0.796875 -2.671875 -0.796875q-1.65625 0 -2.453125 0.59375q-0.78125 0.578125 -1.15625 2.046875l-2.296875 -0.3125q0.3125 -1.46875 1.03125 -2.375q0.71875 -0.90625 2.0625 -1.390625q1.359375 -0.5 3.140625 -0.5q1.78125 0 2.875 0.421875q1.109375 0.421875 1.625 1.046875q0.53125 0.625 0.734375 1.59375q0.125 0.59375 0.125 2.15625l0 3.125q0 3.265625 0.140625 4.140625q0.15625 0.859375 0.59375 1.65625l-2.4375 0q-0.375 -0.734375 -0.46875 -1.703125zm-0.203125 -5.234375q-1.265625 0.515625 -3.828125 0.890625q-1.4375 0.203125 -2.046875 0.46875q-0.59375 0.25 -0.921875 0.75q-0.3125 0.5 -0.3125 1.125q0 0.9375 0.703125 1.5625q0.703125 0.625 2.078125 0.625q1.34375 0 2.390625 -0.59375q1.0625 -0.59375 1.5625 -1.625q0.375 -0.796875 0.375 -2.34375l0 -0.859375zm5.903076 12.265625l-0.265625 -2.203125q0.765625 0.203125 1.34375 0.203125q0.78125 0 1.25 -0.265625q0.46875 -0.25 0.765625 -0.71875q0.21875 -0.359375 0.71875 -1.75q0.0625 -0.1875 0.203125 -0.5625l-5.25 -13.859375l2.53125 0l2.875 8.015625q0.5625 1.515625 1.0 3.203125q0.40625 -1.625 0.96875 -3.15625l2.953125 -8.0625l2.34375 0l-5.265625 14.0625q-0.84375 2.28125 -1.3125 3.140625q-0.625 1.15625 -1.4375 1.6875q-0.796875 0.546875 -1.921875 0.546875q-0.671875 0 -1.5 -0.28125zm22.890625 -9.78125l2.421875 0.296875q-0.578125 2.125 -2.125 3.296875q-1.546875 1.171875 -3.953125 1.171875q-3.03125 0 -4.8125 -1.859375q-1.78125 -1.875 -1.78125 -5.25q0 -3.484375 1.796875 -5.40625q1.796875 -1.9375 4.671875 -1.9375q2.765625 0 4.515625 1.890625q1.765625 1.890625 1.765625 5.3125q0 0.203125 -0.015625 0.625l-10.3125 0q0.140625 2.28125 1.296875 3.5q1.15625 1.203125 2.890625 1.203125q1.28125 0 2.1875 -0.671875q0.921875 -0.6875 1.453125 -2.171875zm-7.6875 -3.78125l7.71875 0q-0.15625 -1.75 -0.890625 -2.625q-1.125 -1.34375 -2.90625 -1.34375q-1.609375 0 -2.71875 1.078125q-1.09375 1.078125 -1.203125 2.890625zm13.028076 8.234375l0 -13.828125l2.109375 0l0 2.09375q0.796875 -1.46875 1.484375 -1.9375q0.6875 -0.46875 1.5 -0.46875q1.1875 0 2.40625 0.765625l-0.796875 2.171875q-0.859375 -0.515625 -1.71875 -0.515625q-0.765625 0 -1.390625 0.46875q-0.609375 0.453125 -0.859375 1.28125q-0.390625 1.25 -0.390625 2.734375l0 7.234375l-2.34375 0z" fill-rule="nonzero"/><path fill="#cfe2f3" d="m76.49765 15.367519l0 0c2.2555695 -5.867961 8.840996 -8.796383 14.7089615 -6.5408125l42.498253 16.335793l0 0c2.8179016 1.0831642 5.090103 3.2413673 6.316742 5.999832c1.2266388 2.758463 1.3072357 5.8912296 0.22407532 8.709124l-16.335793 42.498264c-2.2555695 5.867958 -8.840996 8.796379 -14.708954 6.5408096l-42.49826 -16.335793c-5.8679657 -2.2555695 -8.796387 -8.840992 -6.5408173 -14.708954z" fill-rule="evenodd"/><path stroke="#000000" stroke-width="1.0" stroke-linejoin="round" stroke-linecap="butt" d="m76.49765 15.367519l0 0c2.2555695 -5.867961 8.840996 -8.796383 14.7089615 -6.5408125l42.498253 16.335793l0 0c2.8179016 1.0831642 5.090103 3.2413673 6.316742 5.999832c1.2266388 2.758463 1.3072357 5.8912296 0.22407532 8.709124l-16.335793 42.498264c-2.2555695 5.867958 -8.840996 8.796379 -14.708954 6.5408096l-42.49826 -16.335793c-5.8679657 -2.2555695 -8.796387 -8.840992 -6.5408173 -14.708954z" fill-rule="evenodd"/><path fill="#000000" d="m88.012314 50.46039l3.627182 -9.43626l-3.52948 -1.3566895l0.48212433 -1.2542763l8.473679 3.2571716l-0.48213196 1.2542801l-3.52948 -1.3566895l-3.627182 9.43626l-1.414711 -0.54379654zm4.1055756 1.5781326l8.222183 -9.109608l1.5313873 0.58864594l0.26608276 12.372387l-1.6188965 -0.62228394l0.0048675537 -3.7143097l-4.4774857 -1.7210884l-2.4113312 2.7892952l-1.5168076 -0.58303833zm4.779396 -3.2014732l3.6315765 1.3959312l0.015029907 -3.392353q0.010910034 -1.5525894 0.09373474 -2.5083847q-0.596611 0.9424362 -1.3536606 1.8232079l-2.3866806 2.6815987zm6.3049316 7.4621468l4.1093063 -10.69054l4.0107803 1.5416908q1.2251053 0.47091675 1.8455887 1.0776939q0.6204834 0.6067772 0.7653656 1.4492264q0.16506958 0.8334732 -0.115242004 1.5627022q-0.26348877 0.6854782 -0.8781433 1.1522751q-0.59446716 0.45781708 -1.4840469 0.5511017q0.8560715 0.6471138 1.11763 1.5344162q0.26155853 0.8872986 -0.09723663 1.820713q-0.29151917 0.7584038 -0.85905457 1.2767906q-0.5675278 0.51839066 -1.1687851 0.6890259q-0.6012573 0.17063141 -1.3741989 0.09113693q-0.7673416 -0.094078064 -1.7882614 -0.48650742l-4.083702 -1.569725zm3.7973251 -5.6546745l2.3189545 0.8913803q0.9334183 0.35879135 1.3922424 0.3845024q0.6013031 0.04699707 1.0185623 -0.21110153q0.42286682 -0.272686 0.6359024 -0.8269005q0.20742798 -0.5396309 0.0962677 -1.0343285q-0.09096527 -0.50367355 -0.5161972 -0.83452225q-0.40503693 -0.3398285 -1.5572281 -0.78271484l-2.1439362 -0.8241043l-1.2445679 3.2377892zm-1.8948822 4.9296074l2.668991 1.0259285q0.6854782 0.26348877 0.97940826 0.32625198q0.5149307 0.09749222 0.9142761 0.016643524q0.4139328 -0.07524109 0.7694855 -0.39054108q0.37013245 -0.30969238 0.5663452 -0.8201561q0.2298584 -0.59796906 0.09176636 -1.1532402q-0.13809967 -0.55526733 -0.61045074 -0.9377098q-0.46675873 -0.39702988 -1.4876785 -0.7894592l-2.479393 -0.9530449l-1.4127502 3.6753273z" fill-rule="nonzero"/><path fill="#cfe2f3" d="m48.4582 88.339035l0 0c2.2555695 -5.867958 8.840992 -8.796379 14.708954 -6.5408096l42.49826 16.335793l0 0c2.817894 1.083168 5.0900955 3.2413712 6.3167343 5.999832c1.2266388 2.7584686 1.3072433 5.8912277 0.22408295 8.709122l-16.335793 42.49826c-2.255577 5.8679657 -8.840996 8.796387 -14.7089615 6.5408173l-42.49826 -16.3358c-5.867962 -2.2555695 -8.796383 -8.840988 -6.5408134 -14.708954z" fill-rule="evenodd"/><path stroke="#000000" stroke-width="1.0" stroke-linejoin="round" stroke-linecap="butt" d="m48.4582 88.339035l0 0c2.2555695 -5.867958 8.840992 -8.796379 14.708954 -6.5408096l42.49826 16.335793l0 0c2.817894 1.083168 5.0900955 3.2413712 6.3167343 5.999832c1.2266388 2.7584686 1.3072433 5.8912277 0.22408295 8.709122l-16.335793 42.49826c-2.255577 5.8679657 -8.840996 8.796387 -14.7089615 6.5408173l-42.49826 -16.3358c-5.867962 -2.2555695 -8.796383 -8.840988 -6.5408134 -14.708954z" fill-rule="evenodd"/><path fill="#000000" d="m60.782856 119.44119l1.2801628 0.8938217q-1.1102791 1.5819778 -2.6302376 2.0523148q-1.5053711 0.47594452 -3.1680222 -0.1631546q-1.7355728 -0.6671295 -2.5457382 -1.7820511q-0.8045616 -1.1295013 -0.86320496 -2.6753387q-0.053035736 -1.5604324 0.5356102 -3.0918198q0.6447067 -1.6772308 1.7629547 -2.6702576q1.118248 -0.9930191 2.5316887 -1.1862564q1.4336319 -0.20220947 2.848343 0.34159088q1.6043091 0.61667633 2.3842125 1.8538742q0.7799034 1.2372055 0.64561844 2.8930206l-1.5234604 -0.21733093q0.08387375 -1.3069229 -0.42895126 -2.1066742q-0.49263382 -0.80872345 -1.5718994 -1.2235794q-1.2251091 -0.47091675 -2.2862854 -0.19249725q-1.0555725 0.26383972 -1.7778435 1.1412354q-0.71666336 0.86281586 -1.1203079 1.9129105q-0.52697754 1.3709564 -0.5256233 2.5432434q0.02154541 1.1633148 0.65665436 1.9933243q0.65530014 0.8210373 1.632473 1.1966476q1.1813545 0.45410156 2.2615852 0.08256531q1.0948143 -0.36592865 1.9022713 -1.5955887zm4.4441185 6.01033l3.627182 -9.436264l-3.52948 -1.3566818l0.48212433 -1.2542801l8.473679 3.2571716l-0.48213196 1.2542801l-3.52948 -1.3566895l-3.627182 9.436264l-1.414711 -0.54380035zm6.4245377 2.469513l4.1093063 -10.690544l4.7400055 1.8219986q1.4292984 0.54940796 2.0609894 1.1270142q0.6372986 0.5630188 0.7945328 1.460434q0.17181396 0.90302277 -0.17015839 1.7926865q-0.43727875 1.1376038 -1.4838257 1.6392593q-1.0263596 0.49267578 -2.6508179 0.10260773q0.46228027 0.49575043 0.65306854 0.8703995q0.39391327 0.80426025 0.6229706 1.8631973l0.74560547 3.6345139l-1.7793274 -0.6839447l-0.5569687 -2.7752533q-0.25713348 -1.2036438 -0.4692917 -1.8710785q-0.19756317 -0.6618271 -0.4399414 -0.98934937q-0.22779083 -0.32191467 -0.53520966 -0.5237808q-0.21092987 -0.14803314 -0.76514435 -0.36106873l-1.6334763 -0.62789154l-1.8276062 4.754593l-1.414711 -0.5437927zm3.713234 -5.4359055l3.0335999 1.1660767q0.97717285 0.37561035 1.5896835 0.39344025q0.6327057 0.008850098 1.0779953 -0.32217407q0.46548462 -0.34000397 0.6616974 -0.85046387q0.29151917 -0.75839996 -0.077690125 -1.4527283q-0.3636093 -0.7089081 -1.5449677 -1.1630096l-3.3836365 -1.3006287l-1.3566818 3.5294876zm6.9845963 9.548012l4.1093063 -10.6905365l1.414711 0.5437927l-3.6215744 9.421677l5.2650604 2.023819l-0.48773956 1.2688751l-6.679764 -2.567627z" fill-rule="nonzero"/><path fill="#cfe2f3" d="m20.418741 161.31056l0 0c2.2555695 -5.8679657 8.840994 -8.796387 14.708956 -6.5408173l42.498264 16.3358l0 0c2.817894 1.0831604 5.090088 3.2413635 6.3167267 5.999817c1.2266464 2.7584686 1.307251 5.8912354 0.22408295 8.709137l-16.335793 42.49826c-2.2555695 5.8679657 -8.840996 8.796387 -14.708958 6.5408173l-42.49826 -16.3358c-5.867961 -2.2555695 -8.796383 -8.840988 -6.540813 -14.708954z" fill-rule="evenodd"/><path stroke="#000000" stroke-width="1.0" stroke-linejoin="round" stroke-linecap="butt" d="m20.418741 161.31056l0 0c2.2555695 -5.8679657 8.840994 -8.796387 14.708956 -6.5408173l42.498264 16.3358l0 0c2.817894 1.0831604 5.090088 3.2413635 6.3167267 5.999817c1.2266464 2.7584686 1.307251 5.8912354 0.22408295 8.709137l-16.335793 42.49826c-2.2555695 5.8679657 -8.840996 8.796387 -14.708958 6.5408173l-42.49826 -16.3358c-5.867961 -2.2555695 -8.796383 -8.840988 -6.540813 -14.708954z" fill-rule="evenodd"/><path fill="#000000" d="m24.36659 189.04344l1.2643528 0.36883545q-0.19279861 0.76286316 -0.07152367 1.3618927q0.14146423 0.5900421 0.70023537 1.1396179q0.5587692 0.5495758 1.3900948 0.86912537q0.7438164 0.28590393 1.3967094 0.28578186q0.65289307 -1.373291E-4 1.0757618 -0.2728119q0.42847443 -0.28727722 0.6022644 -0.73939514q0.17939568 -0.46670532 0.03122902 -0.90867615q-0.12797546 -0.450943 -0.6508312 -0.919754q-0.33211708 -0.3117981 -1.5651531 -1.1540222q-1.2184525 -0.8366394 -1.6459618 -1.3357544q-0.5599079 -0.63371277 -0.70251274 -1.3078918q-0.12241173 -0.68315125 0.13547134 -1.3540497q0.28591347 -0.7438202 0.9409542 -1.2285614q0.6696243 -0.4791565 1.6007214 -0.5062561q0.9456806 -0.021499634 1.937437 0.3597107q1.0938473 0.42045593 1.7906227 1.0900421q0.69677734 0.6695862 0.8708267 1.5232544q0.18863678 0.8592682 -0.112957 1.7309723l-1.2733307 -0.38902283q0.25670242 -0.97265625 -0.14728737 -1.6636047q-0.3837986 -0.6999359 -1.5068169 -1.131607q-1.1813545 -0.45410156 -1.8891716 -0.22399902q-0.7078152 0.2301178 -0.93766785 0.8280945q-0.20182228 0.5250397 0.057416916 1.0264435q0.2356739 0.4756012 1.6706619 1.4456787q1.4551773 0.96110535 1.9376526 1.4478607q0.7091274 0.72454834 0.8820381 1.4940796q0.1785202 0.75494385 -0.12421417 1.542511q-0.30273247 0.7875824 -1.0239506 1.3138428q-0.7156124 0.51168823 -1.707283 0.56573486q-0.9770832 0.059646606 -2.0271778 -0.34399414q-1.3272018 -0.51016235 -2.0856895 -1.2369385q-0.7382965 -0.73576355 -0.95163345 -1.704956q-0.21333694 -0.96920776 0.13871193 -1.9721832zm8.395079 6.8427124l3.7617264 -9.786285l1.2980347 0.49894714l-1.5416908 4.0107727l5.0900383 1.956543l1.5416908 -4.0107727l1.2980347 0.49894714l-3.7617264 9.786301l-1.2980347 -0.49894714l1.7715454 -4.6087494l-5.090042 -1.956543l-1.7715416 4.608734l-1.2980347 -0.49894714zm10.054558 3.864853l3.7617264 -9.786301l1.2980347 0.49894714l-3.7617302 9.786301l-1.2980309 -0.49894714zm3.6550026 1.4049377l3.7617302 -9.786301l6.606838 2.5395966l-0.44288254 1.1521759l-5.308811 -2.0406342l-1.1660805 3.0335999l4.594162 1.7659454l-0.44288635 1.1521759l-4.594158 -1.7659302l-1.709877 4.4483185l-1.2980347 -0.49894714zm10.77758 4.142761l3.31884 -8.6341095l-3.2232056 -1.2389526l0.44288635 -1.1521912l7.7590256 2.9824677l-0.44288635 1.1521912l-3.2377853 -1.2445679l-3.3188438 8.6341095l-1.2980309 -0.49894714z" fill-rule="nonzero"/><path fill="#cfe2f3" d="m255.18892 313.26212l0 0c2.2555695 -5.8679504 8.840988 -8.796387 14.708969 -6.540802l42.49826 16.335785l0 0c2.8179016 1.0831604 5.090088 3.2413635 6.3167114 5.999817c1.226654 2.758484 1.307251 5.8912354 0.22409058 8.709137l-16.335785 42.49826c-2.2555847 5.8679504 -8.841003 8.796387 -14.708954 6.540802l-42.498276 -16.335785c-5.8679504 -2.2555542 -8.796371 -8.841003 -6.540802 -14.708954z" fill-rule="evenodd"/><path stroke="#000000" stroke-width="1.0" stroke-linejoin="round" stroke-linecap="butt" d="m255.18892 313.26212l0 0c2.2555695 -5.8679504 8.840988 -8.796387 14.708969 -6.540802l42.49826 16.335785l0 0c2.8179016 1.0831604 5.090088 3.2413635 6.3167114 5.999817c1.226654 2.758484 1.307251 5.8912354 0.22409058 8.709137l-16.335785 42.49826c-2.2555847 5.8679504 -8.841003 8.796387 -14.708954 6.540802l-42.498276 -16.335785c-5.8679504 -2.2555542 -8.796371 -8.841003 -6.540802 -14.708954z" fill-rule="evenodd"/><path fill="#000000" d="m269.98627 345.14465l0.56622314 -1.473053l5.2796326 2.029419l-1.7771606 4.623352q-1.5861206 0.5118408 -3.074768 0.50878906q-1.4684448 -0.012054443 -2.8394165 -0.539032q-1.8376465 -0.7063904 -3.03714 -2.0713806q-1.1994934 -1.3649902 -1.3860779 -3.144165q-0.18655396 -1.7791443 0.5198059 -3.6168213q0.70077515 -1.8230591 2.0646362 -3.1066895q1.3638611 -1.2836304 3.0846863 -1.4926147q1.7264099 -0.22357178 3.5786743 0.48840332q1.3563538 0.5213623 2.2820435 1.379364q0.9256592 0.8580017 1.2354736 1.8810425q0.3300171 1.0140381 0.16873169 2.3916626l-1.6445923 -0.16348267q0.08728027 -1.0545044 -0.12823486 -1.7567139q-0.19534302 -0.71118164 -0.8450012 -1.3291626q-0.6496277 -0.6180115 -1.5976257 -0.98239136q-1.1230164 -0.43167114 -2.0888977 -0.4012146q-0.9602661 0.015899658 -1.6893616 0.38848877q-0.70892334 0.36361694 -1.243927 0.9279785q-0.9241638 0.9671936 -1.4455261 2.323578q-0.6390991 1.6626282 -0.50198364 3.004303q0.15170288 1.3472595 1.0325317 2.32193q0.8864136 0.960083 2.1260986 1.436615q1.0646973 0.40924072 2.2425842 0.39331055q1.1835022 -0.030517578 1.8879395 -0.29541016l0.89138794 -2.3189697l-3.660736 -1.407135zm18.808533 -1.474823l1.6480713 0.6335144l-2.7694397 7.2048035q-0.72320557 1.8814087 -1.5722351 2.8272705q-0.848999 0.9458618 -2.226532 1.2198486q-1.3719177 0.2593994 -3.18042 -0.4357605q-1.7501526 -0.6727295 -2.643341 -1.7023621q-0.8729553 -1.0386353 -0.91696167 -2.3612366q-0.023834229 -1.3315735 0.73861694 -3.315094l2.7694092 -7.2048035l1.6480713 0.6334839l-2.7694397 7.2048035q-0.62228394 1.6188965 -0.62771606 2.5040283q0.014770508 0.87612915 0.5814209 1.5793762q0.5812378 0.7088623 1.6459045 1.1181335q1.8230896 0.7007446 2.915619 0.16656494q1.0925598 -0.5342102 1.9895325 -2.8677368l2.7694397 -7.204834zm-0.12225342 14.26535l4.7932434 -12.469879l1.6480713 0.6335144l-4.7932434 12.469849l-1.6480713 -0.6334839z" fill-rule="nonzero"/><path fill="#00ff00" d="m340.597 355.90213l0 0c3.470337 -5.2417297 10.532867 -6.6777344 15.774597 -3.2073975l37.96289 25.133606l0 0c2.5171509 1.6665039 4.269226 4.2647095 4.8707275 7.2230225c0.60150146 2.958313 0.0032043457 6.0343933 -1.6633301 8.551575l-25.133606 37.96286c-3.470337 5.2417297 -10.532837 6.677765 -15.774597 3.207428l-37.96286 -25.133606c-5.2417297 -3.470337 -6.6777344 -10.532867 -3.207428 -15.774597z" fill-rule="evenodd"/><path stroke="#000000" stroke-width="1.0" stroke-linejoin="round" stroke-linecap="butt" d="m340.597 355.90213l0 0c3.470337 -5.2417297 10.532867 -6.6777344 15.774597 -3.2073975l37.96289 25.133606l0 0c2.5171509 1.6665039 4.269226 4.2647095 4.8707275 7.2230225c0.60150146 2.958313 0.0032043457 6.0343933 -1.6633301 8.551575l-25.133606 37.96286c-3.470337 5.2417297 -10.532837 6.677765 -15.774597 3.207428l-37.96286 -25.133606c-5.2417297 -3.470337 -6.6777344 -10.532867 -3.207428 -15.774597z" fill-rule="evenodd"/><path fill="#000000" d="m338.7981 386.49792l4.2092896 -6.3578796l0.8468628 0.56066895l-3.709015 5.602234l3.126831 2.0701294l-0.50027466 0.75564575l-3.9736938 -2.6307983zm6.773041 0.024261475q1.0437012 -1.5764465 2.4857178 -1.9147644q1.4550476 -0.32965088 2.7969666 0.55877686q0.8728943 0.5779114 1.2918091 1.4736328q0.44052124 0.8913269 0.3050537 1.8884888q-0.11383057 0.99276733 -0.75213623 1.9568481q-0.63830566 0.9641113 -1.5380554 1.4740295q-0.8911438 0.4968872 -1.8664551 0.41333008q-0.9753418 -0.08355713 -1.8091736 -0.6355896q-0.8989563 -0.5951843 -1.3178406 -1.4909058q-0.41888428 -0.8956909 -0.2920227 -1.8798523q0.13546753 -0.99716187 0.6961365 -1.8439941zm0.86428833 0.5909424q-0.7590637 1.1464844 -0.5866089 2.216339q0.17242432 1.0698547 1.1104736 1.6908875q0.9510803 0.6296692 2.003296 0.370636q1.0608826 -0.27209473 1.8716736 -1.4967651q0.50891113 -0.76867676 0.62786865 -1.5144348q0.127594 -0.75878906 -0.17349243 -1.4078674q-0.29248047 -0.6621094 -0.9178467 -1.0761414q-0.8989563 -0.5951538 -1.942749 -0.40548706q-1.0437927 0.18969727 -1.9926147 1.6228333zm5.362152 7.991211l2.5155945 -7.4792175l0.8728943 0.5779419l-1.7960815 4.807373q-0.27493286 0.75494385 -0.58895874 1.4839783q0.9159546 -0.8739929 1.0585327 -1.0044556l4.049469 -3.4841614l1.0162048 0.6727905l-1.2185364 3.8218079q-0.44177246 1.4315186 -0.99713135 2.5816956q0.53567505 -0.5260925 1.2400208 -1.1653748l3.698578 -3.4353943l0.8468628 0.56066895l-5.955078 5.202057l-0.8077698 -0.53479004l1.8667908 -5.735016q0.23602295 -0.7244568 0.29623413 -0.8720093q-0.3888855 0.3609314 -0.6871033 0.61325073l-4.5506287 3.95813l-0.8598938 -0.5692749zm7.2920837 4.827759l4.209259 -6.3578796l4.59906 3.0448303l-0.4916687 0.74261475l-3.7521973 -2.4841614l-1.2938232 1.9542847l3.5176697 2.328888l-0.49163818 0.74261475l-3.5177002 -2.328888l-1.4318237 2.1627197l3.8954773 2.5790405l-0.50027466 0.75564575l-4.74234 -3.1397095zm5.926483 3.9236755l4.2092896 -6.3578796l2.8141174 1.8631287q0.8468628 0.56066895 1.1777039 1.0233154q0.33081055 0.46261597 0.29812622 1.0780945q-0.011047363 0.611084 -0.3560791 1.1322327q-0.44851685 0.6774597 -1.2019958 0.85324097q-0.73184204 0.17132568 -1.7431335 -0.31079102q0.23522949 0.38061523 0.30111694 0.64907837q0.15353394 0.5888672 0.14285278 1.3126221l-0.039764404 2.465973l-1.0553284 -0.69866943l0.032989502 -1.8895874q0.014709473 -0.8147583 -0.034423828 -1.2782898q-0.036132812 -0.45492554 -0.15393066 -0.7015686q-0.09613037 -0.2510376 -0.26568604 -0.41949463q-0.11743164 -0.13397217 -0.44314575 -0.34960938l-0.97714233 -0.6469116l-1.8717651 2.8271484l-0.83380127 -0.5520325zm3.1885986 -3.0047302l1.8109436 1.1989746q0.5732727 0.3795166 0.976593 0.47790527q0.40335083 0.09838867 0.74523926 -0.050048828q0.3418579 -0.1484375 0.54888916 -0.4611206q0.30187988 -0.45599365 0.16595459 -0.9582825q-0.13595581 -0.5022583 -0.83950806 -0.9680176l-2.0194092 -1.3369751l-1.3887024 2.0975647z" fill-rule="nonzero"/><path fill="#cfe2f3" d="m433.90088 408.73074l0 0c5.3084106 -3.3659668 12.340393 -1.7912903 15.706329 3.5171204l24.377716 38.4458l0 0c1.616394 2.5491943 2.1539307 5.6361084 1.4943237 8.581604c-0.6595764 2.9455261 -2.4622498 5.508362 -5.011444 7.124756l-38.4458 24.377716c-5.308441 3.3659668 -12.340393 1.7912903 -15.70636 -3.5171204l-24.377716 -38.44583c-3.3659668 -5.3084106 -1.7912903 -12.340393 3.5171204 -15.706329z" fill-rule="evenodd"/><path stroke="#000000" stroke-width="1.0" stroke-linejoin="round" stroke-linecap="butt" d="m433.90088 408.73074l0 0c5.3084106 -3.3659668 12.340393 -1.7912903 15.706329 3.5171204l24.377716 38.4458l0 0c1.616394 2.5491943 2.1539307 5.6361084 1.4943237 8.581604c-0.6595764 2.9455261 -2.4622498 5.508362 -5.011444 7.124756l-38.4458 24.377716c-5.308441 3.3659668 -12.340393 1.7912903 -15.70636 -3.5171204l-24.377716 -38.44583c-3.3659668 -5.3084106 -1.7912903 -12.340393 3.5171204 -15.706329z" fill-rule="evenodd"/><path fill="#000000" d="m421.11856 434.35312l0.64816284 0.84713745q-0.51239014 0.41738892 -0.7048645 0.87246704q-0.19250488 0.45507812 -0.10723877 1.0855713q0.10681152 0.63531494 0.50009155 1.2554932q0.3430481 0.54104614 0.7691345 0.86291504q0.43930054 0.31347656 0.84191895 0.33572388q0.42419434 0.027038574 0.75408936 -0.1821289q0.3430786 -0.21755981 0.46829224 -0.5744629q0.13842773 -0.3652954 0.025482178 -0.9227295q-0.07366943 -0.3788147 -0.47207642 -1.5322876q-0.39001465 -1.1403198 -0.42990112 -1.6700745q-0.057556152 -0.7035217 0.17932129 -1.2052612q0.25012207 -0.5101013 0.7515564 -0.82806396q0.5410156 -0.3430481 1.2085266 -0.34075928q0.6890564 0.0071105957 1.3031006 0.45028687q0.6356201 0.44805908 1.0958252 1.1738281q0.510376 0.80493164 0.63974 1.5924988q0.14251709 0.7791748 -0.16293335 1.4353943q-0.29226685 0.64782715 -0.90893555 1.0758667l-0.65167236 -0.88186646q0.6359863 -0.5142822 0.7029419 -1.1672974q0.08856201 -0.64819336 -0.43859863 -1.4795227q-0.5522156 -0.87091064 -1.1199341 -1.065979q-0.5677185 -0.19506836 -1.0163879 0.089416504q-0.39587402 0.25100708 -0.47088623 0.6871033q-0.07501221 0.4360962 0.3973999 1.764679q0.48077393 1.3417664 0.55892944 1.9027405q0.09814453 0.8258362 -0.15808105 1.4138489q-0.24301147 0.57962036 -0.8368225 0.95614624q-0.58062744 0.36813354 -1.3044434 0.364563q-0.7106323 -0.011932373 -1.3941956 -0.44805908q-0.6703491 -0.44448853 -1.164032 -1.223053q-0.62753296 -0.98968506 -0.77716064 -1.8383789q-0.12805176 -0.8438721 0.20993042 -1.594696q0.34631348 -0.7376709 1.0637207 -1.2110596zm2.1512756 8.5572815l7.2576904 -4.601959l1.740387 2.7447205q0.45184326 0.71258545 0.6285095 1.137085q0.2506714 0.5996094 0.22589111 1.1148682q-0.016448975 0.5284729 -0.3312378 1.0240784q-0.306427 0.5088196 -0.8474426 0.8518677q-0.92370605 0.5857239 -1.9468384 0.401886q-1.0015564 -0.1789856 -1.9805298 -1.7229004l-1.1797485 -1.8605957l-2.9558716 1.8742371l-0.6108093 -0.96328735zm4.411194 -1.4464722l1.1881409 1.8738098q0.5940857 0.93692017 1.1798096 1.1020508q0.6073303 0.1699524 1.2407227 -0.23165894q0.44866943 -0.28448486 0.6147461 -0.72283936q0.18765259 -0.4335022 0.058929443 -0.8699341q-0.09298706 -0.2925415 -0.5029907 -0.93914795l-1.179779 -1.8606262l-2.5995789 1.648346zm-1.104065 6.66214l9.023193 -1.8176575l0.6526489 1.0292664l-5.3750916 7.571045l-0.6860962 -1.0820618l1.6598206 -2.255066l-1.9160767 -3.0218506l-2.7141113 0.5924072l-0.6442871 -1.0160828zm4.3126526 0.2071228l1.5563049 2.4544373l1.5288391 -2.0239868q0.68460083 -0.93362427 1.178009 -1.4685059q-0.7914429 0.29830933 -1.6365967 0.48269653l-2.6265564 0.5553589zm6.310608 10.915283l0.3517151 1.1090698q-1.3668823 0.44119263 -2.4807434 0.055877686q-1.1138611 -0.38528442 -1.8334656 -1.5201416q-0.7446594 -1.174408 -0.7381897 -2.2145996q0.006500244 -1.0401917 0.66116333 -1.9918518q0.6678467 -0.960022 1.7103271 -1.6210022q1.1348572 -0.7196045 2.2554932 -0.8196411q1.1206665 -0.10003662 2.0581665 0.41558838q0.9458618 0.5288391 1.5566711 1.4921265q0.6860962 1.0820618 0.60043335 2.1724548q-0.077301025 1.1035767 -0.89608765 2.0298157l-0.8267822 -0.8078613q0.632782 -0.7527466 0.6794739 -1.466919q0.06826782 -0.70932007 -0.39193726 -1.4351196q-0.5271301 -0.83132935 -1.29599 -1.1393738q-0.74728394 -0.30319214 -1.5708923 -0.113983154q-0.81521606 0.20239258 -1.5410156 0.66259766q-0.92370605 0.58569336 -1.4425354 1.2846985q-0.5104675 0.71221924 -0.4937744 1.4971924q0.016693115 0.78497314 0.4434204 1.4579468q0.5104065 0.80496216 1.3237 1.0663147q0.82162476 0.27456665 1.8708496 -0.1131897zm-1.1777039 3.7740479l7.2576904 -4.6019897l3.3218079 5.2387695l-0.85772705 0.54385376l-2.7109985 -4.2754517l-2.2168884 1.4057007l2.5436401 4.0115356l-0.85772705 0.54385376l-2.5436401 -4.0115356l-2.4676208 1.5646973l2.8197327 4.446991l-0.85772705 0.54385376l-3.430542 -5.4102783z" fill-rule="nonzero"/><path fill="#cfe2f3" d="m985.5352 10.608669l0 0c-2.2787476 -5.859264 -8.875977 -8.761833 -14.7352295 -6.483069l-42.43524 16.50377l0 0c-2.8137207 1.0943012 -5.0775146 3.261528 -6.293335 6.024914c-1.2157593 2.7633877 -1.2840576 5.896572 -0.1897583 8.710289l16.503784 42.43527c2.2787476 5.859268 8.875916 8.761833 14.735168 6.4830704l42.435303 -16.503769c5.859253 -2.2787628 8.761841 -8.875938 6.4830933 -14.735203z" fill-rule="evenodd"/><path stroke="#000000" stroke-width="1.0" stroke-linejoin="round" stroke-linecap="butt" d="m985.5352 10.608669l0 0c-2.2787476 -5.859264 -8.875977 -8.761833 -14.7352295 -6.483069l-42.43524 16.50377l0 0c-2.8137207 1.0943012 -5.0775146 3.261528 -6.293335 6.024914c-1.2157593 2.7633877 -1.2840576 5.896572 -0.1897583 8.710289l16.503784 42.43527c2.2787476 5.859268 8.875916 8.761833 14.735168 6.4830704l42.435303 -16.503769c5.859253 -2.2787628 8.761841 -8.875938 6.4830933 -14.735203z" fill-rule="evenodd"/><path fill="#000000" d="m950.7549 55.98715l-4.842346 -12.450886l4.6745605 -1.8180046q1.427124 -0.5550308 2.4335327 -0.51055527q1.0064697 0.04447174 1.7928467 0.6439438q0.80096436 0.59381104 1.1351318 1.4529953q0.3114624 0.80093384 0.15209961 1.6844025q-0.15045166 0.8632393 -0.8599243 1.6253624q1.2515259 -0.10115814 2.1746826 0.46190643q0.9230957 0.5630646 1.3422241 1.640686q0.3397827 0.87374496 0.25567627 1.778244q-0.07519531 0.8842735 -0.47003174 1.5072365q-0.380188 0.61730194 -1.1107788 1.1528969q-0.73620605 0.52103424 -1.9302979 0.98544693l-4.7473755 1.8463249zm-1.1489868 -7.868614l2.6795044 -1.042099q1.1066895 -0.43043137 1.5217285 -0.7427254q0.55255127 -0.43284607 0.70306396 -0.9943199q0.15045166 -0.56147003 -0.10443115 -1.2167816q-0.237854 -0.61162186 -0.72491455 -0.958683q-0.4781494 -0.3672905 -1.0994873 -0.3268242q-0.6213379 0.04046631 -1.9610596 0.5615158l-2.475586 0.9628067l1.4611816 3.7571106zm2.2371216 5.752163l3.0872192 -1.2006798q0.8009033 -0.31149673 1.0986328 -0.4943428q0.5283203 -0.32281876 0.8162842 -0.7030678q0.29693604 -0.40047836 0.36889648 -0.9481964q0.072021484 -0.54771423 -0.16021729 -1.1447754q-0.2718506 -0.6989975 -0.83410645 -1.0670929q-0.5477295 -0.37376022 -1.2677612 -0.3284378q-0.7111206 0.025096893 -1.9052734 0.48950958l-2.8687744 1.1157265l1.6651001 4.281357zm8.733337 -4.804825l1.4238892 -0.82201004q0.46765137 0.857563 1.2427368 1.1261444q0.76934814 0.25401688 1.8178711 -0.15376282q1.0484619 -0.40777588 1.3939209 -1.0283089q0.3397827 -0.6350975 0.113220215 -1.217598q-0.19818115 -0.5096855 -0.7685547 -0.6399231q-0.38513184 -0.084941864 -1.7564087 0.09631348q-1.8591919 0.2201004 -2.6334229 0.1691513q-0.75964355 -0.056613922 -1.3041382 -0.46516037q-0.5501709 -0.42311096 -0.81066895 -1.0929832q-0.23223877 -0.59706116 -0.15374756 -1.2143555q0.072753906 -0.631855 0.4230957 -1.1536865q0.2475586 -0.39805222 0.79119873 -0.81066895q0.55255127 -0.43284607 1.2515259 -0.70469666q1.0630493 -0.4134407 1.9829712 -0.41912842q0.91986084 -0.005683899 1.5023804 0.3713112q0.5970459 0.37133026 1.0825195 1.1884422l-1.4206543 0.78722q-0.3737793 -0.65935135 -1.0218506 -0.8599739q-0.6334839 -0.20628738 -1.5217896 0.13918686q-1.0630493 0.4134407 -1.37854 0.9385109q-0.30096436 0.51940536 -0.11975098 0.98540497q0.11328125 0.29124832 0.38433838 0.47084808q0.2855835 0.17393494 0.75561523 0.17554092q0.2524414 0.0024223328 1.4926758 -0.12786484q1.795227 -0.21200562 2.543579 -0.1845169q0.74835205 0.027488708 1.3162842 0.41014862q0.56799316 0.3826561 0.8737793 1.1690292q0.3001709 0.7718086 0.109313965 1.6172523q-0.1763916 0.8397789 -0.87371826 1.5468903q-0.70306396 0.69254684 -1.7661133 1.1059875q-1.7474976 0.67962646 -2.9626465 0.31397247q-1.2006226 -0.371315 -2.0089111 -1.7167168zm11.695435 2.526329l-4.8480225 -12.465446l1.3834229 -0.53804016l0.453125 1.1649933q0.22894287 -0.8769951 0.7102661 -1.4497986q0.4902954 -0.59303284 1.3786011 -0.9385109q1.1503906 -0.44742203 2.2563477 -0.19017792q1.1148682 0.2370224 1.9910889 1.1536331q0.87054443 0.90205 1.3745728 2.1981049q0.5380249 1.3834343 0.47332764 2.6827393q-0.06463623 1.2993088 -0.7789917 2.2644997q-0.72003174 0.9506302 -1.7685547 1.3584061q-0.75720215 0.29450607 -1.4934692 0.2120018q-0.73620605 -0.08250427 -1.307373 -0.43037415l1.7047119 4.383293l-1.5290527 0.594677zm-1.6918945 -8.445442q0.67401123 1.7329292 1.701477 2.3056984q1.036377 0.55254364 2.0266113 0.16742325q1.0193481 -0.39645004 1.4133301 -1.5388145q0.38830566 -1.1569252 -0.31396484 -2.9626656q-0.6682739 -1.7183685 -1.7160034 -2.3000374q-1.0331421 -0.5873337 -2.0233765 -0.20220947q-0.975708 0.37945938 -1.3761597 1.5914001q-0.39154053 1.1917114 0.28808594 2.9392052z" fill-rule="nonzero"/><path fill="#cfe2f3" d="m1013.87506 83.464035l0 0c-2.2787476 -5.8592606 -8.875916 -8.761833 -14.735168 -6.4830627l-42.435303 16.503769l0 0c-2.8137207 1.0942993 -5.0774536 3.261528 -6.293274 6.02491c-1.2158203 2.7633896 -1.2840576 5.896576 -0.1897583 8.710289l16.503784 42.435272c2.2787476 5.859268 8.875916 8.761841 14.735168 6.483078l42.435303 -16.503784c5.859192 -2.2787628 8.76178 -8.875931 6.4830933 -14.735199z" fill-rule="evenodd"/><path stroke="#000000" stroke-width="1.0" stroke-linejoin="round" stroke-linecap="butt" d="m1013.87506 83.464035l0 0c-2.2787476 -5.8592606 -8.875916 -8.761833 -14.735168 -6.4830627l-42.435303 16.503769l0 0c-2.8137207 1.0942993 -5.0774536 3.261528 -6.293274 6.02491c-1.2158203 2.7633896 -1.2840576 5.896576 -0.1897583 8.710289l16.503784 42.435272c2.2787476 5.859268 8.875916 8.761841 14.735168 6.483078l42.435303 -16.503784c5.859192 -2.2787628 8.76178 -8.875931 6.4830933 -14.735199z" fill-rule="evenodd"/><path fill="#cfe2f3" d="m1042.215 156.31941l0 0c-2.2788086 -5.859268 -8.875977 -8.761841 -14.7352295 -6.483078l-42.43524 16.503769l0 0c-2.8137207 1.0943146 -5.0775146 3.2615356 -6.293274 6.0249176c-1.2158203 2.7633972 -1.2841187 5.896576 -0.18981934 8.710297l16.503784 42.435272c2.2787476 5.859253 8.875977 8.761826 14.7352295 6.4830627l42.435303 -16.503769c5.859253 -2.2787628 8.761841 -8.875946 6.483032 -14.735199z" fill-rule="evenodd"/><path stroke="#000000" stroke-width="1.0" stroke-linejoin="round" stroke-linecap="butt" d="m1042.215 156.31941l0 0c-2.2788086 -5.859268 -8.875977 -8.761841 -14.7352295 -6.483078l-42.43524 16.503769l0 0c-2.8137207 1.0943146 -5.0775146 3.2615356 -6.293274 6.0249176c-1.2158203 2.7633972 -1.2841187 5.896576 -0.18981934 8.710297l16.503784 42.435272c2.2787476 5.859253 8.875977 8.761826 14.7352295 6.4830627l42.435303 -16.503769c5.859253 -2.2787628 8.761841 -8.875946 6.483032 -14.735199z" fill-rule="evenodd"/><path fill="#cfe2f3" d="m808.0729 309.237l0 0c-2.2788086 -5.8592834 -8.875977 -8.761841 -14.7352295 -6.4830627l-42.43524 16.503754l0 0c-2.8137207 1.0942993 -5.0775146 3.2615356 -6.293335 6.024933c-1.2158203 2.7633667 -1.2840576 5.8965454 -0.1897583 8.710266l16.503784 42.435272c2.2787476 5.8592834 8.875916 8.761841 14.735168 6.4830933l42.435303 -16.503784c5.859253 -2.278778 8.761841 -8.875946 6.4830933 -14.735199z" fill-rule="evenodd"/><path stroke="#000000" stroke-width="1.0" stroke-linejoin="round" stroke-linecap="butt" d="m808.0729 309.237l0 0c-2.2788086 -5.8592834 -8.875977 -8.761841 -14.7352295 -6.4830627l-42.43524 16.503754l0 0c-2.8137207 1.0942993 -5.0775146 3.2615356 -6.293335 6.024933c-1.2158203 2.7633667 -1.2840576 5.8965454 -0.1897583 8.710266l16.503784 42.435272c2.2787476 5.8592834 8.875916 8.761841 14.735168 6.4830933l42.435303 -16.503784c5.859253 -2.278778 8.761841 -8.875946 6.4830933 -14.735199z" fill-rule="evenodd"/><path fill="#000000" d="m771.67847 355.24323l-0.06585693 -14.308563l1.7766113 -0.6909485l9.939209 10.468628l-1.87854 0.73062134l-2.9085693 -3.2109985l-5.213318 2.0275574l0.097961426 4.3040466l-1.7474976 0.679657zm1.6090088 -6.5103455l4.2231445 -1.6424255l-2.652893 -2.9415588q-1.1941528 -1.3462219 -1.8762207 -2.2377625q0.21685791 1.2904053 0.2532959 2.6342163l0.05267334 4.1875305zm11.284424 1.4958801l-4.842346 -12.450897l1.6600952 -0.6456299l4.2703247 10.980072l6.116272 -2.3786926l0.5720215 1.4707947l-7.776367 3.024353zm11.626343 -4.521698l-4.2703247 -10.980072l-4.1066284 1.5971375l-0.5720215 -1.4707947l9.858765 -3.834259l0.5720215 1.4708252l-4.1065674 1.5971069l4.2703247 10.980072l-1.6455688 0.63998413z" fill-rule="nonzero"/><path fill="#cfe2f3" d="m722.8459 352.2271l0 0c-3.4935303 -5.227234 -10.56311 -6.6326904 -15.790344 -3.1391602l-37.85791 25.301575l0 0c-2.5101929 1.6776428 -4.2511597 4.283783 -4.8398438 7.2450256c-0.5886841 2.9612732 0.023071289 6.0351257 1.7006836 8.545319l25.301575 37.85788c3.4935303 5.2272644 10.56311 6.632721 15.790344 3.1391907l37.85791 -25.301605c5.227234 -3.4934998 6.6326904 -10.56308 3.1391602 -15.790344z" fill-rule="evenodd"/><path stroke="#000000" stroke-width="1.0" stroke-linejoin="round" stroke-linecap="butt" d="m722.8459 352.2271l0 0c-3.4935303 -5.227234 -10.56311 -6.6326904 -15.790344 -3.1391602l-37.85791 25.301575l0 0c-2.5101929 1.6776428 -4.2511597 4.283783 -4.8398438 7.2450256c-0.5886841 2.9612732 0.023071289 6.0351257 1.7006836 8.545319l25.301575 37.85788c3.4935303 5.2272644 10.56311 6.632721 15.790344 3.1391907l37.85791 -25.301605c5.227234 -3.4934998 6.6326904 -10.56308 3.1391602 -15.790344z" fill-rule="evenodd"/><path fill="#000000" d="m696.58875 401.6578l-4.2368774 -6.339508l2.8059692 -1.8753357q0.8444214 -0.5643616 1.3989868 -0.6906738q0.5545654 -0.12631226 1.1095581 0.14175415q0.5593262 0.24636841 0.9066162 0.7659912q0.45147705 0.6755371 0.32232666 1.438385q-0.124816895 0.7411804 -0.96032715 1.4875183q0.44189453 -0.06982422 0.7149658 -0.026824951q0.602478 0.085998535 1.2658691 0.37557983l2.2589111 0.9898071l-1.0522461 0.7032471l-1.7299805 -0.7607422q-0.74572754 -0.3284912 -1.1922607 -0.4623108q-0.4335327 -0.14251709 -0.70654297 -0.12918091q-0.26867676 -0.008361816 -0.489563 0.08288574q-0.16894531 0.056549072 -0.49371338 0.2735901l-0.9743042 0.65115356l1.8840332 2.8190002l-0.8314209 0.55566406zm-1.5388184 -4.1021423l1.8057251 -1.2068176q0.57159424 -0.38201904 0.8182373 -0.7159729q0.24658203 -0.33398438 0.24182129 -0.70666504q-0.004760742 -0.37268066 -0.21313477 -0.68447876q-0.303833 -0.45465088 -0.8196411 -0.523407q-0.5157471 -0.0687561 -1.2172852 0.40008545l-2.0135498 1.3457336l1.3978271 2.0915222zm7.222534 0.30355835l-1.8076172 -7.9630737l0.9093628 -0.60775757l6.835022 4.6030884l-0.9613037 0.64245605l-2.0254517 -1.4277344l-2.6500854 1.7711487l0.59643555 2.382782l-0.8963623 0.5990906zm0.09527588 -3.8223572l2.1434326 -1.4325562l-1.8432617 -1.3239441q-0.8284302 -0.59277344 -1.3186035 -1.0168762q0.2781372 0.6973877 0.45666504 1.4425354l0.5617676 2.330841zm6.6584473 -0.69140625l-4.2368774 -6.339508l0.8314209 -0.55566406l4.2368774 6.339508l-0.8314209 0.55566406zm0.66973877 -3.3981628l0.74902344 -0.59454346q0.364563 0.43292236 0.7807617 0.60580444q0.40753174 0.15985107 0.9664917 0.06820679q0.55023193 -0.104644775 1.0958252 -0.4692688q0.48065186 -0.32125854 0.74890137 -0.7072449q0.2682495 -0.38601685 0.28515625 -0.75439453q0.016906738 -0.36834717 -0.1828003 -0.6671448q-0.199646 -0.2987976 -0.52911377 -0.3981018q-0.3164673 -0.10797119 -0.8016968 0.009613037q-0.32928467 0.06970215 -1.338623 0.443573q-1.0092773 0.37384033 -1.4902344 0.4133911q-0.6109619 0.07003784 -1.0792236 -0.124420166q-0.45526123 -0.20315552 -0.7504883 -0.64486694q-0.32122803 -0.48065186 -0.3262329 -1.0786743q-0.005004883 -0.59802246 0.3670044 -1.1661682q0.38500977 -0.57681274 1.0216064 -1.0022278q0.70147705 -0.46884155 1.3903809 -0.5909729q0.6932373 -0.14379883 1.274231 0.10687256q0.5939331 0.2420044 0.99328613 0.78323364l-0.7620239 0.60324097q-0.46435547 -0.5541687 -1.0494385 -0.61416626q-0.58514404 -0.05996704 -1.3126221 0.4262085q-0.76641846 0.51226807 -0.9262085 1.0324707q-0.15539551 0.49853516 0.113708496 0.9012451q0.22576904 0.33776855 0.6201782 0.39364624q0.38146973 0.064575195 1.5639648 -0.3874817q1.1825562 -0.45205688 1.6721802 -0.5349426q0.73223877 -0.11352539 1.2525024 0.10253906q0.5203247 0.21609497 0.8588867 0.7227478q0.33862305 0.5066223 0.35668945 1.1523132q0.009399414 0.6326904 -0.37121582 1.2441711q-0.38067627 0.6114807 -1.0562134 1.0629578q-0.8703613 0.58169556 -1.6199341 0.7255554q-0.73651123 0.13519287 -1.4129028 -0.14572144q-0.6633911 -0.2895813 -1.1018066 -0.91744995zm7.571289 -2.1095276l-4.2369385 -6.339508l4.5857544 -3.0648193l0.49493408 0.7404785l-3.741394 2.5004578l1.3023682 1.9486389l3.5075073 -2.3441772l0.49487305 0.740448l-3.5075073 2.3442078l1.4412231 2.1564636l3.8842163 -2.5959778l0.5036011 0.753479l-4.7286377 3.1603088z" fill-rule="nonzero"/><path fill="#cfe2f3" d="m629.7587 405.4429l0 0c-5.322876 -3.3456726 -12.350159 -1.7427979 -15.695801 3.5801086l-24.230774 38.55078l0 0c-1.6066284 2.5561829 -2.132019 5.645874 -1.4606323 8.5894165c0.6713867 2.9435425 2.4846191 5.499817 5.0407715 7.1064453l38.55078 24.230743c5.322937 3.345642 12.35022 1.7427673 15.695862 -3.5801392l24.230713 -38.55078c3.3457031 -5.322937 1.7427979 -12.350189 -3.5800781 -15.695862z" fill-rule="evenodd"/><path stroke="#000000" stroke-width="1.0" stroke-linejoin="round" stroke-linecap="butt" d="m629.7587 405.4429l0 0c-5.322876 -3.3456726 -12.350159 -1.7427979 -15.695801 3.5801086l-24.230774 38.55078l0 0c-1.6066284 2.5561829 -2.132019 5.645874 -1.4606323 8.5894165c0.6713867 2.9435425 2.4846191 5.499817 5.0407715 7.1064453l38.55078 24.230743c5.322937 3.345642 12.35022 1.7427673 15.695862 -3.5801392l24.230713 -38.55078c3.3457031 -5.322937 1.7427979 -12.350189 -3.5800781 -15.695862z" fill-rule="evenodd"/><path fill="#000000" d="m625.77106 466.10757l-10.503723 -6.6020203l4.772766 -7.593384l1.2434692 0.7815857l-3.8996582 6.2043457l3.2145996 2.0205383l3.6502686 -5.807495l1.2302856 0.7732849l-3.6502686 5.807495l3.5718384 2.244995l4.0493164 -6.442444l1.2435303 0.7815857l-4.9224243 7.8315125zm6.025757 -9.586914l-7.6066284 -4.7810364l0.7317505 -1.164154l1.0847778 0.68182373q-0.73291016 -1.623352 0.26483154 -3.2108154q0.43237305 -0.6878967 1.0412598 -1.0987549q0.6040039 -0.43240356 1.1887207 -0.4524536q0.57977295 -0.04156494 1.2102051 0.18859863q0.3988037 0.15835571 1.2850952 0.7154541l4.6830444 2.943451l-0.80651855 1.2832031l-4.630127 -2.9102173q-0.7805176 -0.49057007 -1.263916 -0.572937q-0.4883423 -0.10394287 -0.96759033 0.1300354q-0.47924805 0.23397827 -0.80352783 0.7498779q-0.5155029 0.8201904 -0.36053467 1.7481079q0.14172363 0.91955566 1.6101685 1.8425293l4.1538696 2.6108704l-0.8148804 1.2964172zm5.748535 -11.700348l1.2540894 0.5298767q-0.22180176 0.617218 -0.49621582 1.053772q-0.44067383 0.70111084 -0.9067383 0.9433899q-0.46600342 0.24230957 -0.92297363 0.17654419q-0.4701538 -0.07406616 -1.6210938 -0.79745483l-4.378723 -2.7522278l-0.59869385 0.9524536l-1.0053711 -0.6319275l0.5986328 -0.9524536l-1.878479 -1.1807251l0.026062012 -1.7737732l2.6589966 1.6712952l0.81481934 -1.2964478l1.0054321 0.6319275l-0.8148804 1.2964478l4.4448853 2.7937927q0.55566406 0.34921265 0.75598145 0.38287354q0.20031738 0.03363037 0.38433838 -0.05368042q0.19238281 -0.10055542 0.37530518 -0.39160156q0.13305664 -0.2116394 0.30462646 -0.6020813zm2.7705688 -7.2853394l0.9902344 -1.223114q0.986084 1.0443115 1.0938721 2.311615q0.1027832 1.245758 -0.72869873 2.568634q-1.0559692 1.6800842 -2.6898804 2.0187683q-1.638855 0.31713867 -3.5041504 -0.8552551q-1.9181519 -1.205658 -2.361145 -2.8497925q-0.43475342 -1.6573486 0.55474854 -3.2315674q0.9645386 -1.5345764 2.6165771 -1.8433838q1.638855 -0.3171692 3.517334 0.8635559q0.11907959 0.0748291 0.33563232 0.22940063l-3.5670776 5.6752014q1.3066406 0.7105408 2.3804321 0.49960327q1.0605469 -0.21923828 1.6592407 -1.1717224q0.4489746 -0.71435547 0.39453125 -1.4498596q-0.05444336 -0.73550415 -0.6916504 -1.5420837zm-4.7509766 2.9194946l2.6691284 -4.24646q-1.0107422 -0.506073 -1.7496338 -0.41687012q-1.1315918 0.15612793 -1.7468872 1.1350708q-0.5571289 0.886322 -0.34429932 1.8690491q0.22113037 0.9694519 1.1716919 1.6592102zm9.042297 -4.315033l-7.6065674 -4.781067l0.73168945 -1.164154l1.1508789 0.7233887q-0.53253174 -0.9437561 -0.5510864 -1.4721375q-0.0234375 -0.54992676 0.25927734 -0.99972534q0.41571045 -0.661438 1.2415771 -1.0651245l0.92944336 1.1932068q-0.57714844 0.30163574 -0.87646484 0.77786255q-0.26611328 0.42333984 -0.22259521 0.91204834q0.04345703 0.4887085 0.40179443 0.91693115q0.5465088 0.6572571 1.3666992 1.1727905l3.9819336 2.502777l-0.8065796 1.2832031z" fill-rule="nonzero"/><path fill="#cfe2f3" d="m710.85876 179.29486l0 0c-2.2787476 -5.859253 -8.875916 -8.761826 -14.735168 -6.4830627l-42.435303 16.503769l0 0c-2.8137207 1.0942993 -5.0774536 3.2615204 -6.293274 6.0249176c-1.2158203 2.763382 -1.2840576 5.8965607 -0.1897583 8.710281l16.503784 42.435272c2.2787476 5.859268 8.875916 8.761841 14.735168 6.483078l42.435303 -16.503784c5.859253 -2.2787628 8.76178 -8.875931 6.483032 -14.735199z" fill-rule="evenodd"/><path stroke="#000000" stroke-width="1.0" stroke-linejoin="round" stroke-linecap="butt" d="m710.85876 179.29486l0 0c-2.2787476 -5.859253 -8.875916 -8.761826 -14.735168 -6.4830627l-42.435303 16.503769l0 0c-2.8137207 1.0942993 -5.0774536 3.2615204 -6.293274 6.0249176c-1.2158203 2.763382 -1.2840576 5.8965607 -0.1897583 8.710281l16.503784 42.435272c2.2787476 5.859268 8.875916 8.761841 14.735168 6.483078l42.435303 -16.503784c5.859253 -2.2787628 8.76178 -8.875931 6.483032 -14.735199z" fill-rule="evenodd"/><path fill="#000000" d="m679.2821 213.82637l1.048523 -0.40777588q-0.19250488 1.9190216 -0.34539795 2.7329102q-0.14398193 0.79367065 -0.6828003 2.5120697l21.770874 -8.467041l0.5380249 1.3834381l-21.770813 8.467026q1.9845581 0.92144775 4.336487 3.175354l-1.0630493 0.4134369q-2.5266724 -1.2806396 -4.1900635 -1.8072815q-1.6633911 -0.5266266 -3.272522 -0.65522766l-0.237854 -0.61161804q0.9958496 -0.97410583 1.9189453 -2.5234222q0.92303467 -1.5493164 1.949646 -4.2118683z" fill-rule="nonzero"/><path fill="#cfe2f3" d="m860.25385 125.94713l0 0c-2.2788086 -5.8592606 -8.875977 -8.761833 -14.7352295 -6.4830627l-42.43524 16.503769l0 0c-2.8137207 1.0942993 -5.0775146 3.2615204 -6.293335 6.0249176c-1.2158203 2.763382 -1.2840576 5.8965607 -0.1897583 8.710281l16.503784 42.435272c2.2787476 5.859268 8.875916 8.761841 14.735168 6.483078l42.435303 -16.503784c5.859253 -2.2787628 8.761841 -8.875931 6.4830933 -14.735199z" fill-rule="evenodd"/><path stroke="#000000" stroke-width="1.0" stroke-linejoin="round" stroke-linecap="butt" d="m860.25385 125.94713l0 0c-2.2788086 -5.8592606 -8.875977 -8.761833 -14.7352295 -6.4830627l-42.43524 16.503769l0 0c-2.8137207 1.0942993 -5.0775146 3.2615204 -6.293335 6.0249176c-1.2158203 2.763382 -1.2840576 5.8965607 -0.1897583 8.710281l16.503784 42.435272c2.2787476 5.859268 8.875916 8.761841 14.735168 6.483078l42.435303 -16.503784c5.859253 -2.2787628 8.761841 -8.875931 6.4830933 -14.735199z" fill-rule="evenodd"/><path fill="#000000" d="m830.7701 158.87671q1.272522 -2.590561 1.7910767 -4.317856q0.5185547 -1.7272949 0.5751343 -3.0905151l0.6262207 -0.24353027q1.1618042 1.0905457 2.6795654 1.9756012q1.512085 0.87046814 4.16333 1.8679504l0.40777588 1.0484924q-3.2507324 -0.21107483 -5.270874 -1.0516205l7.8270264 20.12529l-1.3834229 0.53804016l-7.8270264 -20.12529q-0.90283203 1.5582275 -1.3995972 2.2208252q-0.48217773 0.6569519 -1.7871094 2.0865479l-0.4020996 -1.0339355z" fill-rule="nonzero"/><path fill="#cfe2f3" d="m780.9276 140.72163l0 0c-2.2788086 -5.859268 -8.875977 -8.761841 -14.7352295 -6.483078l-42.43524 16.503769l0 0c-2.8137207 1.0943146 -5.0775146 3.2615356 -6.293335 6.0249176c-1.2158203 2.7633972 -1.2840576 5.896576 -0.1897583 8.710297l16.503784 42.435272c2.2787476 5.859253 8.875916 8.761826 14.735168 6.4830627l42.435303 -16.503769c5.859253 -2.2787628 8.761841 -8.875946 6.483032 -14.735199z" fill-rule="evenodd"/><path stroke="#000000" stroke-width="1.0" stroke-linejoin="round" stroke-linecap="butt" d="m780.9276 140.72163l0 0c-2.2788086 -5.859268 -8.875977 -8.761841 -14.7352295 -6.483078l-42.43524 16.503769l0 0c-2.8137207 1.0943146 -5.0775146 3.2615356 -6.293335 6.0249176c-1.2158203 2.7633972 -1.2840576 5.896576 -0.1897583 8.710297l16.503784 42.435272c2.2787476 5.859253 8.875916 8.761826 14.735168 6.4830627l42.435303 -16.503769c5.859253 -2.2787628 8.761841 -8.875946 6.483032 -14.735199z" fill-rule="evenodd"/><path fill="#000000" d="m756.44476 186.50984l-0.4020996 -1.0339355q1.9425049 0.16661072 2.7418213 0.3251648q0.7993164 0.15855408 2.5177002 0.69732666l-7.8270264 -20.12529l1.3834229 -0.53804016l7.8270264 20.12529q0.92144775 -1.9845734 3.175354 -4.336487l0.40777588 1.0484924q-1.2806396 2.5266418 -1.807251 4.1900177q-0.52667236 1.6633759 -0.64068604 3.2668915l-0.62615967 0.24353027q-0.96276855 -0.96676636 -2.512085 -1.8898468q-1.5493164 -0.9230652 -4.237793 -1.973114z" fill-rule="nonzero"/><path fill="#cfe2f3" d="m939.98254 112.20736l0 0c-2.2787476 -5.8592606 -8.875916 -8.761833 -14.735168 -6.4830704l-42.435303 16.503777l0 0c-2.8137207 1.0942993 -5.0774536 3.261528 -6.293274 6.02491c-1.2158203 2.763382 -1.2840576 5.896576 -0.1897583 8.710297l16.503723 42.435272c2.2788086 5.859253 8.875977 8.761826 14.7352295 6.4830627l42.43524 -16.503769c5.859314 -2.2787628 8.761841 -8.875946 6.4830933 -14.735199z" fill-rule="evenodd"/><path stroke="#000000" stroke-width="1.0" stroke-linejoin="round" stroke-linecap="butt" d="m939.98254 112.20736l0 0c-2.2787476 -5.8592606 -8.875916 -8.761833 -14.735168 -6.4830704l-42.435303 16.503777l0 0c-2.8137207 1.0942993 -5.0774536 3.261528 -6.293274 6.02491c-1.2158203 2.763382 -1.2840576 5.896576 -0.1897583 8.710297l16.503723 42.435272c2.2788086 5.859253 8.875977 8.761826 14.7352295 6.4830627l42.43524 -16.503769c5.859314 -2.2787628 8.761841 -8.875946 6.4830933 -14.735199z" fill-rule="evenodd"/><path fill="#000000" d="m922.9246 141.09229q2.5905762 1.2725525 4.3032837 1.7967529q1.7216187 0.5039978 3.0994263 0.55493164l0.237854 0.61161804q-1.0994263 1.1820221 -1.9699097 2.6941223q-0.8704834 1.5121002 -1.867981 4.16333l-1.0484619 0.40777588q0.21105957 -3.250702 1.0370483 -5.265213l-21.770874 8.467041l-0.5380249 -1.3834381l21.770874 -8.467026q-1.5493164 -0.9230652 -2.2062988 -1.4052429q-0.6569214 -0.48216248 -2.0808716 -1.7725372l1.0339355 -0.40211487z" fill-rule="nonzero"/></g></svg>