<svg version="1.1" viewBox="0.0 0.0 1062.5144356955382 514.0472440944882" fill="none" stroke="none" stroke-linecap="square" stroke-miterlimit="10" xmlns:xlink="http://www.w3.org/1999/xlink" xmlns="http://www.w3.org/2000/svg"><clipPath id="p.0"><path d="m0 0l1062.5144 0l0 514.04724l-1062.5144 0l0 -514.04724z" clip-rule="nonzero"/></clipPath><g clip-path="url(#p.0)"><path fill="#000000" fill-opacity="0.0" d="m0 0l1062.5144 0l0 514.04724l-1062.5144 0z" fill-rule="evenodd"/><path fill="#cfe2f3" d="m379.90622 109.94902l0 0c2.2555847 -5.867958 8.841003 -8.796379 14.708954 -6.5408096l42.49826 16.335793l0 0c2.8179016 1.0831604 5.090088 3.2413635 6.316742 5.999832c1.226654 2.7584686 1.307251 5.8912354 0.22409058 8.709122l-16.335815 42.49826c-2.2555542 5.8679657 -8.840973 8.796387 -14.708954 6.5408173l-42.49826 -16.3358c-5.8679504 -2.2555695 -8.796387 -8.840988 -6.540802 -14.708954z" fill-rule="evenodd"/><path stroke="#000000" stroke-width="1.0" stroke-linejoin="round" stroke-linecap="butt" d="m379.90622 109.94902l0 0c2.2555847 -5.867958 8.841003 -8.796379 14.708954 -6.5408096l42.49826 16.335793l0 0c2.8179016 1.0831604 5.090088 3.2413635 6.316742 5.999832c1.226654 2.7584686 1.307251 5.8912354 0.22409058 8.709122l-16.335815 42.49826c-2.2555542 5.8679657 -8.840973 8.796387 -14.708954 6.5408173l-42.49826 -16.3358c-5.8679504 -2.2555695 -8.796387 -8.840988 -6.540802 -14.708954z" fill-rule="evenodd"/><path fill="#000000" d="m396.21252 148.01933l4.7932434 -12.469864l5.527588 2.1247406q1.6626282 0.6390991 2.3941956 1.3053131q0.74612427 0.67181396 0.9258423 1.7285156q0.19989014 1.0477295 -0.19815063 2.0832367q-0.5045471 1.3126221 -1.7182312 1.9006958q-1.2080688 0.5734863 -3.09729 0.13186646q0.532959 0.5731354 0.7652588 1.0139618q0.46237183 0.931015 0.7229004 2.1694336l0.8668518 4.233536l-2.0710144 -0.7960663l-0.6501465 -3.2295685q-0.2975769 -1.4033203 -0.54003906 -2.1661072q-0.23684692 -0.777359 -0.5263672 -1.1564789q-0.2692871 -0.38809204 -0.61486816 -0.62135315q-0.24908447 -0.17944336 -0.8908081 -0.42611694l-1.9105835 -0.7344055l-2.1303406 5.54216l-1.6480408 -0.63349915zm4.322174 -6.3233643l3.5440674 1.3622894q1.1376038 0.43728638 1.8544617 0.44499207q0.73703 -0.0012664795 1.2686768 -0.38279724q0.53167725 -0.3815155 0.7615051 -0.9794922q0.34197998 -0.8896637 -0.081085205 -1.7051239q-0.4230957 -0.81547546 -1.8232117 -1.3536682l-3.9378662 -1.5136566l-1.5865479 4.1274567z" fill-rule="nonzero"/><path fill="#cfe2f3" d="m351.86676 182.92055l0 0c2.2555847 -5.8679657 8.841003 -8.796387 14.708954 -6.5408173l42.49826 16.335785l0 0c2.8179016 1.0831757 5.0901184 3.2413788 6.316742 5.999832c1.226654 2.7584686 1.307251 5.8912354 0.22409058 8.709137l-16.335785 42.49826c-2.2555847 5.8679504 -8.841003 8.796371 -14.708984 6.5408173l-42.49826 -16.3358c-5.8679504 -2.2555695 -8.796387 -8.841003 -6.540802 -14.708954z" fill-rule="evenodd"/><path stroke="#000000" stroke-width="1.0" stroke-linejoin="round" stroke-linecap="butt" d="m351.86676 182.92055l0 0c2.2555847 -5.8679657 8.841003 -8.796387 14.708954 -6.5408173l42.49826 16.335785l0 0c2.8179016 1.0831757 5.0901184 3.2413788 6.316742 5.999832c1.226654 2.7584686 1.307251 5.8912354 0.22409058 8.709137l-16.335785 42.49826c-2.2555847 5.8679504 -8.841003 8.796371 -14.708984 6.5408173l-42.49826 -16.3358c-5.8679504 -2.2555695 -8.796387 -8.841003 -6.540802 -14.708954z" fill-rule="evenodd"/><path fill="#000000" d="m369.20074 221.38588l4.7932434 -12.469864l8.415344 3.2347565l-0.56622314 1.4730377l-6.767273 -2.601242l-1.4856262 3.8649292l5.848419 2.2480621l-0.5661926 1.473053l-5.8484497 -2.2480774l-2.1752014 5.658844l-1.6480408 -0.63349915z" fill-rule="nonzero"/><path fill="#cfe2f3" d="m323.8273 255.89206l0 0c2.2555847 -5.8679657 8.841003 -8.796387 14.708954 -6.5408173l42.49829 16.3358l0 0c2.817871 1.0831604 5.090088 3.2413635 6.3167114 5.999817c1.226654 2.758484 1.307251 5.8912354 0.22409058 8.709137l-16.335785 42.49826c-2.2555847 5.8679504 -8.841003 8.796387 -14.708954 6.540802l-42.49829 -16.335785c-5.8679504 -2.2555542 -8.796356 -8.841003 -6.540802 -14.708954z" fill-rule="evenodd"/><path stroke="#000000" stroke-width="1.0" stroke-linejoin="round" stroke-linecap="butt" d="m323.8273 255.89206l0 0c2.2555847 -5.8679657 8.841003 -8.796387 14.708954 -6.5408173l42.49829 16.3358l0 0c2.817871 1.0831604 5.090088 3.2413635 6.3167114 5.999817c1.226654 2.758484 1.307251 5.8912354 0.22409058 8.709137l-16.335785 42.49826c-2.2555847 5.8679504 -8.841003 8.796387 -14.708954 6.540802l-42.49829 -16.335785c-5.8679504 -2.2555542 -8.796356 -8.841003 -6.540802 -14.708954z" fill-rule="evenodd"/><path fill="#000000" d="m344.1435 295.50372l-0.034240723 -14.3255005l1.7939148 0.6895752l-0.24365234 10.301605q-0.026672363 1.2452393 -0.12854004 2.2941284q0.68411255 -0.90878296 1.4557495 -1.7839661l6.850464 -7.762024l1.6772461 0.64468384l-9.679108 10.591827l-1.6918335 -0.6503296z" fill-rule="nonzero"/><path fill="#cfe2f3" d="m450.5316 147.19685l0 0c2.2555847 -5.8679657 8.841003 -8.796387 14.708954 -6.5408173l42.49829 16.3358l0 0c2.817871 1.0831604 5.090088 3.2413635 6.3167114 5.999832c1.2266235 2.7584534 1.307251 5.89122 0.22406006 8.709122l-16.335754 42.49826c-2.2555847 5.8679657 -8.841003 8.796387 -14.708954 6.5408173l-42.49829 -16.3358c-5.8679504 -2.2555695 -8.796356 -8.840988 -6.540802 -14.708954z" fill-rule="evenodd"/><path stroke="#000000" stroke-width="1.0" stroke-linejoin="round" stroke-linecap="butt" d="m450.5316 147.19685l0 0c2.2555847 -5.8679657 8.841003 -8.796387 14.708954 -6.5408173l42.49829 16.3358l0 0c2.817871 1.0831604 5.090088 3.2413635 6.3167114 5.999832c1.2266235 2.7584534 1.307251 5.89122 0.22406006 8.709122l-16.335754 42.49826c-2.2555847 5.8679657 -8.841003 8.796387 -14.708954 6.5408173l-42.49829 -16.3358c-5.8679504 -2.2555695 -8.796356 -8.840988 -6.540802 -14.708954z" fill-rule="evenodd"/><path fill="#000000" d="m470.9575 186.8507l4.227051 -10.996811l-4.112854 -1.5809326l0.56622314 -1.473053l9.873779 3.7953644l-0.56622314 1.473053l-4.112854 -1.5809326l-4.227051 10.996811l-1.6480713 -0.63349915z" fill-rule="nonzero"/><path fill="#cfe2f3" d="m422.49216 220.16837l0 0c2.2555542 -5.8679504 8.840973 -8.796387 14.708954 -6.540802l42.49826 16.335785l0 0c2.817871 1.0831604 5.090088 3.2413635 6.3167114 5.999832c1.226654 2.7584686 1.307251 5.8912354 0.22409058 8.709122l-16.335785 42.49826c-2.2555847 5.867981 -8.841003 8.796387 -14.708954 6.5408325l-42.49826 -16.335815c-5.867981 -2.2555542 -8.796387 -8.840973 -6.5408325 -14.708954z" fill-rule="evenodd"/><path stroke="#000000" stroke-width="1.0" stroke-linejoin="round" stroke-linecap="butt" d="m422.49216 220.16837l0 0c2.2555542 -5.8679504 8.840973 -8.796387 14.708954 -6.540802l42.49826 16.335785l0 0c2.817871 1.0831604 5.090088 3.2413635 6.3167114 5.999832c1.226654 2.7584686 1.307251 5.8912354 0.22409058 8.709122l-16.335785 42.49826c-2.2555847 5.867981 -8.841003 8.796387 -14.708954 6.5408325l-42.49826 -16.335815c-5.867981 -2.2555542 -8.796387 -8.840973 -6.5408325 -14.708954z" fill-rule="evenodd"/><path fill="#000000" d="m445.99652 255.39778l0.5661926 -1.473053l5.279663 2.0294342l-1.7771606 4.6233215q-1.5861206 0.51187134 -3.074768 0.50878906q-1.4684753 -0.012054443 -2.8394165 -0.539032q-1.837677 -0.70635986 -3.03714 -2.0713806q-1.1994934 -1.3649902 -1.3860779 -3.1441498q-0.18655396 -1.7791443 0.5198059 -3.616806q0.70077515 -1.8230896 2.0646362 -3.1067047q1.3638611 -1.2836151 3.0846863 -1.4926147q1.7264099 -0.22358704 3.5786743 0.48838806q1.3563538 0.52137756 2.282013 1.3793793q0.9256897 0.8580017 1.2355042 1.8810272q0.3300171 1.0140533 0.16873169 2.3916626l-1.6445923 -0.16345215q0.08728027 -1.0545197 -0.12823486 -1.7567291q-0.19534302 -0.7111969 -0.8450012 -1.3291779q-0.6496277 -0.6179962 -1.5976562 -0.98239136q-1.1230164 -0.43167114 -2.0888672 -0.40118408q-0.9602661 0.0158844 -1.6893616 0.3884735q-0.70892334 0.36360168 -1.243927 0.9279785q-0.9241638 0.9671936 -1.4455261 2.3235626q-0.63912964 1.6626434 -0.50198364 3.004303q0.15170288 1.3472595 1.0325317 2.32193q0.8864136 0.9601135 2.1260986 1.436615q1.0646973 0.40927124 2.2425842 0.39331055q1.1835022 -0.030517578 1.8879395 -0.29541016l0.89138794 -2.3189392l-3.660736 -1.4071503z" fill-rule="nonzero"/><path fill="#cfe2f3" d="m394.4527 293.1399l0 0c2.2555542 -5.867981 8.840973 -8.796387 14.708954 -6.5408325l42.49826 16.335815l0 0c2.8179016 1.0831604 5.090088 3.2413635 6.3167114 5.999817c1.226654 2.758484 1.307251 5.8912354 0.22409058 8.709137l-16.335785 42.49826c-2.2555847 5.8679504 -8.841003 8.796387 -14.708954 6.540802l-42.49826 -16.335785c-5.867981 -2.2555847 -8.796387 -8.841003 -6.5408325 -14.708954z" fill-rule="evenodd"/><path stroke="#000000" stroke-width="1.0" stroke-linejoin="round" stroke-linecap="butt" d="m394.4527 293.1399l0 0c2.2555542 -5.867981 8.840973 -8.796387 14.708954 -6.5408325l42.49826 16.335815l0 0c2.8179016 1.0831604 5.090088 3.2413635 6.3167114 5.999817c1.226654 2.758484 1.307251 5.8912354 0.22409058 8.709137l-16.335785 42.49826c-2.2555847 5.8679504 -8.841003 8.796387 -14.708954 6.540802l-42.49826 -16.335785c-5.867981 -2.2555847 -8.796387 -8.841003 -6.5408325 -14.708954z" fill-rule="evenodd"/><path fill="#000000" d="m411.1373 331.35562l4.7932434 -12.469849l4.681671 1.7995605q1.4293213 0.54940796 2.144043 1.2593689q0.7147217 0.70996094 0.89328 1.6825256q0.19314575 0.97817993 -0.13760376 1.8386841q-0.3083496 0.80215454 -1.0205688 1.3486328q-0.6920471 0.5374756 -1.7297058 0.62405396q0.9940491 0.76712036 1.2982788 1.8047485q0.30422974 1.0375977 -0.11062622 2.1168518q-0.33636475 0.87509155 -1.0071106 1.4877319q-0.6505127 0.6036682 -1.3616943 0.79901123q-0.69662476 0.20092773 -1.5974426 0.10574341q-0.89523315 -0.10974121 -2.0911865 -0.569458l-4.7545776 -1.8276062zm4.4432983 -6.594879l2.6835632 1.0315247q1.108429 0.42608643 1.6256104 0.47421265q0.7000122 0.051483154 1.1890564 -0.26272583q0.4890442 -0.31420898 0.741333 -0.97052q0.23544312 -0.6125488 0.10858154 -1.196991q-0.10668945 -0.5934143 -0.5936279 -0.98147583q-0.486969 -0.388031 -1.8287354 -0.9038086l-2.4794006 -0.95303345l-1.4463806 3.7628174zm-2.2144165 5.7609253l3.091919 1.1885071q0.80215454 0.3083496 1.1454468 0.37335205q0.60806274 0.11654663 1.0769348 0.028961182q0.48910522 -0.096588135 0.91082764 -0.45339966q0.4217224 -0.35681152 0.6515808 -0.95480347q0.269104 -0.7000427 0.10070801 -1.3506775q-0.1538086 -0.644989 -0.71707153 -1.0958557q-0.5430298 -0.45983887 -1.7389832 -0.91955566l-2.873169 -1.1044006l-1.6481934 4.2878723z" fill-rule="nonzero"/><path fill="#cfe2f3" d="m230.29265 57.21729l0 0c2.2555695 -5.867962 8.840988 -8.796383 14.708954 -6.5408134l42.498276 16.335793l0 0c2.817871 1.083168 5.090088 3.2413712 6.3167114 5.999832c1.226654 2.7584686 1.307251 5.8912354 0.22409058 8.709129l-16.335785 42.49826c-2.2555847 5.867958 -8.841003 8.796379 -14.708954 6.5408096l-42.498276 -16.335793c-5.8679657 -2.2555695 -8.796387 -8.840996 -6.5408173 -14.708954z" fill-rule="evenodd"/><path stroke="#000000" stroke-width="1.0" stroke-linejoin="round" stroke-linecap="butt" d="m230.29265 57.21729l0 0c2.2555695 -5.867962 8.840988 -8.796383 14.708954 -6.5408134l42.498276 16.335793l0 0c2.817871 1.083168 5.090088 3.2413712 6.3167114 5.999832c1.226654 2.7584686 1.307251 5.8912354 0.22409058 8.709129l-16.335785 42.49826c-2.2555847 5.867958 -8.841003 8.796379 -14.708954 6.5408096l-42.498276 -16.335793c-5.8679657 -2.2555695 -8.796387 -8.840996 -6.5408173 -14.708954z" fill-rule="evenodd"/><path fill="#000000" d="m246.8127 95.36978l1.4971313 -13.736862l1.6918182 0.65031433l-1.2490387 8.910782q-0.18707275 1.4011765 -0.4504242 2.7395477q1.2347412 -1.8186951 1.4399872 -2.091339l5.6120453 -7.5015335l1.9835205 0.7624359l-0.63357544 7.0047073q-0.23168945 2.6060104 -0.7304535 4.7745667q0.7020416 -1.086052 1.6642609 -2.4570923l5.0377197 -7.2703247l1.6626587 0.6390991l-8.220642 11.15242l-1.5897217 -0.6110687l1.0243683 -10.503708q0.12425232 -1.3248825 0.16682434 -1.6098328q-0.51475525 0.77303314 -0.92523193 1.3183136l-6.2894287 8.479889l-1.6918182 -0.65031433z" fill-rule="nonzero"/><path fill="#cfe2f3" d="m202.25319 130.18881l0 0c2.2555695 -5.8679657 8.841003 -8.796387 14.708954 -6.5408173l42.498276 16.3358l0 0c2.817871 1.0831604 5.090088 3.2413635 6.3167114 5.999832c1.226654 2.7584534 1.307251 5.89122 0.22409058 8.709122l-16.335785 42.49826c-2.2555847 5.8679657 -8.841003 8.796387 -14.708969 6.5408173l-42.49826 -16.3358c-5.8679504 -2.2555695 -8.796387 -8.840988 -6.540802 -14.708954z" fill-rule="evenodd"/><path stroke="#000000" stroke-width="1.0" stroke-linejoin="round" stroke-linecap="butt" d="m202.25319 130.18881l0 0c2.2555695 -5.8679657 8.841003 -8.796387 14.708954 -6.5408173l42.498276 16.3358l0 0c2.817871 1.0831604 5.090088 3.2413635 6.3167114 5.999832c1.226654 2.7584534 1.307251 5.89122 0.22409058 8.709122l-16.335785 42.49826c-2.2555847 5.8679657 -8.841003 8.796387 -14.708969 6.5408173l-42.49826 -16.3358c-5.8679504 -2.2555695 -8.796387 -8.840988 -6.540802 -14.708954z" fill-rule="evenodd"/><path fill="#000000" d="m219.9982 164.20877l1.5964355 0.46299744q-0.24212646 0.9782562 -0.078186035 1.7276001q0.17851257 0.75494385 0.8786621 1.4592896q0.7203369 0.6953888 1.7850189 1.1046295q0.93341064 0.35879517 1.769165 0.3619995q0.8357544 0.0032043457 1.3707886 -0.34355164q0.54063416 -0.36132812 0.7648773 -0.9447174q0.22424316 -0.583374 0.042404175 -1.1554718q-0.16726685 -0.56648254 -0.822525 -1.1698761q-0.4375763 -0.38581848 -2.001587 -1.455719q-1.5438232 -1.0788727 -2.089157 -1.7069702q-0.7248535 -0.81430054 -0.89889526 -1.6679535q-0.16844177 -0.8682556 0.162323 -1.7287445q0.3587799 -0.93341064 1.2123566 -1.5427246q0.8591919 -0.62390137 2.042694 -0.65441895q1.1980896 -0.024917603 2.452362 0.4571991q1.3855438 0.5325928 2.2618408 1.3883514q0.89649963 0.8467865 1.1289368 1.940506q0.23803711 1.0791321 -0.13867188 2.189804l-1.6199951 -0.4887848q0.32284546 -1.2318115 -0.19113159 -2.1156921q-0.4937744 -0.89286804 -1.9230652 -1.442276q-1.5022125 -0.5774231 -2.4007263 -0.2866974q-0.8985138 0.2907257 -1.1956329 1.0637054q-0.2578888 0.67089844 0.075408936 1.2844696q0.29852295 0.6169281 2.1318054 1.8572845q1.8388977 1.225769 2.4537659 1.8471375q0.903244 0.91633606 1.1165771 1.8855438q0.22792053 0.97480774 -0.15890503 1.9811401q-0.38121033 0.99176025 -1.2919922 1.6627808q-0.9051666 0.6564331 -2.1604614 0.7430725q-1.2496796 0.07203674 -2.5914612 -0.4437256q-1.6918182 -0.65031433 -2.6533966 -1.5890808q-0.94699097 -0.93315125 -1.2220917 -2.177185q-0.26049805 -1.2384338 0.1924591 -2.5039215z" fill-rule="nonzero"/><path fill="#cfe2f3" d="m174.21373 203.16032l0 0c2.2555695 -5.8679657 8.841003 -8.796387 14.708969 -6.5408173l42.49826 16.3358l0 0c2.8178864 1.0831604 5.090088 3.2413635 6.3167267 5.999832c1.2266388 2.7584686 1.307251 5.8912354 0.22407532 8.709122l-16.335785 42.498276c-2.2555695 5.8679504 -8.841003 8.796387 -14.708954 6.540802l-42.498276 -16.335785c-5.8679504 -2.2555847 -8.796371 -8.841003 -6.540802 -14.708969z" fill-rule="evenodd"/><path stroke="#000000" stroke-width="1.0" stroke-linejoin="round" stroke-linecap="butt" d="m174.21373 203.16032l0 0c2.2555695 -5.8679657 8.841003 -8.796387 14.708969 -6.5408173l42.49826 16.3358l0 0c2.8178864 1.0831604 5.090088 3.2413635 6.3167267 5.999832c1.2266388 2.7584686 1.307251 5.8912354 0.22407532 8.709122l-16.335785 42.498276c-2.2555695 5.8679504 -8.841003 8.796387 -14.708954 6.540802l-42.498276 -16.335785c-5.8679504 -2.2555847 -8.796371 -8.841003 -6.540802 -14.708969z" fill-rule="evenodd"/><path fill="#000000" d="m189.70241 240.91637l7.3222504 -4.6345367l-1.9601898 -7.616699l1.9689178 0.75683594l1.0272675 4.0775757q0.31884766 1.260849 0.42330933 1.9036255q0.6662445 -0.513916 1.5209656 -1.039093l3.7811584 -2.346466l1.7938995 0.68955994l-6.634674 4.1957703l2.191452 8.408646l-2.0418549 -0.78486633l-1.4258118 -5.6536255q-0.11677551 -0.4801178 -0.23466492 -1.0443573q-0.67185974 0.5285034 -0.94218445 0.7091675l-4.8063354 3.1408997l-1.9835052 -0.7624359z" fill-rule="nonzero"/><path fill="#cfe2f3" d="m309.67908 71.66482l0 0c2.2555847 -5.8679657 8.841003 -8.796387 14.708954 -6.5408173l42.49826 16.3358l0 0c2.8179016 1.0831604 5.090088 3.2413635 6.316742 5.9998245c1.226654 2.7584686 1.307251 5.8912354 0.22409058 8.709129l-16.335815 42.49827c-2.2555542 5.8679504 -8.840973 8.796371 -14.708954 6.540802l-42.49826 -16.335785c-5.8679504 -2.255577 -8.796387 -8.840996 -6.540802 -14.7089615z" fill-rule="evenodd"/><path stroke="#000000" stroke-width="1.0" stroke-linejoin="round" stroke-linecap="butt" d="m309.67908 71.66482l0 0c2.2555847 -5.8679657 8.841003 -8.796387 14.708954 -6.5408173l42.49826 16.3358l0 0c2.8179016 1.0831604 5.090088 3.2413635 6.316742 5.9998245c1.226654 2.7584686 1.307251 5.8912354 0.22409058 8.709129l-16.335815 42.49827c-2.2555542 5.8679504 -8.840973 8.796371 -14.708954 6.540802l-42.49826 -16.335785c-5.8679504 -2.255577 -8.796387 -8.840996 -6.540802 -14.7089615z" fill-rule="evenodd"/><path fill="#000000" d="m326.4658 109.9198l4.7932434 -12.469864l9.013306 3.4645996l-0.56622314 1.4730453l-7.350647 -2.8254929l-1.468811 3.8211746l6.8839417 2.646103l-0.5606079 1.458458l-6.8839417 -2.646103l-1.6314087 4.244133l7.6423645 2.937622l-0.56622314 1.473053l-9.304993 -3.5767288z" fill-rule="nonzero"/><path fill="#cfe2f3" d="m281.63962 144.63634l0 0c2.2555847 -5.8679657 8.841003 -8.796387 14.708954 -6.5408173l42.49826 16.3358l0 0c2.8179016 1.0831604 5.0901184 3.2413635 6.316742 5.999832c1.226654 2.7584534 1.307251 5.89122 0.22409058 8.709122l-16.335815 42.49826c-2.2555542 5.8679657 -8.840973 8.796387 -14.708954 6.5408173l-42.49826 -16.3358c-5.8679504 -2.2555695 -8.796387 -8.840988 -6.540802 -14.708954z" fill-rule="evenodd"/><path stroke="#000000" stroke-width="1.0" stroke-linejoin="round" stroke-linecap="butt" d="m281.63962 144.63634l0 0c2.2555847 -5.8679657 8.841003 -8.796387 14.708954 -6.5408173l42.49826 16.3358l0 0c2.8179016 1.0831604 5.0901184 3.2413635 6.316742 5.999832c1.226654 2.7584534 1.307251 5.89122 0.22409058 8.709122l-16.335815 42.49826c-2.2555542 5.8679657 -8.840973 8.796387 -14.708954 6.5408173l-42.49826 -16.3358c-5.8679504 -2.2555695 -8.796387 -8.840988 -6.540802 -14.708954z" fill-rule="evenodd"/><path fill="#000000" d="m297.91675 182.69543l4.7932434 -12.469864l4.30249 1.6538239q1.4438782 0.55500793 2.143982 1.0417328q0.9749756 0.6425934 1.4811096 1.5904236q0.6721802 1.2125549 0.654541 2.6955872q-0.0030822754 1.4886322 -0.6421814 3.151291q-0.5437927 1.4147034 -1.3052979 2.3941956q-0.7559204 0.9649048 -1.5556641 1.4777374q-0.78515625 0.5184326 -1.5603027 0.7059326q-0.76953125 0.17289734 -1.7286987 0.05529785q-0.95355225 -0.13217163 -2.0765686 -0.56385803l-4.506653 -1.7322998zm2.2142944 -0.83955383l2.6689758 1.02594q1.2250977 0.47091675 2.0092773 0.52124023q0.7897339 0.035736084 1.3752747 -0.2246399q0.8076477 -0.35914612 1.5097046 -1.2275543q0.7166748 -0.8628235 1.2604675 -2.2775269q0.7512207 -1.9543457 0.5131531 -3.251114q-0.23809814 -1.2967529 -1.0223694 -1.9999847q-0.5553894 -0.514801 -2.0284424 -1.0810089l-2.6252441 -1.0091095l-3.660797 9.523758z" fill-rule="nonzero"/><path fill="#cfe2f3" d="m253.60017 217.60785l0 0c2.2555695 -5.8679504 8.840988 -8.796371 14.708939 -6.540802l42.49829 16.335785l0 0c2.817871 1.0831604 5.090088 3.2413635 6.3167114 5.999832c1.226654 2.7584686 1.307251 5.8912354 0.22409058 8.709122l-16.335785 42.49826c-2.2555847 5.867981 -8.841003 8.796387 -14.708954 6.5408325l-42.498276 -16.335815c-5.8679657 -2.2555542 -8.796387 -8.840973 -6.5408173 -14.708954z" fill-rule="evenodd"/><path stroke="#000000" stroke-width="1.0" stroke-linejoin="round" stroke-linecap="butt" d="m253.60017 217.60785l0 0c2.2555695 -5.8679504 8.840988 -8.796371 14.708939 -6.540802l42.49829 16.335785l0 0c2.817871 1.0831604 5.090088 3.2413635 6.3167114 5.999832c1.226654 2.7584686 1.307251 5.8912354 0.22409058 8.709122l-16.335785 42.49826c-2.2555847 5.867981 -8.841003 8.796387 -14.708954 6.5408325l-42.498276 -16.335815c-5.8679657 -2.2555542 -8.796387 -8.840973 -6.5408173 -14.708954z" fill-rule="evenodd"/><path fill="#000000" d="m280.45575 254.71132l1.4855042 1.0564575q-1.3043213 1.8254242 -3.0609436 2.3889313q-1.7510376 0.5489197 -3.7053833 -0.20230103q-2.0126648 -0.7736511 -2.9675903 -2.078125q-0.9347229 -1.3134613 -1.011383 -3.1173096q-0.05645752 -1.8128357 0.6331177 -3.6067505q0.74560547 -1.9397583 2.0444336 -3.0977173q1.3044434 -1.1725464 2.9613037 -1.389389q1.677063 -0.22581482 3.3251343 0.40766907q1.8668213 0.71759033 2.7713013 2.1533356q0.91903687 1.44133 0.7477722 3.3675232l-1.7646484 -0.24308777q0.08383179 -1.5245514 -0.5120239 -2.456665q-0.5756836 -0.9410858 -1.8153687 -1.4176025q-1.4438782 -0.55500793 -2.6699524 -0.23953247q-1.2260742 0.31547546 -2.0683594 1.3308716q-0.8366699 1.000824 -1.3132019 2.240509q-0.61105347 1.5897369 -0.5984497 2.9504852q0.01260376 1.3607483 0.7599182 2.3343353q0.7529297 0.9589844 1.8905334 1.3962708q1.3855286 0.5325928 2.6564636 0.10043335q1.270935 -0.4321289 2.2118225 -1.8783417z" fill-rule="nonzero"/><path fill="#cfe2f3" d="m76.49765 15.367519l0 0c2.2555695 -5.867961 8.840996 -8.796383 14.7089615 -6.5408125l42.498253 16.335793l0 0c2.8179016 1.0831642 5.090103 3.2413673 6.316742 5.999832c1.2266388 2.758463 1.3072357 5.8912296 0.22407532 8.709124l-16.335793 42.498264c-2.2555695 5.867958 -8.840996 8.796379 -14.708954 6.5408096l-42.49826 -16.335793c-5.8679657 -2.2555695 -8.796387 -8.840992 -6.5408173 -14.708954z" fill-rule="evenodd"/><path stroke="#000000" stroke-width="1.0" stroke-linejoin="round" stroke-linecap="butt" d="m76.49765 15.367519l0 0c2.2555695 -5.867961 8.840996 -8.796383 14.7089615 -6.5408125l42.498253 16.335793l0 0c2.8179016 1.0831642 5.090103 3.2413673 6.316742 5.999832c1.2266388 2.758463 1.3072357 5.8912296 0.22407532 8.709124l-16.335793 42.498264c-2.2555695 5.867958 -8.840996 8.796379 -14.708954 6.5408096l-42.49826 -16.335793c-5.8679657 -2.2555695 -8.796387 -8.840992 -6.5408173 -14.708954z" fill-rule="evenodd"/><path fill="#000000" d="m88.012314 50.46039l3.627182 -9.43626l-3.52948 -1.3566895l0.48212433 -1.2542763l8.473679 3.2571716l-0.48213196 1.2542801l-3.52948 -1.3566895l-3.627182 9.43626l-1.414711 -0.54379654zm4.1055756 1.5781326l8.222183 -9.109608l1.5313873 0.58864594l0.26608276 12.372387l-1.6188965 -0.62228394l0.0048675537 -3.7143097l-4.4774857 -1.7210884l-2.4113312 2.7892952l-1.5168076 -0.58303833zm4.779396 -3.2014732l3.6315765 1.3959312l0.015029907 -3.392353q0.010910034 -1.5525894 0.09373474 -2.5083847q-0.596611 0.9424362 -1.3536606 1.8232079l-2.3866806 2.6815987zm6.3049316 7.4621468l4.1093063 -10.69054l4.0107803 1.5416908q1.2251053 0.47091675 1.8455887 1.0776939q0.6204834 0.6067772 0.7653656 1.4492264q0.16506958 0.8334732 -0.115242004 1.5627022q-0.26348877 0.6854782 -0.8781433 1.1522751q-0.59446716 0.45781708 -1.4840469 0.5511017q0.8560715 0.6471138 1.11763 1.5344162q0.26155853 0.8872986 -0.09723663 1.820713q-0.29151917 0.7584038 -0.85905457 1.2767906q-0.5675278 0.51839066 -1.1687851 0.6890259q-0.6012573 0.17063141 -1.3741989 0.09113693q-0.7673416 -0.094078064 -1.7882614 -0.48650742l-4.083702 -1.569725zm3.7973251 -5.6546745l2.3189545 0.8913803q0.9334183 0.35879135 1.3922424 0.3845024q0.6013031 0.04699707 1.0185623 -0.21110153q0.42286682 -0.272686 0.6359024 -0.8269005q0.20742798 -0.5396309 0.0962677 -1.0343285q-0.09096527 -0.50367355 -0.5161972 -0.83452225q-0.40503693 -0.3398285 -1.5572281 -0.78271484l-2.1439362 -0.8241043l-1.2445679 3.2377892zm-1.8948822 4.9296074l2.668991 1.0259285q0.6854782 0.26348877 0.97940826 0.32625198q0.5149307 0.09749222 0.9142761 0.016643524q0.4139328 -0.07524109 0.7694855 -0.39054108q0.37013245 -0.30969238 0.5663452 -0.8201561q0.2298584 -0.59796906 0.09176636 -1.1532402q-0.13809967 -0.55526733 -0.61045074 -0.9377098q-0.46675873 -0.39702988 -1.4876785 -0.7894592l-2.479393 -0.9530449l-1.4127502 3.6753273z" fill-rule="nonzero"/><path fill="#cfe2f3" d="m48.4582 88.339035l0 0c2.2555695 -5.867958 8.840992 -8.796379 14.708954 -6.5408096l42.49826 16.335793l0 0c2.817894 1.083168 5.0900955 3.2413712 6.3167343 5.999832c1.2266388 2.7584686 1.3072433 5.8912277 0.22408295 8.709122l-16.335793 42.49826c-2.255577 5.8679657 -8.840996 8.796387 -14.7089615 6.5408173l-42.49826 -16.3358c-5.867962 -2.2555695 -8.796383 -8.840988 -6.5408134 -14.708954z" fill-rule="evenodd"/><path stroke="#000000" stroke-width="1.0" stroke-linejoin="round" stroke-linecap="butt" d="m48.4582 88.339035l0 0c2.2555695 -5.867958 8.840992 -8.796379 14.708954 -6.5408096l42.49826 16.335793l0 0c2.817894 1.083168 5.0900955 3.2413712 6.3167343 5.999832c1.2266388 2.7584686 1.3072433 5.8912277 0.22408295 8.709122l-16.335793 42.49826c-2.255577 5.8679657 -8.840996 8.796387 -14.7089615 6.5408173l-42.49826 -16.3358c-5.867962 -2.2555695 -8.796383 -8.840988 -6.5408134 -14.708954z" fill-rule="evenodd"/><path fill="#000000" d="m60.782856 119.44119l1.2801628 0.8938217q-1.1102791 1.5819778 -2.6302376 2.0523148q-1.5053711 0.47594452 -3.1680222 -0.1631546q-1.7355728 -0.6671295 -2.5457382 -1.7820511q-0.8045616 -1.1295013 -0.86320496 -2.6753387q-0.053035736 -1.5604324 0.5356102 -3.0918198q0.6447067 -1.6772308 1.7629547 -2.6702576q1.118248 -0.9930191 2.5316887 -1.1862564q1.4336319 -0.20220947 2.848343 0.34159088q1.6043091 0.61667633 2.3842125 1.8538742q0.7799034 1.2372055 0.64561844 2.8930206l-1.5234604 -0.21733093q0.08387375 -1.3069229 -0.42895126 -2.1066742q-0.49263382 -0.80872345 -1.5718994 -1.2235794q-1.2251091 -0.47091675 -2.2862854 -0.19249725q-1.0555725 0.26383972 -1.7778435 1.1412354q-0.71666336 0.86281586 -1.1203079 1.9129105q-0.52697754 1.3709564 -0.5256233 2.5432434q0.02154541 1.1633148 0.65665436 1.9933243q0.65530014 0.8210373 1.632473 1.1966476q1.1813545 0.45410156 2.2615852 0.08256531q1.0948143 -0.36592865 1.9022713 -1.5955887zm4.4441185 6.01033l3.627182 -9.436264l-3.52948 -1.3566818l0.48212433 -1.2542801l8.473679 3.2571716l-0.48213196 1.2542801l-3.52948 -1.3566895l-3.627182 9.436264l-1.414711 -0.54380035zm6.4245377 2.469513l4.1093063 -10.690544l4.7400055 1.8219986q1.4292984 0.54940796 2.0609894 1.1270142q0.6372986 0.5630188 0.7945328 1.460434q0.17181396 0.90302277 -0.17015839 1.7926865q-0.43727875 1.1376038 -1.4838257 1.6392593q-1.0263596 0.49267578 -2.6508179 0.10260773q0.46228027 0.49575043 0.65306854 0.8703995q0.39391327 0.80426025 0.6229706 1.8631973l0.74560547 3.6345139l-1.7793274 -0.6839447l-0.5569687 -2.7752533q-0.25713348 -1.2036438 -0.4692917 -1.8710785q-0.19756317 -0.6618271 -0.4399414 -0.98934937q-0.22779083 -0.32191467 -0.53520966 -0.5237808q-0.21092987 -0.14803314 -0.76514435 -0.36106873l-1.6334763 -0.62789154l-1.8276062 4.754593l-1.414711 -0.5437927zm3.713234 -5.4359055l3.0335999 1.1660767q0.97717285 0.37561035 1.5896835 0.39344025q0.6327057 0.008850098 1.0779953 -0.32217407q0.46548462 -0.34000397 0.6616974 -0.85046387q0.29151917 -0.75839996 -0.077690125 -1.4527283q-0.3636093 -0.7089081 -1.5449677 -1.1630096l-3.3836365 -1.3006287l-1.3566818 3.5294876zm6.9845963 9.548012l4.1093063 -10.6905365l1.414711 0.5437927l-3.6215744 9.421677l5.2650604 2.023819l-0.48773956 1.2688751l-6.679764 -2.567627z" fill-rule="nonzero"/><path fill="#cfe2f3" d="m20.418741 161.31056l0 0c2.2555695 -5.8679657 8.840994 -8.796387 14.708956 -6.5408173l42.498264 16.3358l0 0c2.817894 1.0831604 5.090088 3.2413635 6.3167267 5.999817c1.2266464 2.7584686 1.307251 5.8912354 0.22408295 8.709137l-16.335793 42.49826c-2.2555695 5.8679657 -8.840996 8.796387 -14.708958 6.5408173l-42.49826 -16.3358c-5.867961 -2.2555695 -8.796383 -8.840988 -6.540813 -14.708954z" fill-rule="evenodd"/><path stroke="#000000" stroke-width="1.0" stroke-linejoin="round" stroke-linecap="butt" d="m20.418741 161.31056l0 0c2.2555695 -5.8679657 8.840994 -8.796387 14.708956 -6.5408173l42.498264 16.3358l0 0c2.817894 1.0831604 5.090088 3.2413635 6.3167267 5.999817c1.2266464 2.7584686 1.307251 5.8912354 0.22408295 8.709137l-16.335793 42.49826c-2.2555695 5.8679657 -8.840996 8.796387 -14.708958 6.5408173l-42.49826 -16.3358c-5.867961 -2.2555695 -8.796383 -8.840988 -6.540813 -14.708954z" fill-rule="evenodd"/><path fill="#000000" d="m24.36659 189.04344l1.2643528 0.36883545q-0.19279861 0.76286316 -0.07152367 1.3618927q0.14146423 0.5900421 0.70023537 1.1396179q0.5587692 0.5495758 1.3900948 0.86912537q0.7438164 0.28590393 1.3967094 0.28578186q0.65289307 -1.373291E-4 1.0757618 -0.2728119q0.42847443 -0.28727722 0.6022644 -0.73939514q0.17939568 -0.46670532 0.03122902 -0.90867615q-0.12797546 -0.450943 -0.6508312 -0.919754q-0.33211708 -0.3117981 -1.5651531 -1.1540222q-1.2184525 -0.8366394 -1.6459618 -1.3357544q-0.5599079 -0.63371277 -0.70251274 -1.3078918q-0.12241173 -0.68315125 0.13547134 -1.3540497q0.28591347 -0.7438202 0.9409542 -1.2285614q0.6696243 -0.4791565 1.6007214 -0.5062561q0.9456806 -0.021499634 1.937437 0.3597107q1.0938473 0.42045593 1.7906227 1.0900421q0.69677734 0.6695862 0.8708267 1.5232544q0.18863678 0.8592682 -0.112957 1.7309723l-1.2733307 -0.38902283q0.25670242 -0.97265625 -0.14728737 -1.6636047q-0.3837986 -0.6999359 -1.5068169 -1.131607q-1.1813545 -0.45410156 -1.8891716 -0.22399902q-0.7078152 0.2301178 -0.93766785 0.8280945q-0.20182228 0.5250397 0.057416916 1.0264435q0.2356739 0.4756012 1.6706619 1.4456787q1.4551773 0.96110535 1.9376526 1.4478607q0.7091274 0.72454834 0.8820381 1.4940796q0.1785202 0.75494385 -0.12421417 1.542511q-0.30273247 0.7875824 -1.0239506 1.3138428q-0.7156124 0.51168823 -1.707283 0.56573486q-0.9770832 0.059646606 -2.0271778 -0.34399414q-1.3272018 -0.51016235 -2.0856895 -1.2369385q-0.7382965 -0.73576355 -0.95163345 -1.704956q-0.21333694 -0.96920776 0.13871193 -1.9721832zm8.395079 6.8427124l3.7617264 -9.786285l1.2980347 0.49894714l-1.5416908 4.0107727l5.0900383 1.956543l1.5416908 -4.0107727l1.2980347 0.49894714l-3.7617264 9.786301l-1.2980347 -0.49894714l1.7715454 -4.6087494l-5.090042 -1.956543l-1.7715416 4.608734l-1.2980347 -0.49894714zm10.054558 3.864853l3.7617264 -9.786301l1.2980347 0.49894714l-3.7617302 9.786301l-1.2980309 -0.49894714zm3.6550026 1.4049377l3.7617302 -9.786301l6.606838 2.5395966l-0.44288254 1.1521759l-5.308811 -2.0406342l-1.1660805 3.0335999l4.594162 1.7659454l-0.44288635 1.1521759l-4.594158 -1.7659302l-1.709877 4.4483185l-1.2980347 -0.49894714zm10.77758 4.142761l3.31884 -8.6341095l-3.2232056 -1.2389526l0.44288635 -1.1521912l7.7590256 2.9824677l-0.44288635 1.1521912l-3.2377853 -1.2445679l-3.3188438 8.6341095l-1.2980309 -0.49894714z" fill-rule="nonzero"/><path fill="#cfe2f3" d="m150.50798 43.80614l0 0c2.2555695 -5.867962 8.840988 -8.796383 14.708954 -6.5408134l42.49826 16.335796l0 0c2.8179016 1.0831604 5.090103 3.2413635 6.316742 5.9998283c1.2266388 2.7584648 1.3072357 5.8912277 0.22407532 8.709122l-16.3358 42.49827c-2.2555695 5.867958 -8.840988 8.796379 -14.708954 6.5408096l-42.49826 -16.335793c-5.8679657 -2.2555695 -8.796387 -8.840996 -6.5408173 -14.708954z" fill-rule="evenodd"/><path stroke="#000000" stroke-width="1.0" stroke-linejoin="round" stroke-linecap="butt" d="m150.50798 43.80614l0 0c2.2555695 -5.867962 8.840988 -8.796383 14.708954 -6.5408134l42.49826 16.335796l0 0c2.8179016 1.0831604 5.090103 3.2413635 6.316742 5.9998283c1.2266388 2.7584648 1.3072357 5.8912277 0.22407532 8.709122l-16.3358 42.49827c-2.2555695 5.867958 -8.840988 8.796379 -14.708954 6.5408096l-42.49826 -16.335793c-5.8679657 -2.2555695 -8.796387 -8.840996 -6.5408173 -14.708954z" fill-rule="evenodd"/><path fill="#000000" d="m176.26704 83.96995q0.84384155 1.2450409 1.666275 1.97966l-0.91856384 0.9525986q-1.156784 -0.99705505 -2.1005402 -2.5483322q-1.682663 0.24040222 -3.3598938 -0.4043045q-1.6918182 -0.65031433 -2.7634277 -1.9996414q-1.0570068 -1.3437195 -1.2346039 -3.1026764q-0.17198181 -1.773552 0.5399933 -3.625801q0.71199036 -1.8522491 2.0332336 -3.06855q1.3414459 -1.2252808 3.0151367 -1.485878q1.6938782 -0.2695694 3.414856 0.39196014q1.720993 0.6615219 2.7869873 2.0254288q1.0715942 1.3493271 1.2346039 3.102684q0.16300964 1.7533569 -0.5489807 3.605606q-0.5942383 1.5459671 -1.5318756 2.5916824q-0.9376221 1.0457153 -2.2332 1.5855637zm-2.824295 -3.4961243q1.2779388 0.9431915 1.8884277 2.0985336q1.9686279 -0.7665863 2.9945526 -3.4355774q0.58303833 -1.5167999 0.50424194 -2.8360367q-0.07318115 -1.3338165 -0.82948303 -2.327591q-0.75068665 -1.0083542 -1.9903717 -1.4848785q-1.837677 -0.7063751 -3.5505219 0.09157562q-1.6926422 0.7889633 -2.6569061 3.2975235q-0.9306183 2.421051 -0.2392273 4.1933746q0.7115631 1.7633438 2.5783997 2.4809265q0.8896637 0.34197998 1.7915955 0.30365753q-0.5823822 -0.7930069 -1.3587799 -1.3425369l0.8680725 -1.038971z" fill-rule="nonzero"/><path fill="#cfe2f3" d="m122.46853 116.77766l0 0c2.2555695 -5.867958 8.840996 -8.796379 14.708946 -6.5408096l42.498276 16.335793l0 0c2.8178864 1.0831604 5.090088 3.2413712 6.3167267 5.99984c1.2266388 2.7584534 1.3072357 5.89122 0.22407532 8.709122l-16.335785 42.49826c-2.2555695 5.8679657 -8.841003 8.796387 -14.708954 6.5408173l-42.49827 -16.3358c-5.8679657 -2.2555695 -8.796387 -8.840988 -6.5408173 -14.708954z" fill-rule="evenodd"/><path stroke="#000000" stroke-width="1.0" stroke-linejoin="round" stroke-linecap="butt" d="m122.46853 116.77766l0 0c2.2555695 -5.867958 8.840996 -8.796379 14.708946 -6.5408096l42.498276 16.335793l0 0c2.8178864 1.0831604 5.090088 3.2413712 6.3167267 5.99984c1.2266388 2.7584534 1.3072357 5.89122 0.22407532 8.709122l-16.335785 42.49826c-2.2555695 5.8679657 -8.841003 8.796387 -14.708954 6.5408173l-42.49827 -16.3358c-5.8679657 -2.2555695 -8.796387 -8.840988 -6.5408173 -14.708954z" fill-rule="evenodd"/><path fill="#000000" d="m137.8551 154.49446l9.577026 -10.631058l1.7793274 0.6839447l0.3113556 14.432022l-1.8814087 -0.7231903l0.008102417 -4.332428l-5.221298 -2.0070038l-2.8229523 3.2504425l-1.7501526 -0.6727295zm5.57016 -3.734497l4.229553 1.6257782l0.016036987 -3.9611053q0.022079468 -1.7993927 0.11721802 -2.9178467q-0.70765686 1.1006317 -1.5847015 2.1194153l-2.7781067 3.1337585z" fill-rule="nonzero"/><path fill="#cfe2f3" d="m94.42907 189.74918l0 0c2.2555695 -5.8679657 8.840996 -8.796387 14.708954 -6.5408173l42.49827 16.3358l0 0c2.8178864 1.0831604 5.090088 3.2413635 6.3167267 5.999832c1.2266388 2.7584686 1.307251 5.8912354 0.22409058 8.709122l-16.3358 42.49826c-2.2555695 5.867981 -8.840988 8.796387 -14.708954 6.5408325l-42.49827 -16.335815c-5.867958 -2.2555695 -8.796379 -8.840988 -6.5408096 -14.708954z" fill-rule="evenodd"/><path stroke="#000000" stroke-width="1.0" stroke-linejoin="round" stroke-linecap="butt" d="m94.42907 189.74918l0 0c2.2555695 -5.8679657 8.840996 -8.796387 14.708954 -6.5408173l42.49827 16.3358l0 0c2.8178864 1.0831604 5.090088 3.2413635 6.3167267 5.999832c1.2266388 2.7584686 1.307251 5.8912354 0.22409058 8.709122l-16.3358 42.49826c-2.2555695 5.867981 -8.840988 8.796387 -14.708954 6.5408325l-42.49827 -16.335815c-5.867958 -2.2555695 -8.796379 -8.840988 -6.5408096 -14.708954z" fill-rule="evenodd"/><path fill="#000000" d="m110.68377 227.79967l0.58864594 -1.5313873l9.454636 -5.5223083q1.0016556 -0.6026001 1.855278 -0.9942932l-6.9568787 -2.6741333l0.56622314 -1.4730377l8.940384 3.4365692l-0.56622314 1.4730377l-10.325073 5.9577484l-1.0947647 0.5835571l7.963211 3.0609589l-0.56622314 1.473053l-9.859215 -3.7897644z" fill-rule="nonzero"/><path fill="#cfe2f3" d="m255.18892 313.26212l0 0c2.2555695 -5.8679504 8.840988 -8.796387 14.708969 -6.540802l42.49826 16.335785l0 0c2.8179016 1.0831604 5.090088 3.2413635 6.3167114 5.999817c1.226654 2.758484 1.307251 5.8912354 0.22409058 8.709137l-16.335785 42.49826c-2.2555847 5.8679504 -8.841003 8.796387 -14.708954 6.540802l-42.498276 -16.335785c-5.8679504 -2.2555542 -8.796371 -8.841003 -6.540802 -14.708954z" fill-rule="evenodd"/><path stroke="#000000" stroke-width="1.0" stroke-linejoin="round" stroke-linecap="butt" d="m255.18892 313.26212l0 0c2.2555695 -5.8679504 8.840988 -8.796387 14.708969 -6.540802l42.49826 16.335785l0 0c2.8179016 1.0831604 5.090088 3.2413635 6.3167114 5.999817c1.226654 2.758484 1.307251 5.8912354 0.22409058 8.709137l-16.335785 42.49826c-2.2555847 5.8679504 -8.841003 8.796387 -14.708954 6.540802l-42.498276 -16.335785c-5.8679504 -2.2555542 -8.796371 -8.841003 -6.540802 -14.708954z" fill-rule="evenodd"/><path fill="#000000" d="m269.98627 345.14465l0.56622314 -1.473053l5.2796326 2.029419l-1.7771606 4.623352q-1.5861206 0.5118408 -3.074768 0.50878906q-1.4684448 -0.012054443 -2.8394165 -0.539032q-1.8376465 -0.7063904 -3.03714 -2.0713806q-1.1994934 -1.3649902 -1.3860779 -3.144165q-0.18655396 -1.7791443 0.5198059 -3.6168213q0.70077515 -1.8230591 2.0646362 -3.1066895q1.3638611 -1.2836304 3.0846863 -1.4926147q1.7264099 -0.22357178 3.5786743 0.48840332q1.3563538 0.5213623 2.2820435 1.379364q0.9256592 0.8580017 1.2354736 1.8810425q0.3300171 1.0140381 0.16873169 2.3916626l-1.6445923 -0.16348267q0.08728027 -1.0545044 -0.12823486 -1.7567139q-0.19534302 -0.71118164 -0.8450012 -1.3291626q-0.6496277 -0.6180115 -1.5976257 -0.98239136q-1.1230164 -0.43167114 -2.0888977 -0.4012146q-0.9602661 0.015899658 -1.6893616 0.38848877q-0.70892334 0.36361694 -1.243927 0.9279785q-0.9241638 0.9671936 -1.4455261 2.323578q-0.6390991 1.6626282 -0.50198364 3.004303q0.15170288 1.3472595 1.0325317 2.32193q0.8864136 0.960083 2.1260986 1.436615q1.0646973 0.40924072 2.2425842 0.39331055q1.1835022 -0.030517578 1.8879395 -0.29541016l0.89138794 -2.3189697l-3.660736 -1.407135zm18.808533 -1.474823l1.6480713 0.6335144l-2.7694397 7.2048035q-0.72320557 1.8814087 -1.5722351 2.8272705q-0.848999 0.9458618 -2.226532 1.2198486q-1.3719177 0.2593994 -3.18042 -0.4357605q-1.7501526 -0.6727295 -2.643341 -1.7023621q-0.8729553 -1.0386353 -0.91696167 -2.3612366q-0.023834229 -1.3315735 0.73861694 -3.315094l2.7694092 -7.2048035l1.6480713 0.6334839l-2.7694397 7.2048035q-0.62228394 1.6188965 -0.62771606 2.5040283q0.014770508 0.87612915 0.5814209 1.5793762q0.5812378 0.7088623 1.6459045 1.1181335q1.8230896 0.7007446 2.915619 0.16656494q1.0925598 -0.5342102 1.9895325 -2.8677368l2.7694397 -7.204834zm-0.12225342 14.26535l4.7932434 -12.469879l1.6480713 0.6335144l-4.7932434 12.469849l-1.6480713 -0.6334839z" fill-rule="nonzero"/><path fill="#cfe2f3" d="m340.597 355.90213l0 0c3.470337 -5.2417297 10.532867 -6.6777344 15.774597 -3.2073975l37.96289 25.133606l0 0c2.5171509 1.6665039 4.269226 4.2647095 4.8707275 7.2230225c0.60150146 2.958313 0.0032043457 6.0343933 -1.6633301 8.551575l-25.133606 37.96286c-3.470337 5.2417297 -10.532837 6.677765 -15.774597 3.207428l-37.96286 -25.133606c-5.2417297 -3.470337 -6.6777344 -10.532867 -3.207428 -15.774597z" fill-rule="evenodd"/><path stroke="#000000" stroke-width="1.0" stroke-linejoin="round" stroke-linecap="butt" d="m340.597 355.90213l0 0c3.470337 -5.2417297 10.532867 -6.6777344 15.774597 -3.2073975l37.96289 25.133606l0 0c2.5171509 1.6665039 4.269226 4.2647095 4.8707275 7.2230225c0.60150146 2.958313 0.0032043457 6.0343933 -1.6633301 8.551575l-25.133606 37.96286c-3.470337 5.2417297 -10.532837 6.677765 -15.774597 3.207428l-37.96286 -25.133606c-5.2417297 -3.470337 -6.6777344 -10.532867 -3.207428 -15.774597z" fill-rule="evenodd"/><path fill="#000000" d="m338.7981 386.49792l4.2092896 -6.3578796l0.8468628 0.56066895l-3.709015 5.602234l3.126831 2.0701294l-0.50027466 0.75564575l-3.9736938 -2.6307983zm6.773041 0.024261475q1.0437012 -1.5764465 2.4857178 -1.9147644q1.4550476 -0.32965088 2.7969666 0.55877686q0.8728943 0.5779114 1.2918091 1.4736328q0.44052124 0.8913269 0.3050537 1.8884888q-0.11383057 0.99276733 -0.75213623 1.9568481q-0.63830566 0.9641113 -1.5380554 1.4740295q-0.8911438 0.4968872 -1.8664551 0.41333008q-0.9753418 -0.08355713 -1.8091736 -0.6355896q-0.8989563 -0.5951843 -1.3178406 -1.4909058q-0.41888428 -0.8956909 -0.2920227 -1.8798523q0.13546753 -0.99716187 0.6961365 -1.8439941zm0.86428833 0.5909424q-0.7590637 1.1464844 -0.5866089 2.216339q0.17242432 1.0698547 1.1104736 1.6908875q0.9510803 0.6296692 2.003296 0.370636q1.0608826 -0.27209473 1.8716736 -1.4967651q0.50891113 -0.76867676 0.62786865 -1.5144348q0.127594 -0.75878906 -0.17349243 -1.4078674q-0.29248047 -0.6621094 -0.9178467 -1.0761414q-0.8989563 -0.5951538 -1.942749 -0.40548706q-1.0437927 0.18969727 -1.9926147 1.6228333zm5.362152 7.991211l2.5155945 -7.4792175l0.8728943 0.5779419l-1.7960815 4.807373q-0.27493286 0.75494385 -0.58895874 1.4839783q0.9159546 -0.8739929 1.0585327 -1.0044556l4.049469 -3.4841614l1.0162048 0.6727905l-1.2185364 3.8218079q-0.44177246 1.4315186 -0.99713135 2.5816956q0.53567505 -0.5260925 1.2400208 -1.1653748l3.698578 -3.4353943l0.8468628 0.56066895l-5.955078 5.202057l-0.8077698 -0.53479004l1.8667908 -5.735016q0.23602295 -0.7244568 0.29623413 -0.8720093q-0.3888855 0.3609314 -0.6871033 0.61325073l-4.5506287 3.95813l-0.8598938 -0.5692749zm7.2920837 4.827759l4.209259 -6.3578796l4.59906 3.0448303l-0.4916687 0.74261475l-3.7521973 -2.4841614l-1.2938232 1.9542847l3.5176697 2.328888l-0.49163818 0.74261475l-3.5177002 -2.328888l-1.4318237 2.1627197l3.8954773 2.5790405l-0.50027466 0.75564575l-4.74234 -3.1397095zm5.926483 3.9236755l4.2092896 -6.3578796l2.8141174 1.8631287q0.8468628 0.56066895 1.1777039 1.0233154q0.33081055 0.46261597 0.29812622 1.0780945q-0.011047363 0.611084 -0.3560791 1.1322327q-0.44851685 0.6774597 -1.2019958 0.85324097q-0.73184204 0.17132568 -1.7431335 -0.31079102q0.23522949 0.38061523 0.30111694 0.64907837q0.15353394 0.5888672 0.14285278 1.3126221l-0.039764404 2.465973l-1.0553284 -0.69866943l0.032989502 -1.8895874q0.014709473 -0.8147583 -0.034423828 -1.2782898q-0.036132812 -0.45492554 -0.15393066 -0.7015686q-0.09613037 -0.2510376 -0.26568604 -0.41949463q-0.11743164 -0.13397217 -0.44314575 -0.34960938l-0.97714233 -0.6469116l-1.8717651 2.8271484l-0.83380127 -0.5520325zm3.1885986 -3.0047302l1.8109436 1.1989746q0.5732727 0.3795166 0.976593 0.47790527q0.40335083 0.09838867 0.74523926 -0.050048828q0.3418579 -0.1484375 0.54888916 -0.4611206q0.30187988 -0.45599365 0.16595459 -0.9582825q-0.13595581 -0.5022583 -0.83950806 -0.9680176l-2.0194092 -1.3369751l-1.3887024 2.0975647z" fill-rule="nonzero"/><path fill="#cfe2f3" d="m433.90088 408.73074l0 0c5.3084106 -3.3659668 12.340393 -1.7912903 15.706329 3.5171204l24.377716 38.4458l0 0c1.616394 2.5491943 2.1539307 5.6361084 1.4943237 8.581604c-0.6595764 2.9455261 -2.4622498 5.508362 -5.011444 7.124756l-38.4458 24.377716c-5.308441 3.3659668 -12.340393 1.7912903 -15.70636 -3.5171204l-24.377716 -38.44583c-3.3659668 -5.3084106 -1.7912903 -12.340393 3.5171204 -15.706329z" fill-rule="evenodd"/><path stroke="#000000" stroke-width="1.0" stroke-linejoin="round" stroke-linecap="butt" d="m433.90088 408.73074l0 0c5.3084106 -3.3659668 12.340393 -1.7912903 15.706329 3.5171204l24.377716 38.4458l0 0c1.616394 2.5491943 2.1539307 5.6361084 1.4943237 8.581604c-0.6595764 2.9455261 -2.4622498 5.508362 -5.011444 7.124756l-38.4458 24.377716c-5.308441 3.3659668 -12.340393 1.7912903 -15.70636 -3.5171204l-24.377716 -38.44583c-3.3659668 -5.3084106 -1.7912903 -12.340393 3.5171204 -15.706329z" fill-rule="evenodd"/><path fill="#000000" d="m421.11856 434.35312l0.64816284 0.84713745q-0.51239014 0.41738892 -0.7048645 0.87246704q-0.19250488 0.45507812 -0.10723877 1.0855713q0.10681152 0.63531494 0.50009155 1.2554932q0.3430481 0.54104614 0.7691345 0.86291504q0.43930054 0.31347656 0.84191895 0.33572388q0.42419434 0.027038574 0.75408936 -0.1821289q0.3430786 -0.21755981 0.46829224 -0.5744629q0.13842773 -0.3652954 0.025482178 -0.9227295q-0.07366943 -0.3788147 -0.47207642 -1.5322876q-0.39001465 -1.1403198 -0.42990112 -1.6700745q-0.057556152 -0.7035217 0.17932129 -1.2052612q0.25012207 -0.5101013 0.7515564 -0.82806396q0.5410156 -0.3430481 1.2085266 -0.34075928q0.6890564 0.0071105957 1.3031006 0.45028687q0.6356201 0.44805908 1.0958252 1.1738281q0.510376 0.80493164 0.63974 1.5924988q0.14251709 0.7791748 -0.16293335 1.4353943q-0.29226685 0.64782715 -0.90893555 1.0758667l-0.65167236 -0.88186646q0.6359863 -0.5142822 0.7029419 -1.1672974q0.08856201 -0.64819336 -0.43859863 -1.4795227q-0.5522156 -0.87091064 -1.1199341 -1.065979q-0.5677185 -0.19506836 -1.0163879 0.089416504q-0.39587402 0.25100708 -0.47088623 0.6871033q-0.07501221 0.4360962 0.3973999 1.764679q0.48077393 1.3417664 0.55892944 1.9027405q0.09814453 0.8258362 -0.15808105 1.4138489q-0.24301147 0.57962036 -0.8368225 0.95614624q-0.58062744 0.36813354 -1.3044434 0.364563q-0.7106323 -0.011932373 -1.3941956 -0.44805908q-0.6703491 -0.44448853 -1.164032 -1.223053q-0.62753296 -0.98968506 -0.77716064 -1.8383789q-0.12805176 -0.8438721 0.20993042 -1.594696q0.34631348 -0.7376709 1.0637207 -1.2110596zm2.1512756 8.5572815l7.2576904 -4.601959l1.740387 2.7447205q0.45184326 0.71258545 0.6285095 1.137085q0.2506714 0.5996094 0.22589111 1.1148682q-0.016448975 0.5284729 -0.3312378 1.0240784q-0.306427 0.5088196 -0.8474426 0.8518677q-0.92370605 0.5857239 -1.9468384 0.401886q-1.0015564 -0.1789856 -1.9805298 -1.7229004l-1.1797485 -1.8605957l-2.9558716 1.8742371l-0.6108093 -0.96328735zm4.411194 -1.4464722l1.1881409 1.8738098q0.5940857 0.93692017 1.1798096 1.1020508q0.6073303 0.1699524 1.2407227 -0.23165894q0.44866943 -0.28448486 0.6147461 -0.72283936q0.18765259 -0.4335022 0.058929443 -0.8699341q-0.09298706 -0.2925415 -0.5029907 -0.93914795l-1.179779 -1.8606262l-2.5995789 1.648346zm-1.104065 6.66214l9.023193 -1.8176575l0.6526489 1.0292664l-5.3750916 7.571045l-0.6860962 -1.0820618l1.6598206 -2.255066l-1.9160767 -3.0218506l-2.7141113 0.5924072l-0.6442871 -1.0160828zm4.3126526 0.2071228l1.5563049 2.4544373l1.5288391 -2.0239868q0.68460083 -0.93362427 1.178009 -1.4685059q-0.7914429 0.29830933 -1.6365967 0.48269653l-2.6265564 0.5553589zm6.310608 10.915283l0.3517151 1.1090698q-1.3668823 0.44119263 -2.4807434 0.055877686q-1.1138611 -0.38528442 -1.8334656 -1.5201416q-0.7446594 -1.174408 -0.7381897 -2.2145996q0.006500244 -1.0401917 0.66116333 -1.9918518q0.6678467 -0.960022 1.7103271 -1.6210022q1.1348572 -0.7196045 2.2554932 -0.8196411q1.1206665 -0.10003662 2.0581665 0.41558838q0.9458618 0.5288391 1.5566711 1.4921265q0.6860962 1.0820618 0.60043335 2.1724548q-0.077301025 1.1035767 -0.89608765 2.0298157l-0.8267822 -0.8078613q0.632782 -0.7527466 0.6794739 -1.466919q0.06826782 -0.70932007 -0.39193726 -1.4351196q-0.5271301 -0.83132935 -1.29599 -1.1393738q-0.74728394 -0.30319214 -1.5708923 -0.113983154q-0.81521606 0.20239258 -1.5410156 0.66259766q-0.92370605 0.58569336 -1.4425354 1.2846985q-0.5104675 0.71221924 -0.4937744 1.4971924q0.016693115 0.78497314 0.4434204 1.4579468q0.5104065 0.80496216 1.3237 1.0663147q0.82162476 0.27456665 1.8708496 -0.1131897zm-1.1777039 3.7740479l7.2576904 -4.6019897l3.3218079 5.2387695l-0.85772705 0.54385376l-2.7109985 -4.2754517l-2.2168884 1.4057007l2.5436401 4.0115356l-0.85772705 0.54385376l-2.5436401 -4.0115356l-2.4676208 1.5646973l2.8197327 4.446991l-0.85772705 0.54385376l-3.430542 -5.4102783z" fill-rule="nonzero"/><path fill="#cfe2f3" d="m682.5189 106.4395l0 0c-2.2787476 -5.859268 -8.875977 -8.761833 -14.7352295 -6.4830704l-42.43524 16.503769l0 0c-2.8137207 1.0942993 -5.0775146 3.261528 -6.293335 6.0249176c-1.2157593 2.763382 -1.2840576 5.8965683 -0.1897583 8.710289l16.503784 42.435272c2.2787476 5.859253 8.875916 8.761826 14.735168 6.4830627l42.435303 -16.503769c5.859253 -2.2787628 8.761841 -8.875946 6.4830933 -14.735199z" fill-rule="evenodd"/><path stroke="#000000" stroke-width="1.0" stroke-linejoin="round" stroke-linecap="butt" d="m682.5189 106.4395l0 0c-2.2787476 -5.859268 -8.875977 -8.761833 -14.7352295 -6.4830704l-42.43524 16.503769l0 0c-2.8137207 1.0942993 -5.0775146 3.261528 -6.293335 6.0249176c-1.2157593 2.763382 -1.2840576 5.8965683 -0.1897583 8.710289l16.503784 42.435272c2.2787476 5.859253 8.875916 8.761826 14.735168 6.4830627l42.435303 -16.503769c5.859253 -2.2787628 8.761841 -8.875946 6.4830933 -14.735199z" fill-rule="evenodd"/><path fill="#000000" d="m659.8409 132.77705l1.6455078 -0.63998413l2.7978516 7.1938477q0.7305908 1.8785553 0.7387085 3.1495514q0.008117676 1.2709808 -0.8267822 2.400406q-0.8405762 1.1148682 -2.6463013 1.8171539q-1.7474976 0.67962646 -3.1010132 0.5186615q-1.3446045 -0.18119812 -2.2669067 -1.1301575q-0.91345215 -0.96920776 -1.6837158 -2.9496918l-2.7977905 -7.1938477l1.6455688 -0.63998413l2.7977905 7.1938477q0.6286621 1.6164246 1.2200928 2.2749634q0.60028076 0.63830566 1.4926758 0.77745056q0.9069214 0.13346863 1.9699707 -0.27998352q1.8203125 -0.7079468 2.269287 -1.8381653q0.4489746 -1.1302338 -0.45715332 -3.4602203l-2.7977905 -7.1938477z" fill-rule="nonzero"/><path fill="#cfe2f3" d="m710.85876 179.29486l0 0c-2.2787476 -5.859253 -8.875916 -8.761826 -14.735168 -6.4830627l-42.435303 16.503769l0 0c-2.8137207 1.0942993 -5.0774536 3.2615204 -6.293274 6.0249176c-1.2158203 2.763382 -1.2840576 5.8965607 -0.1897583 8.710281l16.503784 42.435272c2.2787476 5.859268 8.875916 8.761841 14.735168 6.483078l42.435303 -16.503784c5.859253 -2.2787628 8.76178 -8.875931 6.483032 -14.735199z" fill-rule="evenodd"/><path stroke="#000000" stroke-width="1.0" stroke-linejoin="round" stroke-linecap="butt" d="m710.85876 179.29486l0 0c-2.2787476 -5.859253 -8.875916 -8.761826 -14.735168 -6.4830627l-42.435303 16.503769l0 0c-2.8137207 1.0942993 -5.0774536 3.2615204 -6.293274 6.0249176c-1.2158203 2.763382 -1.2840576 5.8965607 -0.1897583 8.710281l16.503784 42.435272c2.2787476 5.859268 8.875916 8.761841 14.735168 6.483078l42.435303 -16.503784c5.859253 -2.2787628 8.76178 -8.875931 6.483032 -14.735199z" fill-rule="evenodd"/><path fill="#000000" d="m684.56415 217.29921l1.4061279 -0.78157043q0.6278076 1.3988037 1.3033447 1.7563782q0.68444824 0.33735657 1.5291138 0.008865356q0.61157227 -0.23786926 0.95544434 -0.6901245q0.33813477 -0.46681213 0.3114624 -1.0096741q-0.017822266 -0.5630951 -0.43695068 -1.6407166l-3.3358154 -8.5772705l1.6455078 -0.63998413l3.30188 8.489899q0.60601807 1.5581818 0.56152344 2.564621q-0.044433594 1.0064392 -0.6843872 1.7750397q-0.6398926 0.7685852 -1.7466431 1.1990204q-1.6310425 0.6343231 -2.8729248 0.027572632q-1.2418213 -0.6067352 -1.9376831 -2.4820557z" fill-rule="nonzero"/><path fill="#cfe2f3" d="m739.19867 252.15024l0 0c-2.2787476 -5.859268 -8.875916 -8.761841 -14.7352295 -6.483078l-42.43524 16.503769l0 0c-2.8137207 1.0942993 -5.0775146 3.2615356 -6.293274 6.024933c-1.2158203 2.7633667 -1.2841187 5.8965454 -0.18981934 8.710266l16.503784 42.435272c2.2787476 5.8592834 8.875977 8.761841 14.7352295 6.4830933l42.43524 -16.503784c5.859253 -2.278778 8.761841 -8.875946 6.4830933 -14.735199z" fill-rule="evenodd"/><path stroke="#000000" stroke-width="1.0" stroke-linejoin="round" stroke-linecap="butt" d="m739.19867 252.15024l0 0c-2.2787476 -5.859268 -8.875916 -8.761841 -14.7352295 -6.483078l-42.43524 16.503769l0 0c-2.8137207 1.0942993 -5.0775146 3.2615356 -6.293274 6.024933c-1.2158203 2.7633667 -1.2841187 5.8965454 -0.18981934 8.710266l16.503784 42.435272c2.2787476 5.8592834 8.875977 8.761841 14.7352295 6.4830933l42.43524 -16.503784c5.859253 -2.278778 8.761841 -8.875946 6.4830933 -14.735199z" fill-rule="evenodd"/><path fill="#000000" d="m712.18616 294.5077l-4.842346 -12.450867l2.475586 -0.9628296l6.368103 7.66626q0.8890991 1.0792236 1.3162842 1.617218q-0.047729492 -0.7694092 -0.12060547 -2.2499084l-0.38452148 -9.825684l2.213501 -0.86087036l4.842346 12.450867l-1.5872803 0.6173401l-4.0494385 -10.41214l0.43792725 11.816711l-1.4853516 0.57766724l-7.7199707 -9.202545l4.123047 10.601471l-1.5872803 0.6173096z" fill-rule="nonzero"/><path fill="#cfe2f3" d="m612.0476 143.978l0 0c-2.2787476 -5.859253 -8.875916 -8.761826 -14.7352295 -6.4830627l-42.43524 16.503769l0 0c-2.8137207 1.0942993 -5.0775146 3.2615356 -6.293274 6.0249176c-1.2158203 2.763382 -1.2841187 5.896576 -0.18981934 8.710297l16.503784 42.435257c2.2787476 5.859268 8.875916 8.761841 14.7352295 6.483078l42.43524 -16.503769c5.859253 -2.2787628 8.761841 -8.875946 6.4830933 -14.735214z" fill-rule="evenodd"/><path stroke="#000000" stroke-width="1.0" stroke-linejoin="round" stroke-linecap="butt" d="m612.0476 143.978l0 0c-2.2787476 -5.859253 -8.875916 -8.761826 -14.7352295 -6.4830627l-42.43524 16.503769l0 0c-2.8137207 1.0942993 -5.0775146 3.2615356 -6.293274 6.0249176c-1.2158203 2.763382 -1.2841187 5.896576 -0.18981934 8.710297l16.503784 42.435257c2.2787476 5.859268 8.875916 8.761841 14.7352295 6.483078l42.43524 -16.503769c5.859253 -2.2787628 8.761841 -8.875946 6.4830933 -14.735214z" fill-rule="evenodd"/><path fill="#000000" d="m590.0316 184.39223l-2.050232 -5.271591l-7.5977173 -5.3103027l2.0095825 -0.78157043l3.9223022 2.7999573q1.0776367 0.7879791 2.0735474 1.6244812q0.18847656 -1.1965637 0.5136719 -2.7312927l0.97558594 -4.604233l1.9222412 -0.7475891l-2.173645 9.110565l2.050232 5.271591l-1.6455688 0.63998413z" fill-rule="nonzero"/><path fill="#cfe2f3" d="m640.3875 216.83337l0 0c-2.2788086 -5.859268 -8.875977 -8.761841 -14.7352295 -6.4830627l-42.43524 16.503769l0 0c-2.8137207 1.0942993 -5.0775146 3.2615204 -6.293335 6.0249023c-1.2158203 2.7633972 -1.2840576 5.896576 -0.1897583 8.710297l16.503784 42.435257c2.2787476 5.8592834 8.875916 8.761841 14.735168 6.4830933l42.435303 -16.503784c5.859253 -2.2787476 8.761841 -8.875946 6.483032 -14.735199z" fill-rule="evenodd"/><path stroke="#000000" stroke-width="1.0" stroke-linejoin="round" stroke-linecap="butt" d="m640.3875 216.83337l0 0c-2.2788086 -5.859268 -8.875977 -8.761841 -14.7352295 -6.4830627l-42.43524 16.503769l0 0c-2.8137207 1.0942993 -5.0775146 3.2615204 -6.293335 6.0249023c-1.2158203 2.7633972 -1.2840576 5.896576 -0.1897583 8.710297l16.503784 42.435257c2.2787476 5.8592834 8.875916 8.761841 14.735168 6.4830933l42.435303 -16.503784c5.859253 -2.2787476 8.761841 -8.875946 6.483032 -14.735199z" fill-rule="evenodd"/><path fill="#000000" d="m614.4405 258.77643l-4.842346 -12.450882l1.6455688 -0.63998413l1.987915 5.1114197l6.4656982 -2.5146332l-1.987915 -5.1114197l1.6455688 -0.63998413l4.842346 12.450897l-1.6455688 0.63998413l-2.2824097 -5.8686676l-6.4656982 2.514618l2.2824097 5.8686676l-1.6455688 0.63998413z" fill-rule="nonzero"/><path fill="#cfe2f3" d="m668.72736 289.68875l0 0c-2.2787476 -5.8592834 -8.875916 -8.761841 -14.735168 -6.4830933l-42.435303 16.503784l0 0c-2.8137207 1.0942993 -5.0774536 3.2615356 -6.293274 6.0249023c-1.2158203 2.7633972 -1.2841187 5.896576 -0.1897583 8.710297l16.503723 42.435272c2.2788086 5.8592834 8.875977 8.761841 14.7352295 6.4830627l42.43524 -16.503754c5.859314 -2.278778 8.761841 -8.875946 6.4830933 -14.735199z" fill-rule="evenodd"/><path stroke="#000000" stroke-width="1.0" stroke-linejoin="round" stroke-linecap="butt" d="m668.72736 289.68875l0 0c-2.2787476 -5.8592834 -8.875916 -8.761841 -14.735168 -6.4830933l-42.435303 16.503784l0 0c-2.8137207 1.0942993 -5.0774536 3.2615356 -6.293274 6.0249023c-1.2158203 2.7633972 -1.2841187 5.896576 -0.1897583 8.710297l16.503723 42.435272c2.2788086 5.8592834 8.875977 8.761841 14.7352295 6.4830627l42.43524 -16.503754c5.859314 -2.278778 8.761841 -8.875946 6.4830933 -14.735199z" fill-rule="evenodd"/><path fill="#000000" d="m642.7076 331.66013l-4.842346 -12.450897l1.689209 -0.6569824l10.338806 7.2284546l-3.800232 -9.771393l1.5727539 -0.6116638l4.842346 12.450897l-1.68927 0.6569519l-10.344421 -7.2430115l3.8059082 9.78598l-1.5727539 0.6116638z" fill-rule="nonzero"/><path fill="#cfe2f3" d="m831.91394 53.091763l0 0c-2.2787476 -5.8592644 -8.875916 -8.761833 -14.735168 -6.4830704l-42.435303 16.503773l0 0c-2.8137207 1.0942993 -5.0774536 3.261528 -6.293274 6.02491c-1.2158203 2.7633896 -1.2841187 5.896576 -0.18981934 8.710289l16.503784 42.435272c2.2788086 5.859268 8.875977 8.761833 14.7352295 6.4830704l42.43524 -16.503769c5.859253 -2.2787628 8.761841 -8.875938 6.4830933 -14.735207z" fill-rule="evenodd"/><path stroke="#000000" stroke-width="1.0" stroke-linejoin="round" stroke-linecap="butt" d="m831.91394 53.091763l0 0c-2.2787476 -5.8592644 -8.875916 -8.761833 -14.735168 -6.4830704l-42.435303 16.503773l0 0c-2.8137207 1.0942993 -5.0774536 3.261528 -6.293274 6.02491c-1.2158203 2.7633896 -1.2841187 5.896576 -0.18981934 8.710289l16.503784 42.435272c2.2788086 5.859268 8.875977 8.761833 14.7352295 6.4830704l42.43524 -16.503769c5.859253 -2.2787628 8.761841 -8.875938 6.4830933 -14.735207z" fill-rule="evenodd"/><path fill="#000000" d="m802.5736 89.380264q-1.2062988 -3.101799 -0.22583008 -5.494934q0.9747925 -2.4077072 3.6105957 -3.432808q1.7183838 -0.66830444 3.4246216 -0.37628174q1.7006226 0.2774582 3.0064087 1.4796448q1.3001709 1.1876297 2.0250854 3.0516205q0.7362671 1.8931198 0.5477905 3.6932144q-0.17956543 1.7798767 -1.2773438 3.0953903q-1.0978394 1.3155136 -2.7288208 1.9498291q-1.7474976 0.67962646 -3.4594116 0.37304688q-1.7175903 -0.3211441 -3.0031738 -1.5144348q-1.2855835 -1.1932907 -1.9199219 -2.8242874zm1.6949463 -0.6424103q0.8778076 2.2571793 2.5905762 3.0831604q1.7127075 0.82598114 3.5476074 0.11236572q1.8639526 -0.7249298 2.5484009 -2.4999619q0.6843872 -1.775032 -0.25012207 -4.177841q-0.58898926 -1.5144882 -1.5404663 -2.4521332q-0.951416 -0.93764496 -2.1795654 -1.1641464q-1.2337646 -0.24106598 -2.4569702 0.23468018q-1.762085 0.6852875 -2.55896 2.3867035q-0.78796387 1.6811829 0.2994995 4.477173z" fill-rule="nonzero"/><path fill="#cfe2f3" d="m860.25385 125.94713l0 0c-2.2788086 -5.8592606 -8.875977 -8.761833 -14.7352295 -6.4830627l-42.43524 16.503769l0 0c-2.8137207 1.0942993 -5.0775146 3.2615204 -6.293335 6.0249176c-1.2158203 2.763382 -1.2840576 5.8965607 -0.1897583 8.710281l16.503784 42.435272c2.2787476 5.859268 8.875916 8.761841 14.735168 6.483078l42.435303 -16.503784c5.859253 -2.2787628 8.761841 -8.875931 6.4830933 -14.735199z" fill-rule="evenodd"/><path stroke="#000000" stroke-width="1.0" stroke-linejoin="round" stroke-linecap="butt" d="m860.25385 125.94713l0 0c-2.2788086 -5.8592606 -8.875977 -8.761833 -14.7352295 -6.4830627l-42.43524 16.503769l0 0c-2.8137207 1.0942993 -5.0775146 3.2615204 -6.293335 6.0249176c-1.2158203 2.763382 -1.2840576 5.8965607 -0.1897583 8.710281l16.503784 42.435272c2.2787476 5.859268 8.875916 8.761841 14.735168 6.483078l42.435303 -16.503784c5.859253 -2.2787628 8.761841 -8.875931 6.4830933 -14.735199z" fill-rule="evenodd"/><path fill="#000000" d="m835.6191 167.37984l-4.842346 -12.450882l1.6600952 -0.6456604l4.2703857 10.980087l6.116211 -2.378708l0.5720215 1.4708099l-7.776367 3.024353z" fill-rule="nonzero"/><path fill="#cfe2f3" d="m888.5937 198.8025l0 0c-2.2787476 -5.859268 -8.875916 -8.761841 -14.735168 -6.483078l-42.435303 16.503769l0 0c-2.8137207 1.0943146 -5.0774536 3.2615356 -6.293274 6.0249176c-1.2158203 2.763382 -1.2840576 5.896576 -0.1897583 8.710297l16.503723 42.435272c2.2788086 5.859253 8.875977 8.761841 14.7352295 6.4830627l42.435303 -16.503769c5.859253 -2.2787628 8.76178 -8.875946 6.483032 -14.735199z" fill-rule="evenodd"/><path stroke="#000000" stroke-width="1.0" stroke-linejoin="round" stroke-linecap="butt" d="m888.5937 198.8025l0 0c-2.2787476 -5.859268 -8.875916 -8.761841 -14.735168 -6.483078l-42.435303 16.503769l0 0c-2.8137207 1.0943146 -5.0774536 3.2615356 -6.293274 6.0249176c-1.2158203 2.763382 -1.2840576 5.896576 -0.1897583 8.710297l16.503723 42.435272c2.2788086 5.859253 8.875977 8.761841 14.7352295 6.4830627l42.435303 -16.503769c5.859253 -2.2787628 8.76178 -8.875946 6.483032 -14.735199z" fill-rule="evenodd"/><path fill="#000000" d="m865.5336 221.55002l-6.871765 6.7296906l-0.58898926 -1.5144958l5.4851074 -5.2515564l-7.5806274 -0.13653564l-0.5946655 -1.529068l9.595947 0.2748413l0.5549927 1.427124z" fill-rule="nonzero"/><path fill="#000000" d="m870.6716 249.42719l-0.67962646 -1.7474976l1.7474976 -0.67962646l0.67962646 1.7474976l-1.7474976 0.67962646z" fill-rule="nonzero"/><path fill="#cfe2f3" d="m752.5877 67.86626l0 0c-2.2787476 -5.8592606 -8.875916 -8.761829 -14.735168 -6.4830666l-42.435303 16.503773l0 0c-2.8137207 1.0942993 -5.0774536 3.261528 -6.293274 6.02491c-1.2158203 2.7633896 -1.2841187 5.896576 -0.18981934 8.710289l16.503784 42.435272c2.2787476 5.859268 8.875977 8.761841 14.7352295 6.483078l42.43524 -16.503777c5.859253 -2.2787628 8.761841 -8.875938 6.4830933 -14.735207z" fill-rule="evenodd"/><path stroke="#000000" stroke-width="1.0" stroke-linejoin="round" stroke-linecap="butt" d="m752.5877 67.86626l0 0c-2.2787476 -5.8592606 -8.875916 -8.761829 -14.735168 -6.4830666l-42.435303 16.503773l0 0c-2.8137207 1.0942993 -5.0774536 3.261528 -6.293274 6.02491c-1.2158203 2.7633896 -1.2841187 5.896576 -0.18981934 8.710289l16.503784 42.435272c2.2787476 5.859268 8.875977 8.761841 14.7352295 6.483078l42.43524 -16.503777c5.859253 -2.2787628 8.761841 -8.875938 6.4830933 -14.735207z" fill-rule="evenodd"/><path fill="#000000" d="m730.7221 108.22199l-4.842346 -12.450882l1.6455688 -0.63998413l4.842346 12.450882l-1.6455688 0.63998413z" fill-rule="nonzero"/><path fill="#cfe2f3" d="m780.9276 140.72163l0 0c-2.2788086 -5.859268 -8.875977 -8.761841 -14.7352295 -6.483078l-42.43524 16.503769l0 0c-2.8137207 1.0943146 -5.0775146 3.2615356 -6.293335 6.0249176c-1.2158203 2.7633972 -1.2840576 5.896576 -0.1897583 8.710297l16.503784 42.435272c2.2787476 5.859253 8.875916 8.761826 14.735168 6.4830627l42.435303 -16.503769c5.859253 -2.2787628 8.761841 -8.875946 6.483032 -14.735199z" fill-rule="evenodd"/><path stroke="#000000" stroke-width="1.0" stroke-linejoin="round" stroke-linecap="butt" d="m780.9276 140.72163l0 0c-2.2788086 -5.859268 -8.875977 -8.761841 -14.7352295 -6.483078l-42.43524 16.503769l0 0c-2.8137207 1.0943146 -5.0775146 3.2615356 -6.293335 6.0249176c-1.2158203 2.7633972 -1.2840576 5.896576 -0.1897583 8.710297l16.503784 42.435272c2.2787476 5.859253 8.875916 8.761826 14.735168 6.4830627l42.435303 -16.503769c5.859253 -2.2787628 8.761841 -8.875946 6.483032 -14.735199z" fill-rule="evenodd"/><path fill="#000000" d="m755.3292 182.5291l-4.842346 -12.450882l1.6601562 -0.64564514l2.4013062 6.174469l3.7731323 -8.575821l2.2280273 -0.8665314l-3.2480469 7.080719l8.323425 5.279541l-2.1697998 0.8438721l-6.89386 -4.5781403l-1.248291 2.7822876l1.6764526 4.310486l-1.6601562 0.64564514z" fill-rule="nonzero"/><path fill="#cfe2f3" d="m809.26746 213.577l0 0c-2.2787476 -5.859268 -8.875916 -8.761826 -14.735168 -6.4830627l-42.435303 16.503769l0 0c-2.8137207 1.0942993 -5.0774536 3.2615204 -6.293274 6.0249176c-1.2158203 2.763382 -1.2840576 5.8965607 -0.1897583 8.710281l16.503723 42.435287c2.2788086 5.859253 8.875977 8.76181 14.7352295 6.4830627l42.43524 -16.503784c5.859314 -2.2787476 8.761841 -8.875946 6.4830933 -14.735199z" fill-rule="evenodd"/><path stroke="#000000" stroke-width="1.0" stroke-linejoin="round" stroke-linecap="butt" d="m809.26746 213.577l0 0c-2.2787476 -5.859268 -8.875916 -8.761826 -14.735168 -6.4830627l-42.435303 16.503769l0 0c-2.8137207 1.0942993 -5.0774536 3.2615204 -6.293274 6.0249176c-1.2158203 2.763382 -1.2840576 5.8965607 -0.1897583 8.710281l16.503723 42.435287c2.2788086 5.859253 8.875977 8.76181 14.7352295 6.4830627l42.43524 -16.503784c5.859314 -2.2787476 8.761841 -8.875946 6.4830933 -14.735199z" fill-rule="evenodd"/><path fill="#000000" d="m777.9651 239.5301l-0.5550537 -1.427124l6.888733 -6.6860046l0.5946655 1.5290527l-5.496399 5.2224274l7.591919 0.16567993l0.5890503 1.5144958l-9.612915 -0.31852722z" fill-rule="nonzero"/><path fill="#000000" d="m791.3162 264.213l-0.67962646 -1.7474976l1.7474976 -0.67962646l0.67962646 1.7474976q0.3737793 0.9611206 0.2508545 1.6795349q-0.10272217 0.72732544 -0.7208252 1.3365479l-0.67718506 -0.49105835q0.40130615 -0.3907776 0.47003174 -0.90371704q0.074401855 -0.49835205 -0.19659424 -1.2814941l-0.8737793 0.33981323z" fill-rule="nonzero"/><path fill="#cfe2f3" d="m985.5352 10.608669l0 0c-2.2787476 -5.859264 -8.875977 -8.761833 -14.7352295 -6.483069l-42.43524 16.50377l0 0c-2.8137207 1.0943012 -5.0775146 3.261528 -6.293335 6.024914c-1.2157593 2.7633877 -1.2840576 5.896572 -0.1897583 8.710289l16.503784 42.43527c2.2787476 5.859268 8.875916 8.761833 14.735168 6.4830704l42.435303 -16.503769c5.859253 -2.2787628 8.761841 -8.875938 6.4830933 -14.735203z" fill-rule="evenodd"/><path stroke="#000000" stroke-width="1.0" stroke-linejoin="round" stroke-linecap="butt" d="m985.5352 10.608669l0 0c-2.2787476 -5.859264 -8.875977 -8.761833 -14.7352295 -6.483069l-42.43524 16.50377l0 0c-2.8137207 1.0943012 -5.0775146 3.261528 -6.293335 6.024914c-1.2157593 2.7633877 -1.2840576 5.896572 -0.1897583 8.710289l16.503784 42.43527c2.2787476 5.859268 8.875916 8.761833 14.735168 6.4830704l42.435303 -16.503769c5.859253 -2.2787628 8.761841 -8.875938 6.4830933 -14.735203z" fill-rule="evenodd"/><path fill="#000000" d="m950.7549 55.98715l-4.842346 -12.450886l4.6745605 -1.8180046q1.427124 -0.5550308 2.4335327 -0.51055527q1.0064697 0.04447174 1.7928467 0.6439438q0.80096436 0.59381104 1.1351318 1.4529953q0.3114624 0.80093384 0.15209961 1.6844025q-0.15045166 0.8632393 -0.8599243 1.6253624q1.2515259 -0.10115814 2.1746826 0.46190643q0.9230957 0.5630646 1.3422241 1.640686q0.3397827 0.87374496 0.25567627 1.778244q-0.07519531 0.8842735 -0.47003174 1.5072365q-0.380188 0.61730194 -1.1107788 1.1528969q-0.73620605 0.52103424 -1.9302979 0.98544693l-4.7473755 1.8463249zm-1.1489868 -7.868614l2.6795044 -1.042099q1.1066895 -0.43043137 1.5217285 -0.7427254q0.55255127 -0.43284607 0.70306396 -0.9943199q0.15045166 -0.56147003 -0.10443115 -1.2167816q-0.237854 -0.61162186 -0.72491455 -0.958683q-0.4781494 -0.3672905 -1.0994873 -0.3268242q-0.6213379 0.04046631 -1.9610596 0.5615158l-2.475586 0.9628067l1.4611816 3.7571106zm2.2371216 5.752163l3.0872192 -1.2006798q0.8009033 -0.31149673 1.0986328 -0.4943428q0.5283203 -0.32281876 0.8162842 -0.7030678q0.29693604 -0.40047836 0.36889648 -0.9481964q0.072021484 -0.54771423 -0.16021729 -1.1447754q-0.2718506 -0.6989975 -0.83410645 -1.0670929q-0.5477295 -0.37376022 -1.2677612 -0.3284378q-0.7111206 0.025096893 -1.9052734 0.48950958l-2.8687744 1.1157265l1.6651001 4.281357zm8.733337 -4.804825l1.4238892 -0.82201004q0.46765137 0.857563 1.2427368 1.1261444q0.76934814 0.25401688 1.8178711 -0.15376282q1.0484619 -0.40777588 1.3939209 -1.0283089q0.3397827 -0.6350975 0.113220215 -1.217598q-0.19818115 -0.5096855 -0.7685547 -0.6399231q-0.38513184 -0.084941864 -1.7564087 0.09631348q-1.8591919 0.2201004 -2.6334229 0.1691513q-0.75964355 -0.056613922 -1.3041382 -0.46516037q-0.5501709 -0.42311096 -0.81066895 -1.0929832q-0.23223877 -0.59706116 -0.15374756 -1.2143555q0.072753906 -0.631855 0.4230957 -1.1536865q0.2475586 -0.39805222 0.79119873 -0.81066895q0.55255127 -0.43284607 1.2515259 -0.70469666q1.0630493 -0.4134407 1.9829712 -0.41912842q0.91986084 -0.005683899 1.5023804 0.3713112q0.5970459 0.37133026 1.0825195 1.1884422l-1.4206543 0.78722q-0.3737793 -0.65935135 -1.0218506 -0.8599739q-0.6334839 -0.20628738 -1.5217896 0.13918686q-1.0630493 0.4134407 -1.37854 0.9385109q-0.30096436 0.51940536 -0.11975098 0.98540497q0.11328125 0.29124832 0.38433838 0.47084808q0.2855835 0.17393494 0.75561523 0.17554092q0.2524414 0.0024223328 1.4926758 -0.12786484q1.795227 -0.21200562 2.543579 -0.1845169q0.74835205 0.027488708 1.3162842 0.41014862q0.56799316 0.3826561 0.8737793 1.1690292q0.3001709 0.7718086 0.109313965 1.6172523q-0.1763916 0.8397789 -0.87371826 1.5468903q-0.70306396 0.69254684 -1.7661133 1.1059875q-1.7474976 0.67962646 -2.9626465 0.31397247q-1.2006226 -0.371315 -2.0089111 -1.7167168zm11.695435 2.526329l-4.8480225 -12.465446l1.3834229 -0.53804016l0.453125 1.1649933q0.22894287 -0.8769951 0.7102661 -1.4497986q0.4902954 -0.59303284 1.3786011 -0.9385109q1.1503906 -0.44742203 2.2563477 -0.19017792q1.1148682 0.2370224 1.9910889 1.1536331q0.87054443 0.90205 1.3745728 2.1981049q0.5380249 1.3834343 0.47332764 2.6827393q-0.06463623 1.2993088 -0.7789917 2.2644997q-0.72003174 0.9506302 -1.7685547 1.3584061q-0.75720215 0.29450607 -1.4934692 0.2120018q-0.73620605 -0.08250427 -1.307373 -0.43037415l1.7047119 4.383293l-1.5290527 0.594677zm-1.6918945 -8.445442q0.67401123 1.7329292 1.701477 2.3056984q1.036377 0.55254364 2.0266113 0.16742325q1.0193481 -0.39645004 1.4133301 -1.5388145q0.38830566 -1.1569252 -0.31396484 -2.9626656q-0.6682739 -1.7183685 -1.7160034 -2.3000374q-1.0331421 -0.5873337 -2.0233765 -0.20220947q-0.975708 0.37945938 -1.3761597 1.5914001q-0.39154053 1.1917114 0.28808594 2.9392052z" fill-rule="nonzero"/><path fill="#cfe2f3" d="m1013.87506 83.464035l0 0c-2.2787476 -5.8592606 -8.875916 -8.761833 -14.735168 -6.4830627l-42.435303 16.503769l0 0c-2.8137207 1.0942993 -5.0774536 3.261528 -6.293274 6.02491c-1.2158203 2.7633896 -1.2840576 5.896576 -0.1897583 8.710289l16.503784 42.435272c2.2787476 5.859268 8.875916 8.761841 14.735168 6.483078l42.435303 -16.503784c5.859192 -2.2787628 8.76178 -8.875931 6.4830933 -14.735199z" fill-rule="evenodd"/><path stroke="#000000" stroke-width="1.0" stroke-linejoin="round" stroke-linecap="butt" d="m1013.87506 83.464035l0 0c-2.2787476 -5.8592606 -8.875916 -8.761833 -14.735168 -6.4830627l-42.435303 16.503769l0 0c-2.8137207 1.0942993 -5.0774536 3.261528 -6.293274 6.02491c-1.2158203 2.7633896 -1.2840576 5.896576 -0.1897583 8.710289l16.503784 42.435272c2.2787476 5.859268 8.875916 8.761841 14.735168 6.483078l42.435303 -16.503784c5.859192 -2.2787628 8.76178 -8.875931 6.4830933 -14.735199z" fill-rule="evenodd"/><path fill="#000000" d="m984.24396 103.1173l0.690979 1.776619l-1.6455688 0.63998413l-0.54937744 -1.4125595q-0.44171143 -1.1358643 -0.36328125 -1.7531586q0.10357666 -0.8114624 0.7394409 -1.4611282l0.59625244 0.45546722q-0.39239502 0.37054443 -0.45788574 0.8486862q-0.07116699 0.46357727 0.1885376 1.2175903l0.8009033 -0.31150055zm2.6358032 -1.0251007l0.690979 1.776619l-1.6455688 0.6399765l-0.54937744 -1.4125519q-0.44171143 -1.1358719 -0.36328125 -1.7531662q0.08898926 -0.80579376 0.7248535 -1.4554672l0.61083984 0.44981384q-0.39239502 0.37054443 -0.45788574 0.8486786q-0.07116699 0.46357727 0.1885376 1.2175903l0.8009033 -0.31149292z" fill-rule="nonzero"/><path fill="#000000" d="m993.56055 123.0992l0.69091797 1.776619l-1.6309814 0.6343155l-0.54937744 -1.4125519q-0.44171143 -1.1358719 -0.37780762 -1.7474976q0.103515625 -0.8114624 0.7393799 -1.4611359l0.59625244 0.45547485q-0.39233398 0.37054443 -0.45788574 0.8486862q-0.07116699 0.46357727 0.1885376 1.2175903l0.80096436 -0.31150055z" fill-rule="nonzero"/><path fill="#cfe2f3" d="m1042.215 156.31941l0 0c-2.2788086 -5.859268 -8.875977 -8.761841 -14.7352295 -6.483078l-42.43524 16.503769l0 0c-2.8137207 1.0943146 -5.0775146 3.2615356 -6.293274 6.0249176c-1.2158203 2.7633972 -1.2841187 5.896576 -0.18981934 8.710297l16.503784 42.435272c2.2787476 5.859253 8.875977 8.761826 14.7352295 6.4830627l42.435303 -16.503769c5.859253 -2.2787628 8.761841 -8.875946 6.483032 -14.735199z" fill-rule="evenodd"/><path stroke="#000000" stroke-width="1.0" stroke-linejoin="round" stroke-linecap="butt" d="m1042.215 156.31941l0 0c-2.2788086 -5.859268 -8.875977 -8.761841 -14.7352295 -6.483078l-42.43524 16.503769l0 0c-2.8137207 1.0943146 -5.0775146 3.2615356 -6.293274 6.0249176c-1.2158203 2.7633972 -1.2841187 5.896576 -0.18981934 8.710297l16.503784 42.435272c2.2787476 5.859253 8.875977 8.761826 14.7352295 6.4830627l42.435303 -16.503769c5.859253 -2.2787628 8.761841 -8.875946 6.483032 -14.735199z" fill-rule="evenodd"/><path fill="#000000" d="m1004.6415 202.7842l-4.842346 -12.450882l8.999573 -3.5000916l0.5720215 1.4708099l-7.3394165 2.8544312l1.4838257 3.8153687l6.873474 -2.6732178l0.5663452 1.456253l-6.873474 2.6732025l1.6481323 4.237671l7.6306763 -2.9677124l0.5720215 1.4708099l-9.2908325 3.6133575zm9.457397 -8.288528l1.4926758 -0.73139954q0.47894287 0.88668823 1.1043091 1.3308258q0.6399536 0.43847656 1.6318359 0.48861694q1.0007935 0.029907227 2.0638428 -0.38352966q0.93200684 -0.36247253 1.5524902 -0.92233276q0.62054443 -0.5598602 0.7831421 -1.1763611q0.15692139 -0.6310425 -0.06958008 -1.2135315q-0.2265625 -0.5825043 -0.7459717 -0.88345337q-0.5048218 -0.3066101 -1.3955688 -0.31225586q-0.583313 0.008911133 -2.460266 0.2694702q-1.868042 0.24032593 -2.6940918 0.14245605q-1.0841064 -0.114852905 -1.7871704 -0.6293793q-0.70874023 -0.5290985 -1.0428467 -1.3882751q-0.3624878 -0.93200684 -0.1408081 -1.9570465q0.21594238 -1.0396118 1.071106 -1.8583832q0.86968994 -0.8244171 2.1220093 -1.3114777q1.3834839 -0.53804016 2.607544 -0.49438477q1.2329712 0.0234375 2.140686 0.67630005q0.9020996 0.63830566 1.3705444 1.713501l-1.5274048 0.7281647q-0.58984375 -1.1285858 -1.5646973 -1.4368134q-0.9660034 -0.32844543 -2.3931274 0.22659302q-1.499939 0.5833435 -1.9691772 1.4029083q-0.46917725 0.81954956 -0.16900635 1.5913696q0.26049805 0.6698761 0.91986084 0.8996124q0.6359253 0.25564575 2.8267822 -0.059936523q2.1851807 -0.3301239 3.0581055 -0.28404236q1.284729 0.07035828 2.0946045 0.6439514q0.82440186 0.56791687 1.2151489 1.5727234q0.38513184 0.99024963 0.16271973 2.0994263q-0.22814941 1.094635 -1.0986328 2.003189q-0.87615967 0.89401245 -2.2158813 1.4150543q-1.68927 0.6569824 -3.0322266 0.6092682q-1.3284302 -0.053359985 -2.3688965 -0.78874207q-1.0258789 -0.7410431 -1.5420532 -1.9820862zm20.892212 -8.544464l1.8098145 -0.21766663q0.26293945 2.2280579 -0.6575928 3.8267365q-0.9263916 1.5841064 -2.8776855 2.3430176q-2.0096436 0.78157043 -3.59375 0.45880127q-1.5751953 -0.34298706 -2.845459 -1.6260834q-1.2612305 -1.3033142 -1.9578857 -3.0944977q-0.7532959 -1.9367981 -0.57128906 -3.667328q0.1763916 -1.7450867 1.2563477 -3.0201416q1.0889893 -1.2952881 2.734497 -1.9352722q1.8640137 -0.7249298 3.4991455 -0.2711029q1.6495361 0.4481659 2.8186035 1.9885254l-1.4691162 1.0072784q-0.96362305 -1.1844025 -2.0314941 -1.4731903q-1.059082 -0.30903625 -2.296875 0.17237854q-1.4416504 0.5606842 -2.1365967 1.618927q-0.6949463 1.0582275 -0.63500977 2.3761292q0.05419922 1.30336 0.53564453 2.5411682q0.6173096 1.5872955 1.5419922 2.585617q0.9248047 0.99832153 2.1326904 1.2159271q1.2022705 0.20303345 2.3381348 -0.23872375q1.3834229 -0.53804016 2.032959 -1.7127686q0.6496582 -1.1747284 0.3729248 -2.8777313z" fill-rule="nonzero"/><path fill="#cfe2f3" d="m911.6427 39.351994l0 0c-2.2788086 -5.8592644 -8.875977 -8.761835 -14.7352295 -6.4830704l-42.43524 16.503773l0 0c-2.8137207 1.0942993 -5.0775146 3.2615242 -6.293335 6.024914c-1.2158203 2.7633858 -1.2840576 5.8965683 -0.1897583 8.710285l16.503784 42.435272c2.2787476 5.859268 8.875916 8.761833 14.735168 6.4830704l42.435303 -16.503769c5.859253 -2.2787628 8.761841 -8.875938 6.483032 -14.735207z" fill-rule="evenodd"/><path stroke="#000000" stroke-width="1.0" stroke-linejoin="round" stroke-linecap="butt" d="m911.6427 39.351994l0 0c-2.2788086 -5.8592644 -8.875977 -8.761835 -14.7352295 -6.4830704l-42.43524 16.503773l0 0c-2.8137207 1.0942993 -5.0775146 3.2615242 -6.293335 6.024914c-1.2158203 2.7633858 -1.2840576 5.8965683 -0.1897583 8.710285l16.503784 42.435272c2.2787476 5.859268 8.875916 8.761833 14.735168 6.4830704l42.435303 -16.503769c5.859253 -2.2787628 8.761841 -8.875938 6.483032 -14.735207z" fill-rule="evenodd"/><path fill="#000000" d="m886.1171 81.13114l-4.842346 -12.450882l4.7036743 -1.8293381q1.237793 -0.48139954 1.9384155 -0.6197586q0.9651489 -0.19095612 1.7612915 0.002380371q0.7904053 0.1787796 1.4691772 0.8033371q0.678833 0.6245575 1.0412598 1.5565491q0.6173706 1.5873108 0.028381348 3.0904999q-0.5800171 1.4829712 -3.2303467 2.5137405l-3.189209 1.2403259l1.965271 5.0531616l-1.6455688 0.63998413zm-0.89172363 -7.1639557l3.2183228 -1.251648q1.6018677 -0.62299347 2.0394897 -1.4805756q0.4376831 -0.8575821 0.018615723 -1.9352036q-0.30584717 -0.78637695 -0.9142456 -1.1868286q-0.60839844 -0.4004593 -1.331665 -0.32034302q-0.45306396 0.04207611 -1.5744019 0.4781723l-3.189148 1.2403183l1.7330322 4.456108z" fill-rule="nonzero"/><path fill="#cfe2f3" d="m939.98254 112.20736l0 0c-2.2787476 -5.8592606 -8.875916 -8.761833 -14.735168 -6.4830704l-42.435303 16.503777l0 0c-2.8137207 1.0942993 -5.0774536 3.261528 -6.293274 6.02491c-1.2158203 2.763382 -1.2840576 5.896576 -0.1897583 8.710297l16.503723 42.435272c2.2788086 5.859253 8.875977 8.761826 14.7352295 6.4830627l42.43524 -16.503769c5.859314 -2.2787628 8.761841 -8.875946 6.4830933 -14.735199z" fill-rule="evenodd"/><path stroke="#000000" stroke-width="1.0" stroke-linejoin="round" stroke-linecap="butt" d="m939.98254 112.20736l0 0c-2.2787476 -5.8592606 -8.875916 -8.761833 -14.735168 -6.4830704l-42.435303 16.503777l0 0c-2.8137207 1.0942993 -5.0774536 3.261528 -6.293274 6.02491c-1.2158203 2.763382 -1.2840576 5.896576 -0.1897583 8.710297l16.503723 42.435272c2.2788086 5.859253 8.875977 8.761826 14.7352295 6.4830627l42.43524 -16.503769c5.859314 -2.2787628 8.761841 -8.875946 6.4830933 -14.735199z" fill-rule="evenodd"/><path fill="#000000" d="m911.25433 135.0469l-0.6739502 -1.7329254l1.7329102 -0.67396545l0.67401123 1.7329407l-1.7329712 0.6739502zm2.831787 7.2812195l-0.67962646 -1.7474823l1.7329712 -0.67396545l0.67962646 1.7474823l-1.7329712 0.67396545z" fill-rule="nonzero"/><path fill="#000000" d="m919.1995 155.56215l-0.6739502 -1.7329254l1.7474976 -0.67962646l0.6739502 1.7329254l-1.7474976 0.67962646zm2.831787 7.2812195l-0.67962646 -1.7474823l1.7474976 -0.6796417l0.67962646 1.7474976q0.3737793 0.9611206 0.2508545 1.6795502q-0.10272217 0.7273102 -0.7208252 1.3365326l-0.67718506 -0.4910736q0.40130615 -0.39076233 0.47003174 -0.9036865q0.074401855 -0.4983673 -0.19659424 -1.2815094l-0.8737793 0.33981323z" fill-rule="nonzero"/><path fill="#cfe2f3" d="m968.32245 185.06273l0 0c-2.2787476 -5.859268 -8.875977 -8.761826 -14.7352295 -6.4830627l-42.43524 16.503769l0 0c-2.8137207 1.0942993 -5.0775146 3.2615204 -6.293335 6.0249176c-1.2157593 2.763382 -1.2840576 5.8965607 -0.1897583 8.710281l16.503784 42.435272c2.2787476 5.859253 8.875916 8.761841 14.7352295 6.4830627l42.43524 -16.503769c5.859253 -2.2787628 8.761841 -8.875931 6.4830933 -14.735199z" fill-rule="evenodd"/><path stroke="#000000" stroke-width="1.0" stroke-linejoin="round" stroke-linecap="butt" d="m968.32245 185.06273l0 0c-2.2787476 -5.859268 -8.875977 -8.761826 -14.7352295 -6.4830627l-42.43524 16.503769l0 0c-2.8137207 1.0942993 -5.0775146 3.2615204 -6.293335 6.0249176c-1.2157593 2.763382 -1.2840576 5.8965607 -0.1897583 8.710281l16.503784 42.435272c2.2787476 5.859253 8.875916 8.761841 14.7352295 6.4830627l42.43524 -16.503769c5.859253 -2.2787628 8.761841 -8.875931 6.4830933 -14.735199z" fill-rule="evenodd"/><path fill="#000000" d="m941.24896 212.12062q-0.11895752 -0.30581665 -0.18127441 -0.46600342q-0.35113525 -0.9028778 -0.35839844 -1.6544647q0.002380371 -0.55418396 0.21191406 -1.2224426q0.1642456 -0.4830017 0.67871094 -1.4878235q0.52911377 -1.010498 0.6035156 -1.5088654q0.08331299 -0.5185852 -0.10925293 -1.0137177q-0.34545898 -0.88830566 -1.3049927 -1.2863312q-0.95062256 -0.4182434 -1.9699707 -0.02178955q-0.975708 0.37945557 -1.3931274 1.2459412q-0.41741943 0.8664856 -0.117248535 2.2418213l-1.6463623 0.42236328q-0.4555664 -1.8178864 0.23614502 -3.143097q0.68603516 -1.3397675 2.404419 -2.008072q1.8348389 -0.7136078 3.2976074 -0.14247131q1.4772949 0.56547546 2.0266724 1.9780273q0.31713867 0.815506 0.20471191 1.6471863q-0.11242676 0.83169556 -0.8486328 2.2580261q-0.48779297 0.94415283 -0.5961914 1.3551483q-0.10839844 0.41099548 -0.066345215 0.8640442q0.056640625 0.44740295 0.39886475 1.3704987l-1.4707642 0.5720215zm1.1019287 3.0920868l-0.67962646 -1.7474976l1.7329712 -0.67396545l0.67962646 1.7474976l-1.7329712 0.67396545z" fill-rule="nonzero"/><path fill="#000000" d="m948.91254 236.51752l-1.3951416 -14.277756l1.2232666 -0.47573853l1.409668 14.272095l-1.237793 0.48139954z" fill-rule="nonzero"/><path fill="#cfe2f3" d="m808.0729 309.237l0 0c-2.2788086 -5.8592834 -8.875977 -8.761841 -14.7352295 -6.4830627l-42.43524 16.503754l0 0c-2.8137207 1.0942993 -5.0775146 3.2615356 -6.293335 6.024933c-1.2158203 2.7633667 -1.2840576 5.8965454 -0.1897583 8.710266l16.503784 42.435272c2.2787476 5.8592834 8.875916 8.761841 14.735168 6.4830933l42.435303 -16.503784c5.859253 -2.278778 8.761841 -8.875946 6.4830933 -14.735199z" fill-rule="evenodd"/><path stroke="#000000" stroke-width="1.0" stroke-linejoin="round" stroke-linecap="butt" d="m808.0729 309.237l0 0c-2.2788086 -5.8592834 -8.875977 -8.761841 -14.7352295 -6.4830627l-42.43524 16.503754l0 0c-2.8137207 1.0942993 -5.0775146 3.2615356 -6.293335 6.024933c-1.2158203 2.7633667 -1.2840576 5.8965454 -0.1897583 8.710266l16.503784 42.435272c2.2787476 5.8592834 8.875916 8.761841 14.735168 6.4830933l42.435303 -16.503784c5.859253 -2.278778 8.761841 -8.875946 6.4830933 -14.735199z" fill-rule="evenodd"/><path fill="#000000" d="m771.67847 355.24323l-0.06585693 -14.308563l1.7766113 -0.6909485l9.939209 10.468628l-1.87854 0.73062134l-2.9085693 -3.2109985l-5.213318 2.0275574l0.097961426 4.3040466l-1.7474976 0.679657zm1.6090088 -6.5103455l4.2231445 -1.6424255l-2.652893 -2.9415588q-1.1941528 -1.3462219 -1.8762207 -2.2377625q0.21685791 1.2904053 0.2532959 2.6342163l0.05267334 4.1875305zm11.284424 1.4958801l-4.842346 -12.450897l1.6600952 -0.6456299l4.2703247 10.980072l6.116272 -2.3786926l0.5720215 1.4707947l-7.776367 3.024353zm11.626343 -4.521698l-4.2703247 -10.980072l-4.1066284 1.5971375l-0.5720215 -1.4707947l9.858765 -3.834259l0.5720215 1.4708252l-4.1065674 1.5971069l4.2703247 10.980072l-1.6455688 0.63998413z" fill-rule="nonzero"/><path fill="#cfe2f3" d="m722.8459 352.2271l0 0c-3.4935303 -5.227234 -10.56311 -6.6326904 -15.790344 -3.1391602l-37.85791 25.301575l0 0c-2.5101929 1.6776428 -4.2511597 4.283783 -4.8398438 7.2450256c-0.5886841 2.9612732 0.023071289 6.0351257 1.7006836 8.545319l25.301575 37.85788c3.4935303 5.2272644 10.56311 6.632721 15.790344 3.1391907l37.85791 -25.301605c5.227234 -3.4934998 6.6326904 -10.56308 3.1391602 -15.790344z" fill-rule="evenodd"/><path stroke="#000000" stroke-width="1.0" stroke-linejoin="round" stroke-linecap="butt" d="m722.8459 352.2271l0 0c-3.4935303 -5.227234 -10.56311 -6.6326904 -15.790344 -3.1391602l-37.85791 25.301575l0 0c-2.5101929 1.6776428 -4.2511597 4.283783 -4.8398438 7.2450256c-0.5886841 2.9612732 0.023071289 6.0351257 1.7006836 8.545319l25.301575 37.85788c3.4935303 5.2272644 10.56311 6.632721 15.790344 3.1391907l37.85791 -25.301605c5.227234 -3.4934998 6.6326904 -10.56308 3.1391602 -15.790344z" fill-rule="evenodd"/><path fill="#000000" d="m696.58875 401.6578l-4.2368774 -6.339508l2.8059692 -1.8753357q0.8444214 -0.5643616 1.3989868 -0.6906738q0.5545654 -0.12631226 1.1095581 0.14175415q0.5593262 0.24636841 0.9066162 0.7659912q0.45147705 0.6755371 0.32232666 1.438385q-0.124816895 0.7411804 -0.96032715 1.4875183q0.44189453 -0.06982422 0.7149658 -0.026824951q0.602478 0.085998535 1.2658691 0.37557983l2.2589111 0.9898071l-1.0522461 0.7032471l-1.7299805 -0.7607422q-0.74572754 -0.3284912 -1.1922607 -0.4623108q-0.4335327 -0.14251709 -0.70654297 -0.12918091q-0.26867676 -0.008361816 -0.489563 0.08288574q-0.16894531 0.056549072 -0.49371338 0.2735901l-0.9743042 0.65115356l1.8840332 2.8190002l-0.8314209 0.55566406zm-1.5388184 -4.1021423l1.8057251 -1.2068176q0.57159424 -0.38201904 0.8182373 -0.7159729q0.24658203 -0.33398438 0.24182129 -0.70666504q-0.004760742 -0.37268066 -0.21313477 -0.68447876q-0.303833 -0.45465088 -0.8196411 -0.523407q-0.5157471 -0.0687561 -1.2172852 0.40008545l-2.0135498 1.3457336l1.3978271 2.0915222zm7.222534 0.30355835l-1.8076172 -7.9630737l0.9093628 -0.60775757l6.835022 4.6030884l-0.9613037 0.64245605l-2.0254517 -1.4277344l-2.6500854 1.7711487l0.59643555 2.382782l-0.8963623 0.5990906zm0.09527588 -3.8223572l2.1434326 -1.4325562l-1.8432617 -1.3239441q-0.8284302 -0.59277344 -1.3186035 -1.0168762q0.2781372 0.6973877 0.45666504 1.4425354l0.5617676 2.330841zm6.6584473 -0.69140625l-4.2368774 -6.339508l0.8314209 -0.55566406l4.2368774 6.339508l-0.8314209 0.55566406zm0.66973877 -3.3981628l0.74902344 -0.59454346q0.364563 0.43292236 0.7807617 0.60580444q0.40753174 0.15985107 0.9664917 0.06820679q0.55023193 -0.104644775 1.0958252 -0.4692688q0.48065186 -0.32125854 0.74890137 -0.7072449q0.2682495 -0.38601685 0.28515625 -0.75439453q0.016906738 -0.36834717 -0.1828003 -0.6671448q-0.199646 -0.2987976 -0.52911377 -0.3981018q-0.3164673 -0.10797119 -0.8016968 0.009613037q-0.32928467 0.06970215 -1.338623 0.443573q-1.0092773 0.37384033 -1.4902344 0.4133911q-0.6109619 0.07003784 -1.0792236 -0.124420166q-0.45526123 -0.20315552 -0.7504883 -0.64486694q-0.32122803 -0.48065186 -0.3262329 -1.0786743q-0.005004883 -0.59802246 0.3670044 -1.1661682q0.38500977 -0.57681274 1.0216064 -1.0022278q0.70147705 -0.46884155 1.3903809 -0.5909729q0.6932373 -0.14379883 1.274231 0.10687256q0.5939331 0.2420044 0.99328613 0.78323364l-0.7620239 0.60324097q-0.46435547 -0.5541687 -1.0494385 -0.61416626q-0.58514404 -0.05996704 -1.3126221 0.4262085q-0.76641846 0.51226807 -0.9262085 1.0324707q-0.15539551 0.49853516 0.113708496 0.9012451q0.22576904 0.33776855 0.6201782 0.39364624q0.38146973 0.064575195 1.5639648 -0.3874817q1.1825562 -0.45205688 1.6721802 -0.5349426q0.73223877 -0.11352539 1.2525024 0.10253906q0.5203247 0.21609497 0.8588867 0.7227478q0.33862305 0.5066223 0.35668945 1.1523132q0.009399414 0.6326904 -0.37121582 1.2441711q-0.38067627 0.6114807 -1.0562134 1.0629578q-0.8703613 0.58169556 -1.6199341 0.7255554q-0.73651123 0.13519287 -1.4129028 -0.14572144q-0.6633911 -0.2895813 -1.1018066 -0.91744995zm7.571289 -2.1095276l-4.2369385 -6.339508l4.5857544 -3.0648193l0.49493408 0.7404785l-3.741394 2.5004578l1.3023682 1.9486389l3.5075073 -2.3441772l0.49487305 0.740448l-3.5075073 2.3442078l1.4412231 2.1564636l3.8842163 -2.5959778l0.5036011 0.753479l-4.7286377 3.1603088z" fill-rule="nonzero"/><path fill="#cfe2f3" d="m629.7587 405.4429l0 0c-5.322876 -3.3456726 -12.350159 -1.7427979 -15.695801 3.5801086l-24.230774 38.55078l0 0c-1.6066284 2.5561829 -2.132019 5.645874 -1.4606323 8.5894165c0.6713867 2.9435425 2.4846191 5.499817 5.0407715 7.1064453l38.55078 24.230743c5.322937 3.345642 12.35022 1.7427673 15.695862 -3.5801392l24.230713 -38.55078c3.3457031 -5.322937 1.7427979 -12.350189 -3.5800781 -15.695862z" fill-rule="evenodd"/><path stroke="#000000" stroke-width="1.0" stroke-linejoin="round" stroke-linecap="butt" d="m629.7587 405.4429l0 0c-5.322876 -3.3456726 -12.350159 -1.7427979 -15.695801 3.5801086l-24.230774 38.55078l0 0c-1.6066284 2.5561829 -2.132019 5.645874 -1.4606323 8.5894165c0.6713867 2.9435425 2.4846191 5.499817 5.0407715 7.1064453l38.55078 24.230743c5.322937 3.345642 12.35022 1.7427673 15.695862 -3.5801392l24.230713 -38.55078c3.3457031 -5.322937 1.7427979 -12.350189 -3.5800781 -15.695862z" fill-rule="evenodd"/><path fill="#000000" d="m625.77106 466.10757l-10.503723 -6.6020203l4.772766 -7.593384l1.2434692 0.7815857l-3.8996582 6.2043457l3.2145996 2.0205383l3.6502686 -5.807495l1.2302856 0.7732849l-3.6502686 5.807495l3.5718384 2.244995l4.0493164 -6.442444l1.2435303 0.7815857l-4.9224243 7.8315125zm6.025757 -9.586914l-7.6066284 -4.7810364l0.7317505 -1.164154l1.0847778 0.68182373q-0.73291016 -1.623352 0.26483154 -3.2108154q0.43237305 -0.6878967 1.0412598 -1.0987549q0.6040039 -0.43240356 1.1887207 -0.4524536q0.57977295 -0.04156494 1.2102051 0.18859863q0.3988037 0.15835571 1.2850952 0.7154541l4.6830444 2.943451l-0.80651855 1.2832031l-4.630127 -2.9102173q-0.7805176 -0.49057007 -1.263916 -0.572937q-0.4883423 -0.10394287 -0.96759033 0.1300354q-0.47924805 0.23397827 -0.80352783 0.7498779q-0.5155029 0.8201904 -0.36053467 1.7481079q0.14172363 0.91955566 1.6101685 1.8425293l4.1538696 2.6108704l-0.8148804 1.2964172zm5.748535 -11.700348l1.2540894 0.5298767q-0.22180176 0.617218 -0.49621582 1.053772q-0.44067383 0.70111084 -0.9067383 0.9433899q-0.46600342 0.24230957 -0.92297363 0.17654419q-0.4701538 -0.07406616 -1.6210938 -0.79745483l-4.378723 -2.7522278l-0.59869385 0.9524536l-1.0053711 -0.6319275l0.5986328 -0.9524536l-1.878479 -1.1807251l0.026062012 -1.7737732l2.6589966 1.6712952l0.81481934 -1.2964478l1.0054321 0.6319275l-0.8148804 1.2964478l4.4448853 2.7937927q0.55566406 0.34921265 0.75598145 0.38287354q0.20031738 0.03363037 0.38433838 -0.05368042q0.19238281 -0.10055542 0.37530518 -0.39160156q0.13305664 -0.2116394 0.30462646 -0.6020813zm2.7705688 -7.2853394l0.9902344 -1.223114q0.986084 1.0443115 1.0938721 2.311615q0.1027832 1.245758 -0.72869873 2.568634q-1.0559692 1.6800842 -2.6898804 2.0187683q-1.638855 0.31713867 -3.5041504 -0.8552551q-1.9181519 -1.205658 -2.361145 -2.8497925q-0.43475342 -1.6573486 0.55474854 -3.2315674q0.9645386 -1.5345764 2.6165771 -1.8433838q1.638855 -0.3171692 3.517334 0.8635559q0.11907959 0.0748291 0.33563232 0.22940063l-3.5670776 5.6752014q1.3066406 0.7105408 2.3804321 0.49960327q1.0605469 -0.21923828 1.6592407 -1.1717224q0.4489746 -0.71435547 0.39453125 -1.4498596q-0.05444336 -0.73550415 -0.6916504 -1.5420837zm-4.7509766 2.9194946l2.6691284 -4.24646q-1.0107422 -0.506073 -1.7496338 -0.41687012q-1.1315918 0.15612793 -1.7468872 1.1350708q-0.5571289 0.886322 -0.34429932 1.8690491q0.22113037 0.9694519 1.1716919 1.6592102zm9.042297 -4.315033l-7.6065674 -4.781067l0.73168945 -1.164154l1.1508789 0.7233887q-0.53253174 -0.9437561 -0.5510864 -1.4721375q-0.0234375 -0.54992676 0.25927734 -0.99972534q0.41571045 -0.661438 1.2415771 -1.0651245l0.92944336 1.1932068q-0.57714844 0.30163574 -0.87646484 0.77786255q-0.26611328 0.42333984 -0.22259521 0.91204834q0.04345703 0.4887085 0.40179443 0.91693115q0.5465088 0.6572571 1.3666992 1.1727905l3.9819336 2.502777l-0.8065796 1.2832031z" fill-rule="nonzero"/><path fill="#000000" fill-opacity="0.0" d="m387.52493 23.19685l287.46457 0l0 51.716534l-287.46457 0z" fill-rule="evenodd"/><path fill="#cfe2f3" d="m452.71902 55.749973q1.765625 1.21875 3.25 1.78125l-0.75 1.75q-2.0625 -0.75 -4.09375 -2.34375q-2.125 1.1875 -4.6875 1.1875q-2.59375 0 -4.703125 -1.25q-2.109375 -1.25 -3.25 -3.515625q-1.140625 -2.265625 -1.140625 -5.109375q0 -2.8125 1.140625 -5.125q1.15625 -2.328125 3.265625 -3.53125q2.125 -1.21875 4.734375 -1.21875q2.640625 0 4.765625 1.265625q2.125 1.25 3.234375 3.515625q1.109375 2.25 1.109375 5.09375q0 2.34375 -0.71875 4.234375q-0.703125 1.875 -2.15625 3.265625zm-5.5625 -3.21875q2.1875 0.609375 3.609375 1.8125q2.234375 -2.03125 2.234375 -6.09375q0 -2.328125 -0.796875 -4.046875q-0.78125 -1.734375 -2.296875 -2.6875q-1.515625 -0.96875 -3.40625 -0.96875q-2.828125 0 -4.6875 1.9375q-1.859375 1.9375 -1.859375 5.765625q0 3.734375 1.84375 5.734375q1.84375 1.984375 4.703125 1.984375q1.359375 0 2.546875 -0.515625q-1.1875 -0.765625 -2.5 -1.09375l0.609375 -1.828125zm15.1716 5.265625l-5.0625 -19.078125l2.59375 0l2.890625 12.5q0.46875 1.96875 0.8125 3.90625q0.734375 -3.0625 0.859375 -3.53125l3.625 -12.875l3.046875 0l2.734375 9.65625q1.03125 3.59375 1.484375 6.75q0.375 -1.8125 0.953125 -4.140625l3.0 -12.265625l2.53125 0l-5.234375 19.078125l-2.4375 0l-4.015625 -14.53125q-0.5 -1.828125 -0.59375 -2.25q-0.296875 1.3125 -0.5625 2.25l-4.046875 14.53125l-2.578125 0zm21.878174 0l0 -19.078125l13.796875 0l0 2.25l-11.265625 0l0 5.84375l10.546875 0l0 2.234375l-10.546875 0l0 6.5l11.703125 0l0 2.25l-14.234375 0zm17.763885 0l0 -19.078125l8.46875 0q2.5469055 0 3.8750305 0.515625q1.328125 0.515625 2.109375 1.8125q0.796875 1.296875 0.796875 2.875q0 2.03125 -1.3125 3.421875q-1.3125 1.390625 -4.0625305 1.765625q1.0156555 0.484375 1.5312805 0.953125q1.109375 1.015625 2.09375 2.546875l3.3125 5.1875l-3.171875 0l-2.515625 -3.96875q-1.1094055 -1.71875 -1.8281555 -2.625q-0.71875 -0.921875 -1.28125 -1.28125q-0.5625 -0.359375 -1.15625 -0.5q-0.421875 -0.09375 -1.40625 -0.09375l-2.921875 0l0 8.46875l-2.53125 0zm2.53125 -10.65625l5.421875 0q1.734375 0 2.7031555 -0.359375q0.984375 -0.359375 1.484375 -1.140625q0.515625 -0.796875 0.515625 -1.71875q0 -1.359375 -0.984375 -2.21875q-0.984375 -0.875 -3.1094055 -0.875l-6.03125 0l0 6.3125zm21.049774 10.65625l0 -16.828125l-6.28125 0l0 -2.25l15.125 0l0 2.25l-6.3125 0l0 16.828125l-2.53125 0zm16.813965 0l0 -8.078125l-7.359375 -11.0l3.078125 0l3.75 5.75q1.046875 1.609375 1.9375 3.234375q0.859375 -1.5 2.09375 -3.375l3.6875 -5.609375l2.953125 0l-7.625 11.0l0 8.078125l-2.515625 0zm19.2193 0l0 -19.078125l2.53125 0l0 16.828125l9.390625 0l0 2.25l-11.921875 0zm23.653076 -1.703125q-1.3125 1.109375 -2.515625 1.5625q-1.203125 0.453125 -2.578125 0.453125q-2.28125 0 -3.5 -1.109375q-1.21875 -1.109375 -1.21875 -2.84375q0 -1.015625 0.453125 -1.859375q0.46875 -0.84375 1.21875 -1.34375q0.75 -0.515625 1.6875 -0.765625q0.6875 -0.1875 2.078125 -0.359375q2.828125 -0.328125 4.171875 -0.796875q0.015625 -0.484375 0.015625 -0.625q0 -1.421875 -0.65625 -2.015625q-0.90625 -0.796875 -2.671875 -0.796875q-1.65625 0 -2.453125 0.59375q-0.78125 0.578125 -1.15625 2.046875l-2.296875 -0.3125q0.3125 -1.46875 1.03125 -2.375q0.71875 -0.90625 2.0625 -1.390625q1.359375 -0.5 3.140625 -0.5q1.78125 0 2.875 0.421875q1.109375 0.421875 1.625 1.046875q0.53125 0.625 0.734375 1.59375q0.125 0.59375 0.125 2.15625l0 3.125q0 3.265625 0.140625 4.140625q0.15625 0.859375 0.59375 1.65625l-2.4375 0q-0.375 -0.734375 -0.46875 -1.703125zm-0.203125 -5.234375q-1.265625 0.515625 -3.828125 0.890625q-1.4375 0.203125 -2.046875 0.46875q-0.59375 0.25 -0.921875 0.75q-0.3125 0.5 -0.3125 1.125q0 0.9375 0.703125 1.5625q0.703125 0.625 2.078125 0.625q1.34375 0 2.390625 -0.59375q1.0625 -0.59375 1.5625 -1.625q0.375 -0.796875 0.375 -2.34375l0 -0.859375zm5.903076 12.265625l-0.265625 -2.203125q0.765625 0.203125 1.34375 0.203125q0.78125 0 1.25 -0.265625q0.46875 -0.25 0.765625 -0.71875q0.21875 -0.359375 0.71875 -1.75q0.0625 -0.1875 0.203125 -0.5625l-5.25 -13.859375l2.53125 0l2.875 8.015625q0.5625 1.515625 1.0 3.203125q0.40625 -1.625 0.96875 -3.15625l2.953125 -8.0625l2.34375 0l-5.265625 14.0625q-0.84375 2.28125 -1.3125 3.140625q-0.625 1.15625 -1.4375 1.6875q-0.796875 0.546875 -1.921875 0.546875q-0.671875 0 -1.5 -0.28125zm22.890625 -9.78125l2.421875 0.296875q-0.578125 2.125 -2.125 3.296875q-1.546875 1.171875 -3.953125 1.171875q-3.03125 0 -4.8125 -1.859375q-1.78125 -1.875 -1.78125 -5.25q0 -3.484375 1.796875 -5.40625q1.796875 -1.9375 4.671875 -1.9375q2.765625 0 4.515625 1.890625q1.765625 1.890625 1.765625 5.3125q0 0.203125 -0.015625 0.625l-10.3125 0q0.140625 2.28125 1.296875 3.5q1.15625 1.203125 2.890625 1.203125q1.28125 0 2.1875 -0.671875q0.921875 -0.6875 1.453125 -2.171875zm-7.6875 -3.78125l7.71875 0q-0.15625 -1.75 -0.890625 -2.625q-1.125 -1.34375 -2.90625 -1.34375q-1.609375 0 -2.71875 1.078125q-1.09375 1.078125 -1.203125 2.890625zm13.028076 8.234375l0 -13.828125l2.109375 0l0 2.09375q0.796875 -1.46875 1.484375 -1.9375q0.6875 -0.46875 1.5 -0.46875q1.1875 0 2.40625 0.765625l-0.796875 2.171875q-0.859375 -0.515625 -1.71875 -0.515625q-0.765625 0 -1.390625 0.46875q-0.609375 0.453125 -0.859375 1.28125q-0.390625 1.25 -0.390625 2.734375l0 7.234375l-2.34375 0z" fill-rule="nonzero"/></g></svg>